ply
format ascii 1.0
comment Created by Blender 3.4.1 - www.blender.org
element vertex 126
property float x
property float y
property float z
property float nx
property float ny
property float nz
property uchar red
property uchar green
property uchar blue
property uchar alpha
element face 42
property list uchar uint vertex_indices
end_header
388.330627 -453.354980 -136.432953 -0.544303 0.654769 0.524415 77 77 62 255
427.885620 -453.355621 -95.377045 -0.544303 0.654769 0.524415 77 77 62 255
417.348419 -406.676880 -164.595581 -0.544303 0.654769 0.524415 77 77 62 255
474.036865 -370.448120 -163.168396 -0.282400 0.790270 0.543804 77 77 62 255
500.000000 -382.534576 -132.121231 -0.282400 0.790270 0.543804 77 77 62 255
500.000000 -362.523041 -161.202530 -0.282400 0.790270 0.543804 77 77 62 255
500.000000 -441.060608 -39.559528 -0.472858 0.436649 0.765339 77 77 62 255
493.824066 -477.911224 -22.350889 -0.472858 0.436649 0.765339 77 77 62 255
500.000000 -469.278534 -23.460354 -0.472858 0.436649 0.765339 77 77 62 255
493.824371 -441.060608 -43.375072 -0.472856 0.436649 0.765340 77 77 62 255
493.824066 -477.911224 -22.350889 -0.472856 0.436649 0.765339 77 77 62 255
500.000000 -441.060608 -39.559528 -0.472856 0.436649 0.765339 77 77 62 255
417.348419 -406.676880 -164.595581 -0.574693 0.635278 0.515897 77 77 62 255
427.885620 -453.355621 -95.377045 -0.574693 0.635278 0.515897 77 77 62 255
467.440918 -453.356873 -51.312141 -0.574693 0.635278 0.515897 77 77 62 255
493.824066 -477.911224 -22.350889 -0.136190 0.198584 0.970575 77 77 62 255
500.000000 -485.967926 -19.835854 -0.136190 0.198584 0.970575 77 77 62 255
500.000000 -475.036255 -22.072517 -0.136190 0.198584 0.970575 77 77 62 255
500.000000 -475.036255 -22.072517 -0.151145 0.231636 0.960989 77 77 62 255
500.000000 -469.278534 -23.460354 -0.151145 0.231636 0.960989 77 77 62 255
493.824066 -477.911224 -22.350889 -0.151145 0.231636 0.960989 77 77 62 255
500.000000 -403.454742 -110.806976 -0.164893 0.900713 0.401902 77 77 62 255
500.000000 -398.644440 -121.587463 -0.164893 0.900713 0.401902 77 77 62 255
493.824371 -391.932495 -139.163513 -0.164893 0.900713 0.401902 77 77 62 255
441.077484 -367.378754 -168.631088 -0.066473 0.643443 0.762602 77 77 62 255
467.440918 -404.229980 -135.240005 -0.066473 0.643443 0.762602 77 77 62 255
474.036865 -370.448120 -163.168396 -0.066473 0.643443 0.762602 77 77 62 255
427.885620 -453.355621 -95.377045 -0.757544 0.076819 0.648249 77 77 62 255
398.858032 -500.000000 -123.771263 -0.757544 0.076819 0.648249 77 77 62 255
402.854706 -500.000000 -119.100746 -0.757544 0.076819 0.648248 77 77 62 255
375.158752 -477.911224 -154.083557 -0.757542 0.076816 0.648251 77 77 62 255
398.858032 -500.000000 -123.771263 -0.757542 0.076816 0.648251 77 77 62 255
427.885620 -453.355621 -95.377045 -0.757542 0.076816 0.648251 77 77 62 255
493.824066 -477.911224 -22.350889 -0.441646 0.444602 0.779280 77 77 62 255
493.824371 -441.060608 -43.375072 -0.441646 0.444602 0.779280 77 77 62 255
467.440918 -453.356873 -51.312141 -0.441646 0.444602 0.779280 77 77 62 255
467.440918 -404.229980 -135.240005 -0.607926 0.573051 0.549580 77 77 62 255
500.000000 -406.730865 -96.616638 -0.607926 0.573051 0.549580 77 77 62 255
474.036865 -370.448120 -163.168396 -0.607926 0.573051 0.549580 77 77 62 255
500.000000 -414.335999 -88.686691 -0.607925 0.573052 0.549580 77 77 62 255
500.000000 -406.730865 -96.616638 -0.607925 0.573052 0.549580 77 77 62 255
467.440918 -404.229980 -135.240005 -0.607925 0.573052 0.549580 77 77 62 255
427.885620 -453.355621 -95.377045 -0.726361 0.217383 0.652031 77 77 62 255
480.632477 -490.206238 -24.331444 -0.726361 0.217383 0.652031 77 77 62 255
467.440918 -453.356873 -51.312141 -0.726361 0.217383 0.652031 77 77 62 255
417.523041 -500.000000 -100.940201 -0.774236 0.097421 0.625353 77 77 62 255
427.885620 -453.355621 -95.377045 -0.774237 0.097421 0.625354 77 77 62 255
402.854706 -500.000000 -119.100746 -0.774237 0.097421 0.625353 77 77 62 255
480.632477 -490.206238 -24.331444 -0.774237 0.097421 0.625353 77 77 62 255
427.885620 -453.355621 -95.377045 -0.774237 0.097421 0.625353 77 77 62 255
417.523041 -500.000000 -100.940201 -0.774237 0.097421 0.625353 77 77 62 255
375.158752 -500.000000 -133.998764 -0.304166 0.640872 0.704816 77 77 62 255
398.858032 -500.000000 -123.771263 -0.304166 0.640872 0.704816 77 77 62 255
375.158752 -477.911224 -154.083557 -0.304166 0.640872 0.704816 77 77 62 255
467.440918 -404.229980 -135.240005 -0.482642 0.372812 0.792507 77 77 62 255
441.077484 -367.378754 -168.631088 -0.482642 0.372812 0.792507 77 77 62 255
417.348419 -406.676880 -164.595581 -0.482642 0.372812 0.792507 77 77 62 255
493.824371 -391.932495 -139.163513 -0.543234 0.702828 0.459270 77 77 62 255
500.000000 -398.644440 -121.587463 -0.543234 0.702828 0.459270 77 77 62 255
500.000000 -391.932495 -131.858856 -0.543234 0.702828 0.459270 77 77 62 255
493.824371 -391.932495 -139.163513 -0.763532 0.018022 0.645518 77 77 62 255
500.000000 -382.534576 -132.121231 -0.763532 0.018022 0.645518 77 77 62 255
474.036865 -370.448120 -163.168396 -0.763532 0.018022 0.645518 77 77 62 255
500.000000 -391.932495 -131.858856 -0.763532 0.018022 0.645518 77 77 62 255
500.000000 -382.534576 -132.121231 -0.763532 0.018022 0.645518 77 77 62 255
493.824371 -391.932495 -139.163513 -0.763532 0.018022 0.645518 77 77 62 255
417.348419 -406.676880 -164.595581 -0.383775 0.781590 0.491765 77 77 62 255
467.440918 -453.356873 -51.312141 -0.383775 0.781590 0.491765 77 77 62 255
454.269043 -416.507477 -120.158302 -0.383775 0.781590 0.491765 77 77 62 255
500.000000 -416.507477 -84.186768 -0.386694 0.780251 0.491606 77 77 62 255
467.440918 -453.356873 -51.312141 -0.386694 0.780251 0.491606 77 77 62 255
500.000000 -423.024872 -73.842705 -0.386694 0.780251 0.491606 77 77 62 255
454.269043 -416.507477 -120.158302 -0.386693 0.780251 0.491607 77 77 62 255
467.440918 -453.356873 -51.312141 -0.386693 0.780251 0.491607 77 77 62 255
500.000000 -416.507477 -84.186768 -0.386693 0.780251 0.491607 77 77 62 255
493.824066 -477.911224 -22.350889 -0.290374 0.075204 0.953953 77 77 62 255
500.000000 -500.000000 -18.729650 -0.290374 0.075204 0.953954 77 77 62 255
500.000000 -485.967926 -19.835854 -0.290374 0.075204 0.953953 77 77 62 255
492.714691 -500.000000 -20.947229 -0.290374 0.075204 0.953953 77 77 62 255
500.000000 -500.000000 -18.729650 -0.290374 0.075204 0.953953 77 77 62 255
493.824066 -477.911224 -22.350889 -0.290374 0.075204 0.953954 77 77 62 255
493.824066 -477.911224 -22.350889 -0.486216 0.396209 0.778853 77 77 62 255
467.440918 -453.356873 -51.312141 -0.486216 0.396209 0.778853 77 77 62 255
480.632477 -490.206238 -24.331444 -0.486216 0.396209 0.778853 77 77 62 255
493.824371 -391.932495 -139.163513 0.617488 0.766420 0.176943 77 77 62 255
500.000000 -406.730865 -96.616638 0.617488 0.766420 0.176943 77 77 62 255
500.000000 -403.454742 -110.806976 0.617488 0.766420 0.176943 77 77 62 255
474.036865 -370.448120 -163.168396 0.617488 0.766420 0.176943 77 77 62 255
500.000000 -406.730865 -96.616638 0.617488 0.766420 0.176943 77 77 62 255
493.824371 -391.932495 -139.163513 0.617488 0.766420 0.176943 77 77 62 255
388.330627 -453.354980 -136.432953 -0.715641 -0.111717 0.689477 77 77 62 255
375.158752 -477.911224 -154.083557 -0.715641 -0.111717 0.689477 77 77 62 255
427.885620 -453.355621 -95.377045 -0.715641 -0.111717 0.689476 77 77 62 255
493.824371 -441.060608 -43.375072 -0.360583 0.727577 0.583619 77 77 62 255
500.000000 -441.060608 -39.559528 -0.360583 0.727577 0.583619 77 77 62 255
500.000000 -440.102264 -40.754261 -0.360583 0.727577 0.583619 77 77 62 255
467.440918 -453.356873 -51.312141 -0.481711 0.793434 0.372044 77 77 62 255
500.000000 -429.548615 -59.929951 -0.481711 0.793434 0.372044 77 77 62 255
500.000000 -423.024872 -73.842705 -0.481711 0.793434 0.372044 77 77 62 255
493.824371 -441.060608 -43.375072 -0.481711 0.793434 0.372044 77 77 62 255
500.000000 -429.548615 -59.929951 -0.481711 0.793434 0.372044 77 77 62 255
467.440918 -453.356873 -51.312141 -0.481711 0.793434 0.372044 77 77 62 255
500.000000 -440.102264 -40.754261 -0.322389 0.829304 0.456421 77 77 62 255
500.000000 -429.548615 -59.929951 -0.322389 0.829304 0.456421 77 77 62 255
493.824371 -441.060608 -43.375072 -0.322389 0.829304 0.456421 77 77 62 255
454.269043 -416.507477 -120.158302 -0.323475 0.852202 0.411236 77 77 62 255
500.000000 -414.335999 -88.686691 -0.323475 0.852202 0.411236 77 77 62 255
467.440918 -404.229980 -135.240005 -0.323475 0.852202 0.411236 77 77 62 255
500.000000 -416.507477 -84.186768 -0.323475 0.852201 0.411237 77 77 62 255
500.000000 -414.335999 -88.686691 -0.323475 0.852202 0.411237 77 77 62 255
454.269043 -416.507477 -120.158302 -0.323475 0.852201 0.411237 77 77 62 255
467.440918 -404.229980 -135.240005 -0.295978 0.850835 0.434138 77 77 62 255
417.348419 -406.676880 -164.595581 -0.295978 0.850836 0.434138 77 77 62 255
454.269043 -416.507477 -120.158302 -0.295978 0.850835 0.434138 77 77 62 255
417.523041 -500.000000 -100.940201 -0.761611 -0.100287 0.640227 77 77 62 255
482.967163 -500.000000 -23.088240 -0.761611 -0.100287 0.640227 77 77 62 255
480.632477 -490.206238 -24.331444 -0.761611 -0.100287 0.640227 77 77 62 255
493.824066 -477.911224 -22.350889 -0.213966 0.072649 0.974136 77 77 62 255
482.967163 -500.000000 -23.088240 -0.213966 0.072649 0.974136 77 77 62 255
492.714691 -500.000000 -20.947229 -0.213966 0.072649 0.974136 77 77 62 255
480.632477 -490.206238 -24.331444 -0.213966 0.072649 0.974136 77 77 62 255
482.967163 -500.000000 -23.088240 -0.213966 0.072649 0.974136 77 77 62 255
493.824066 -477.911224 -22.350889 -0.213966 0.072649 0.974136 77 77 62 255
339.600708 -500.000000 -155.003708 -0.400480 0.616443 0.677949 77 77 62 255
375.158752 -500.000000 -133.998764 -0.400480 0.616443 0.677949 77 77 62 255
375.158752 -477.911224 -154.083557 -0.400480 0.616443 0.677949 77 77 62 255
3 0 1 2
3 3 4 5
3 6 7 8
3 9 10 11
3 12 13 14
3 15 16 17
3 18 19 20
3 21 22 23
3 24 25 26
3 27 28 29
3 30 31 32
3 33 34 35
3 36 37 38
3 39 40 41
3 42 43 44
3 45 46 47
3 48 49 50
3 51 52 53
3 54 55 56
3 57 58 59
3 60 61 62
3 63 64 65
3 66 67 68
3 69 70 71
3 72 73 74
3 75 76 77
3 78 79 80
3 81 82 83
3 84 85 86
3 87 88 89
3 90 91 92
3 93 94 95
3 96 97 98
3 99 100 101
3 102 103 104
3 105 106 107
3 108 109 110
3 111 112 113
3 114 115 116
3 117 118 119
3 120 121 122
3 123 124 125
