ply
format ascii 1.0
comment Created by Blender 3.4.1 - www.blender.org
element vertex 150
property float x
property float y
property float z
property float nx
property float ny
property float nz
property uchar red
property uchar green
property uchar blue
property uchar alpha
element face 50
property list uchar uint vertex_indices
end_header
582.600098 -438.463257 -6.191138 0.004662 0.160647 0.987001 54 64 7 255
500.000000 -500.000000 4.214896 0.004662 0.160647 0.987001 54 64 7 255
593.323242 -500.000000 3.774115 0.004662 0.160647 0.987001 54 64 7 255
582.600098 -438.463257 -6.191138 0.028110 0.164566 0.985965 54 64 7 255
593.323242 -500.000000 3.774115 0.028110 0.164566 0.985966 54 64 7 255
644.255859 -469.231628 -2.813490 0.028110 0.164566 0.985965 54 64 7 255
500.000000 -500.000000 4.214896 0.123504 0.002030 0.992342 54 64 7 255
582.600098 -438.463257 -6.191138 0.123504 0.002030 0.992342 54 64 7 255
541.300049 -430.876892 -1.066595 0.123504 0.002030 0.992342 54 64 7 255
500.000000 -430.059204 4.102783 0.124228 0.001591 0.992252 54 64 7 255
500.000000 -465.029602 4.158840 0.124228 0.001591 0.992252 54 64 7 255
541.300049 -430.876892 -1.066595 0.124228 0.001591 0.992252 54 64 7 255
644.255859 -469.231628 -2.813490 0.013695 0.187611 0.982148 54 64 7 255
593.323242 -500.000000 3.774115 0.013695 0.187611 0.982148 54 64 7 255
685.126953 -500.000000 2.494047 0.013695 0.187611 0.982148 54 64 7 255
691.390869 -492.307922 0.419771 0.044124 0.226457 0.973021 54 64 7 255
644.255859 -469.231628 -2.813490 0.044124 0.226457 0.973021 54 64 7 255
685.126953 -500.000000 2.494047 0.044124 0.226457 0.973021 54 64 7 255
541.300049 -430.876892 -1.066595 0.124323 0.006572 0.992220 54 64 7 255
500.000000 -416.521851 4.013114 0.124323 0.006572 0.992220 54 64 7 255
500.000000 -423.290527 4.057949 0.124323 0.006572 0.992220 54 64 7 255
500.000000 -500.000000 4.214896 0.124228 0.001591 0.992252 54 64 7 255
541.300049 -430.876892 -1.066595 0.124228 0.001591 0.992252 54 64 7 255
500.000000 -465.029602 4.158840 0.124228 0.001591 0.992252 54 64 7 255
500.000000 -430.059204 4.102783 0.124323 0.006572 0.992220 54 64 7 255
541.300049 -430.876892 -1.066595 0.124323 0.006572 0.992220 54 64 7 255
500.000000 -423.290527 4.057949 0.124323 0.006572 0.992220 54 64 7 255
604.479492 -269.567139 -133.706757 -0.054169 0.728261 0.683156 77 77 62 255
497.489258 -277.525146 -133.706757 -0.054169 0.728261 0.683156 77 77 62 255
592.448486 -322.865906 -77.842957 -0.054169 0.728261 0.683156 77 77 62 255
592.448486 -322.865906 -77.842957 0.366546 0.632469 0.682369 77 77 62 255
682.290161 -314.662170 -133.706757 0.366546 0.632469 0.682369 77 77 62 255
604.479492 -269.567139 -133.706757 0.366546 0.632469 0.682369 77 77 62 255
665.200256 -376.926514 -16.597172 0.222872 0.846896 0.482798 77 77 62 255
682.290161 -314.662170 -133.706757 0.222872 0.846896 0.482798 77 77 62 255
592.448486 -322.865906 -77.842957 0.222872 0.846896 0.482798 77 77 62 255
665.200256 -376.926514 -16.597172 0.460097 0.754372 0.468224 77 77 62 255
718.781128 -402.045410 -28.778172 0.460097 0.754372 0.468224 77 77 62 255
682.290161 -314.662170 -133.706757 0.460097 0.754372 0.468224 77 77 62 255
715.890503 -402.199524 -133.706787 0.933267 0.358225 -0.026236 77 77 62 255
682.290161 -314.662170 -133.706757 0.933267 0.358225 -0.026236 77 77 62 255
718.781128 -402.045410 -28.778172 0.933267 0.358225 -0.026236 77 77 62 255
782.835938 -477.175537 -37.993793 0.403448 0.835751 0.372491 77 77 62 255
827.138611 -500.000000 -34.767609 0.403448 0.835751 0.372491 77 77 62 255
715.890503 -402.199524 -133.706787 0.403448 0.835751 0.372491 77 77 62 255
808.576172 -500.000000 -27.843555 0.271471 0.629799 0.727776 77 77 62 255
827.138611 -500.000000 -34.767609 0.271471 0.629799 0.727776 77 77 62 255
782.835938 -477.175537 -37.993793 0.271471 0.629799 0.727776 77 77 62 255
783.194336 -500.000000 -8.873171 0.472072 0.696646 0.540215 77 77 62 255
795.889648 -500.000000 -19.967098 0.472072 0.696646 0.540215 77 77 62 255
782.835938 -477.175537 -37.993793 0.472072 0.696646 0.540215 77 77 62 255
808.576172 -500.000000 -27.843555 0.378105 0.697239 0.609010 77 77 62 255
782.835938 -477.175537 -37.993793 0.378105 0.697240 0.609010 77 77 62 255
795.889648 -500.000000 -19.967098 0.378105 0.697240 0.609010 77 77 62 255
718.781128 -402.045410 -28.778172 0.215298 0.291196 0.932122 77 77 62 255
710.182617 -469.231628 -5.803056 0.215298 0.291196 0.932122 77 77 62 255
752.130859 -500.000000 -5.880037 0.215298 0.291196 0.932122 77 77 62 255
718.781128 -402.045410 -28.778172 0.092703 0.256464 0.962098 77 77 62 255
752.130859 -500.000000 -5.880037 0.092703 0.256464 0.962098 77 77 62 255
783.194336 -500.000000 -8.873171 0.092703 0.256464 0.962098 77 77 62 255
592.448486 -322.865906 -77.842957 0.128224 0.706242 0.696262 77 77 62 255
498.177551 -307.174011 -76.398735 0.128224 0.706242 0.696262 77 77 62 255
500.000000 -385.570251 2.785623 0.128224 0.706242 0.696262 77 77 62 255
592.448486 -322.865906 -77.842957 0.034598 0.769300 0.637950 77 77 62 255
500.000000 -385.570251 2.785623 0.034598 0.769300 0.637950 77 77 62 255
665.200256 -376.926514 -16.597172 0.034598 0.769300 0.637950 77 77 62 255
842.783142 -500.000000 -46.637115 0.336288 0.830931 0.443242 77 77 62 255
715.890503 -402.199524 -133.706787 0.336288 0.830931 0.443242 77 77 62 255
827.138611 -500.000000 -34.767609 0.336288 0.830931 0.443242 77 77 62 255
856.538025 -500.000000 -60.205719 0.381593 0.839492 0.386832 77 77 62 255
715.890503 -402.199524 -133.706787 0.381593 0.839492 0.386832 77 77 62 255
842.783142 -500.000000 -46.637115 0.381593 0.839492 0.386832 77 77 62 255
500.000000 -385.570251 2.785623 0.114407 0.039367 0.992654 77 77 62 255
582.600098 -396.724182 -6.292029 0.114407 0.039367 0.992654 77 77 62 255
665.200256 -376.926514 -16.597172 0.114407 0.039367 0.992654 77 77 62 255
541.300049 -430.876892 -1.066595 0.123096 0.002981 0.992390 77 77 62 255
582.600098 -396.724182 -6.292029 0.123096 0.002981 0.992390 77 77 62 255
500.000000 -416.521851 4.013114 0.123096 0.002981 0.992390 77 77 62 255
665.200256 -376.926514 -16.597172 0.028258 0.129676 0.991154 77 77 62 255
582.600098 -438.463257 -6.191138 0.028258 0.129676 0.991154 77 77 62 255
695.188477 -438.463257 -9.401094 0.028258 0.129676 0.991154 77 77 62 255
695.188477 -438.463257 -9.401094 0.044869 0.137575 0.989475 77 77 62 255
644.255859 -469.231628 -2.813490 0.044869 0.137575 0.989475 77 77 62 255
710.182617 -469.231628 -5.803056 0.044869 0.137575 0.989475 77 77 62 255
582.600098 -438.463257 -6.191138 0.123233 0.002399 0.992375 77 77 62 255
665.200256 -376.926514 -16.597172 0.123233 0.002399 0.992375 77 77 62 255
582.600098 -396.724182 -6.292029 0.123233 0.002399 0.992375 77 77 62 255
710.182617 -469.231628 -5.803056 0.114827 0.170402 0.978661 77 77 62 255
697.654785 -484.615845 -1.654505 0.114827 0.170402 0.978661 77 77 62 255
717.679688 -484.615845 -4.004037 0.114827 0.170402 0.978661 77 77 62 255
697.654785 -484.615845 -1.654505 0.112585 0.172213 0.978605 77 77 62 255
691.390869 -492.307922 0.419771 0.112585 0.172213 0.978605 77 77 62 255
709.843994 -492.307922 -1.703192 0.112585 0.172213 0.978605 77 77 62 255
717.679688 -484.615845 -4.004037 0.114720 0.175602 0.977754 77 77 62 255
697.654785 -484.615845 -1.654505 0.114720 0.175602 0.977754 77 77 62 255
709.843994 -492.307922 -1.703192 0.114720 0.175602 0.977754 77 77 62 255
717.679688 -484.615845 -4.004037 0.140286 0.182171 0.973208 77 77 62 255
722.033203 -500.000000 -1.751880 0.140286 0.182171 0.973208 77 77 62 255
725.176758 -500.000000 -2.205017 0.140286 0.182171 0.973208 77 77 62 255
691.390869 -492.307922 0.419771 0.227520 0.076503 0.970764 77 77 62 255
685.126953 -500.000000 2.494047 0.227520 0.076503 0.970764 77 77 62 255
700.907227 -500.000000 -1.204404 0.227520 0.076503 0.970764 77 77 62 255
691.390869 -492.307922 0.419771 0.114026 -0.068208 0.991134 77 77 62 255
700.907227 -500.000000 -1.204404 0.114026 -0.068208 0.991134 77 77 62 255
709.843994 -492.307922 -1.703192 0.114026 -0.068208 0.991134 77 77 62 255
709.843994 -492.307922 -1.703192 0.025891 0.034704 0.999062 77 77 62 255
700.907227 -500.000000 -1.204404 0.025891 0.034704 0.999062 77 77 62 255
722.033203 -500.000000 -1.751880 0.025891 0.034704 0.999062 77 77 62 255
715.890503 -402.199524 -133.706787 0.759459 0.650187 -0.021877 77 77 62 255
718.781128 -402.045410 -28.778172 0.759459 0.650187 -0.021877 77 77 62 255
782.835938 -477.175537 -37.993793 0.759459 0.650187 -0.021877 77 77 62 255
783.194336 -500.000000 -8.873171 0.713337 0.555820 0.426867 77 77 62 255
782.835938 -477.175537 -37.993793 0.713337 0.555820 0.426867 77 77 62 255
718.781128 -402.045410 -28.778172 0.713337 0.555820 0.426867 77 77 62 255
752.130859 -500.000000 -5.880037 0.132917 0.178775 0.974871 77 77 62 255
717.679688 -484.615845 -4.004037 0.132917 0.178775 0.974871 77 77 62 255
725.176758 -500.000000 -2.205017 0.132917 0.178775 0.974871 77 77 62 255
710.182617 -469.231628 -5.803056 0.330981 0.267129 0.905038 77 77 62 255
718.781128 -402.045410 -28.778172 0.330981 0.267129 0.905038 77 77 62 255
695.188477 -438.463257 -9.401094 0.330981 0.267129 0.905038 77 77 62 255
695.188477 -438.463257 -9.401094 0.330981 0.267129 0.905038 77 77 62 255
718.781128 -402.045410 -28.778172 0.330981 0.267129 0.905038 77 77 62 255
665.200256 -376.926514 -16.597172 0.330981 0.267129 0.905038 77 77 62 255
752.130859 -500.000000 -5.880037 0.132917 0.178774 0.974871 77 77 62 255
710.182617 -469.231628 -5.803056 0.132917 0.178774 0.974871 77 77 62 255
717.679688 -484.615845 -4.004037 0.132917 0.178774 0.974871 77 77 62 255
582.600098 -396.724182 -6.292029 0.114821 0.037652 0.992672 77 77 62 255
500.000000 -390.291748 3.018213 0.114821 0.037652 0.992672 77 77 62 255
500.000000 -416.521851 4.013114 0.114821 0.037652 0.992672 77 77 62 255
500.000000 -390.291748 3.018213 0.115629 0.048872 0.992089 77 77 62 255
582.600098 -396.724182 -6.292029 0.115629 0.048872 0.992089 77 77 62 255
500.000000 -385.570251 2.785623 0.115629 0.048872 0.992089 77 77 62 255
582.600098 -438.463257 -6.191138 0.028110 0.164566 0.985965 77 77 62 255
644.255859 -469.231628 -2.813490 0.028110 0.164566 0.985966 77 77 62 255
695.188477 -438.463257 -9.401094 0.028110 0.164566 0.985965 77 77 62 255
582.600098 -438.463257 -6.191138 0.123570 0.002399 0.992333 77 77 62 255
582.600098 -396.724182 -6.292029 0.123570 0.002399 0.992333 77 77 62 255
541.300049 -430.876892 -1.066595 0.123570 0.002399 0.992333 77 77 62 255
644.255859 -469.231628 -2.813490 0.044123 0.226457 0.973021 77 77 62 255
697.654785 -484.615845 -1.654505 0.044123 0.226457 0.973021 77 77 62 255
710.182617 -469.231628 -5.803056 0.044123 0.226457 0.973021 77 77 62 255
697.654785 -484.615845 -1.654505 0.044124 0.226457 0.973021 77 77 62 255
644.255859 -469.231628 -2.813490 0.044124 0.226457 0.973021 77 77 62 255
691.390869 -492.307922 0.419771 0.044124 0.226457 0.973021 77 77 62 255
717.679688 -484.615845 -4.004037 0.114720 0.175602 0.977754 77 77 62 255
709.843994 -492.307922 -1.703192 0.114720 0.175602 0.977754 77 77 62 255
722.033203 -500.000000 -1.751880 0.114720 0.175602 0.977754 77 77 62 255
498.177551 -307.174011 -76.398735 0.153156 0.878446 0.452633 77 77 62 255
592.448486 -322.865906 -77.842957 0.153156 0.878446 0.452633 77 77 62 255
497.489258 -277.525146 -133.706757 0.153156 0.878446 0.452633 77 77 62 255
3 0 1 2
3 3 4 5
3 6 7 8
3 9 10 11
3 12 13 14
3 15 16 17
3 18 19 20
3 21 22 23
3 24 25 26
3 27 28 29
3 30 31 32
3 33 34 35
3 36 37 38
3 39 40 41
3 42 43 44
3 45 46 47
3 48 49 50
3 51 52 53
3 54 55 56
3 57 58 59
3 60 61 62
3 63 64 65
3 66 67 68
3 69 70 71
3 72 73 74
3 75 76 77
3 78 79 80
3 81 82 83
3 84 85 86
3 87 88 89
3 90 91 92
3 93 94 95
3 96 97 98
3 99 100 101
3 102 103 104
3 105 106 107
3 108 109 110
3 111 112 113
3 114 115 116
3 117 118 119
3 120 121 122
3 123 124 125
3 126 127 128
3 129 130 131
3 132 133 134
3 135 136 137
3 138 139 140
3 141 142 143
3 144 145 146
3 147 148 149
