ply
format ascii 1.0
comment Created by Blender 3.4.1 - www.blender.org
element vertex 36
property float x
property float y
property float z
property float nx
property float ny
property float nz
property uchar red
property uchar green
property uchar blue
property uchar alpha
element face 12
property list uchar uint vertex_indices
end_header
-459.127930 -490.220001 -166.531815 0.339847 0.603385 0.721409 77 77 62 255
-456.504883 -500.000000 -159.587524 0.339847 0.603385 0.721409 77 77 62 255
-441.117188 -500.000000 -166.836472 0.339847 0.603385 0.721409 77 77 62 255
-498.135742 -452.084686 -155.127182 0.807169 0.336319 0.485147 77 77 62 255
-500.000000 -452.136017 -151.989914 0.807169 0.336319 0.485147 77 77 62 255
-500.000000 -454.097626 -150.630066 0.807169 0.336319 0.485147 77 77 62 255
-500.000000 -455.571564 -149.419281 0.738145 0.441043 0.510513 77 77 62 255
-493.520508 -500.000000 -120.405182 0.738145 0.441043 0.510513 77 77 62 255
-498.135742 -452.084686 -155.127182 0.738145 0.441043 0.510513 77 77 62 255
-500.000000 -500.000000 -111.036682 0.738141 0.441045 0.510517 77 77 62 255
-493.520508 -500.000000 -120.405182 0.738141 0.441045 0.510517 77 77 62 255
-500.000000 -455.571564 -149.419281 0.738141 0.441045 0.510517 77 77 62 255
-498.135742 -452.084686 -155.127182 0.751785 0.412174 0.514715 77 77 62 255
-500.000000 -449.423706 -154.535141 0.751785 0.412174 0.514715 77 77 62 255
-500.000000 -451.002289 -153.271042 0.751785 0.412174 0.514715 77 77 62 255
-493.520508 -500.000000 -120.405182 0.564870 0.519186 0.641379 77 77 62 255
-477.417969 -500.000000 -134.586884 0.564870 0.519186 0.641379 77 77 62 255
-498.135742 -452.084686 -155.127182 0.564870 0.519186 0.641379 77 77 62 255
-459.127930 -490.220001 -166.531815 0.674497 0.539075 0.504432 77 77 62 255
-463.287109 -500.000000 -150.518723 0.674497 0.539075 0.504432 77 77 62 255
-456.504883 -500.000000 -159.587524 0.674497 0.539075 0.504432 77 77 62 255
-498.135742 -452.084686 -155.127182 0.674497 0.539075 0.504432 77 77 62 255
-463.287109 -500.000000 -150.518723 0.674497 0.539075 0.504432 77 77 62 255
-459.127930 -490.220001 -166.531815 0.674497 0.539075 0.504432 77 77 62 255
-500.000000 -454.097626 -150.630066 0.762523 0.410662 0.499915 77 77 62 255
-500.000000 -455.571564 -149.419281 0.762523 0.410662 0.499915 77 77 62 255
-498.135742 -452.084686 -155.127182 0.762523 0.410662 0.499915 77 77 62 255
-498.135742 -452.084686 -155.127182 0.721753 0.376421 0.580845 77 77 62 255
-500.000000 -447.529785 -155.762512 0.721753 0.376421 0.580845 77 77 62 255
-500.000000 -449.423706 -154.535141 0.721753 0.376421 0.580845 77 77 62 255
-477.417969 -500.000000 -134.586884 0.639266 0.519469 0.567001 77 77 62 255
-463.287109 -500.000000 -150.518723 0.639266 0.519470 0.567001 77 77 62 255
-498.135742 -452.084686 -155.127182 0.639266 0.519469 0.567001 77 77 62 255
-500.000000 -451.002289 -153.271042 0.738298 0.505097 0.446983 77 77 62 255
-500.000000 -452.136017 -151.989914 0.738298 0.505097 0.446983 77 77 62 255
-498.135742 -452.084686 -155.127182 0.738298 0.505097 0.446983 77 77 62 255
3 0 1 2
3 3 4 5
3 6 7 8
3 9 10 11
3 12 13 14
3 15 16 17
3 18 19 20
3 21 22 23
3 24 25 26
3 27 28 29
3 30 31 32
3 33 34 35
