ply
format ascii 1.0
comment Created by Blender 3.4.1 - www.blender.org
element vertex 555
property float x
property float y
property float z
property float nx
property float ny
property float nz
property uchar red
property uchar green
property uchar blue
property uchar alpha
element face 185
property list uchar uint vertex_indices
end_header
-441.851562 19.120117 -33.683346 0.355110 -0.016197 0.934684 77 77 62 255
-500.000000 24.264648 -11.502137 0.355110 -0.016197 0.934684 77 77 62 255
-500.000000 11.051758 -11.731104 0.355110 -0.016197 0.934684 77 77 62 255
-445.955078 211.396484 -54.476768 0.119898 0.476304 0.871068 77 77 62 255
-466.875000 163.909180 -25.630947 0.119898 0.476304 0.871068 77 77 62 255
-404.837891 198.612305 -53.145874 0.119898 0.476304 0.871068 77 77 62 255
-413.102539 5.931641 -66.656143 0.230781 -0.300762 0.925355 77 77 62 255
-399.417969 -19.582031 -78.361557 0.230781 -0.300762 0.925355 77 77 62 255
-385.708984 18.708008 -69.335396 0.230781 -0.300762 0.925355 77 77 62 255
-385.708984 18.708008 -69.335396 0.334079 -0.556813 0.760494 77 77 62 255
-442.240234 51.012695 -20.849079 0.334079 -0.556813 0.760494 77 77 62 255
-413.102539 5.931641 -66.656143 0.334079 -0.556813 0.760494 77 77 62 255
-470.770508 -19.078125 -37.452145 0.503188 -0.401505 0.765242 77 77 62 255
-440.517578 -45.116211 -71.006660 0.503188 -0.401505 0.765242 77 77 62 255
-419.958008 -32.359375 -77.832451 0.503188 -0.401505 0.765242 77 77 62 255
-487.057617 281.589844 -80.633736 0.456903 0.168157 0.873478 77 77 62 255
-500.000000 311.755859 -79.671181 0.456903 0.168157 0.873478 77 77 62 255
-500.000000 284.607422 -74.444702 0.456903 0.168157 0.873478 77 77 62 255
-397.669922 133.506836 -43.523487 0.303507 0.171929 0.937189 77 77 62 255
-404.837891 198.612305 -53.145874 0.303507 0.171929 0.937189 77 77 62 255
-447.942383 150.362305 -30.334997 0.303507 0.171929 0.937189 77 77 62 255
-489.312500 148.951172 0.213657 -0.417035 0.491822 0.764325 77 77 62 255
-499.624023 162.028320 -13.827362 -0.417035 0.491822 0.764325 77 77 62 255
-498.517578 121.088867 13.119773 -0.417035 0.491822 0.764325 77 77 62 255
-439.310547 129.951172 -24.668545 0.612276 0.773370 0.164370 77 77 62 255
-468.475586 151.422852 -17.054598 0.612276 0.773370 0.164370 77 77 62 255
-445.534180 129.469727 0.779664 0.612276 0.773370 0.164370 77 77 62 255
-487.057617 281.589844 -80.633736 0.175971 0.211896 0.961319 77 77 62 255
-459.644531 262.444336 -81.431656 0.175971 0.211896 0.961319 77 77 62 255
-464.446289 276.507812 -83.652588 0.175971 0.211896 0.961319 77 77 62 255
-420.540039 93.487305 -13.013525 0.377978 -0.617807 0.689527 77 77 62 255
-430.364258 104.766602 2.477918 0.377978 -0.617807 0.689527 77 77 62 255
-472.677734 88.375977 10.987127 0.377978 -0.617807 0.689527 77 77 62 255
-495.308594 -57.874023 -52.003258 0.483250 -0.297194 0.823496 77 77 62 255
-500.000000 -54.000977 -47.852455 0.483250 -0.297194 0.823496 77 77 62 255
-500.000000 -62.246094 -50.828064 0.483250 -0.297194 0.823496 77 77 62 255
-441.851562 19.120117 -33.683346 0.323376 -0.263489 0.908846 77 77 62 255
-500.000000 36.814453 -7.863753 0.323376 -0.263489 0.908846 77 77 62 255
-500.000000 24.264648 -11.502137 0.323376 -0.263489 0.908846 77 77 62 255
-413.102539 5.931641 -66.656143 0.616463 -0.328612 0.715533 77 77 62 255
-442.240234 51.012695 -20.849079 0.616463 -0.328612 0.715533 77 77 62 255
-435.980469 19.092773 -40.901505 0.616463 -0.328612 0.715533 77 77 62 255
-473.350586 236.910156 -66.037949 0.495774 0.528000 0.689510 77 77 62 255
-500.000000 249.339844 -56.394569 0.495774 0.528000 0.689510 77 77 62 255
-500.000000 236.910156 -46.876392 0.495774 0.528000 0.689510 77 77 62 255
-499.624023 162.028320 -13.827362 0.232833 0.539078 0.809434 77 77 62 255
-500.000000 124.506836 11.269846 0.232833 0.539078 0.809434 77 77 62 255
-498.517578 121.088867 13.119773 0.232833 0.539078 0.809434 77 77 62 255
-500.000000 162.093750 -13.762555 0.233307 0.539011 0.809342 77 77 62 255
-500.000000 124.506836 11.269846 0.233307 0.539011 0.809342 77 77 62 255
-499.624023 162.028320 -13.827362 0.233307 0.539011 0.809342 77 77 62 255
-344.605469 133.580078 -84.214294 0.503354 0.064212 0.861691 77 77 62 255
-351.334961 185.105469 -84.122871 0.503354 0.064212 0.861691 77 77 62 255
-385.708984 120.803711 -59.251709 0.503354 0.064212 0.861691 77 77 62 255
-477.878906 140.560547 4.825871 0.237501 0.654523 0.717770 77 77 62 255
-457.663086 129.122070 8.567278 0.237501 0.654523 0.717770 77 77 62 255
-473.539062 149.675781 -4.922163 0.237501 0.654523 0.717770 77 77 62 255
-476.458008 129.123047 12.020847 0.174930 0.251458 0.951929 77 77 62 255
-462.082031 116.631836 12.678689 0.174930 0.251458 0.951929 77 77 62 255
-457.663086 129.122070 8.567278 0.174930 0.251458 0.951929 77 77 62 255
-472.677734 88.375977 10.987127 0.389920 -0.565761 0.726552 77 77 62 255
-462.587891 64.985352 -12.641909 0.389920 -0.565761 0.726552 77 77 62 255
-420.540039 93.487305 -13.013525 0.389920 -0.565761 0.726552 77 77 62 255
-358.293945 88.900391 -78.956734 0.489466 -0.024024 0.871692 77 77 62 255
-385.708984 108.046875 -63.035179 0.489465 -0.024024 0.871692 77 77 62 255
-399.417969 95.290039 -55.688995 0.489466 -0.024024 0.871692 77 77 62 255
-399.417969 69.755859 -52.982933 0.491394 -0.504710 0.709788 77 77 62 255
-420.689453 83.257812 -28.655607 0.491394 -0.504710 0.709788 77 77 62 255
-462.587891 64.985352 -12.641909 0.491394 -0.504710 0.709788 77 77 62 255
-385.708984 18.708008 -69.335396 0.382541 -0.319342 0.866997 77 77 62 255
-385.708984 -6.826172 -78.740425 0.382541 -0.319342 0.866997 77 77 62 255
-358.293945 18.708008 -81.431618 0.382541 -0.319342 0.866997 77 77 62 255
-435.980469 19.092773 -40.901505 0.521999 0.741366 0.421774 77 77 62 255
-500.000000 46.208984 -9.332296 0.521999 0.741366 0.421774 77 77 62 255
-441.851562 19.120117 -33.683346 0.521999 0.741366 0.421774 77 77 62 255
-500.000000 46.927734 -10.596078 0.521980 0.741435 0.421676 77 77 62 255
-500.000000 46.208984 -9.332296 0.521980 0.741435 0.421676 77 77 62 255
-435.980469 19.092773 -40.901505 0.521980 0.741435 0.421676 77 77 62 255
-495.308594 -45.116211 -42.521515 0.118394 -0.675822 0.727494 77 77 62 255
-500.000000 -38.621094 -35.724239 0.118394 -0.675822 0.727494 77 77 62 255
-500.000000 -42.378906 -39.215145 0.118394 -0.675822 0.727494 77 77 62 255
-477.557617 -32.197266 -41.011009 0.553896 -0.253365 0.793099 77 77 62 255
-454.205078 -57.874023 -65.523026 0.553896 -0.253365 0.793099 77 77 62 255
-440.517578 -45.116211 -71.006660 0.553896 -0.253365 0.793099 77 77 62 255
-500.000000 249.687500 -56.606251 0.501431 0.381455 0.776569 77 77 62 255
-487.057617 281.589844 -80.633736 0.501431 0.381455 0.776569 77 77 62 255
-500.000000 251.423828 -57.459145 0.501431 0.381455 0.776569 77 77 62 255
-473.350586 249.687500 -73.820625 0.501596 0.381347 0.776515 77 77 62 255
-487.057617 281.589844 -80.633736 0.501595 0.381347 0.776515 77 77 62 255
-500.000000 249.687500 -56.606251 0.501596 0.381347 0.776515 77 77 62 255
-404.837891 198.612305 -53.145874 0.135062 0.522065 0.842144 77 77 62 255
-473.350586 249.687500 -73.820625 0.135062 0.522065 0.842144 77 77 62 255
-445.955078 211.396484 -54.476768 0.135062 0.522065 0.842144 77 77 62 255
-473.350586 236.910156 -66.037949 0.435306 0.666315 0.605420 77 77 62 255
-500.000000 236.678711 -46.621880 0.435306 0.666315 0.605420 77 77 62 255
-459.644531 224.154297 -61.853939 0.435306 0.666315 0.605420 77 77 62 255
-500.000000 236.910156 -46.876392 0.435471 0.666005 0.605642 77 77 62 255
-500.000000 236.678711 -46.621880 0.435471 0.666005 0.605642 77 77 62 255
-473.350586 236.910156 -66.037949 0.435471 0.666005 0.605642 77 77 62 255
-385.708984 44.221680 -64.996872 0.481672 -0.046154 0.875135 77 77 62 255
-358.293945 18.708008 -81.431618 0.481673 -0.046154 0.875135 77 77 62 255
-358.293945 44.221680 -80.086052 0.481672 -0.046154 0.875135 77 77 62 255
-385.708984 44.221680 -64.996872 0.611686 -0.043253 0.789917 77 77 62 255
-399.417969 69.755859 -52.982933 0.611686 -0.043253 0.789917 77 77 62 255
-442.240234 51.012695 -20.849079 0.611686 -0.043253 0.789917 77 77 62 255
-472.540039 104.672852 16.662226 0.303100 -0.315676 0.899155 77 77 62 255
-472.677734 88.375977 10.987127 0.303100 -0.315676 0.899155 77 77 62 255
-430.364258 104.766602 2.477918 0.303100 -0.315676 0.899155 77 77 62 255
-480.696289 110.493164 16.982510 0.174244 -0.198287 0.964532 77 77 62 255
-497.877930 84.208008 14.682743 0.174244 -0.198287 0.964532 77 77 62 255
-472.677734 88.375977 10.987127 0.174244 -0.198287 0.964532 77 77 62 255
-500.000000 -9.800781 -15.724252 0.634793 0.351778 0.687961 77 77 62 255
-500.000000 -10.083984 -15.579440 0.634793 0.351778 0.687961 77 77 62 255
-499.410156 -10.313477 -16.006351 0.634793 0.351778 0.687961 77 77 62 255
-471.789062 52.081055 -11.502770 0.155137 -0.513313 0.844063 77 77 62 255
-500.000000 70.603516 4.946697 0.155137 -0.513313 0.844063 77 77 62 255
-500.000000 59.698242 -1.685294 0.155137 -0.513313 0.844063 77 77 62 255
-435.980469 19.092773 -40.901505 0.147291 -0.553621 0.819640 77 77 62 255
-500.000000 54.094727 -5.755174 0.147291 -0.553621 0.819640 77 77 62 255
-500.000000 46.927734 -10.596078 0.147291 -0.553621 0.819640 77 77 62 255
-499.624023 162.028320 -13.827362 0.088450 0.760475 0.643315 77 77 62 255
-489.312500 148.951172 0.213657 0.088450 0.760475 0.643315 77 77 62 255
-484.267578 168.799805 -23.943428 0.088450 0.760475 0.643315 77 77 62 255
-459.644531 224.154297 -61.853939 0.414909 0.286703 0.863511 77 77 62 255
-500.000000 236.678711 -46.621880 0.414909 0.286703 0.863511 77 77 62 255
-500.000000 194.092773 -32.482483 0.414909 0.286703 0.863511 77 77 62 255
-500.000000 -102.384766 -65.506096 0.514848 -0.352361 0.781520 77 77 62 255
-500.000000 -113.306641 -70.430405 0.514848 -0.352361 0.781520 77 77 62 255
-495.308594 -108.940430 -71.552422 0.514848 -0.352361 0.781520 77 77 62 255
-500.000000 -91.884766 -59.611172 0.475594 -0.253995 0.842197 77 77 62 255
-495.308594 -57.874023 -52.003258 0.475594 -0.253995 0.842197 77 77 62 255
-500.000000 -68.795898 -52.647881 0.475594 -0.253995 0.842197 77 77 62 255
-481.620117 -96.164062 -71.281532 0.475613 -0.253996 0.842187 77 77 62 255
-495.308594 -57.874023 -52.003258 0.475613 -0.253996 0.842187 77 77 62 255
-500.000000 -91.884766 -59.611172 0.475613 -0.253996 0.842187 77 77 62 255
-430.364258 104.766602 2.477918 0.862848 0.062668 0.501564 77 77 62 255
-420.540039 93.487305 -13.013525 0.862848 0.062668 0.501564 77 77 62 255
-416.075195 118.925781 -23.872858 0.862848 0.062668 0.501564 77 77 62 255
-420.689453 83.257812 -28.655607 0.702223 -0.148323 0.696335 77 77 62 255
-399.417969 69.755859 -52.982933 0.702223 -0.148323 0.696335 77 77 62 255
-404.467773 108.156250 -39.710945 0.702223 -0.148323 0.696335 77 77 62 255
-466.875000 163.909180 -25.630947 0.264264 0.717377 0.644620 77 77 62 255
-484.267578 168.799805 -23.943428 0.264264 0.717377 0.644620 77 77 62 255
-489.312500 148.951172 0.213657 0.264264 0.717377 0.644620 77 77 62 255
-473.539062 149.675781 -4.922163 0.508306 0.796731 0.326871 77 77 62 255
-445.534180 129.469727 0.779664 0.508306 0.796731 0.326871 77 77 62 255
-468.475586 151.422852 -17.054598 0.508306 0.796731 0.326871 77 77 62 255
-379.230469 159.678711 -71.640434 0.739077 0.177415 0.649838 77 77 62 255
-404.837891 198.612305 -53.145874 0.739077 0.177415 0.649838 77 77 62 255
-397.669922 133.506836 -43.523487 0.739077 0.177415 0.649838 77 77 62 255
-498.517578 121.088867 13.119773 0.431811 0.566958 0.701497 77 77 62 255
-500.000000 124.506836 11.269846 0.431811 0.566958 0.701497 77 77 62 255
-500.000000 122.440430 12.939939 0.431811 0.566958 0.701497 77 77 62 255
-498.517578 121.088867 13.119773 -0.049503 0.267543 0.962274 77 77 62 255
-480.696289 110.493164 16.982510 -0.049503 0.267543 0.962274 77 77 62 255
-476.458008 129.123047 12.020847 -0.049503 0.267542 0.962274 77 77 62 255
-358.293945 44.221680 -80.086052 0.481966 -0.030221 0.875669 77 77 62 255
-399.417969 95.290039 -55.688995 0.481966 -0.030221 0.875668 77 77 62 255
-385.708984 44.221680 -64.996872 0.481966 -0.030221 0.875668 77 77 62 255
-491.467773 -32.207031 -32.648754 0.206272 -0.632410 0.746665 77 77 62 255
-500.000000 -38.621094 -35.724239 0.206272 -0.632410 0.746665 77 77 62 255
-495.308594 -45.116211 -42.521515 0.206272 -0.632410 0.746665 77 77 62 255
-500.000000 -26.529297 -25.483032 0.206261 -0.632401 0.746676 77 77 62 255
-500.000000 -38.621094 -35.724239 0.206261 -0.632401 0.746676 77 77 62 255
-491.467773 -32.207031 -32.648754 0.206261 -0.632401 0.746676 77 77 62 255
-500.000000 -9.277344 -15.572369 0.212153 -0.272327 0.938525 77 77 62 255
-500.000000 -9.800781 -15.724252 0.212153 -0.272327 0.938525 77 77 62 255
-499.410156 -10.313477 -16.006351 0.212153 -0.272327 0.938525 77 77 62 255
-445.534180 129.469727 0.779664 0.422220 0.898481 0.120256 77 77 62 255
-416.075195 118.925781 -23.872858 0.422220 0.898481 0.120256 77 77 62 255
-439.310547 129.951172 -24.668545 0.422220 0.898481 0.120256 77 77 62 255
-385.708984 120.803711 -59.251709 0.813692 0.048987 0.579228 77 77 62 255
-379.230469 159.678711 -71.640434 0.813692 0.048987 0.579228 77 77 62 255
-397.669922 133.506836 -43.523487 0.813692 0.048987 0.579228 77 77 62 255
-442.240234 51.012695 -20.849079 0.149231 -0.811766 0.564594 77 77 62 255
-467.836914 60.938477 0.187710 0.149231 -0.811766 0.564594 77 77 62 255
-471.789062 52.081055 -11.502770 0.149231 -0.811766 0.564594 77 77 62 255
-462.587891 64.985352 -12.641909 0.518546 -0.486583 0.703098 77 77 62 255
-472.677734 88.375977 10.987127 0.518546 -0.486583 0.703098 77 77 62 255
-483.007812 73.584961 8.369526 0.518546 -0.486583 0.703098 77 77 62 255
-419.958008 -32.359375 -77.832451 0.539522 -0.312694 0.781753 77 77 62 255
-449.035156 5.980469 -42.429443 0.539522 -0.312694 0.781753 77 77 62 255
-470.770508 -19.078125 -37.452145 0.539522 -0.312694 0.781753 77 77 62 255
-441.851562 19.120117 -33.683346 0.610000 -0.615957 0.498494 77 77 62 255
-440.517578 -6.826172 -67.375877 0.610000 -0.615957 0.498494 77 77 62 255
-435.980469 19.092773 -40.901505 0.610000 -0.615957 0.498494 77 77 62 255
-385.708984 120.803711 -59.251709 0.128473 -0.533378 0.836064 77 77 62 255
-372.001953 108.046875 -69.496384 0.128473 -0.533378 0.836064 77 77 62 255
-344.605469 108.046875 -73.706253 0.128473 -0.533378 0.836064 77 77 62 255
-500.000000 46.208984 -9.332296 0.436892 0.138924 0.888721 77 77 62 255
-500.000000 36.814453 -7.863753 0.436892 0.138924 0.888721 77 77 62 255
-441.851562 19.120117 -33.683346 0.436892 0.138924 0.888721 77 77 62 255
-473.350586 249.687500 -73.820625 0.070525 0.454116 0.888147 77 77 62 255
-404.837891 198.612305 -53.145874 0.070525 0.454116 0.888147 77 77 62 255
-459.644531 262.444336 -81.431656 0.070525 0.454116 0.888147 77 77 62 255
-487.057617 281.589844 -80.633736 0.235538 0.298707 0.924822 77 77 62 255
-473.350586 249.687500 -73.820625 0.235538 0.298707 0.924822 77 77 62 255
-459.644531 262.444336 -81.431656 0.235538 0.298707 0.924822 77 77 62 255
-480.696289 110.493164 16.982510 -0.192827 -0.321238 0.927159 77 77 62 255
-472.677734 88.375977 10.987127 -0.192827 -0.321238 0.927159 77 77 62 255
-472.540039 104.672852 16.662226 -0.192827 -0.321238 0.927159 77 77 62 255
-480.993164 186.683594 -37.013832 0.088110 0.488506 0.868101 77 77 62 255
-466.875000 163.909180 -25.630947 0.088110 0.488506 0.868101 77 77 62 255
-445.955078 211.396484 -54.476768 0.088110 0.488506 0.868101 77 77 62 255
-459.644531 224.154297 -61.853939 0.349726 0.371025 0.860251 77 77 62 255
-500.000000 190.629883 -30.988823 0.349726 0.371025 0.860251 77 77 62 255
-480.993164 186.683594 -37.013832 0.349726 0.371025 0.860251 77 77 62 255
-500.000000 194.092773 -32.482483 0.349700 0.371054 0.860249 77 77 62 255
-500.000000 190.629883 -30.988823 0.349700 0.371054 0.860249 77 77 62 255
-459.644531 224.154297 -61.853939 0.349700 0.371054 0.860249 77 77 62 255
-500.000000 -54.000977 -47.852455 0.212649 -0.582849 0.784262 77 77 62 255
-495.308594 -45.116211 -42.521515 0.212649 -0.582849 0.784262 77 77 62 255
-500.000000 -42.378906 -39.215145 0.212649 -0.582849 0.784262 77 77 62 255
-495.308594 -57.874023 -52.003258 0.212688 -0.582859 0.784244 77 77 62 255
-495.308594 -45.116211 -42.521515 0.212688 -0.582859 0.784244 77 77 62 255
-500.000000 -54.000977 -47.852455 0.212688 -0.582859 0.784244 77 77 62 255
-351.334961 185.105469 -84.122871 0.514787 0.569539 0.640796 77 77 62 255
-404.852539 211.396484 -64.496689 0.514787 0.569539 0.640796 77 77 62 255
-404.837891 198.612305 -53.145874 0.514787 0.569539 0.640796 77 77 62 255
-404.852539 211.396484 -64.496689 0.361523 0.619267 0.697001 77 77 62 255
-459.644531 262.444336 -81.431656 0.361523 0.619267 0.697001 77 77 62 255
-404.837891 198.612305 -53.145874 0.361523 0.619267 0.697001 77 77 62 255
-444.115234 117.057617 7.465000 0.267504 0.214569 0.939362 77 77 62 255
-457.663086 129.122070 8.567278 0.267504 0.214569 0.939362 77 77 62 255
-462.082031 116.631836 12.678689 0.267504 0.214569 0.939362 77 77 62 255
-416.075195 118.925781 -23.872858 0.667086 0.410947 0.621384 77 77 62 255
-445.534180 129.469727 0.779664 0.667086 0.410947 0.621384 77 77 62 255
-444.115234 117.057617 7.465000 0.667086 0.410947 0.621384 77 77 62 255
-399.417969 -19.582031 -78.361557 0.178036 -0.246754 0.952584 77 77 62 255
-440.517578 -6.826172 -67.375877 0.178036 -0.246754 0.952584 77 77 62 255
-419.958008 -32.359375 -77.832451 0.178036 -0.246754 0.952584 77 77 62 255
-449.035156 5.980469 -42.429443 0.762910 0.642759 -0.069486 77 77 62 255
-419.958008 -32.359375 -77.832451 0.762910 0.642759 -0.069486 77 77 62 255
-440.517578 -6.826172 -67.375877 0.762910 0.642759 -0.069486 77 77 62 255
-404.467773 108.156250 -39.710945 0.703013 -0.428731 0.567417 77 77 62 255
-399.417969 95.290039 -55.688995 0.703013 -0.428731 0.567417 77 77 62 255
-385.708984 108.046875 -63.035179 0.703013 -0.428731 0.567417 77 77 62 255
-385.708984 108.046875 -63.035179 0.773920 -0.113840 0.622968 77 77 62 255
-397.669922 133.506836 -43.523487 0.773920 -0.113840 0.622968 77 77 62 255
-404.467773 108.156250 -39.710945 0.773920 -0.113840 0.622968 77 77 62 255
-497.877930 84.208008 14.682743 0.186336 -0.295936 0.936857 77 77 62 255
-483.007812 73.584961 8.369526 0.186336 -0.295936 0.936857 77 77 62 255
-472.677734 88.375977 10.987127 0.186336 -0.295936 0.936857 77 77 62 255
-500.000000 83.089844 14.454562 0.310506 -0.716709 0.624430 77 77 62 255
-500.000000 82.196289 13.428957 0.310506 -0.716710 0.624430 77 77 62 255
-497.877930 84.208008 14.682743 0.310506 -0.716710 0.624430 77 77 62 255
-499.410156 -10.313477 -16.006351 0.829041 0.265914 0.491915 77 77 62 255
-500.000000 -3.938477 -18.458399 0.829041 0.265914 0.491915 77 77 62 255
-500.000000 -9.277344 -15.572369 0.829041 0.265914 0.491915 77 77 62 255
-477.557617 -32.197266 -41.011009 0.829081 0.265896 0.491857 77 77 62 255
-500.000000 -3.938477 -18.458399 0.829081 0.265896 0.491857 77 77 62 255
-499.410156 -10.313477 -16.006351 0.829081 0.265896 0.491857 77 77 62 255
-440.517578 -45.116211 -71.006660 0.463463 -0.447279 0.764947 77 77 62 255
-470.770508 -19.078125 -37.452145 0.463463 -0.447279 0.764947 77 77 62 255
-477.557617 -32.197266 -41.011009 0.463463 -0.447279 0.764947 77 77 62 255
-477.878906 140.560547 4.825871 0.186080 0.655759 0.731679 77 77 62 255
-489.312500 148.951172 0.213657 0.186080 0.655759 0.731679 77 77 62 255
-486.916992 141.171875 6.576538 0.186080 0.655759 0.731679 77 77 62 255
-454.205078 -57.874023 -65.523026 0.200664 -0.489136 0.848811 77 77 62 255
-481.620117 -45.116211 -51.690136 0.200664 -0.489136 0.848811 77 77 62 255
-481.620117 -57.874023 -59.041962 0.200664 -0.489136 0.848811 77 77 62 255
-481.620117 -45.116211 -51.690136 0.079070 -0.649787 0.755993 77 77 62 255
-454.205078 -57.874023 -65.523026 0.079070 -0.649787 0.755993 77 77 62 255
-477.557617 -32.197266 -41.011009 0.079070 -0.649787 0.755993 77 77 62 255
-399.417969 69.755859 -52.982933 0.729890 0.072039 0.679758 77 77 62 255
-385.708984 44.221680 -64.996872 0.729890 0.072039 0.679758 77 77 62 255
-399.417969 95.290039 -55.688995 0.729890 0.072039 0.679758 77 77 62 255
-404.467773 108.156250 -39.710945 0.959700 0.029617 0.279461 77 77 62 255
-399.417969 69.755859 -52.982933 0.959700 0.029617 0.279461 77 77 62 255
-399.417969 95.290039 -55.688995 0.959700 0.029617 0.279461 77 77 62 255
-462.082031 116.631836 12.678689 0.149337 0.222607 0.963403 77 77 62 255
-476.458008 129.123047 12.020847 0.149337 0.222607 0.963403 77 77 62 255
-480.696289 110.493164 16.982510 0.149337 0.222607 0.963403 77 77 62 255
-500.000000 74.821289 8.924051 -0.010036 -0.521252 0.853344 77 77 62 255
-497.877930 84.208008 14.682743 -0.010036 -0.521252 0.853344 77 77 62 255
-500.000000 82.196289 13.428957 -0.010036 -0.521252 0.853344 77 77 62 255
-483.007812 73.584961 8.369526 -0.010077 -0.521245 0.853347 77 77 62 255
-497.877930 84.208008 14.682743 -0.010077 -0.521245 0.853347 77 77 62 255
-500.000000 74.821289 8.924051 -0.010077 -0.521245 0.853347 77 77 62 255
-467.836914 60.938477 0.187710 -0.137534 -0.766552 0.627282 77 77 62 255
-500.000000 70.603516 4.946697 -0.137534 -0.766552 0.627282 77 77 62 255
-471.789062 52.081055 -11.502770 -0.137534 -0.766552 0.627282 77 77 62 255
-500.000000 72.704102 7.513973 -0.137552 -0.766588 0.627234 77 77 62 255
-500.000000 70.603516 4.946697 -0.137552 -0.766588 0.627234 77 77 62 255
-467.836914 60.938477 0.187710 -0.137552 -0.766588 0.627234 77 77 62 255
-481.620117 -57.874023 -59.041962 0.211724 -0.391251 0.895598 77 77 62 255
-467.915039 -83.407227 -73.436371 0.211724 -0.391252 0.895598 77 77 62 255
-454.205078 -57.874023 -65.523026 0.211724 -0.391251 0.895598 77 77 62 255
-467.915039 -83.407227 -73.436371 0.406719 -0.290656 0.866083 77 77 62 255
-495.308594 -57.874023 -52.003258 0.406719 -0.290656 0.866083 77 77 62 255
-481.620117 -96.164062 -71.281532 0.406719 -0.290656 0.866083 77 77 62 255
-498.517578 121.088867 13.119773 -0.422843 0.492159 0.760909 77 77 62 255
-486.916992 141.171875 6.576538 -0.422843 0.492159 0.760909 77 77 62 255
-489.312500 148.951172 0.213657 -0.422843 0.492159 0.760909 77 77 62 255
-399.417969 95.290039 -55.688995 0.489723 -0.022031 0.871600 77 77 62 255
-358.293945 44.221680 -80.086052 0.489723 -0.022031 0.871600 77 77 62 255
-358.293945 88.900391 -78.956734 0.489723 -0.022031 0.871600 77 77 62 255
-358.293945 18.708008 -81.431618 0.398880 -0.153727 0.904026 77 77 62 255
-385.708984 44.221680 -64.996872 0.398880 -0.153727 0.904026 77 77 62 255
-385.708984 18.708008 -69.335396 0.398880 -0.153727 0.904026 77 77 62 255
-385.708984 44.221680 -64.996872 0.599874 -0.134128 0.788771 77 77 62 255
-442.240234 51.012695 -20.849079 0.599874 -0.134128 0.788771 77 77 62 255
-385.708984 18.708008 -69.335396 0.599874 -0.134128 0.788771 77 77 62 255
-447.942383 150.362305 -30.334997 0.352988 0.385901 0.852338 77 77 62 255
-439.310547 129.951172 -24.668545 0.352988 0.385901 0.852338 77 77 62 255
-397.669922 133.506836 -43.523487 0.352988 0.385901 0.852338 77 77 62 255
-397.669922 133.506836 -43.523487 0.274611 0.631083 0.725481 77 77 62 255
-439.310547 129.951172 -24.668545 0.274611 0.631083 0.725481 77 77 62 255
-416.075195 118.925781 -23.872858 0.274611 0.631083 0.725481 77 77 62 255
-468.475586 151.422852 -17.054598 0.507408 0.422999 0.750739 77 77 62 255
-439.310547 129.951172 -24.668545 0.507408 0.422999 0.750739 77 77 62 255
-447.942383 150.362305 -30.334997 0.507408 0.422999 0.750739 77 77 62 255
-468.475586 151.422852 -17.054598 0.902811 0.158776 0.399652 77 77 62 255
-466.875000 163.909180 -25.630947 0.902811 0.158776 0.399652 77 77 62 255
-473.539062 149.675781 -4.922163 0.902811 0.158776 0.399652 77 77 62 255
-379.230469 159.678711 -71.640434 0.175140 0.272327 0.946131 77 77 62 255
-385.708984 120.803711 -59.251709 0.175140 0.272327 0.946131 77 77 62 255
-351.334961 185.105469 -84.122871 0.175140 0.272327 0.946131 77 77 62 255
-351.334961 185.105469 -84.122871 0.479880 -0.098497 0.871788 77 77 62 255
-404.837891 198.612305 -53.145874 0.479880 -0.098497 0.871788 77 77 62 255
-379.230469 159.678711 -71.640434 0.479880 -0.098497 0.871788 77 77 62 255
-385.708984 120.803711 -59.251709 0.405276 0.347920 0.845401 77 77 62 255
-344.605469 108.046875 -73.706253 0.405276 0.347920 0.845401 77 77 62 255
-344.605469 133.580078 -84.214294 0.405276 0.347920 0.845401 77 77 62 255
-435.980469 19.092773 -40.901505 0.311429 -0.705160 0.636994 77 77 62 255
-440.517578 -6.826172 -67.375877 0.311429 -0.705160 0.636994 77 77 62 255
-413.102539 5.931641 -66.656143 0.311429 -0.705160 0.636994 77 77 62 255
-399.417969 -19.582031 -78.361557 0.138791 -0.350499 0.926222 77 77 62 255
-413.102539 5.931641 -66.656143 0.138791 -0.350499 0.926222 77 77 62 255
-440.517578 -6.826172 -67.375877 0.138791 -0.350499 0.926222 77 77 62 255
-471.789062 52.081055 -11.502770 0.121980 -0.583273 0.803065 77 77 62 255
-500.000000 54.094727 -5.755174 0.121980 -0.583273 0.803065 77 77 62 255
-435.980469 19.092773 -40.901505 0.121980 -0.583273 0.803065 77 77 62 255
-500.000000 59.698242 -1.685294 0.121980 -0.583273 0.803065 77 77 62 255
-500.000000 54.094727 -5.755174 0.121980 -0.583273 0.803065 77 77 62 255
-471.789062 52.081055 -11.502770 0.121980 -0.583273 0.803065 77 77 62 255
-442.240234 51.012695 -20.849079 0.248783 -0.479776 0.841381 77 77 62 255
-471.789062 52.081055 -11.502770 0.248783 -0.479776 0.841381 77 77 62 255
-435.980469 19.092773 -40.901505 0.248783 -0.479776 0.841381 77 77 62 255
-500.000000 -10.083984 -15.579440 0.357159 -0.522402 0.774295 77 77 62 255
-500.000000 -10.483398 -15.848917 0.357159 -0.522402 0.774295 77 77 62 255
-499.410156 -10.313477 -16.006351 0.357159 -0.522402 0.774295 77 77 62 255
-500.000000 -26.529297 -25.483032 0.352863 -0.481643 0.802190 77 77 62 255
-499.410156 -10.313477 -16.006351 0.352863 -0.481643 0.802190 77 77 62 255
-500.000000 -10.483398 -15.848917 0.352863 -0.481643 0.802190 77 77 62 255
-491.467773 -32.207031 -32.648754 0.353154 -0.481595 0.802090 77 77 62 255
-499.410156 -10.313477 -16.006351 0.353154 -0.481595 0.802090 77 77 62 255
-500.000000 -26.529297 -25.483032 0.353154 -0.481595 0.802090 77 77 62 255
-489.312500 148.951172 0.213657 0.202214 0.668802 0.715412 77 77 62 255
-477.878906 140.560547 4.825871 0.202214 0.668801 0.715412 77 77 62 255
-473.539062 149.675781 -4.922163 0.202214 0.668802 0.715412 77 77 62 255
-489.312500 148.951172 0.213657 0.156871 0.789624 0.593199 77 77 62 255
-473.539062 149.675781 -4.922163 0.156871 0.789624 0.593199 77 77 62 255
-466.875000 163.909180 -25.630947 0.156871 0.789624 0.593199 77 77 62 255
-467.836914 60.938477 0.187710 0.621456 0.637530 0.455356 77 77 62 255
-442.240234 51.012695 -20.849079 0.621456 0.637530 0.455356 77 77 62 255
-462.587891 64.985352 -12.641909 0.621456 0.637530 0.455356 77 77 62 255
-462.587891 64.985352 -12.641909 0.506826 0.254243 0.823704 77 77 62 255
-442.240234 51.012695 -20.849079 0.506826 0.254243 0.823704 77 77 62 255
-399.417969 69.755859 -52.982933 0.506826 0.254243 0.823704 77 77 62 255
-473.350586 249.687500 -73.820625 0.483044 0.455484 0.747799 77 77 62 255
-500.000000 249.339844 -56.394569 0.483044 0.455484 0.747799 77 77 62 255
-473.350586 236.910156 -66.037949 0.483044 0.455484 0.747799 77 77 62 255
-500.000000 249.687500 -56.606251 0.483081 0.455354 0.747854 77 77 62 255
-500.000000 249.339844 -56.394569 0.483081 0.455354 0.747854 77 77 62 255
-473.350586 249.687500 -73.820625 0.483081 0.455354 0.747854 77 77 62 255
-473.350586 236.910156 -66.037949 0.218047 0.507682 0.833495 77 77 62 255
-459.644531 224.154297 -61.853939 0.218047 0.507682 0.833495 77 77 62 255
-473.350586 249.687500 -73.820625 0.218047 0.507682 0.833495 77 77 62 255
-477.557617 -32.197266 -41.011009 0.340570 -0.406238 0.847928 77 77 62 255
-500.000000 1.875977 -15.672723 0.340570 -0.406238 0.847928 77 77 62 255
-500.000000 -3.938477 -18.458399 0.340570 -0.406238 0.847928 77 77 62 255
-470.770508 -19.078125 -37.452145 0.340592 -0.406223 0.847927 77 77 62 255
-500.000000 1.875977 -15.672723 0.340592 -0.406223 0.847927 77 77 62 255
-477.557617 -32.197266 -41.011009 0.340592 -0.406223 0.847927 77 77 62 255
-449.035156 5.980469 -42.429443 0.466571 -0.235346 0.852598 77 77 62 255
-500.000000 1.875977 -15.672723 0.466571 -0.235346 0.852598 77 77 62 255
-470.770508 -19.078125 -37.452145 0.466571 -0.235346 0.852598 77 77 62 255
-500.000000 8.940430 -13.722768 0.466571 -0.235338 0.852600 77 77 62 255
-500.000000 1.875977 -15.672723 0.466571 -0.235338 0.852600 77 77 62 255
-449.035156 5.980469 -42.429443 0.466571 -0.235338 0.852600 77 77 62 255
-500.000000 -62.246094 -50.828064 0.440621 -0.240314 0.864929 77 77 62 255
-500.000000 -68.795898 -52.647881 0.440621 -0.240314 0.864929 77 77 62 255
-495.308594 -57.874023 -52.003258 0.440621 -0.240314 0.864929 77 77 62 255
-495.308594 -57.874023 -52.003258 0.443017 -0.247912 0.861554 77 77 62 255
-467.915039 -83.407227 -73.436371 0.443017 -0.247912 0.861554 77 77 62 255
-481.620117 -57.874023 -59.041962 0.443017 -0.247912 0.861554 77 77 62 255
-481.620117 -57.874023 -59.041962 0.381494 -0.551394 0.741908 77 77 62 255
-495.308594 -45.116211 -42.521515 0.381494 -0.551394 0.741908 77 77 62 255
-495.308594 -57.874023 -52.003258 0.381494 -0.551394 0.741908 77 77 62 255
-404.837891 198.612305 -53.145874 0.333557 0.142577 0.931886 77 77 62 255
-466.875000 163.909180 -25.630947 0.333557 0.142577 0.931886 77 77 62 255
-447.942383 150.362305 -30.334997 0.333557 0.142577 0.931886 77 77 62 255
-447.942383 150.362305 -30.334997 0.502485 0.444814 0.741384 77 77 62 255
-466.875000 163.909180 -25.630947 0.502485 0.444814 0.741384 77 77 62 255
-468.475586 151.422852 -17.054598 0.502485 0.444814 0.741384 77 77 62 255
-481.620117 -96.164062 -71.281532 0.402500 -0.448159 0.798215 77 77 62 255
-500.000000 -102.384766 -65.506096 0.402500 -0.448159 0.798215 77 77 62 255
-495.308594 -108.940430 -71.552422 0.402500 -0.448159 0.798215 77 77 62 255
-500.000000 -91.884766 -59.611172 0.402498 -0.448141 0.798226 77 77 62 255
-500.000000 -102.384766 -65.506096 0.402498 -0.448141 0.798226 77 77 62 255
-481.620117 -96.164062 -71.281532 0.402498 -0.448141 0.798226 77 77 62 255
-399.417969 -19.582031 -78.361557 0.328274 -0.326477 0.886368 77 77 62 255
-385.708984 -6.826172 -78.740425 0.328274 -0.326477 0.886368 77 77 62 255
-385.708984 18.708008 -69.335396 0.328274 -0.326477 0.886368 77 77 62 255
-445.534180 129.469727 0.779664 0.375097 0.693459 0.615156 77 77 62 255
-473.539062 149.675781 -4.922163 0.375097 0.693459 0.615156 77 77 62 255
-457.663086 129.122070 8.567278 0.375097 0.693459 0.615156 77 77 62 255
-457.663086 129.122070 8.567278 0.470501 0.459527 0.753302 77 77 62 255
-444.115234 117.057617 7.465000 0.470501 0.459526 0.753302 77 77 62 255
-445.534180 129.469727 0.779664 0.470501 0.459526 0.753302 77 77 62 255
-462.082031 116.631836 12.678689 0.279543 -0.075617 0.957151 77 77 62 255
-430.364258 104.766602 2.477918 0.279543 -0.075617 0.957151 77 77 62 255
-444.115234 117.057617 7.465000 0.279543 -0.075617 0.957151 77 77 62 255
-416.075195 118.925781 -23.872858 0.642065 0.473769 0.602741 77 77 62 255
-444.115234 117.057617 7.465000 0.642065 0.473769 0.602741 77 77 62 255
-430.364258 104.766602 2.477918 0.642065 0.473769 0.602741 77 77 62 255
-420.689453 83.257812 -28.655607 0.497690 -0.728078 0.471389 77 77 62 255
-420.540039 93.487305 -13.013525 0.497690 -0.728078 0.471389 77 77 62 255
-462.587891 64.985352 -12.641909 0.497690 -0.728078 0.471389 77 77 62 255
-420.689453 83.257812 -28.655607 0.987018 -0.138575 0.081196 77 77 62 255
-416.075195 118.925781 -23.872858 0.987018 -0.138575 0.081196 77 77 62 255
-420.540039 93.487305 -13.013525 0.987018 -0.138575 0.081196 77 77 62 255
-498.517578 121.088867 13.119773 -0.081334 0.350918 0.932867 77 77 62 255
-476.458008 129.123047 12.020847 -0.081334 0.350918 0.932867 77 77 62 255
-486.916992 141.171875 6.576538 -0.081334 0.350918 0.932867 77 77 62 255
-480.696289 110.493164 16.982510 0.165418 0.178433 0.969948 77 77 62 255
-472.540039 104.672852 16.662226 0.165418 0.178433 0.969948 77 77 62 255
-462.082031 116.631836 12.678689 0.165418 0.178433 0.969948 77 77 62 255
-430.364258 104.766602 2.477918 0.318477 0.037010 0.947208 77 77 62 255
-462.082031 116.631836 12.678689 0.318477 0.037010 0.947208 77 77 62 255
-472.540039 104.672852 16.662226 0.318477 0.037010 0.947208 77 77 62 255
-480.993164 186.683594 -37.013832 0.354097 0.484623 0.799848 77 77 62 255
-500.000000 164.779297 -15.327715 0.354097 0.484623 0.799847 77 77 62 255
-499.624023 162.028320 -13.827362 0.354097 0.484623 0.799847 77 77 62 255
-500.000000 190.629883 -30.988823 0.354156 0.484575 0.799851 77 77 62 255
-500.000000 164.779297 -15.327715 0.354156 0.484575 0.799851 77 77 62 255
-480.993164 186.683594 -37.013832 0.354156 0.484575 0.799851 77 77 62 255
-500.000000 164.779297 -15.327715 0.230198 0.490010 0.840773 77 77 62 255
-500.000000 162.093750 -13.762555 0.230198 0.490010 0.840773 77 77 62 255
-499.624023 162.028320 -13.827362 0.230198 0.490010 0.840773 77 77 62 255
-487.057617 281.589844 -80.633736 0.419376 -0.059245 0.905877 77 77 62 255
-500.000000 284.607422 -74.444702 0.419376 -0.059245 0.905877 77 77 62 255
-500.000000 275.548828 -75.037140 0.419376 -0.059245 0.905877 77 77 62 255
-487.057617 281.589844 -80.633736 0.136920 0.499276 0.855556 77 77 62 255
-500.000000 275.548828 -75.037140 0.136919 0.499276 0.855556 77 77 62 255
-500.000000 263.486328 -67.997833 0.136919 0.499276 0.855556 77 77 62 255
-404.852539 211.396484 -64.496689 0.203287 0.497887 0.843080 77 77 62 255
-418.540039 249.687500 -83.809326 0.203287 0.497887 0.843080 77 77 62 255
-459.644531 262.444336 -81.431656 0.203287 0.497887 0.843080 77 77 62 255
-404.852539 211.396484 -64.496689 0.508382 0.525719 0.682032 77 77 62 255
-351.334961 185.105469 -84.122871 0.508382 0.525719 0.682032 77 77 62 255
-418.540039 249.687500 -83.809326 0.508382 0.525719 0.682032 77 77 62 255
-462.587891 64.985352 -12.641909 0.701744 0.544879 0.458979 77 77 62 255
-483.007812 73.584961 8.369526 0.701744 0.544879 0.458979 77 77 62 255
-467.836914 60.938477 0.187710 0.701744 0.544879 0.458979 77 77 62 255
-483.007812 73.584961 8.369526 -0.013172 -0.554239 0.832253 77 77 62 255
-500.000000 72.704102 7.513973 -0.013172 -0.554239 0.832253 77 77 62 255
-467.836914 60.938477 0.187710 -0.013172 -0.554239 0.832253 77 77 62 255
-500.000000 74.821289 8.924051 -0.013169 -0.554276 0.832228 77 77 62 255
-500.000000 72.704102 7.513973 -0.013169 -0.554276 0.832228 77 77 62 255
-483.007812 73.584961 8.369526 -0.013169 -0.554276 0.832228 77 77 62 255
-416.075195 118.925781 -23.872858 0.764732 -0.109572 0.634963 77 77 62 255
-404.467773 108.156250 -39.710945 0.764732 -0.109572 0.634964 77 77 62 255
-397.669922 133.506836 -43.523487 0.764732 -0.109572 0.634964 77 77 62 255
-404.467773 108.156250 -39.710945 0.729615 -0.182752 0.658987 77 77 62 255
-416.075195 118.925781 -23.872858 0.729614 -0.182752 0.658987 77 77 62 255
-420.689453 83.257812 -28.655607 0.729614 -0.182752 0.658987 77 77 62 255
-344.605469 133.580078 -84.214294 0.332630 0.358905 0.872092 77 77 62 255
-344.605469 108.046875 -73.706253 0.332630 0.358905 0.872092 77 77 62 255
-317.192383 108.046875 -84.162033 0.332630 0.358905 0.872092 77 77 62 255
-459.644531 224.154297 -61.853939 0.043499 0.534679 0.843935 77 77 62 255
-480.993164 186.683594 -37.013832 0.043499 0.534679 0.843935 77 77 62 255
-445.955078 211.396484 -54.476768 0.043499 0.534679 0.843935 77 77 62 255
-459.644531 224.154297 -61.853939 -0.188866 0.331790 0.924254 77 77 62 255
-445.955078 211.396484 -54.476768 -0.188866 0.331790 0.924254 77 77 62 255
-473.350586 249.687500 -73.820625 -0.188866 0.331790 0.924254 77 77 62 255
-500.000000 8.940430 -13.722768 0.346868 -0.643589 0.682258 77 77 62 255
-441.851562 19.120117 -33.683346 0.346868 -0.643589 0.682258 77 77 62 255
-500.000000 11.051758 -11.731104 0.346868 -0.643589 0.682258 77 77 62 255
-449.035156 5.980469 -42.429443 0.346854 -0.643696 0.682164 77 77 62 255
-441.851562 19.120117 -33.683346 0.346854 -0.643696 0.682164 77 77 62 255
-500.000000 8.940430 -13.722768 0.346854 -0.643696 0.682164 77 77 62 255
-440.517578 -6.826172 -67.375877 0.552543 -0.649647 0.522164 77 77 62 255
-441.851562 19.120117 -33.683346 0.552543 -0.649647 0.522164 77 77 62 255
-449.035156 5.980469 -42.429443 0.552543 -0.649647 0.522164 77 77 62 255
-466.875000 163.909180 -25.630947 0.231649 0.546008 0.805117 77 77 62 255
-480.993164 186.683594 -37.013832 0.231649 0.546008 0.805117 77 77 62 255
-484.267578 168.799805 -23.943428 0.231649 0.546008 0.805117 77 77 62 255
-484.267578 168.799805 -23.943428 0.291692 0.529014 0.796907 77 77 62 255
-480.993164 186.683594 -37.013832 0.291692 0.529014 0.796907 77 77 62 255
-499.624023 162.028320 -13.827362 0.291692 0.529014 0.796907 77 77 62 255
-491.467773 -32.207031 -32.648754 0.388972 -0.656537 0.646267 77 77 62 255
-481.620117 -45.116211 -51.690136 0.388972 -0.656537 0.646267 77 77 62 255
-477.557617 -32.197266 -41.011009 0.388972 -0.656537 0.646267 77 77 62 255
-499.410156 -10.313477 -16.006351 0.467516 -0.421184 0.777196 77 77 62 255
-491.467773 -32.207031 -32.648754 0.467516 -0.421184 0.777196 77 77 62 255
-477.557617 -32.197266 -41.011009 0.467516 -0.421184 0.777196 77 77 62 255
-372.001953 108.046875 -69.496384 0.411821 -0.259111 0.873651 77 77 62 255
-385.708984 120.803711 -59.251709 0.411821 -0.259111 0.873651 77 77 62 255
-385.708984 108.046875 -63.035179 0.411820 -0.259111 0.873651 77 77 62 255
-397.669922 133.506836 -43.523487 0.692044 -0.205253 0.692059 77 77 62 255
-385.708984 108.046875 -63.035179 0.692044 -0.205253 0.692059 77 77 62 255
-385.708984 120.803711 -59.251709 0.692044 -0.205253 0.692059 77 77 62 255
-495.308594 -45.116211 -42.521515 0.501940 -0.431839 0.749381 77 77 62 255
-481.620117 -57.874023 -59.041962 0.501940 -0.431839 0.749381 77 77 62 255
-481.620117 -45.116211 -51.690136 0.501940 -0.431839 0.749381 77 77 62 255
-481.620117 -45.116211 -51.690136 0.434347 -0.625168 0.648466 77 77 62 255
-491.467773 -32.207031 -32.648754 0.434347 -0.625168 0.648466 77 77 62 255
-495.308594 -45.116211 -42.521515 0.434347 -0.625168 0.648466 77 77 62 255
-486.916992 141.171875 6.576538 0.195143 0.539492 0.819065 77 77 62 255
-476.458008 129.123047 12.020847 0.195143 0.539492 0.819065 77 77 62 255
-477.878906 140.560547 4.825871 0.195143 0.539492 0.819065 77 77 62 255
-457.663086 129.122070 8.567278 0.152166 0.539748 0.827960 77 77 62 255
-477.878906 140.560547 4.825871 0.152166 0.539748 0.827960 77 77 62 255
-476.458008 129.123047 12.020847 0.152166 0.539748 0.827960 77 77 62 255
-500.000000 263.486328 -67.997833 -0.181981 0.646952 0.740497 77 77 62 255
-500.000000 251.423828 -57.459145 -0.181981 0.646952 0.740497 77 77 62 255
-487.057617 281.589844 -80.633736 -0.181981 0.646953 0.740497 77 77 62 255
-385.708984 108.046875 -63.035179 0.422167 -0.140267 0.895600 77 77 62 255
-358.293945 88.900391 -78.956734 0.422167 -0.140267 0.895600 77 77 62 255
-372.001953 108.046875 -69.496384 0.422167 -0.140267 0.895600 77 77 62 255
-372.001953 108.046875 -69.496384 0.141994 -0.354916 0.924052 77 77 62 255
-358.293945 88.900391 -78.956734 0.141994 -0.354916 0.924052 77 77 62 255
-344.605469 108.046875 -73.706253 0.141994 -0.354916 0.924052 77 77 62 255
-358.293945 88.900391 -78.956734 0.066859 -0.308046 0.949019 77 77 62 255
-330.899414 82.512695 -82.960114 0.066859 -0.308046 0.949019 77 77 62 255
-344.605469 108.046875 -73.706253 0.066859 -0.308046 0.949019 77 77 62 255
-317.192383 108.046875 -84.162033 0.352568 -0.145751 0.924366 77 77 62 255
-344.605469 108.046875 -73.706253 0.352568 -0.145751 0.924366 77 77 62 255
-330.899414 82.512695 -82.960114 0.352568 -0.145751 0.924366 77 77 62 255
-500.000000 121.071289 13.032730 -0.059221 0.060290 0.996423 54 64 7 255
-500.000000 120.086914 13.092291 -0.059221 0.060290 0.996423 54 64 7 255
-498.517578 121.088867 13.119773 -0.059221 0.060290 0.996423 54 64 7 255
-500.000000 85.075195 14.338770 -0.136728 0.057678 0.988928 54 64 7 255
-500.000000 83.089844 14.454562 -0.136728 0.057678 0.988928 54 64 7 255
-497.877930 84.208008 14.682743 -0.136728 0.057678 0.988928 54 64 7 255
-498.517578 121.088867 13.119773 -0.189882 0.038283 0.981060 54 64 7 255
-497.877930 84.208008 14.682743 -0.189882 0.038283 0.981060 54 64 7 255
-480.696289 110.493164 16.982510 -0.189882 0.038283 0.981060 54 64 7 255
-498.517578 121.088867 13.119773 -0.059280 0.067500 0.995957 54 64 7 255
-500.000000 122.440430 12.939939 -0.059280 0.067500 0.995957 54 64 7 255
-500.000000 121.071289 13.032730 -0.059280 0.067500 0.995957 54 64 7 255
-498.517578 121.088867 13.119773 0.028090 -0.048855 0.998411 54 64 7 255
-500.000000 119.116211 13.064954 0.028090 -0.048855 0.998411 54 64 7 255
-500.000000 118.184570 13.019366 0.028090 -0.048855 0.998411 54 64 7 255
-500.000000 120.086914 13.092291 0.000496 -0.028151 0.999604 54 64 7 255
-500.000000 119.116211 13.064954 0.000496 -0.028151 0.999604 54 64 7 255
-498.517578 121.088867 13.119773 0.000496 -0.028151 0.999604 54 64 7 255
-498.517578 121.088867 13.119773 -0.144171 0.039402 0.988768 54 64 7 255
-500.000000 85.075195 14.338770 -0.144171 0.039402 0.988768 54 64 7 255
-497.877930 84.208008 14.682743 -0.144171 0.039402 0.988768 54 64 7 255
-500.000000 118.184570 13.019366 -0.144166 0.039402 0.988769 54 64 7 255
-500.000000 85.075195 14.338770 -0.144166 0.039402 0.988769 54 64 7 255
-498.517578 121.088867 13.119773 -0.144166 0.039402 0.988769 54 64 7 255
3 0 1 2
3 3 4 5
3 6 7 8
3 9 10 11
3 12 13 14
3 15 16 17
3 18 19 20
3 21 22 23
3 24 25 26
3 27 28 29
3 30 31 32
3 33 34 35
3 36 37 38
3 39 40 41
3 42 43 44
3 45 46 47
3 48 49 50
3 51 52 53
3 54 55 56
3 57 58 59
3 60 61 62
3 63 64 65
3 66 67 68
3 69 70 71
3 72 73 74
3 75 76 77
3 78 79 80
3 81 82 83
3 84 85 86
3 87 88 89
3 90 91 92
3 93 94 95
3 96 97 98
3 99 100 101
3 102 103 104
3 105 106 107
3 108 109 110
3 111 112 113
3 114 115 116
3 117 118 119
3 120 121 122
3 123 124 125
3 126 127 128
3 129 130 131
3 132 133 134
3 135 136 137
3 138 139 140
3 141 142 143
3 144 145 146
3 147 148 149
3 150 151 152
3 153 154 155
3 156 157 158
3 159 160 161
3 162 163 164
3 165 166 167
3 168 169 170
3 171 172 173
3 174 175 176
3 177 178 179
3 180 181 182
3 183 184 185
3 186 187 188
3 189 190 191
3 192 193 194
3 195 196 197
3 198 199 200
3 201 202 203
3 204 205 206
3 207 208 209
3 210 211 212
3 213 214 215
3 216 217 218
3 219 220 221
3 222 223 224
3 225 226 227
3 228 229 230
3 231 232 233
3 234 235 236
3 237 238 239
3 240 241 242
3 243 244 245
3 246 247 248
3 249 250 251
3 252 253 254
3 255 256 257
3 258 259 260
3 261 262 263
3 264 265 266
3 267 268 269
3 270 271 272
3 273 274 275
3 276 277 278
3 279 280 281
3 282 283 284
3 285 286 287
3 288 289 290
3 291 292 293
3 294 295 296
3 297 298 299
3 300 301 302
3 303 304 305
3 306 307 308
3 309 310 311
3 312 313 314
3 315 316 317
3 318 319 320
3 321 322 323
3 324 325 326
3 327 328 329
3 330 331 332
3 333 334 335
3 336 337 338
3 339 340 341
3 342 343 344
3 345 346 347
3 348 349 350
3 351 352 353
3 354 355 356
3 357 358 359
3 360 361 362
3 363 364 365
3 366 367 368
3 369 370 371
3 372 373 374
3 375 376 377
3 378 379 380
3 381 382 383
3 384 385 386
3 387 388 389
3 390 391 392
3 393 394 395
3 396 397 398
3 399 400 401
3 402 403 404
3 405 406 407
3 408 409 410
3 411 412 413
3 414 415 416
3 417 418 419
3 420 421 422
3 423 424 425
3 426 427 428
3 429 430 431
3 432 433 434
3 435 436 437
3 438 439 440
3 441 442 443
3 444 445 446
3 447 448 449
3 450 451 452
3 453 454 455
3 456 457 458
3 459 460 461
3 462 463 464
3 465 466 467
3 468 469 470
3 471 472 473
3 474 475 476
3 477 478 479
3 480 481 482
3 483 484 485
3 486 487 488
3 489 490 491
3 492 493 494
3 495 496 497
3 498 499 500
3 501 502 503
3 504 505 506
3 507 508 509
3 510 511 512
3 513 514 515
3 516 517 518
3 519 520 521
3 522 523 524
3 525 526 527
3 528 529 530
3 531 532 533
3 534 535 536
3 537 538 539
3 540 541 542
3 543 544 545
3 546 547 548
3 549 550 551
3 552 553 554
