ply
format ascii 1.0
comment Created by Blender 3.4.1 - www.blender.org
element vertex 333
property float x
property float y
property float z
property float nx
property float ny
property float nz
property uchar red
property uchar green
property uchar blue
property uchar alpha
element face 111
property list uchar uint vertex_indices
end_header
-468.416016 233.133789 -24.149248 0.875451 -0.226748 0.426815 77 77 62 255
-494.781250 208.579102 16.884321 0.875451 -0.226748 0.426815 77 77 62 255
-442.031250 196.283691 -97.844444 0.875451 -0.226747 0.426815 77 77 62 255
-494.781250 110.308105 -27.346107 0.906401 0.371429 0.201190 77 77 62 255
-500.000000 128.336426 -37.117767 0.906401 0.371429 0.201190 77 77 62 255
-500.000000 117.198242 -16.554924 0.906401 0.371429 0.201190 77 77 62 255
-468.412109 110.308105 -146.140823 0.906399 0.371431 0.201196 77 77 62 255
-500.000000 128.336426 -37.117767 0.906399 0.371431 0.201195 77 77 62 255
-494.781250 110.308105 -27.346107 0.906399 0.371431 0.201196 77 77 62 255
-376.113281 171.729980 -230.797302 0.680198 -0.279333 0.677719 77 77 62 255
-415.667969 171.729980 -191.097916 0.680198 -0.279333 0.677719 77 77 62 255
-402.474609 110.308105 -229.655563 0.680198 -0.279333 0.677719 77 77 62 255
-500.000000 320.749023 -179.629776 0.215425 0.907557 0.360463 77 77 62 255
-500.000000 309.394043 -151.040726 0.215425 0.907557 0.360463 77 77 62 255
-494.775391 319.127441 -178.669434 0.215425 0.907557 0.360463 77 77 62 255
-494.781250 36.610352 -196.607178 0.138188 -0.821920 0.552587 77 77 62 255
-481.585938 -24.811035 -291.265442 0.138188 -0.821920 0.552587 77 77 62 255
-442.031250 24.332520 -228.060730 0.138188 -0.821920 0.552587 77 77 62 255
-468.412109 110.308105 -146.140823 0.947445 -0.241080 0.210307 77 77 62 255
-494.781250 110.308105 -27.346107 0.947445 -0.241080 0.210307 77 77 62 255
-468.412109 85.736328 -174.308075 0.947445 -0.241080 0.210307 77 77 62 255
-500.000000 165.696777 -17.934309 0.030404 -0.979001 0.201576 77 77 62 255
-468.416016 159.434570 -53.112087 0.030404 -0.979001 0.201576 77 77 62 255
-500.000000 168.901855 -2.368092 0.030404 -0.979001 0.201576 77 77 62 255
-442.031250 134.881348 -176.333252 0.030421 -0.978997 0.201590 77 77 62 255
-468.416016 159.434570 -53.112087 0.030421 -0.978997 0.201590 77 77 62 255
-500.000000 165.696777 -17.934309 0.030421 -0.978997 0.201590 77 77 62 255
-494.781250 184.006836 16.999594 0.447756 -0.607727 0.655882 77 77 62 255
-500.000000 172.481934 9.883577 0.447756 -0.607727 0.655882 77 77 62 255
-481.585938 171.729980 -3.384037 0.447756 -0.607727 0.655882 77 77 62 255
-500.000000 181.003418 17.779451 0.447761 -0.607727 0.655879 77 77 62 255
-500.000000 172.481934 9.883577 0.447761 -0.607727 0.655879 77 77 62 255
-494.781250 184.006836 16.999594 0.447761 -0.607727 0.655879 77 77 62 255
-494.775391 269.983398 -59.369640 0.679979 0.667908 0.302537 77 77 62 255
-455.224609 233.133789 -66.911034 0.679979 0.667908 0.302537 77 77 62 255
-468.410156 282.278809 -145.772369 0.679979 0.667908 0.302537 77 77 62 255
-428.839844 269.983398 -177.942230 0.540750 0.751511 0.377916 77 77 62 255
-468.410156 282.278809 -145.772369 0.540750 0.751511 0.377916 77 77 62 255
-455.224609 233.133789 -66.911034 0.540750 0.751511 0.377916 77 77 62 255
-468.412109 48.886230 -183.027039 0.355858 -0.717003 0.599394 77 77 62 255
-442.031250 24.332520 -228.060730 0.355858 -0.717003 0.599394 77 77 62 255
-415.667969 36.610352 -229.025604 0.355858 -0.717003 0.599394 77 77 62 255
-468.412109 110.308105 -146.140823 0.825134 -0.415476 0.382796 77 77 62 255
-500.000000 165.696777 -17.934309 0.825135 -0.415476 0.382796 77 77 62 255
-500.000000 153.945801 -30.688494 0.825135 -0.415476 0.382796 77 77 62 255
-442.031250 134.881348 -176.333252 0.825127 -0.415489 0.382799 77 77 62 255
-500.000000 165.696777 -17.934309 0.825127 -0.415489 0.382799 77 77 62 255
-468.412109 110.308105 -146.140823 0.825127 -0.415489 0.382799 77 77 62 255
-455.224609 73.459473 -209.898102 0.933038 -0.245815 0.262707 77 77 62 255
-494.781250 73.458984 -69.408073 0.933038 -0.245815 0.262707 77 77 62 255
-468.412109 61.182617 -174.548447 0.933038 -0.245815 0.262707 77 77 62 255
-494.781250 245.428711 -6.819841 0.627102 0.421406 0.655103 77 77 62 255
-494.781250 208.579102 16.884321 0.627102 0.421406 0.655103 77 77 62 255
-468.416016 233.133789 -24.149248 0.627102 0.421406 0.655103 77 77 62 255
-415.667969 282.278809 -208.144180 0.435153 0.821730 0.367970 77 77 62 255
-468.410156 306.832520 -200.604370 0.435153 0.821730 0.367970 77 77 62 255
-468.410156 282.278809 -145.772369 0.435153 0.821730 0.367970 77 77 62 255
-468.412109 48.886230 -183.027039 0.658637 0.365667 0.657636 77 77 62 255
-415.667969 36.610352 -229.025604 0.658637 0.365667 0.657636 77 77 62 255
-455.224609 73.459473 -209.898102 0.658636 0.365667 0.657636 77 77 62 255
-389.281250 208.579590 -228.907578 0.926978 0.017334 0.374714 77 77 62 255
-455.224609 233.133789 -66.911034 0.926978 0.017334 0.374714 77 77 62 255
-442.031250 196.283691 -97.844444 0.926978 0.017334 0.374714 77 77 62 255
-376.113281 245.428711 -229.863922 0.594615 0.175839 0.784547 77 77 62 255
-415.667969 282.278809 -208.144180 0.594615 0.175839 0.784547 77 77 62 255
-402.474609 239.282227 -208.506821 0.594615 0.175839 0.784547 77 77 62 255
-494.781250 36.610352 -196.607178 -0.705101 -0.635698 0.314198 77 77 62 255
-500.000000 -7.658691 -297.885620 -0.705101 -0.635698 0.314198 77 77 62 255
-481.585938 -24.811035 -291.265442 -0.705101 -0.635698 0.314198 77 77 62 255
-500.000000 22.023438 -237.831955 -0.705121 -0.635679 0.314191 77 77 62 255
-500.000000 -7.658691 -297.885620 -0.705121 -0.635679 0.314191 77 77 62 255
-494.781250 36.610352 -196.607178 -0.705121 -0.635680 0.314191 77 77 62 255
-494.781250 36.610352 -196.607178 0.198973 -0.960353 0.195275 77 77 62 255
-500.000000 46.333008 -143.473923 0.198973 -0.960353 0.195275 77 77 62 255
-500.000000 31.750488 -215.190216 0.198973 -0.960353 0.195275 77 77 62 255
-494.781250 208.579102 16.884321 0.766485 0.067805 0.638673 77 77 62 255
-481.585938 184.006836 3.657090 0.766485 0.067805 0.638673 77 77 62 255
-468.416016 196.283691 -13.451773 0.766485 0.067805 0.638673 77 77 62 255
-455.224609 177.868164 -55.391533 0.831339 -0.488825 0.264435 77 77 62 255
-442.031250 134.881348 -176.333252 0.831339 -0.488825 0.264435 77 77 62 255
-415.667969 171.729980 -191.097916 0.831339 -0.488825 0.264435 77 77 62 255
-500.000000 131.843262 -55.590824 0.769379 0.627585 0.119138 77 77 62 255
-500.000000 128.336426 -37.117767 0.769379 0.627585 0.119138 77 77 62 255
-468.412109 110.308105 -146.140823 0.769379 0.627585 0.119138 77 77 62 255
-455.224609 233.133789 -66.911034 0.896757 0.307252 0.318469 77 77 62 255
-389.281250 208.579590 -228.907578 0.896757 0.307252 0.318469 77 77 62 255
-415.667969 245.428711 -190.158005 0.896757 0.307252 0.318469 77 77 62 255
-455.224609 233.133789 -66.911034 0.892246 0.320266 0.318319 77 77 62 255
-415.667969 245.428711 -190.158005 0.892246 0.320266 0.318319 77 77 62 255
-428.839844 269.983398 -177.942230 0.892246 0.320266 0.318319 77 77 62 255
-468.412109 85.736328 -174.308075 0.575480 -0.683523 0.449021 77 77 62 255
-455.224609 73.459473 -209.898102 0.575480 -0.683523 0.449021 77 77 62 255
-433.236328 81.644043 -225.620026 0.575480 -0.683523 0.449021 77 77 62 255
-494.775391 269.983398 -59.369640 0.688174 0.698339 0.196824 77 77 62 255
-481.585938 245.428711 -18.364235 0.688174 0.698339 0.196824 77 77 62 255
-455.224609 233.133789 -66.911034 0.688174 0.698338 0.196824 77 77 62 255
-494.781250 245.428711 -6.819841 0.137500 0.535863 0.833033 77 77 62 255
-500.000000 213.440430 14.618592 0.137500 0.535863 0.833033 77 77 62 255
-494.781250 208.579102 16.884321 0.137500 0.535863 0.833033 77 77 62 255
-500.000000 242.994629 -4.392859 0.137468 0.535870 0.833035 77 77 62 255
-500.000000 213.440430 14.618592 0.137468 0.535870 0.833035 77 77 62 255
-494.781250 245.428711 -6.819841 0.137468 0.535870 0.833035 77 77 62 255
-442.031250 196.283691 -97.844444 0.894379 -0.299962 0.331826 77 77 62 255
-415.667969 171.729980 -191.097916 0.894379 -0.299962 0.331826 77 77 62 255
-389.281250 208.579590 -228.907578 0.894379 -0.299962 0.331826 77 77 62 255
-428.839844 269.983398 -177.942230 0.843978 0.254992 0.471890 77 77 62 255
-402.474609 239.282227 -208.506821 0.843978 0.254992 0.471890 77 77 62 255
-415.667969 282.278809 -208.144180 0.843978 0.254992 0.471890 77 77 62 255
-468.410156 282.278809 -145.772369 0.605587 0.609121 0.512090 77 77 62 255
-428.839844 269.983398 -177.942230 0.605587 0.609121 0.512090 77 77 62 255
-415.667969 282.278809 -208.144180 0.605587 0.609121 0.512090 77 77 62 255
-442.031250 110.308105 -203.779755 0.495496 -0.425115 0.757470 77 77 62 255
-433.236328 81.644043 -225.620026 0.495496 -0.425115 0.757470 77 77 62 255
-402.474609 110.308105 -229.655563 0.495496 -0.425115 0.757470 77 77 62 255
-402.474609 110.308105 -229.655563 0.717442 -0.253270 0.648946 77 77 62 255
-415.667969 171.729980 -191.097916 0.717442 -0.253270 0.648946 77 77 62 255
-442.031250 134.881348 -176.333252 0.717442 -0.253270 0.648946 77 77 62 255
-500.000000 323.994141 -184.465866 0.153468 0.820541 0.550600 77 77 62 255
-500.000000 320.749023 -179.629776 0.153468 0.820541 0.550600 77 77 62 255
-494.775391 319.127441 -178.669434 0.153468 0.820541 0.550600 77 77 62 255
-468.412109 110.308105 -146.140823 0.812353 -0.436149 0.387113 77 77 62 255
-500.000000 153.945801 -30.688494 0.812353 -0.436149 0.387113 77 77 62 255
-500.000000 131.843262 -55.590824 0.812353 -0.436149 0.387113 77 77 62 255
-500.000000 168.901855 -2.368092 0.160776 -0.947372 0.276833 77 77 62 255
-481.585938 171.729980 -3.384037 0.160776 -0.947372 0.276833 77 77 62 255
-500.000000 172.481934 9.883577 0.160776 -0.947373 0.276833 77 77 62 255
-468.416016 159.434570 -53.112087 0.160776 -0.947376 0.276821 77 77 62 255
-481.585938 171.729980 -3.384037 0.160776 -0.947376 0.276821 77 77 62 255
-500.000000 168.901855 -2.368092 0.160776 -0.947376 0.276821 77 77 62 255
-376.113281 171.729980 -230.797302 0.692293 0.212013 0.689769 77 77 62 255
-389.281250 208.579590 -228.907578 0.692292 0.212013 0.689769 77 77 62 255
-415.667969 171.729980 -191.097916 0.692293 0.212013 0.689769 77 77 62 255
-433.236328 81.644043 -225.620026 0.656907 -0.568166 0.495641 77 77 62 255
-468.412109 110.308105 -146.140823 0.656907 -0.568166 0.495641 77 77 62 255
-468.412109 85.736328 -174.308075 0.656907 -0.568166 0.495641 77 77 62 255
-468.412109 110.308105 -146.140823 0.908626 -0.038077 0.415871 77 77 62 255
-433.236328 81.644043 -225.620026 0.908626 -0.038077 0.415871 77 77 62 255
-442.031250 110.308105 -203.779755 0.908626 -0.038077 0.415871 77 77 62 255
-468.412109 48.886230 -183.027039 0.291361 -0.919142 0.265117 77 77 62 255
-494.781250 61.182617 -111.416939 0.291361 -0.919142 0.265117 77 77 62 255
-494.781250 36.610352 -196.607178 0.291361 -0.919142 0.265117 77 77 62 255
-494.781250 36.610352 -196.607178 0.119313 -0.840665 0.528249 77 77 62 255
-442.031250 24.332520 -228.060730 0.119314 -0.840665 0.528249 77 77 62 255
-468.412109 48.886230 -183.027039 0.119313 -0.840665 0.528249 77 77 62 255
-494.781250 245.428711 -6.819841 0.019439 0.684732 0.728536 77 77 62 255
-500.000000 247.858887 -8.964650 0.019439 0.684732 0.728536 77 77 62 255
-500.000000 242.994629 -4.392859 0.019439 0.684732 0.728536 77 77 62 255
-468.412109 61.182617 -174.548447 0.557509 -0.796843 0.232864 77 77 62 255
-494.781250 73.458984 -69.408073 0.557509 -0.796843 0.232864 77 77 62 255
-494.781250 61.182617 -111.416939 0.557509 -0.796843 0.232864 77 77 62 255
-500.000000 78.323730 -52.761261 0.730741 -0.558646 0.392341 77 77 62 255
-500.000000 68.601562 -66.604454 0.730741 -0.558646 0.392341 77 77 62 255
-494.781250 73.458984 -69.408073 0.730741 -0.558646 0.392341 77 77 62 255
-500.000000 294.555176 -121.679733 0.585685 0.723401 0.365602 77 77 62 255
-494.775391 319.127441 -178.669434 0.585685 0.723401 0.365602 77 77 62 255
-500.000000 309.394043 -151.040726 0.585685 0.723401 0.365602 77 77 62 255
-494.775391 294.555176 -130.048843 0.585655 0.723421 0.365609 77 77 62 255
-494.775391 319.127441 -178.669434 0.585655 0.723421 0.365609 77 77 62 255
-500.000000 294.555176 -121.679733 0.585655 0.723421 0.365609 77 77 62 255
-500.000000 294.555176 -121.679733 0.542873 0.768398 0.338901 77 77 62 255
-500.000000 289.691895 -110.653099 0.542873 0.768398 0.338901 77 77 62 255
-494.775391 294.555176 -130.048843 0.542873 0.768398 0.338901 77 77 62 255
-402.474609 61.182617 -226.564911 -0.026342 -0.085595 0.995982 77 77 62 255
-433.236328 81.644043 -225.620026 -0.026342 -0.085595 0.995982 77 77 62 255
-415.667969 36.610352 -229.025604 -0.026342 -0.085595 0.995982 77 77 62 255
-500.000000 31.750488 -215.190216 -0.481867 -0.805094 0.345874 77 77 62 255
-500.000000 22.023438 -237.831955 -0.481867 -0.805094 0.345874 77 77 62 255
-494.781250 36.610352 -196.607178 -0.481867 -0.805094 0.345874 77 77 62 255
-415.667969 282.278809 -208.144180 0.399713 -0.107498 0.910315 77 77 62 255
-376.113281 245.428711 -229.863922 0.399713 -0.107498 0.910315 77 77 62 255
-389.281250 294.555176 -218.280685 0.399713 -0.107498 0.910315 77 77 62 255
-468.410156 306.832520 -200.604370 0.247242 0.243057 0.937974 77 77 62 255
-415.667969 282.278809 -208.144180 0.247242 0.243057 0.937974 77 77 62 255
-389.281250 294.555176 -218.280685 0.247242 0.243057 0.937974 77 77 62 255
-481.585938 184.006836 3.657090 0.711014 0.003299 0.703170 77 77 62 255
-494.781250 208.579102 16.884321 0.711014 0.003299 0.703170 77 77 62 255
-494.781250 184.006836 16.999594 0.711014 0.003299 0.703170 77 77 62 255
-494.781250 245.428711 -6.819841 0.621258 0.331354 0.710101 77 77 62 255
-468.416016 233.133789 -24.149248 0.621258 0.331354 0.710101 77 77 62 255
-481.585938 245.428711 -18.364235 0.621258 0.331354 0.710101 77 77 62 255
-481.585938 245.428711 -18.364235 0.347335 0.849555 0.397006 77 77 62 255
-494.775391 269.983398 -59.369640 0.347335 0.849555 0.397006 77 77 62 255
-494.781250 245.428711 -6.819841 0.347335 0.849555 0.397006 77 77 62 255
-468.410156 306.832520 -200.604370 0.259849 0.660337 0.704581 77 77 62 255
-389.281250 294.555176 -218.280685 0.259849 0.660337 0.704581 77 77 62 255
-455.220703 331.404297 -228.497437 0.259849 0.660337 0.704581 77 77 62 255
-455.220703 331.404297 -228.497437 0.336634 0.621911 0.707039 77 77 62 255
-500.000000 328.910645 -204.983795 0.336634 0.621911 0.707039 77 77 62 255
-468.410156 306.832520 -200.604370 0.336634 0.621911 0.707039 77 77 62 255
-500.000000 339.745117 -214.513748 0.336635 0.621909 0.707040 77 77 62 255
-500.000000 328.910645 -204.983795 0.336635 0.621909 0.707040 77 77 62 255
-455.220703 331.404297 -228.497437 0.336635 0.621909 0.707040 77 77 62 255
-442.031250 12.037598 -251.766953 0.344725 -0.833298 0.432179 77 77 62 255
-442.031250 24.332520 -228.060730 0.344725 -0.833298 0.432179 77 77 62 255
-481.585938 -24.811035 -291.265442 0.344725 -0.833298 0.432179 77 77 62 255
-442.031250 12.037598 -251.766953 0.395239 -0.815432 0.422913 77 77 62 255
-415.667969 36.610352 -229.025604 0.395239 -0.815433 0.422913 77 77 62 255
-442.031250 24.332520 -228.060730 0.395239 -0.815433 0.422913 77 77 62 255
-455.224609 73.459473 -209.898102 0.538420 0.147302 0.829703 77 77 62 255
-415.667969 36.610352 -229.025604 0.538420 0.147302 0.829703 77 77 62 255
-433.236328 81.644043 -225.620026 0.538420 0.147302 0.829703 77 77 62 255
-468.412109 85.736328 -174.308075 0.947775 -0.239900 0.210168 77 77 62 255
-494.781250 110.308105 -27.346107 0.947775 -0.239900 0.210168 77 77 62 255
-494.781250 73.458984 -69.408073 0.947775 -0.239900 0.210168 77 77 62 255
-455.224609 73.459473 -209.898102 0.934208 0.240968 0.263038 77 77 62 255
-468.412109 85.736328 -174.308075 0.934208 0.240968 0.263038 77 77 62 255
-494.781250 73.458984 -69.408073 0.934208 0.240968 0.263038 77 77 62 255
-494.781250 208.579102 16.884321 -0.025392 0.399784 0.916258 77 77 62 255
-500.000000 213.440430 14.618592 -0.025392 0.399784 0.916258 77 77 62 255
-500.000000 209.389160 16.386251 -0.025392 0.399784 0.916258 77 77 62 255
-376.113281 245.428711 -229.863922 0.644559 -0.211262 0.734787 77 77 62 255
-402.474609 239.282227 -208.506821 0.644559 -0.211262 0.734787 77 77 62 255
-389.281250 208.579590 -228.907578 0.644559 -0.211262 0.734787 77 77 62 255
-468.416016 196.283691 -13.451773 0.948870 -0.107886 0.296658 77 77 62 255
-415.667969 171.729980 -191.097916 0.948870 -0.107886 0.296657 77 77 62 255
-442.031250 196.283691 -97.844444 0.948870 -0.107886 0.296657 77 77 62 255
-442.031250 196.283691 -97.844444 0.579021 0.794962 0.181027 77 77 62 255
-494.781250 208.579102 16.884321 0.579021 0.794962 0.181027 77 77 62 255
-468.416016 196.283691 -13.451773 0.579021 0.794962 0.181027 77 77 62 255
-402.474609 239.282227 -208.506821 0.826235 0.177192 0.534732 77 77 62 255
-428.839844 269.983398 -177.942230 0.826235 0.177192 0.534732 77 77 62 255
-415.667969 245.428711 -190.158005 0.826235 0.177192 0.534732 77 77 62 255
-402.474609 239.282227 -208.506821 0.802952 -0.049633 0.593973 77 77 62 255
-415.667969 245.428711 -190.158005 0.802952 -0.049633 0.593973 77 77 62 255
-389.281250 208.579590 -228.907578 0.802952 -0.049633 0.593973 77 77 62 255
-494.775391 294.555176 -130.048843 0.555869 0.758677 0.339735 77 77 62 255
-468.410156 282.278809 -145.772369 0.555869 0.758677 0.339735 77 77 62 255
-468.410156 306.832520 -200.604370 0.555869 0.758677 0.339735 77 77 62 255
-468.410156 282.278809 -145.772369 0.536441 0.797139 0.277127 77 77 62 255
-494.775391 294.555176 -130.048843 0.536441 0.797140 0.277127 77 77 62 255
-494.775391 269.983398 -59.369640 0.536441 0.797139 0.277127 77 77 62 255
-402.474609 110.308105 -229.655563 0.399924 -0.682854 0.611369 77 77 62 255
-442.031250 134.881348 -176.333252 0.399924 -0.682854 0.611369 77 77 62 255
-442.031250 110.308105 -203.779755 0.399924 -0.682854 0.611369 77 77 62 255
-442.031250 110.308105 -203.779755 0.824557 -0.421520 0.377393 77 77 62 255
-442.031250 134.881348 -176.333252 0.824558 -0.421520 0.377393 77 77 62 255
-468.412109 110.308105 -146.140823 0.824558 -0.421520 0.377393 77 77 62 255
-494.781250 110.308105 -27.346107 0.813890 -0.437030 0.382868 77 77 62 255
-500.000000 78.323730 -52.761261 0.813890 -0.437030 0.382868 77 77 62 255
-494.781250 73.458984 -69.408073 0.813890 -0.437030 0.382868 77 77 62 255
-500.000000 107.877441 -19.026300 0.813900 -0.437022 0.382856 77 77 62 255
-500.000000 78.323730 -52.761261 0.813900 -0.437022 0.382856 77 77 62 255
-494.781250 110.308105 -27.346107 0.813900 -0.437022 0.382856 77 77 62 255
-494.781250 110.308105 -27.346107 0.852103 -0.243169 0.463454 77 77 62 255
-500.000000 112.533203 -16.583477 0.852103 -0.243169 0.463454 77 77 62 255
-500.000000 107.877441 -19.026300 0.852103 -0.243169 0.463454 77 77 62 255
-468.410156 306.832520 -200.604370 0.620604 0.699827 0.353684 77 77 62 255
-494.775391 319.127441 -178.669434 0.620604 0.699827 0.353684 77 77 62 255
-494.775391 294.555176 -130.048843 0.620604 0.699827 0.353684 77 77 62 255
-494.775391 319.127441 -178.669434 0.543409 0.816359 0.195616 77 77 62 255
-500.000000 328.910645 -204.983795 0.543409 0.816359 0.195616 77 77 62 255
-500.000000 323.994141 -184.465866 0.543409 0.816359 0.195616 77 77 62 255
-468.410156 306.832520 -200.604370 0.543427 0.816348 0.195608 77 77 62 255
-500.000000 328.910645 -204.983795 0.543427 0.816348 0.195608 77 77 62 255
-494.775391 319.127441 -178.669434 0.543427 0.816348 0.195608 77 77 62 255
-494.781250 184.006836 16.999594 0.659413 -0.374020 0.652138 77 77 62 255
-481.585938 171.729980 -3.384037 0.659413 -0.374020 0.652138 77 77 62 255
-481.585938 184.006836 3.657090 0.659413 -0.374020 0.652138 77 77 62 255
-481.585938 171.729980 -3.384037 0.942156 -0.166753 0.290750 77 77 62 255
-468.416016 159.434570 -53.112087 0.942156 -0.166753 0.290750 77 77 62 255
-481.585938 184.006836 3.657090 0.942156 -0.166753 0.290750 77 77 62 255
-494.775391 294.555176 -130.048843 0.321758 0.894319 0.310912 77 77 62 255
-500.000000 274.853516 -67.971359 0.321758 0.894319 0.310912 77 77 62 255
-494.775391 269.983398 -59.369640 0.321758 0.894318 0.310912 77 77 62 255
-500.000000 289.691895 -110.653099 0.321754 0.894320 0.310912 77 77 62 255
-500.000000 274.853516 -67.971359 0.321754 0.894320 0.310912 77 77 62 255
-494.775391 294.555176 -130.048843 0.321754 0.894320 0.310912 77 77 62 255
-494.775391 269.983398 -59.369640 0.240950 0.900010 0.363216 77 77 62 255
-500.000000 274.853516 -67.971359 0.240950 0.900010 0.363216 77 77 62 255
-500.000000 265.122070 -43.857925 0.240950 0.900010 0.363216 77 77 62 255
-468.416016 233.133789 -24.149248 0.951312 0.094249 0.293466 77 77 62 255
-442.031250 196.283691 -97.844444 0.951312 0.094249 0.293466 77 77 62 255
-455.224609 233.133789 -66.911034 0.951312 0.094249 0.293466 77 77 62 255
-455.224609 233.133789 -66.911034 0.715624 0.662682 0.220760 77 77 62 255
-481.585938 245.428711 -18.364235 0.715624 0.662682 0.220760 77 77 62 255
-468.416016 233.133789 -24.149248 0.715624 0.662682 0.220760 77 77 62 255
-468.416016 159.434570 -53.112087 0.797186 -0.536162 0.277534 77 77 62 255
-442.031250 134.881348 -176.333252 0.797186 -0.536162 0.277534 77 77 62 255
-455.224609 177.868164 -55.391533 0.797186 -0.536162 0.277534 77 77 62 255
-455.224609 177.868164 -55.391533 0.769330 -0.501627 0.395604 77 77 62 255
-481.585938 184.006836 3.657090 0.769330 -0.501627 0.395604 77 77 62 255
-468.416016 159.434570 -53.112087 0.769330 -0.501627 0.395604 77 77 62 255
-481.585938 -24.811035 -291.265442 -0.474053 -0.175938 0.862740 77 77 62 255
-500.000000 -7.658691 -297.885620 -0.474053 -0.175938 0.862740 77 77 62 255
-500.000000 -24.811035 -301.383484 -0.474053 -0.175938 0.862740 77 77 62 255
-455.220703 331.404297 -228.497437 0.341169 0.529536 0.776657 77 77 62 255
-500.000000 356.438477 -225.895538 0.341169 0.529536 0.776656 77 77 62 255
-500.000000 339.745117 -214.513748 0.341169 0.529536 0.776656 77 77 62 255
-500.000000 250.286133 -12.111332 0.116891 0.786378 0.606586 77 77 62 255
-500.000000 247.858887 -8.964650 0.116891 0.786378 0.606586 77 77 62 255
-494.781250 245.428711 -6.819841 0.116891 0.786378 0.606586 77 77 62 255
-494.775391 269.983398 -59.369640 0.382486 0.837070 0.391176 77 77 62 255
-500.000000 250.286133 -12.111332 0.382486 0.837070 0.391176 77 77 62 255
-494.781250 245.428711 -6.819841 0.382486 0.837070 0.391176 77 77 62 255
-500.000000 265.122070 -43.857925 0.382534 0.837049 0.391173 77 77 62 255
-500.000000 250.286133 -12.111332 0.382534 0.837049 0.391173 77 77 62 255
-494.775391 269.983398 -59.369640 0.382534 0.837049 0.391173 77 77 62 255
-500.000000 117.198242 -16.554924 0.899577 -0.002673 0.436754 77 77 62 255
-500.000000 112.533203 -16.583477 0.899577 -0.002673 0.436754 77 77 62 255
-494.781250 110.308105 -27.346107 0.899577 -0.002673 0.436754 77 77 62 255
-500.000000 61.182617 -91.991417 0.722190 -0.663926 0.194022 77 77 62 255
-494.781250 73.458984 -69.408073 0.722190 -0.663926 0.194022 77 77 62 255
-500.000000 68.601562 -66.604454 0.722190 -0.663926 0.194022 77 77 62 255
-494.781250 61.182617 -111.416939 0.722192 -0.663923 0.194020 77 77 62 255
-494.781250 73.458984 -69.408073 0.722193 -0.663923 0.194020 77 77 62 255
-500.000000 61.182617 -91.991417 0.722193 -0.663923 0.194020 77 77 62 255
-494.781250 61.182617 -111.416939 0.718015 -0.668763 0.192898 77 77 62 255
-500.000000 46.333008 -143.473923 0.718015 -0.668763 0.192898 77 77 62 255
-494.781250 36.610352 -196.607178 0.718015 -0.668763 0.192898 77 77 62 255
-500.000000 61.182617 -91.991417 0.718016 -0.668763 0.192898 77 77 62 255
-500.000000 46.333008 -143.473923 0.718016 -0.668763 0.192898 77 77 62 255
-494.781250 61.182617 -111.416939 0.718016 -0.668763 0.192898 77 77 62 255
-455.224609 177.868164 -55.391533 0.847453 -0.333539 0.413007 77 77 62 255
-468.416016 196.283691 -13.451773 0.847453 -0.333539 0.413007 77 77 62 255
-481.585938 184.006836 3.657090 0.847453 -0.333539 0.413007 77 77 62 255
-415.667969 171.729980 -191.097916 0.959212 0.056124 0.277059 77 77 62 255
-468.416016 196.283691 -13.451773 0.959212 0.056124 0.277059 77 77 62 255
-455.224609 177.868164 -55.391533 0.959212 0.056124 0.277059 77 77 62 255
-494.781250 61.182617 -111.416939 0.891789 -0.256837 0.372488 77 77 62 255
-468.412109 48.886230 -183.027039 0.891789 -0.256837 0.372488 77 77 62 255
-468.412109 61.182617 -174.548447 0.891789 -0.256837 0.372488 77 77 62 255
-468.412109 61.182617 -174.548447 0.939201 -0.194916 0.282683 77 77 62 255
-468.412109 48.886230 -183.027039 0.939201 -0.194916 0.282683 77 77 62 255
-455.224609 73.459473 -209.898102 0.939201 -0.194916 0.282683 77 77 62 255
-500.000000 209.389160 16.386251 -0.075371 0.122865 0.989557 54 64 7 255
-500.000000 198.842285 17.695766 -0.075371 0.122865 0.989557 54 64 7 255
-494.781250 208.579102 16.884321 -0.075371 0.122865 0.989557 54 64 7 255
-494.781250 184.006836 16.999594 0.145178 0.004641 0.989395 54 64 7 255
-500.000000 198.842285 17.695766 0.145178 0.004641 0.989395 54 64 7 255
-500.000000 181.003418 17.779451 0.145178 0.004641 0.989395 54 64 7 255
-494.781250 208.579102 16.884321 0.145178 0.004641 0.989395 54 64 7 255
-500.000000 198.842285 17.695766 0.145178 0.004641 0.989395 54 64 7 255
-494.781250 184.006836 16.999594 0.145178 0.004641 0.989395 54 64 7 255
3 0 1 2
3 3 4 5
3 6 7 8
3 9 10 11
3 12 13 14
3 15 16 17
3 18 19 20
3 21 22 23
3 24 25 26
3 27 28 29
3 30 31 32
3 33 34 35
3 36 37 38
3 39 40 41
3 42 43 44
3 45 46 47
3 48 49 50
3 51 52 53
3 54 55 56
3 57 58 59
3 60 61 62
3 63 64 65
3 66 67 68
3 69 70 71
3 72 73 74
3 75 76 77
3 78 79 80
3 81 82 83
3 84 85 86
3 87 88 89
3 90 91 92
3 93 94 95
3 96 97 98
3 99 100 101
3 102 103 104
3 105 106 107
3 108 109 110
3 111 112 113
3 114 115 116
3 117 118 119
3 120 121 122
3 123 124 125
3 126 127 128
3 129 130 131
3 132 133 134
3 135 136 137
3 138 139 140
3 141 142 143
3 144 145 146
3 147 148 149
3 150 151 152
3 153 154 155
3 156 157 158
3 159 160 161
3 162 163 164
3 165 166 167
3 168 169 170
3 171 172 173
3 174 175 176
3 177 178 179
3 180 181 182
3 183 184 185
3 186 187 188
3 189 190 191
3 192 193 194
3 195 196 197
3 198 199 200
3 201 202 203
3 204 205 206
3 207 208 209
3 210 211 212
3 213 214 215
3 216 217 218
3 219 220 221
3 222 223 224
3 225 226 227
3 228 229 230
3 231 232 233
3 234 235 236
3 237 238 239
3 240 241 242
3 243 244 245
3 246 247 248
3 249 250 251
3 252 253 254
3 255 256 257
3 258 259 260
3 261 262 263
3 264 265 266
3 267 268 269
3 270 271 272
3 273 274 275
3 276 277 278
3 279 280 281
3 282 283 284
3 285 286 287
3 288 289 290
3 291 292 293
3 294 295 296
3 297 298 299
3 300 301 302
3 303 304 305
3 306 307 308
3 309 310 311
3 312 313 314
3 315 316 317
3 318 319 320
3 321 322 323
3 324 325 326
3 327 328 329
3 330 331 332
