ply
format ascii 1.0
comment Created by Blender 3.4.1 - www.blender.org
element vertex 237
property float x
property float y
property float z
property float nx
property float ny
property float nz
property uchar red
property uchar green
property uchar blue
property uchar alpha
element face 79
property list uchar uint vertex_indices
end_header
-494.781250 301.763672 -30.739332 0.628648 -0.679609 0.378066 77 77 62 255
-362.919922 314.041504 -227.927704 0.628648 -0.679608 0.378066 77 77 62 255
-439.072266 372.715820 4.170803 0.628648 -0.679609 0.378066 77 77 62 255
6.269531 492.149902 -222.992462 0.827443 -0.396329 0.397822 77 77 62 255
-33.283203 498.288086 -134.610352 0.827443 -0.396328 0.397822 77 77 62 255
-32.410156 473.173828 -161.446198 0.827443 -0.396329 0.397822 77 77 62 255
-290.982422 322.537598 -239.862549 0.171214 -0.906039 0.387012 77 77 62 255
-379.906250 410.523438 5.462319 0.171214 -0.906039 0.387012 77 77 62 255
-362.919922 314.041504 -227.927704 0.171214 -0.906039 0.387012 77 77 62 255
-46.457031 436.885254 -213.383301 0.494620 -0.769155 0.404661 77 77 62 255
-151.951172 486.010742 8.937580 0.494620 -0.769155 0.404661 77 77 62 255
-191.505859 461.438965 10.581023 0.494620 -0.769155 0.404661 77 77 62 255
-379.906250 410.523438 5.462319 -0.033370 -0.944550 0.326667 77 77 62 255
-290.982422 322.537598 -239.862549 -0.033370 -0.944550 0.326667 77 77 62 255
-244.255859 400.035156 -11.007006 -0.033370 -0.944550 0.326667 77 77 62 255
-151.951172 486.010742 8.937580 -0.046876 0.141595 0.988814 77 77 62 255
-191.505859 500.000000 5.059226 -0.046876 0.141595 0.988814 77 77 62 255
-191.505859 461.438965 10.581023 -0.046876 0.141595 0.988814 77 77 62 255
-174.468750 500.000000 5.866872 -0.046875 0.141598 0.988814 77 77 62 255
-191.505859 500.000000 5.059226 -0.046875 0.141598 0.988814 77 77 62 255
-151.951172 486.010742 8.937580 -0.046875 0.141598 0.988814 77 77 62 255
-69.166016 500.000000 -43.542107 0.947010 -0.075075 0.312306 77 77 62 255
-32.410156 473.173828 -161.446198 0.947010 -0.075075 0.312306 77 77 62 255
-42.482422 500.000000 -124.455177 0.947010 -0.075075 0.312306 77 77 62 255
-72.839844 498.287598 -32.812290 0.947024 -0.074982 0.312289 77 77 62 255
-32.410156 473.173828 -161.446198 0.947023 -0.074982 0.312289 77 77 62 255
-69.166016 500.000000 -43.542107 0.947024 -0.074982 0.312289 77 77 62 255
-244.255859 400.035156 -11.007006 0.448661 -0.847299 0.284231 77 77 62 255
-181.998047 357.257812 -236.802048 0.448661 -0.847299 0.284231 77 77 62 255
-46.457031 436.885254 -213.383301 0.448661 -0.847299 0.284231 77 77 62 255
-500.000000 257.409668 -158.185944 0.691713 -0.608929 0.388250 77 77 62 255
-500.000000 212.599121 -228.466507 0.691713 -0.608929 0.388250 77 77 62 255
-451.162109 268.432617 -227.907990 0.691713 -0.608929 0.388250 77 77 62 255
-140.597656 500.000000 -24.812626 0.330103 0.909339 0.253247 77 77 62 255
-146.105469 500.000000 -17.633274 0.330103 0.909339 0.253247 77 77 62 255
-138.759766 498.287598 -21.059526 0.330103 0.909339 0.253247 77 77 62 255
-439.072266 372.715820 4.170803 0.108427 -0.506119 0.855621 77 77 62 255
-494.781250 363.185547 5.593034 0.108427 -0.506118 0.855621 77 77 62 255
-494.781250 301.763672 -30.739332 0.108427 -0.506119 0.855621 77 77 62 255
-325.324219 500.000000 11.454708 -0.044983 -0.127420 0.990828 77 77 62 255
-297.001953 436.885254 4.624022 -0.044983 -0.127420 0.990828 77 77 62 255
-308.281250 500.000000 12.228456 -0.044983 -0.127420 0.990828 77 77 62 255
-362.919922 473.733887 6.369812 -0.044989 -0.127422 0.990828 77 77 62 255
-297.001953 436.885254 4.624022 -0.044989 -0.127422 0.990828 77 77 62 255
-325.324219 500.000000 11.454708 -0.044989 -0.127422 0.990828 77 77 62 255
-240.878906 500.000000 17.128046 0.213412 0.320872 0.922766 77 77 62 255
-249.066406 500.000000 19.021605 0.213412 0.320872 0.922766 77 77 62 255
-244.251953 492.149414 20.638014 0.213412 0.320872 0.922766 77 77 62 255
-151.951172 486.010742 8.937580 0.319752 -0.881838 0.346583 77 77 62 255
-46.457031 436.885254 -213.383301 0.319752 -0.881838 0.346583 77 77 62 255
-72.839844 498.287598 -32.812290 0.319752 -0.881838 0.346583 77 77 62 255
-71.919922 500.000000 -36.324436 0.494443 0.723238 0.482134 77 77 62 255
-74.677734 500.000000 -33.496212 0.494443 0.723238 0.482134 77 77 62 255
-72.839844 498.287598 -32.812290 0.494443 0.723238 0.482134 77 77 62 255
6.269531 492.149902 -222.992462 0.833640 0.432887 0.343006 77 77 62 255
-30.833984 500.000000 -142.723419 0.833640 0.432887 0.343006 77 77 62 255
-33.283203 498.288086 -134.610352 0.833640 0.432887 0.343006 77 77 62 255
2.062500 500.000000 -222.667435 0.833748 0.432618 0.343082 77 77 62 255
-30.833984 500.000000 -142.723419 0.833748 0.432618 0.343082 77 77 62 255
6.269531 492.149902 -222.992462 0.833748 0.432618 0.343082 77 77 62 255
-138.759766 498.287598 -21.059526 0.151727 0.502738 0.851019 77 77 62 255
-74.677734 500.000000 -33.496212 0.151727 0.502738 0.851019 77 77 62 255
-136.003906 500.000000 -22.562462 0.151727 0.502738 0.851019 77 77 62 255
-72.839844 498.287598 -32.812290 0.151727 0.502737 0.851020 77 77 62 255
-74.677734 500.000000 -33.496212 0.151727 0.502737 0.851020 77 77 62 255
-138.759766 498.287598 -21.059526 0.151727 0.502737 0.851020 77 77 62 255
-494.781250 301.763672 -30.739332 0.445305 -0.861452 0.244141 77 77 62 255
-451.162109 268.432617 -227.907990 0.445305 -0.861452 0.244141 77 77 62 255
-362.919922 314.041504 -227.927704 0.445305 -0.861452 0.244141 77 77 62 255
-191.505859 461.438965 10.581023 0.589978 -0.666869 0.455205 77 77 62 255
-244.255859 400.035156 -11.007006 0.589978 -0.666869 0.455205 77 77 62 255
-46.457031 436.885254 -213.383301 0.589978 -0.666869 0.455205 77 77 62 255
-297.001953 436.885254 4.624022 -0.146209 -0.144050 0.978710 77 77 62 255
-272.326172 500.000000 17.599770 -0.146209 -0.144050 0.978710 77 77 62 255
-308.281250 500.000000 12.228456 -0.146209 -0.144050 0.978710 77 77 62 255
-244.251953 492.149414 20.638014 -0.146200 -0.144053 0.978710 77 77 62 255
-272.326172 500.000000 17.599770 -0.146200 -0.144053 0.978710 77 77 62 255
-297.001953 436.885254 4.624022 -0.146200 -0.144053 0.978710 77 77 62 255
-494.781250 363.185547 5.593034 0.473461 -0.448440 0.758113 77 77 62 255
-500.000000 309.059082 -23.164700 0.473461 -0.448440 0.758113 77 77 62 255
-494.781250 301.763672 -30.739332 0.473461 -0.448440 0.758113 77 77 62 255
-500.000000 358.321289 5.974951 0.473460 -0.448441 0.758114 77 77 62 255
-500.000000 309.059082 -23.164700 0.473460 -0.448441 0.758114 77 77 62 255
-494.781250 363.185547 5.593034 0.473460 -0.448441 0.758114 77 77 62 255
-244.251953 492.149414 20.638014 -0.008844 -0.324890 0.945710 77 77 62 255
-244.255859 400.035156 -11.007006 -0.008844 -0.324890 0.945710 77 77 62 255
-191.505859 461.438965 10.581023 -0.008844 -0.324890 0.945711 77 77 62 255
-240.878906 500.000000 17.128046 0.327223 0.264973 0.907036 77 77 62 255
-191.505859 461.438965 10.581023 0.327223 0.264973 0.907036 77 77 62 255
-216.337891 500.000000 8.274597 0.327223 0.264973 0.907036 77 77 62 255
-244.251953 492.149414 20.638014 0.327208 0.264951 0.907048 77 77 62 255
-191.505859 461.438965 10.581023 0.327208 0.264951 0.907048 77 77 62 255
-240.878906 500.000000 17.128046 0.327208 0.264951 0.907048 77 77 62 255
-494.781250 301.763672 -30.739332 0.552974 -0.376278 0.743394 77 77 62 255
-500.000000 309.059082 -23.164700 0.552974 -0.376278 0.743394 77 77 62 255
-500.000000 301.763672 -26.857365 0.552974 -0.376278 0.743394 77 77 62 255
-244.251953 492.149414 20.638014 -0.060170 0.165770 0.984327 77 77 62 255
-249.066406 500.000000 19.021605 -0.060170 0.165770 0.984327 77 77 62 255
-272.326172 500.000000 17.599770 -0.060170 0.165770 0.984327 77 77 62 255
-139.679688 500.000000 -25.479744 0.225794 0.923301 0.310697 77 77 62 255
-140.597656 500.000000 -24.812626 0.225794 0.923301 0.310697 77 77 62 255
-138.759766 498.287598 -21.059526 0.225794 0.923301 0.310697 77 77 62 255
-30.833984 500.000000 -142.723419 0.770499 0.535611 0.345620 77 77 62 255
-33.283203 500.000000 -137.263321 0.770499 0.535611 0.345620 77 77 62 255
-33.283203 498.288086 -134.610352 0.770499 0.535611 0.345620 77 77 62 255
-69.166016 500.000000 -43.542107 0.910681 0.223436 0.347471 77 77 62 255
-71.919922 500.000000 -36.324436 0.910681 0.223436 0.347471 77 77 62 255
-72.839844 498.287598 -32.812290 0.910681 0.223436 0.347471 77 77 62 255
-72.839844 498.287598 -32.812290 0.072172 0.911550 0.404806 77 77 62 255
-138.759766 498.287598 -21.059526 0.072172 0.911550 0.404806 77 77 62 255
-151.951172 486.010742 8.937580 0.072172 0.911550 0.404806 77 77 62 255
-151.951172 486.010742 8.937580 0.409249 0.767163 0.493939 77 77 62 255
-146.105469 500.000000 -17.633274 0.409249 0.767163 0.493939 77 77 62 255
-174.468750 500.000000 5.866872 0.409249 0.767163 0.493939 77 77 62 255
-138.759766 498.287598 -21.059526 0.409229 0.767173 0.493940 77 77 62 255
-146.105469 500.000000 -17.633274 0.409229 0.767173 0.493940 77 77 62 255
-151.951172 486.010742 8.937580 0.409229 0.767173 0.493940 77 77 62 255
-32.410156 473.173828 -161.446198 0.615254 -0.714596 0.332888 77 77 62 255
-72.839844 498.287598 -32.812290 0.615255 -0.714596 0.332888 77 77 62 255
-46.457031 436.885254 -213.383301 0.615254 -0.714596 0.332888 77 77 62 255
-191.505859 500.000000 5.059226 0.127137 0.140600 0.981870 77 77 62 255
-216.337891 500.000000 8.274597 0.127137 0.140600 0.981870 77 77 62 255
-191.505859 461.438965 10.581023 0.127137 0.140600 0.981870 77 77 62 255
-325.324219 500.000000 11.454708 -0.209535 0.111864 0.971381 77 77 62 255
-344.126953 500.000000 7.398804 -0.209535 0.111864 0.971381 77 77 62 255
-362.919922 473.733887 6.369812 -0.209535 0.111864 0.971381 77 77 62 255
-439.072266 372.715820 4.170803 0.496256 -0.788978 0.362276 77 77 62 255
-362.919922 314.041504 -227.927704 0.496256 -0.788978 0.362276 77 77 62 255
-379.906250 410.523438 5.462319 0.496256 -0.788978 0.362276 77 77 62 255
-244.255859 400.035156 -11.007006 0.095473 -0.269781 0.958177 77 77 62 255
-297.001953 436.885254 4.624022 0.095473 -0.269781 0.958177 77 77 62 255
-379.906250 410.523438 5.462319 0.095473 -0.269781 0.958177 77 77 62 255
-244.255859 400.035156 -11.007006 0.053203 -0.324445 0.944407 77 77 62 255
-244.251953 492.149414 20.638014 0.053203 -0.324445 0.944407 77 77 62 255
-297.001953 436.885254 4.624022 0.053203 -0.324445 0.944407 77 77 62 255
-290.982422 322.537598 -239.862549 0.287096 -0.923576 0.254133 77 77 62 255
-181.998047 357.257812 -236.802048 0.287096 -0.923576 0.254133 77 77 62 255
-244.255859 400.035156 -11.007006 0.287096 -0.923576 0.254134 77 77 62 255
6.269531 492.149902 -222.992462 0.385853 0.169237 0.906905 77 77 62 255
28.978516 500.000000 -234.119156 0.385853 0.169237 0.906905 77 77 62 255
2.062500 500.000000 -222.667435 0.385853 0.169237 0.906905 77 77 62 255
32.652344 498.288086 -235.362366 0.385809 0.169359 0.906901 77 77 62 255
28.978516 500.000000 -234.119156 0.385809 0.169359 0.906901 77 77 62 255
6.269531 492.149902 -222.992462 0.385809 0.169359 0.906901 77 77 62 255
-138.759766 500.000000 -26.476334 0.310415 0.906389 0.286535 77 77 62 255
-139.679688 500.000000 -25.479744 0.310415 0.906389 0.286535 77 77 62 255
-138.759766 498.287598 -21.059526 0.310415 0.906389 0.286535 77 77 62 255
-136.003906 500.000000 -22.562462 -0.393540 0.876551 0.277102 77 77 62 255
-138.759766 500.000000 -26.476334 -0.393540 0.876550 0.277102 77 77 62 255
-138.759766 498.287598 -21.059526 -0.393540 0.876551 0.277102 77 77 62 255
-500.000000 301.763672 -26.857365 0.276960 -0.885811 0.372334 77 77 62 255
-500.000000 292.037598 -49.996460 0.276960 -0.885811 0.372334 77 77 62 255
-494.781250 301.763672 -30.739332 0.276960 -0.885811 0.372333 77 77 62 255
-494.781250 301.763672 -30.739332 0.545077 -0.798484 0.255568 77 77 62 255
-500.000000 257.409668 -158.185944 0.545077 -0.798484 0.255568 77 77 62 255
-451.162109 268.432617 -227.907990 0.545077 -0.798484 0.255568 77 77 62 255
-500.000000 292.037598 -49.996460 0.545073 -0.798486 0.255569 77 77 62 255
-500.000000 257.409668 -158.185944 0.545073 -0.798486 0.255569 77 77 62 255
-494.781250 301.763672 -30.739332 0.545073 -0.798486 0.255569 77 77 62 255
-33.283203 500.000000 -137.263321 0.874505 0.407536 0.262976 77 77 62 255
-35.117188 500.000000 -131.164551 0.874505 0.407536 0.262976 77 77 62 255
-33.283203 498.288086 -134.610352 0.874505 0.407536 0.262976 77 77 62 255
-33.283203 498.288086 -134.610352 0.534476 -0.608357 0.586717 77 77 62 255
-42.482422 500.000000 -124.455177 0.534476 -0.608357 0.586717 77 77 62 255
-32.410156 473.173828 -161.446198 0.534476 -0.608357 0.586717 77 77 62 255
-35.117188 500.000000 -131.164551 0.534464 -0.608375 0.586709 77 77 62 255
-42.482422 500.000000 -124.455177 0.534464 -0.608375 0.586709 77 77 62 255
-33.283203 498.288086 -134.610352 0.534464 -0.608375 0.586710 77 77 62 255
-6.902344 436.885254 -227.683014 0.190556 -0.828162 0.527101 77 77 62 255
-32.410156 473.173828 -161.446198 0.190556 -0.828162 0.527101 77 77 62 255
-46.457031 436.885254 -213.383301 0.190556 -0.828162 0.527101 77 77 62 255
-32.410156 473.173828 -161.446198 0.853334 -0.242555 0.461506 77 77 62 255
-6.902344 436.885254 -227.683014 0.853334 -0.242555 0.461506 77 77 62 255
6.269531 492.149902 -222.992462 0.853334 -0.242555 0.461506 77 77 62 255
-297.001953 436.885254 4.624022 0.016043 -0.018664 0.999697 77 77 62 255
-362.919922 473.733887 6.369812 0.016043 -0.018664 0.999697 77 77 62 255
-379.906250 410.523438 5.462319 0.016043 -0.018664 0.999697 77 77 62 255
-442.031250 498.287598 7.840787 -0.028061 -0.027410 0.999230 54 64 7 255
-500.000000 500.000000 6.259823 -0.028061 -0.027410 0.999230 54 64 7 255
-500.000000 475.145020 5.578021 -0.028061 -0.027410 0.999230 54 64 7 255
-449.996094 500.000000 7.664064 -0.028061 -0.027397 0.999231 54 64 7 255
-500.000000 500.000000 6.259823 -0.028061 -0.027397 0.999231 54 64 7 255
-442.031250 498.287598 7.840787 -0.028061 -0.027397 0.999231 54 64 7 255
-439.072266 372.715820 4.170803 0.018271 0.018861 0.999655 54 64 7 255
-500.000000 429.462891 4.213715 0.018271 0.018861 0.999655 54 64 7 255
-500.000000 402.111328 4.729772 0.018271 0.018861 0.999655 54 64 7 255
-344.126953 500.000000 7.398804 -0.005068 -0.035524 0.999356 54 64 7 255
-369.972656 500.000000 7.267730 -0.005068 -0.035524 0.999356 54 64 7 255
-362.919922 473.733887 6.369812 -0.005068 -0.035524 0.999356 54 64 7 255
-442.031250 498.287598 7.840787 -0.027089 -0.029841 0.999187 54 64 7 255
-500.000000 429.462891 4.213715 -0.027089 -0.029841 0.999188 54 64 7 255
-439.072266 372.715820 4.170803 -0.027089 -0.029841 0.999187 54 64 7 255
-500.000000 475.145020 5.578021 -0.027089 -0.029841 0.999188 54 64 7 255
-500.000000 429.462891 4.213715 -0.027089 -0.029841 0.999187 54 64 7 255
-442.031250 498.287598 7.840787 -0.027089 -0.029841 0.999187 54 64 7 255
-443.257812 500.000000 7.765863 -0.015098 0.032911 0.999344 54 64 7 255
-449.996094 500.000000 7.664064 -0.015098 0.032911 0.999344 54 64 7 255
-442.031250 498.287598 7.840787 -0.015098 0.032911 0.999344 54 64 7 255
-494.781250 363.185547 5.593034 0.046961 0.037138 0.998206 54 64 7 255
-500.000000 369.261230 5.612508 0.046961 0.037138 0.998206 54 64 7 255
-500.000000 363.185547 5.838554 0.046961 0.037138 0.998206 54 64 7 255
-369.972656 500.000000 7.267730 -0.041735 -0.045327 0.998100 54 64 7 255
-384.068359 500.000000 6.678320 -0.041735 -0.045327 0.998100 54 64 7 255
-362.919922 473.733887 6.369812 -0.041735 -0.045327 0.998100 54 64 7 255
-439.275391 500.000000 7.778490 0.027379 -0.007709 0.999595 54 64 7 255
-379.906250 410.523438 5.462319 0.027379 -0.007709 0.999595 54 64 7 255
-397.882812 500.000000 6.644732 0.027379 -0.007709 0.999595 54 64 7 255
-442.031250 498.287598 7.840787 0.027384 -0.007705 0.999595 54 64 7 255
-379.906250 410.523438 5.462319 0.027384 -0.007705 0.999595 54 64 7 255
-439.275391 500.000000 7.778490 0.027384 -0.007705 0.999595 54 64 7 255
-441.111328 500.000000 7.778490 -0.005878 0.039509 0.999202 54 64 7 255
-443.257812 500.000000 7.765863 -0.005878 0.039509 0.999202 54 64 7 255
-442.031250 498.287598 7.840787 -0.005878 0.039509 0.999202 54 64 7 255
-494.781250 363.185547 5.593034 0.046975 0.027999 0.998504 54 64 7 255
-500.000000 363.185547 5.838554 0.046975 0.027999 0.998504 54 64 7 255
-500.000000 358.321289 5.974951 0.046975 0.027999 0.998504 54 64 7 255
-379.906250 410.523438 5.462319 -0.003105 -0.029287 0.999566 54 64 7 255
-442.031250 498.287598 7.840787 -0.003105 -0.029287 0.999566 54 64 7 255
-439.072266 372.715820 4.170803 -0.003105 -0.029287 0.999566 54 64 7 255
-439.275391 500.000000 7.778490 0.000000 0.036356 0.999339 54 64 7 255
-441.111328 500.000000 7.778490 0.000000 0.036356 0.999339 54 64 7 255
-442.031250 498.287598 7.840787 0.000000 0.036356 0.999339 54 64 7 255
-494.781250 363.185547 5.593034 0.021237 0.025012 0.999462 54 64 7 255
-500.000000 402.111328 4.729772 0.021237 0.025012 0.999462 54 64 7 255
-500.000000 372.911133 5.460534 0.021237 0.025012 0.999461 54 64 7 255
-439.072266 372.715820 4.170803 0.021237 0.025012 0.999462 54 64 7 255
-500.000000 402.111328 4.729772 0.021237 0.025012 0.999462 54 64 7 255
-494.781250 363.185547 5.593034 0.021237 0.025012 0.999461 54 64 7 255
-500.000000 372.911133 5.460534 0.052090 0.041545 0.997778 54 64 7 255
-500.000000 369.261230 5.612508 0.052090 0.041545 0.997778 54 64 7 255
-494.781250 363.185547 5.593034 0.052090 0.041545 0.997778 54 64 7 255
-379.906250 410.523438 5.462319 -0.002431 -0.013702 0.999903 54 64 7 255
-384.068359 500.000000 6.678320 -0.002431 -0.013702 0.999903 54 64 7 255
-397.882812 500.000000 6.644732 -0.002431 -0.013702 0.999903 54 64 7 255
-362.919922 473.733887 6.369812 -0.002431 -0.013702 0.999903 54 64 7 255
-384.068359 500.000000 6.678320 -0.002431 -0.013702 0.999903 54 64 7 255
-379.906250 410.523438 5.462319 -0.002431 -0.013702 0.999903 54 64 7 255
3 0 1 2
3 3 4 5
3 6 7 8
3 9 10 11
3 12 13 14
3 15 16 17
3 18 19 20
3 21 22 23
3 24 25 26
3 27 28 29
3 30 31 32
3 33 34 35
3 36 37 38
3 39 40 41
3 42 43 44
3 45 46 47
3 48 49 50
3 51 52 53
3 54 55 56
3 57 58 59
3 60 61 62
3 63 64 65
3 66 67 68
3 69 70 71
3 72 73 74
3 75 76 77
3 78 79 80
3 81 82 83
3 84 85 86
3 87 88 89
3 90 91 92
3 93 94 95
3 96 97 98
3 99 100 101
3 102 103 104
3 105 106 107
3 108 109 110
3 111 112 113
3 114 115 116
3 117 118 119
3 120 121 122
3 123 124 125
3 126 127 128
3 129 130 131
3 132 133 134
3 135 136 137
3 138 139 140
3 141 142 143
3 144 145 146
3 147 148 149
3 150 151 152
3 153 154 155
3 156 157 158
3 159 160 161
3 162 163 164
3 165 166 167
3 168 169 170
3 171 172 173
3 174 175 176
3 177 178 179
3 180 181 182
3 183 184 185
3 186 187 188
3 189 190 191
3 192 193 194
3 195 196 197
3 198 199 200
3 201 202 203
3 204 205 206
3 207 208 209
3 210 211 212
3 213 214 215
3 216 217 218
3 219 220 221
3 222 223 224
3 225 226 227
3 228 229 230
3 231 232 233
3 234 235 236
