ply
format ascii 1.0
comment Created by Blender 3.4.1 - www.blender.org
element vertex 537
property float x
property float y
property float z
property float nx
property float ny
property float nz
property uchar red
property uchar green
property uchar blue
property uchar alpha
element face 179
property list uchar uint vertex_indices
end_header
-481.585938 187.219482 -130.776917 0.561612 -0.441962 0.699472 77 77 62 255
-442.031250 193.358154 -158.656982 0.561612 -0.441962 0.699472 77 77 62 255
-448.626953 224.069092 -133.956512 0.561612 -0.441962 0.699472 77 77 62 255
-362.919922 414.453857 -40.266350 0.770087 -0.007941 0.637889 77 77 62 255
-376.113281 439.026367 -24.032833 0.770087 -0.007941 0.637889 77 77 62 255
-389.285156 426.730713 -8.284247 0.770087 -0.007941 0.637889 77 77 62 255
-395.880859 230.207520 -175.999847 0.626410 -0.058996 0.777258 77 77 62 255
-448.626953 224.069092 -133.956512 0.626410 -0.058996 0.777258 77 77 62 255
-415.667969 193.358154 -162.849945 0.626410 -0.058996 0.777258 77 77 62 255
-290.521484 500.000000 -173.973221 0.627505 0.469598 0.621060 77 77 62 255
-322.900391 500.000000 -141.258301 0.627505 0.469598 0.621060 77 77 62 255
-297.001953 475.876221 -149.184967 0.627505 0.469598 0.621060 77 77 62 255
-468.416016 377.604492 4.507888 0.196957 -0.346731 0.917053 77 77 62 255
-442.031250 353.031982 -10.449495 0.196957 -0.346730 0.917053 77 77 62 255
-442.031250 389.881348 3.482962 0.196957 -0.346730 0.917053 77 77 62 255
-270.617188 379.651367 -153.091980 0.727152 0.288423 0.622946 77 77 62 255
-323.363281 414.454346 -107.636246 0.727152 0.288423 0.622946 77 77 62 255
-323.363281 377.604980 -90.575012 0.727152 0.288423 0.622946 77 77 62 255
-389.285156 475.875732 -16.194586 0.697875 0.356351 0.621276 77 77 62 255
-389.285156 500.000000 -30.031771 0.697875 0.356351 0.621276 77 77 62 255
-402.240234 500.000000 -15.479428 0.697875 0.356351 0.621276 77 77 62 255
-415.667969 -500.000000 -141.768631 0.506227 0.351112 0.787689 77 77 62 255
-394.136719 -500.000000 -155.606201 0.506227 0.351112 0.787689 77 77 62 255
-415.667969 -469.929688 -155.172470 0.506227 0.351112 0.787689 77 77 62 255
-415.667969 254.780029 -145.981064 0.686815 -0.551913 0.472946 77 77 62 255
-457.419922 254.773926 -85.355698 0.686815 -0.551913 0.472945 77 77 62 255
-448.626953 224.069092 -133.956512 0.686815 -0.551913 0.472946 77 77 62 255
-500.000000 -460.548828 -110.142365 -0.467185 0.625313 0.625077 77 77 62 255
-494.781250 -408.507812 -158.302490 -0.467185 0.625313 0.625077 77 77 62 255
-500.000000 -412.560059 -158.149231 -0.467185 0.625313 0.625077 77 77 62 255
-494.781250 -463.791016 -102.998177 -0.467207 0.625306 0.625068 77 77 62 255
-494.781250 -408.507812 -158.302490 -0.467207 0.625306 0.625068 77 77 62 255
-500.000000 -460.548828 -110.142365 -0.467207 0.625306 0.625068 77 77 62 255
-494.781250 340.755127 2.060800 0.246044 -0.279585 0.928060 77 77 62 255
-468.416016 328.478760 -8.627388 0.246044 -0.279585 0.928060 77 77 62 255
-455.224609 346.893311 -6.577129 0.246044 -0.279584 0.928060 77 77 62 255
-455.224609 -439.219238 -135.188690 -0.081495 0.405011 0.910673 77 77 62 255
-500.000000 -391.329590 -160.493973 -0.081495 0.405011 0.910673 77 77 62 255
-500.000000 -397.516602 -157.742371 -0.081495 0.405011 0.910673 77 77 62 255
-468.412109 -396.230957 -155.487473 -0.081492 0.405014 0.910672 77 77 62 255
-500.000000 -391.329590 -160.493973 -0.081492 0.405014 0.910672 77 77 62 255
-455.224609 -439.219238 -135.188690 -0.081492 0.405014 0.910672 77 77 62 255
-376.113281 340.755615 -58.840195 0.136800 -0.748553 0.648810 77 77 62 255
-406.873047 385.788818 -0.398326 0.136800 -0.748553 0.648810 77 77 62 255
-409.072266 340.755615 -51.890877 0.136800 -0.748553 0.648810 77 77 62 255
-331.375000 500.000000 -131.789627 0.780467 0.382041 0.494890 77 77 62 255
-297.001953 451.303223 -148.405151 0.780467 0.382041 0.494890 77 77 62 255
-326.039062 500.000000 -140.204666 0.780467 0.382041 0.494890 77 77 62 255
-336.558594 475.876221 -104.989494 0.780477 0.382058 0.494861 77 77 62 255
-297.001953 451.303223 -148.405151 0.780477 0.382058 0.494861 77 77 62 255
-331.375000 500.000000 -131.789627 0.780477 0.382058 0.494861 77 77 62 255
-364.294922 269.871582 -167.690536 0.444552 -0.687799 0.573852 77 77 62 255
-428.839844 285.481445 -98.979370 0.444552 -0.687799 0.573852 77 77 62 255
-415.667969 254.780029 -145.981064 0.444552 -0.687799 0.573852 77 77 62 255
-415.667969 439.026367 2.965585 0.311441 0.253020 0.915962 77 77 62 255
-467.031250 500.000000 3.586863 0.311441 0.253020 0.915962 77 77 62 255
-468.046875 500.000000 3.932190 0.311441 0.253020 0.915962 77 77 62 255
-389.285156 475.875732 -16.194586 0.311582 0.253140 0.915881 77 77 62 255
-467.031250 500.000000 3.586863 0.311582 0.253140 0.915881 77 77 62 255
-415.667969 439.026367 2.965585 0.311582 0.253140 0.915881 77 77 62 255
-500.000000 144.231934 -146.215668 0.394645 -0.500312 0.770677 77 77 62 255
-500.000000 127.082764 -157.348648 0.394645 -0.500312 0.770677 77 77 62 255
-481.585938 144.231934 -155.645050 0.394645 -0.500312 0.770677 77 77 62 255
-457.419922 254.773926 -85.355698 0.683223 -0.436025 0.585737 77 77 62 255
-500.000000 290.988525 -8.730565 0.683223 -0.436026 0.585737 77 77 62 255
-500.000000 246.561523 -41.802235 0.683223 -0.436025 0.585737 77 77 62 255
-356.330078 365.327637 -47.760529 0.193729 -0.808326 0.555948 77 77 62 255
-389.285156 389.881348 -0.576720 0.193729 -0.808326 0.555948 77 77 62 255
-406.873047 385.788818 -0.398326 0.193729 -0.808326 0.555948 77 77 62 255
-406.873047 385.788818 -0.398326 0.388074 -0.619942 0.681961 77 77 62 255
-376.113281 340.755615 -58.840195 0.388074 -0.619942 0.681961 77 77 62 255
-356.330078 365.327637 -47.760529 0.388074 -0.619942 0.681961 77 77 62 255
-481.585938 187.219482 -130.776917 0.579290 -0.033811 0.814420 77 77 62 255
-448.626953 168.786377 -154.985611 0.579290 -0.033811 0.814420 77 77 62 255
-442.031250 193.358154 -158.656982 0.579290 -0.033811 0.814420 77 77 62 255
-448.626953 168.786377 -154.985611 0.384648 -0.536480 0.751156 77 77 62 255
-500.000000 144.231934 -146.215668 0.384648 -0.536480 0.751156 77 77 62 255
-481.585938 144.231934 -155.645050 0.384648 -0.536480 0.751156 77 77 62 255
-500.000000 151.391113 -141.102631 0.384646 -0.536474 0.751161 77 77 62 255
-500.000000 144.231934 -146.215668 0.384646 -0.536474 0.751161 77 77 62 255
-448.626953 168.786377 -154.985611 0.384646 -0.536474 0.751161 77 77 62 255
-409.072266 340.755615 -51.890877 0.388026 -0.752867 0.531628 77 77 62 255
-415.667969 365.327637 -12.279050 0.388026 -0.752867 0.531628 77 77 62 255
-442.031250 353.031982 -10.449495 0.388026 -0.752866 0.531628 77 77 62 255
-435.435547 303.905762 -72.502991 0.395507 -0.847315 0.354444 77 77 62 255
-402.474609 291.629395 -138.629669 0.395507 -0.847316 0.354444 77 77 62 255
-376.105469 318.235107 -104.451500 0.395507 -0.847315 0.354444 77 77 62 255
-270.621094 463.580811 -166.708344 -0.023226 0.192699 0.980983 77 77 62 255
-290.363281 500.000000 -174.329758 -0.023226 0.192699 0.980983 77 77 62 255
-283.808594 432.879395 -160.989746 -0.023226 0.192699 0.980983 77 77 62 255
-468.416016 328.478760 -8.627388 0.361826 -0.034029 0.931624 77 77 62 255
-500.000000 323.746094 3.466377 0.361826 -0.034029 0.931624 77 77 62 255
-500.000000 303.956299 2.743520 0.361826 -0.034029 0.931624 77 77 62 255
-494.781250 340.755127 2.060800 0.361826 -0.034029 0.931624 77 77 62 255
-500.000000 323.746094 3.466377 0.361826 -0.034029 0.931624 77 77 62 255
-468.416016 328.478760 -8.627388 0.361826 -0.034029 0.931624 77 77 62 255
-323.363281 377.604980 -90.575012 0.696570 -0.431024 0.573593 77 77 62 255
-292.605469 340.755615 -155.617493 0.696570 -0.431024 0.573593 77 77 62 255
-270.617188 379.651367 -153.091980 0.696570 -0.431024 0.573593 77 77 62 255
-376.105469 318.235107 -104.451500 0.338870 -0.747761 0.570982 77 77 62 255
-329.960938 297.764648 -158.645889 0.338870 -0.747761 0.570982 77 77 62 255
-336.558594 340.755615 -98.429092 0.338870 -0.747761 0.570982 77 77 62 255
-468.412109 -482.206543 -91.986893 -0.038540 0.821008 0.569614 77 77 62 255
-500.000000 -500.000000 -68.477692 -0.038540 0.821008 0.569614 77 77 62 255
-474.773438 -500.000000 -66.770851 -0.038540 0.821008 0.569614 77 77 62 255
-500.000000 -492.025391 -79.971992 -0.038547 0.821012 0.569608 77 77 62 255
-500.000000 -500.000000 -68.477692 -0.038547 0.821012 0.569608 77 77 62 255
-468.412109 -482.206543 -91.986893 -0.038547 0.821012 0.569608 77 77 62 255
-494.781250 -408.507812 -158.302490 0.253731 0.768695 0.587136 77 77 62 255
-481.585938 -451.505371 -107.711304 0.253731 0.768695 0.587136 77 77 62 255
-455.224609 -439.219238 -135.188690 0.253731 0.768695 0.587136 77 77 62 255
-349.730469 426.730713 -65.589851 0.865162 0.088662 0.493593 77 77 62 255
-362.919922 463.586426 -49.091831 0.865162 0.088662 0.493593 77 77 62 255
-362.919922 414.453857 -40.266350 0.865162 0.088662 0.493593 77 77 62 255
-500.000000 212.930664 -79.281403 0.762963 -0.426215 0.486033 77 77 62 255
-494.781250 230.207031 -72.323563 0.762963 -0.426215 0.486033 77 77 62 255
-500.000000 232.637451 -61.999981 0.762963 -0.426215 0.486033 77 77 62 255
-494.781250 205.635742 -93.870667 0.762960 -0.426216 0.486036 77 77 62 255
-494.781250 230.207031 -72.323563 0.762960 -0.426216 0.486036 77 77 62 255
-500.000000 212.930664 -79.281403 0.762960 -0.426216 0.486036 77 77 62 255
-415.667969 254.780029 -145.981064 0.457586 -0.516080 0.724069 77 77 62 255
-395.880859 230.207520 -175.999847 0.457586 -0.516080 0.724069 77 77 62 255
-364.294922 269.871582 -167.690536 0.457586 -0.516080 0.724069 77 77 62 255
-409.070312 316.182617 -94.986885 0.685041 -0.498852 0.530910 77 77 62 255
-455.224609 346.893311 -6.577129 0.685041 -0.498852 0.530910 77 77 62 255
-435.435547 303.905762 -72.502991 0.685041 -0.498852 0.530910 77 77 62 255
-362.919922 463.586426 -49.091831 0.806490 0.369455 0.461602 77 77 62 255
-345.179688 500.000000 -109.231308 0.806490 0.369455 0.461602 77 77 62 255
-353.144531 500.000000 -95.315491 0.806490 0.369455 0.461602 77 77 62 255
-336.558594 475.876221 -104.989494 0.806534 0.369392 0.461577 77 77 62 255
-345.179688 500.000000 -109.231308 0.806534 0.369392 0.461577 77 77 62 255
-362.919922 463.586426 -49.091831 0.806534 0.369392 0.461577 77 77 62 255
-310.173828 432.879395 -136.118484 0.865400 0.088958 0.493123 77 77 62 255
-362.919922 463.586426 -49.091831 0.865400 0.088958 0.493123 77 77 62 255
-349.730469 426.730713 -65.589851 0.865400 0.088958 0.493123 77 77 62 255
-362.919922 414.453857 -40.266350 0.839578 0.228242 0.492965 77 77 62 255
-323.363281 377.604980 -90.575012 0.839578 0.228242 0.492965 77 77 62 255
-323.363281 414.454346 -107.636246 0.839578 0.228242 0.492965 77 77 62 255
-435.435547 -469.929688 -143.007339 0.679480 0.263511 0.684740 77 77 62 255
-455.224609 -439.219238 -135.188690 0.679480 0.263511 0.684740 77 77 62 255
-468.412109 -457.652832 -115.008629 0.679480 0.263511 0.684740 77 77 62 255
-442.031250 -396.230957 -159.030838 0.118645 0.453497 0.883326 77 77 62 255
-468.412109 -396.230957 -155.487473 0.118645 0.453497 0.883325 77 77 62 255
-455.224609 -439.219238 -135.188690 0.118645 0.453497 0.883325 77 77 62 255
-461.126953 -500.000000 -89.440025 0.825567 0.321846 0.463524 77 77 62 255
-453.009766 -500.000000 -103.897263 0.825567 0.321846 0.463524 77 77 62 255
-455.224609 -494.502930 -103.769348 0.825567 0.321846 0.463524 77 77 62 255
-500.000000 151.391113 -141.102631 0.367842 -0.427105 0.825998 77 77 62 255
-481.585938 187.219482 -130.776917 0.367842 -0.427106 0.825998 77 77 62 255
-500.000000 167.208252 -132.923935 0.367842 -0.427105 0.825998 77 77 62 255
-448.626953 168.786377 -154.985611 0.367838 -0.427104 0.826001 77 77 62 255
-481.585938 187.219482 -130.776917 0.367838 -0.427104 0.826001 77 77 62 255
-500.000000 151.391113 -141.102631 0.367838 -0.427104 0.826001 77 77 62 255
-356.330078 365.327637 -47.760529 0.674294 -0.526074 0.518241 77 77 62 255
-336.558594 340.755615 -98.429092 0.674294 -0.526074 0.518241 77 77 62 255
-292.605469 340.755615 -155.617493 0.674294 -0.526074 0.518241 77 77 62 255
-336.558594 340.755615 -98.429092 0.362612 -0.775122 0.517396 77 77 62 255
-356.330078 365.327637 -47.760529 0.362612 -0.775122 0.517396 77 77 62 255
-376.105469 318.235107 -104.451500 0.362612 -0.775122 0.517396 77 77 62 255
-481.585938 -451.505371 -107.711304 -0.376153 0.655300 0.655050 77 77 62 255
-494.781250 -408.507812 -158.302490 -0.376153 0.655300 0.655050 77 77 62 255
-494.781250 -463.791016 -102.998177 -0.376153 0.655300 0.655050 77 77 62 255
-481.585938 -451.505371 -107.711304 0.586045 0.554217 0.591097 77 77 62 255
-468.412109 -482.206543 -91.986893 0.586045 0.554217 0.591097 77 77 62 255
-468.412109 -457.652832 -115.008629 0.586045 0.554217 0.591097 77 77 62 255
-472.802734 283.431885 -33.494270 0.752972 -0.437204 0.491818 77 77 62 255
-428.839844 285.481445 -98.979370 0.752972 -0.437204 0.491818 77 77 62 255
-435.435547 303.905762 -72.502991 0.752972 -0.437204 0.491818 77 77 62 255
-468.416016 328.478760 -8.627388 0.584391 -0.435044 0.685000 77 77 62 255
-500.000000 294.518555 -3.250422 0.584391 -0.435044 0.684999 77 77 62 255
-472.802734 283.431885 -33.494270 0.584391 -0.435044 0.684999 77 77 62 255
-500.000000 303.956299 2.743520 0.584392 -0.435045 0.684998 77 77 62 255
-500.000000 294.518555 -3.250422 0.584392 -0.435045 0.684998 77 77 62 255
-468.416016 328.478760 -8.627388 0.584392 -0.435045 0.684998 77 77 62 255
-323.363281 414.454346 -107.636246 0.510886 -0.284998 0.811031 77 77 62 255
-270.617188 379.651367 -153.091980 0.510886 -0.284998 0.811031 77 77 62 255
-297.001953 402.177490 -128.555923 0.510886 -0.284998 0.811031 77 77 62 255
-283.808594 432.879395 -160.989746 0.579731 0.535008 0.614555 77 77 62 255
-310.173828 432.879395 -136.118484 0.579731 0.535008 0.614555 77 77 62 255
-323.363281 414.454346 -107.636246 0.579731 0.535008 0.614555 77 77 62 255
-448.626953 224.069092 -133.956512 0.675589 -0.486104 0.554330 77 77 62 255
-494.781250 230.207031 -72.323563 0.675589 -0.486104 0.554330 77 77 62 255
-494.781250 205.635742 -93.870667 0.675589 -0.486104 0.554330 77 77 62 255
-376.105469 318.235107 -104.451500 0.115231 0.808766 0.576732 77 77 62 255
-409.070312 316.182617 -94.986885 0.115231 0.808766 0.576732 77 77 62 255
-435.435547 303.905762 -72.502991 0.115231 0.808766 0.576732 77 77 62 255
-409.072266 340.755615 -51.890877 0.092946 -0.892770 0.440820 77 77 62 255
-376.105469 318.235107 -104.451500 0.092946 -0.892770 0.440820 77 77 62 255
-376.113281 340.755615 -58.840195 0.092946 -0.892770 0.440820 77 77 62 255
-297.001953 451.303223 -148.405151 0.318097 0.030105 0.947580 77 77 62 255
-322.900391 500.000000 -141.258301 0.318097 0.030105 0.947580 77 77 62 255
-326.039062 500.000000 -140.204666 0.318097 0.030105 0.947580 77 77 62 255
-297.001953 475.876221 -149.184967 0.318041 0.030072 0.947600 77 77 62 255
-322.900391 500.000000 -141.258301 0.318041 0.030072 0.947600 77 77 62 255
-297.001953 451.303223 -148.405151 0.318041 0.030072 0.947600 77 77 62 255
-448.626953 224.069092 -133.956512 0.604458 -0.373117 0.703856 77 77 62 255
-395.880859 230.207520 -175.999847 0.604458 -0.373117 0.703856 77 77 62 255
-415.667969 254.780029 -145.981064 0.604458 -0.373117 0.703856 77 77 62 255
-468.412109 -457.652832 -115.008629 0.672540 0.425386 0.605588 77 77 62 255
-455.224609 -494.502930 -103.769348 0.672540 0.425385 0.605588 77 77 62 255
-435.435547 -469.929688 -143.007339 0.672540 0.425386 0.605588 77 77 62 255
-455.224609 -494.502930 -103.769348 0.669391 0.429198 0.606387 77 77 62 255
-419.304688 -500.000000 -139.530594 0.669391 0.429198 0.606387 77 77 62 255
-435.435547 -469.929688 -143.007339 0.669391 0.429198 0.606387 77 77 62 255
-437.511719 -500.000000 -119.431419 0.669373 0.429266 0.606358 77 77 62 255
-419.304688 -500.000000 -139.530594 0.669373 0.429266 0.606358 77 77 62 255
-455.224609 -494.502930 -103.769348 0.669373 0.429266 0.606358 77 77 62 255
-356.330078 365.327637 -47.760529 0.840928 0.110790 0.529684 77 77 62 255
-389.285156 426.730713 -8.284247 0.840928 0.110790 0.529684 77 77 62 255
-389.285156 389.881348 -0.576720 0.840928 0.110790 0.529684 77 77 62 255
-455.224609 346.893311 -6.577129 0.252706 -0.371082 0.893553 77 77 62 255
-481.585938 353.031982 3.427456 0.252706 -0.371082 0.893553 77 77 62 255
-494.781250 340.755127 2.060800 0.252706 -0.371082 0.893553 77 77 62 255
-310.173828 432.879395 -136.118484 0.843768 -0.061656 0.533155 77 77 62 255
-323.363281 451.303223 -113.114357 0.843768 -0.061656 0.533155 77 77 62 255
-362.919922 463.586426 -49.091831 0.843768 -0.061656 0.533155 77 77 62 255
-283.808594 432.879395 -160.989746 0.633334 -0.384889 0.671378 77 77 62 255
-323.363281 451.303223 -113.114357 0.633334 -0.384889 0.671378 77 77 62 255
-310.173828 432.879395 -136.118484 0.633334 -0.384889 0.671378 77 77 62 255
-389.285156 426.730713 -8.284247 0.772887 0.006882 0.634507 77 77 62 255
-356.330078 365.327637 -47.760529 0.772887 0.006882 0.634506 77 77 62 255
-362.919922 414.453857 -40.266350 0.772887 0.006882 0.634507 77 77 62 255
-356.330078 365.327637 -47.760529 0.790515 0.012633 0.612312 77 77 62 255
-323.363281 377.604980 -90.575012 0.790515 0.012633 0.612312 77 77 62 255
-362.919922 414.453857 -40.266350 0.790515 0.012633 0.612312 77 77 62 255
-428.839844 402.177002 5.135926 0.158003 -0.119228 0.980214 77 77 62 255
-406.873047 385.788818 -0.398326 0.158003 -0.119228 0.980214 77 77 62 255
-415.667969 414.453857 4.506006 0.158003 -0.119228 0.980214 77 77 62 255
-415.667969 365.327637 -12.279050 0.224015 -0.344670 0.911603 77 77 62 255
-442.031250 389.881348 3.482962 0.224015 -0.344670 0.911603 77 77 62 255
-442.031250 353.031982 -10.449495 0.224015 -0.344670 0.911603 77 77 62 255
-500.000000 190.077148 -105.488060 0.605141 -0.611533 0.509737 77 77 62 255
-500.000000 167.208252 -132.923935 0.605141 -0.611533 0.509737 77 77 62 255
-481.585938 187.219482 -130.776917 0.605141 -0.611533 0.509737 77 77 62 255
-331.375000 500.000000 -131.789627 0.792880 0.368667 0.485207 77 77 62 255
-345.179688 500.000000 -109.231308 0.792880 0.368667 0.485207 77 77 62 255
-336.558594 475.876221 -104.989494 0.792880 0.368667 0.485207 77 77 62 255
-376.113281 439.026367 -24.032833 0.563567 0.025820 0.825667 77 77 62 255
-389.285156 475.875732 -16.194586 0.563567 0.025820 0.825667 77 77 62 255
-415.667969 439.026367 2.965585 0.563567 0.025820 0.825667 77 77 62 255
-297.001953 402.177490 -128.555923 0.687838 0.015206 0.725704 77 77 62 255
-270.617188 379.651367 -153.091980 0.687838 0.015206 0.725705 77 77 62 255
-270.621094 402.177490 -153.560272 0.687838 0.015206 0.725705 77 77 62 255
-415.667969 -500.000000 -141.768631 0.489989 0.354907 0.796211 77 77 62 255
-435.435547 -469.929688 -143.007339 0.489989 0.354907 0.796211 77 77 62 255
-419.304688 -500.000000 -139.530594 0.489989 0.354907 0.796211 77 77 62 255
-415.667969 -469.929688 -155.172470 0.489993 0.354909 0.796207 77 77 62 255
-435.435547 -469.929688 -143.007339 0.489993 0.354909 0.796208 77 77 62 255
-415.667969 -500.000000 -141.768631 0.489993 0.354909 0.796208 77 77 62 255
-415.667969 -469.929688 -155.172470 0.505640 0.263148 0.821633 77 77 62 255
-428.839844 -445.357422 -154.936264 0.505640 0.263148 0.821633 77 77 62 255
-435.435547 -469.929688 -143.007339 0.505640 0.263148 0.821633 77 77 62 255
-389.285156 475.875732 -16.194586 0.469104 0.226611 0.853574 77 77 62 255
-402.240234 500.000000 -15.479428 0.469104 0.226611 0.853574 77 77 62 255
-415.191406 500.000000 -8.361781 0.469104 0.226611 0.853574 77 77 62 255
-494.781250 -463.791016 -102.998177 -0.402394 0.686591 0.605534 77 77 62 255
-500.000000 -460.548828 -110.142365 -0.402394 0.686591 0.605534 77 77 62 255
-500.000000 -475.942871 -92.687668 -0.402394 0.686591 0.605534 77 77 62 255
-500.000000 -492.025391 -79.971992 0.105027 0.616783 0.780095 77 77 62 255
-494.781250 -463.791016 -102.998177 0.105027 0.616783 0.780095 77 77 62 255
-500.000000 -475.942871 -92.687668 0.105027 0.616783 0.780095 77 77 62 255
-468.412109 -482.206543 -91.986893 0.104996 0.616789 0.780094 77 77 62 255
-494.781250 -463.791016 -102.998177 0.104996 0.616789 0.780094 77 77 62 255
-500.000000 -492.025391 -79.971992 0.104996 0.616789 0.780094 77 77 62 255
-356.326172 303.906250 -129.312836 0.232465 -0.751135 0.617864 77 77 62 255
-376.105469 318.235107 -104.451500 0.232465 -0.751135 0.617864 77 77 62 255
-364.294922 269.871582 -167.690536 0.232465 -0.751135 0.617864 77 77 62 255
-409.072266 340.755615 -51.890877 0.477677 -0.663075 0.576330 77 77 62 255
-442.031250 353.031982 -10.449495 0.477677 -0.663075 0.576330 77 77 62 255
-455.224609 346.893311 -6.577129 0.477677 -0.663075 0.576330 77 77 62 255
-453.009766 -500.000000 -103.897263 0.552030 0.203605 0.808584 77 77 62 255
-449.318359 -500.000000 -106.417427 0.552030 0.203605 0.808584 77 77 62 255
-455.224609 -494.502930 -103.769348 0.552030 0.203605 0.808584 77 77 62 255
-435.435547 303.905762 -72.502991 0.752719 -0.438925 0.490672 77 77 62 255
-455.224609 316.182617 -31.163357 0.752719 -0.438925 0.490672 77 77 62 255
-472.802734 283.431885 -33.494270 0.752719 -0.438925 0.490672 77 77 62 255
-455.224609 316.182617 -31.163357 0.779170 -0.391739 0.489321 77 77 62 255
-435.435547 303.905762 -72.502991 0.779170 -0.391739 0.489321 77 77 62 255
-455.224609 346.893311 -6.577129 0.779170 -0.391739 0.489321 77 77 62 255
-494.781250 230.207031 -72.323563 0.590270 -0.629919 0.504761 77 77 62 255
-448.626953 224.069092 -133.956512 0.590270 -0.629919 0.504761 77 77 62 255
-457.419922 254.773926 -85.355698 0.590270 -0.629919 0.504761 77 77 62 255
-329.960938 297.764648 -158.645889 0.438231 -0.715743 0.543751 77 77 62 255
-356.326172 303.906250 -129.312836 0.438231 -0.715743 0.543751 77 77 62 255
-364.294922 269.871582 -167.690536 0.438231 -0.715743 0.543751 77 77 62 255
-356.326172 303.906250 -129.312836 0.707748 -0.199105 0.677828 77 77 62 255
-329.960938 297.764648 -158.645889 0.707748 -0.199105 0.677828 77 77 62 255
-376.105469 318.235107 -104.451500 0.707748 -0.199105 0.677828 77 77 62 255
-376.113281 340.755615 -58.840195 0.654478 -0.677902 0.334825 77 77 62 255
-376.105469 318.235107 -104.451500 0.654478 -0.677902 0.334825 77 77 62 255
-356.330078 365.327637 -47.760529 0.654478 -0.677902 0.334825 77 77 62 255
-415.667969 414.453857 4.506006 0.442761 -0.017531 0.896468 77 77 62 255
-406.873047 385.788818 -0.398326 0.442761 -0.017531 0.896468 77 77 62 255
-389.285156 426.730713 -8.284247 0.442761 -0.017531 0.896468 77 77 62 255
-457.419922 254.773926 -85.355698 0.251179 -0.813732 0.524165 77 77 62 255
-500.000000 294.518555 -3.250422 0.251179 -0.813732 0.524165 77 77 62 255
-500.000000 290.988525 -8.730565 0.251179 -0.813732 0.524165 77 77 62 255
-472.802734 283.431885 -33.494270 0.251164 -0.813740 0.524161 77 77 62 255
-500.000000 294.518555 -3.250422 0.251164 -0.813740 0.524161 77 77 62 255
-457.419922 254.773926 -85.355698 0.251164 -0.813740 0.524161 77 77 62 255
-292.605469 340.755615 -155.617493 0.639827 -0.590595 0.491750 77 77 62 255
-336.558594 340.755615 -98.429092 0.639827 -0.590595 0.491750 77 77 62 255
-329.960938 297.764648 -158.645889 0.639827 -0.590595 0.491750 77 77 62 255
-494.781250 205.635742 -93.870667 0.688337 -0.519688 0.506080 77 77 62 255
-500.000000 212.930664 -79.281403 0.688337 -0.519688 0.506080 77 77 62 255
-500.000000 206.446777 -85.939629 0.688337 -0.519688 0.506080 77 77 62 255
-442.031250 389.881348 3.482962 0.034963 -0.513027 0.857660 77 77 62 255
-415.667969 365.327637 -12.279050 0.034963 -0.513026 0.857660 77 77 62 255
-406.873047 385.788818 -0.398326 0.034963 -0.513026 0.857660 77 77 62 255
-415.667969 365.327637 -12.279050 0.684304 -0.563130 0.463263 77 77 62 255
-409.072266 340.755615 -51.890877 0.684304 -0.563130 0.463263 77 77 62 255
-406.873047 385.788818 -0.398326 0.684304 -0.563130 0.463263 77 77 62 255
-364.294922 269.871582 -167.690536 0.687123 0.493313 0.533389 77 77 62 255
-402.474609 291.629395 -138.629669 0.687123 0.493313 0.533389 77 77 62 255
-428.839844 285.481445 -98.979370 0.687123 0.493313 0.533389 77 77 62 255
-376.113281 439.026367 -24.032833 0.798672 0.162224 0.579488 77 77 62 255
-362.919922 463.586426 -49.091831 0.798672 0.162224 0.579488 77 77 62 255
-389.285156 475.875732 -16.194586 0.798672 0.162224 0.579488 77 77 62 255
-376.113281 439.026367 -24.032833 0.838746 0.096270 0.535946 77 77 62 255
-362.919922 414.453857 -40.266350 0.838746 0.096270 0.535946 77 77 62 255
-362.919922 463.586426 -49.091831 0.838746 0.096270 0.535946 77 77 62 255
-455.224609 346.893311 -6.577129 0.305329 -0.204537 0.930021 77 77 62 255
-468.416016 377.604492 4.507888 0.305329 -0.204537 0.930021 77 77 62 255
-481.585938 353.031982 3.427456 0.305329 -0.204537 0.930021 77 77 62 255
-448.626953 224.069092 -133.956512 0.125020 -0.605372 0.786063 77 77 62 255
-442.031250 193.358154 -158.656982 0.125020 -0.605372 0.786063 77 77 62 255
-415.667969 193.358154 -162.849945 0.125020 -0.605372 0.786063 77 77 62 255
-415.667969 439.026367 2.965585 0.513337 0.413360 0.752076 77 77 62 255
-389.285156 426.730713 -8.284247 0.513337 0.413360 0.752076 77 77 62 255
-376.113281 439.026367 -24.032833 0.513337 0.413360 0.752076 77 77 62 255
-389.285156 426.730713 -8.284247 0.413943 0.056954 0.908519 77 77 62 255
-415.667969 439.026367 2.965585 0.413943 0.056954 0.908519 77 77 62 255
-415.667969 414.453857 4.506006 0.413943 0.056954 0.908519 77 77 62 255
-461.126953 -500.000000 -89.440025 0.788601 0.390826 0.474725 77 77 62 255
-468.412109 -482.206543 -91.986893 0.788601 0.390826 0.474725 77 77 62 255
-474.773438 -500.000000 -66.770851 0.788601 0.390826 0.474725 77 77 62 255
-455.224609 -494.502930 -103.769348 0.788585 0.390823 0.474753 77 77 62 255
-468.412109 -482.206543 -91.986893 0.788585 0.390823 0.474753 77 77 62 255
-461.126953 -500.000000 -89.440025 0.788585 0.390823 0.474753 77 77 62 255
-468.412109 -482.206543 -91.986893 0.790235 0.419147 0.447039 77 77 62 255
-455.224609 -494.502930 -103.769348 0.790235 0.419147 0.447039 77 77 62 255
-468.412109 -457.652832 -115.008629 0.790235 0.419147 0.447039 77 77 62 255
-406.873047 385.788818 -0.398326 0.081901 -0.218588 0.972374 77 77 62 255
-428.839844 402.177002 5.135926 0.081901 -0.218588 0.972374 77 77 62 255
-442.031250 389.881348 3.482962 0.081901 -0.218588 0.972374 77 77 62 255
-292.605469 340.755615 -155.617493 0.798003 -0.277850 0.534780 77 77 62 255
-323.363281 377.604980 -90.575012 0.798003 -0.277850 0.534780 77 77 62 255
-356.330078 365.327637 -47.760529 0.798003 -0.277850 0.534780 77 77 62 255
-290.521484 500.000000 -173.973221 0.901147 0.167472 0.399858 77 77 62 255
-283.808594 432.879395 -160.989746 0.901147 0.167472 0.399858 77 77 62 255
-290.363281 500.000000 -174.329758 0.901147 0.167472 0.399858 77 77 62 255
-297.001953 475.876221 -149.184967 0.901763 0.167280 0.398547 77 77 62 255
-283.808594 432.879395 -160.989746 0.901764 0.167280 0.398547 77 77 62 255
-290.521484 500.000000 -173.973221 0.901763 0.167280 0.398547 77 77 62 255
-283.808594 432.879395 -160.989746 0.706282 0.022455 0.707574 77 77 62 255
-297.001953 475.876221 -149.184967 0.706282 0.022455 0.707574 77 77 62 255
-297.001953 451.303223 -148.405151 0.706282 0.022455 0.707574 77 77 62 255
-455.224609 -439.219238 -135.188690 0.616574 0.203690 0.760492 77 77 62 255
-435.435547 -469.929688 -143.007339 0.616574 0.203690 0.760492 77 77 62 255
-428.839844 -445.357422 -154.936264 0.616574 0.203689 0.760492 77 77 62 255
-389.285156 475.875732 -16.194586 0.223970 -0.074985 0.971707 77 77 62 255
-415.191406 500.000000 -8.361781 0.223970 -0.074985 0.971707 77 77 62 255
-467.031250 500.000000 3.586863 0.223970 -0.074985 0.971707 77 77 62 255
-323.363281 414.454346 -107.636246 0.856402 0.117152 0.502843 77 77 62 255
-349.730469 426.730713 -65.589851 0.856402 0.117152 0.502843 77 77 62 255
-362.919922 414.453857 -40.266350 0.856402 0.117152 0.502843 77 77 62 255
-349.730469 426.730713 -65.589851 0.856737 0.149673 0.493558 77 77 62 255
-323.363281 414.454346 -107.636246 0.856737 0.149673 0.493558 77 77 62 255
-310.173828 432.879395 -136.118484 0.856737 0.149673 0.493558 77 77 62 255
-494.781250 205.635742 -93.870667 0.662356 -0.548378 0.510457 77 77 62 255
-481.585938 187.219482 -130.776917 0.662356 -0.548378 0.510457 77 77 62 255
-448.626953 224.069092 -133.956512 0.662356 -0.548378 0.510457 77 77 62 255
-494.781250 205.635742 -93.870667 0.687687 -0.520844 0.505775 77 77 62 255
-500.000000 195.794678 -96.909172 0.687687 -0.520844 0.505775 77 77 62 255
-481.585938 187.219482 -130.776917 0.687687 -0.520844 0.505775 77 77 62 255
-500.000000 206.446777 -85.939629 0.687688 -0.520845 0.505772 77 77 62 255
-500.000000 195.794678 -96.909172 0.687689 -0.520845 0.505772 77 77 62 255
-494.781250 205.635742 -93.870667 0.687688 -0.520845 0.505772 77 77 62 255
-270.621094 402.177490 -153.560272 0.622315 0.426188 0.656574 77 77 62 255
-283.808594 432.879395 -160.989746 0.622315 0.426188 0.656573 77 77 62 255
-297.001953 402.177490 -128.555923 0.622315 0.426188 0.656574 77 77 62 255
-297.001953 402.177490 -128.555923 0.677102 0.376796 0.632106 77 77 62 255
-283.808594 432.879395 -160.989746 0.677102 0.376796 0.632106 77 77 62 255
-323.363281 414.454346 -107.636246 0.677102 0.376796 0.632106 77 77 62 255
-270.621094 402.177490 -153.560272 0.457900 -0.018398 -0.888813 77 77 62 255
-270.617188 379.651367 -153.091980 0.457900 -0.018398 -0.888813 77 77 62 255
-283.808594 432.879395 -160.989746 0.457900 -0.018398 -0.888813 77 77 62 255
-323.363281 451.303223 -113.114357 0.836722 0.297229 0.459947 77 77 62 255
-336.558594 475.876221 -104.989494 0.836722 0.297229 0.459947 77 77 62 255
-362.919922 463.586426 -49.091831 0.836722 0.297229 0.459947 77 77 62 255
-336.558594 475.876221 -104.989494 0.780376 0.226311 0.582921 77 77 62 255
-323.363281 451.303223 -113.114357 0.780376 0.226311 0.582921 77 77 62 255
-297.001953 451.303223 -148.405151 0.780376 0.226311 0.582921 77 77 62 255
-415.667969 254.780029 -145.981064 0.732235 -0.457797 0.504235 77 77 62 255
-428.839844 285.481445 -98.979370 0.732235 -0.457797 0.504236 77 77 62 255
-457.419922 254.773926 -85.355698 0.732235 -0.457797 0.504236 77 77 62 255
-472.802734 283.431885 -33.494270 0.738008 -0.473642 0.480632 77 77 62 255
-457.419922 254.773926 -85.355698 0.738008 -0.473642 0.480632 77 77 62 255
-428.839844 285.481445 -98.979370 0.738008 -0.473642 0.480632 77 77 62 255
-455.224609 316.182617 -31.163357 0.674673 -0.405986 0.616435 77 77 62 255
-468.416016 328.478760 -8.627388 0.674673 -0.405986 0.616434 77 77 62 255
-472.802734 283.431885 -33.494270 0.674673 -0.405986 0.616434 77 77 62 255
-455.224609 316.182617 -31.163357 0.600560 -0.499713 0.624192 77 77 62 255
-455.224609 346.893311 -6.577129 0.600560 -0.499713 0.624192 77 77 62 255
-468.416016 328.478760 -8.627388 0.600560 -0.499713 0.624192 77 77 62 255
-494.781250 -463.791016 -102.998177 -0.077004 0.428136 0.900428 77 77 62 255
-468.412109 -482.206543 -91.986893 -0.077004 0.428136 0.900428 77 77 62 255
-481.585938 -451.505371 -107.711304 -0.077004 0.428136 0.900428 77 77 62 255
-376.105469 318.235107 -104.451500 0.192629 -0.852432 0.486059 77 77 62 255
-409.072266 340.755615 -51.890877 0.192629 -0.852432 0.486059 77 77 62 255
-409.070312 316.182617 -94.986885 0.192629 -0.852432 0.486059 77 77 62 255
-455.224609 -494.502930 -103.769348 0.669749 0.426899 0.607614 77 77 62 255
-449.318359 -500.000000 -106.417427 0.669749 0.426899 0.607614 77 77 62 255
-437.511719 -500.000000 -119.431419 0.669748 0.426899 0.607614 77 77 62 255
-323.363281 451.303223 -113.114357 0.790482 0.162740 0.590470 77 77 62 255
-283.808594 432.879395 -160.989746 0.790482 0.162740 0.590470 77 77 62 255
-297.001953 451.303223 -148.405151 0.790482 0.162740 0.590470 77 77 62 255
-481.585938 187.219482 -130.776917 0.534548 -0.703263 0.468700 77 77 62 255
-500.000000 195.794678 -96.909172 0.534548 -0.703263 0.468700 77 77 62 255
-500.000000 190.077148 -105.488060 0.534548 -0.703263 0.468700 77 77 62 255
-402.474609 291.629395 -138.629669 0.794069 -0.388040 0.467844 77 77 62 255
-435.435547 303.905762 -72.502991 0.794069 -0.388041 0.467844 77 77 62 255
-428.839844 285.481445 -98.979370 0.794069 -0.388040 0.467844 77 77 62 255
-455.224609 -439.219238 -135.188690 0.577396 0.378754 0.723298 77 77 62 255
-481.585938 -451.505371 -107.711304 0.577396 0.378754 0.723298 77 77 62 255
-468.412109 -457.652832 -115.008629 0.577396 0.378754 0.723298 77 77 62 255
-468.416016 377.604492 4.507888 0.353112 -0.179730 0.918155 77 77 62 255
-455.224609 346.893311 -6.577129 0.353112 -0.179730 0.918155 77 77 62 255
-442.031250 353.031982 -10.449495 0.353112 -0.179730 0.918155 77 77 62 255
-455.224609 346.893311 -6.577129 0.347681 -0.814503 0.464439 77 77 62 255
-409.070312 316.182617 -94.986885 0.347681 -0.814503 0.464439 77 77 62 255
-409.072266 340.755615 -51.890877 0.347681 -0.814503 0.464439 77 77 62 255
-364.294922 269.871582 -167.690536 0.011315 -0.793260 0.608777 77 77 62 255
-376.105469 318.235107 -104.451500 0.011315 -0.793260 0.608777 77 77 62 255
-402.474609 291.629395 -138.629669 0.011315 -0.793260 0.608777 77 77 62 255
-389.285156 475.875732 -16.194586 0.796463 0.300859 0.524529 77 77 62 255
-388.978516 500.000000 -30.497385 0.796463 0.300859 0.524529 77 77 62 255
-389.285156 500.000000 -30.031771 0.796463 0.300859 0.524529 77 77 62 255
-362.919922 463.586426 -49.091831 0.795822 0.301295 0.525251 77 77 62 255
-388.978516 500.000000 -30.497385 0.795822 0.301295 0.525251 77 77 62 255
-389.285156 475.875732 -16.194586 0.795822 0.301295 0.525251 77 77 62 255
-353.144531 500.000000 -95.315491 0.818299 0.354588 0.452388 77 77 62 255
-388.978516 500.000000 -30.497385 0.818299 0.354588 0.452388 77 77 62 255
-362.919922 463.586426 -49.091831 0.818299 0.354588 0.452388 77 77 62 255
-455.224609 -439.219238 -135.188690 0.616865 0.228417 0.753195 77 77 62 255
-428.839844 -445.357422 -154.936264 0.616865 0.228417 0.753195 77 77 62 255
-442.031250 -396.230957 -159.030838 0.616865 0.228417 0.753195 77 77 62 255
-457.419922 254.773926 -85.355698 0.594506 -0.662021 0.456389 77 77 62 255
-500.000000 232.637451 -61.999981 0.594506 -0.662021 0.456389 77 77 62 255
-494.781250 230.207031 -72.323563 0.594506 -0.662021 0.456389 77 77 62 255
-500.000000 246.561523 -41.802235 0.594506 -0.662021 0.456389 77 77 62 255
-500.000000 232.637451 -61.999981 0.594506 -0.662021 0.456389 77 77 62 255
-457.419922 254.773926 -85.355698 0.594506 -0.662021 0.456389 77 77 62 255
-389.283203 -482.206543 -156.452011 0.062515 0.030368 0.997582 77 77 62 255
-394.136719 -500.000000 -155.606201 0.062515 0.030368 0.997582 77 77 62 255
-389.283203 -500.000000 -155.910355 0.062515 0.030368 0.997582 77 77 62 255
-415.667969 -469.929688 -155.172470 0.062509 0.030369 0.997582 77 77 62 255
-394.136719 -500.000000 -155.606201 0.062509 0.030369 0.997582 77 77 62 255
-389.283203 -482.206543 -156.452011 0.062509 0.030369 0.997582 77 77 62 255
-406.873047 385.788818 -0.398326 -0.037684 0.204587 0.978123 77 77 62 255
-389.285156 389.881348 -0.576720 -0.037684 0.204587 0.978123 77 77 62 255
-389.285156 426.730713 -8.284247 -0.037684 0.204587 0.978123 77 77 62 255
-494.781250 -408.507812 -158.302490 -0.659237 -0.347008 0.667078 77 77 62 255
-500.000000 -397.516602 -157.742371 -0.659237 -0.347008 0.667078 77 77 62 255
-500.000000 -401.221191 -159.669464 -0.659237 -0.347008 0.667078 77 77 62 255
-455.224609 -439.219238 -135.188690 -0.659211 -0.346997 0.667108 77 77 62 255
-500.000000 -397.516602 -157.742371 -0.659211 -0.346997 0.667108 77 77 62 255
-494.781250 -408.507812 -158.302490 -0.659211 -0.346997 0.667108 77 77 62 255
-481.585938 439.026367 3.282959 0.004416 -0.001135 0.999990 54 64 7 255
-500.000000 456.177734 3.383737 0.004416 -0.001135 0.999990 54 64 7 255
-500.000000 440.931396 3.366438 0.004416 -0.001135 0.999990 54 64 7 255
-442.031250 389.881348 3.482962 -0.012169 -0.005725 0.999910 54 64 7 255
-481.585938 439.026367 3.282959 -0.012169 -0.005725 0.999910 54 64 7 255
-494.781250 389.881348 2.840971 -0.012169 -0.005725 0.999910 54 64 7 255
-481.585938 439.026367 3.282959 -0.003733 -0.009883 0.999944 54 64 7 255
-500.000000 500.000000 3.816855 -0.003733 -0.009883 0.999944 54 64 7 255
-500.000000 456.177734 3.383737 -0.003733 -0.009883 0.999944 54 64 7 255
-468.507812 500.000000 3.934410 -0.003733 -0.009883 0.999944 54 64 7 255
-500.000000 500.000000 3.816855 -0.003733 -0.009883 0.999944 54 64 7 255
-481.585938 439.026367 3.282959 -0.003733 -0.009883 0.999944 54 64 7 255
-481.585938 439.026367 3.282959 0.000409 0.050805 0.998708 54 64 7 255
-428.839844 402.177002 5.135926 0.000409 0.050805 0.998708 54 64 7 255
-415.667969 414.453857 4.506006 0.000409 0.050805 0.998709 54 64 7 255
-481.585938 439.026367 3.282959 0.004815 -0.011716 0.999920 54 64 7 255
-468.046875 500.000000 3.932190 0.004815 -0.011716 0.999920 54 64 7 255
-468.507812 500.000000 3.934410 0.004815 -0.011716 0.999920 54 64 7 255
-415.667969 414.453857 4.506006 -0.020797 -0.006027 0.999766 54 64 7 255
-468.046875 500.000000 3.932190 -0.020797 -0.006027 0.999766 54 64 7 255
-481.585938 439.026367 3.282959 -0.020797 -0.006027 0.999766 54 64 7 255
-442.031250 389.881348 3.482962 -0.012097 0.108979 0.993970 54 64 7 255
-494.781250 389.881348 2.840971 -0.012097 0.108979 0.993970 54 64 7 255
-468.416016 377.604492 4.507888 -0.012097 0.108979 0.993970 54 64 7 255
-415.667969 439.026367 2.965585 0.090873 0.062307 0.993911 54 64 7 255
-468.046875 500.000000 3.932190 0.090873 0.062307 0.993911 54 64 7 255
-415.667969 414.453857 4.506006 0.090873 0.062307 0.993911 54 64 7 255
-494.781250 389.881348 2.840971 -0.023700 -0.006303 0.999699 54 64 7 255
-500.000000 362.808594 2.546571 -0.023700 -0.006303 0.999699 54 64 7 255
-494.781250 365.327637 2.686172 -0.023700 -0.006303 0.999699 54 64 7 255
-500.000000 383.398926 2.676382 -0.023700 -0.006303 0.999699 54 64 7 255
-500.000000 362.808594 2.546571 -0.023700 -0.006303 0.999699 54 64 7 255
-494.781250 389.881348 2.840971 -0.023700 -0.006303 0.999699 54 64 7 255
-468.416016 377.604492 4.507888 -0.066830 -0.008051 0.997732 54 64 7 255
-494.781250 389.881348 2.840971 -0.066830 -0.008051 0.997732 54 64 7 255
-481.585938 353.031982 3.427456 -0.066830 -0.008051 0.997732 54 64 7 255
-481.585938 439.026367 3.282959 -0.073451 -0.055065 0.995777 54 64 7 255
-442.031250 389.881348 3.482962 -0.073451 -0.055065 0.995777 54 64 7 255
-428.839844 402.177002 5.135926 -0.073451 -0.055065 0.995777 54 64 7 255
-481.585938 439.026367 3.282959 0.011750 0.069867 0.997487 54 64 7 255
-500.000000 440.931396 3.366438 0.011750 0.069867 0.997487 54 64 7 255
-500.000000 434.733887 3.800531 0.011750 0.069867 0.997487 54 64 7 255
-500.000000 434.733887 3.800531 0.047826 -0.085168 0.995218 54 64 7 255
-500.000000 426.161865 3.066959 0.047826 -0.085168 0.995218 54 64 7 255
-481.585938 439.026367 3.282959 0.047826 -0.085168 0.995218 54 64 7 255
-494.781250 389.881348 2.840971 -0.009885 -0.017427 0.999799 54 64 7 255
-500.000000 391.503662 2.817652 -0.009885 -0.017427 0.999799 54 64 7 255
-500.000000 383.398926 2.676382 -0.009885 -0.017427 0.999799 54 64 7 255
-494.781250 389.881348 2.840971 -0.006704 -0.007193 0.999952 54 64 7 255
-500.000000 426.161865 3.066959 -0.006704 -0.007193 0.999952 54 64 7 255
-500.000000 391.503662 2.817652 -0.006704 -0.007193 0.999952 54 64 7 255
-481.585938 439.026367 3.282959 -0.006704 -0.007193 0.999952 54 64 7 255
-500.000000 426.161865 3.066959 -0.006704 -0.007193 0.999952 54 64 7 255
-494.781250 389.881348 2.840971 -0.006704 -0.007193 0.999952 54 64 7 255
-494.781250 365.327637 2.686172 -0.079613 -0.025361 0.996503 54 64 7 255
-494.781250 340.755127 2.060800 -0.079613 -0.025361 0.996503 54 64 7 255
-481.585938 353.031982 3.427456 -0.079613 -0.025361 0.996503 54 64 7 255
-481.585938 353.031982 3.427456 -0.061932 -0.006292 0.998061 54 64 7 255
-494.781250 389.881348 2.840971 -0.061932 -0.006292 0.998061 54 64 7 255
-494.781250 365.327637 2.686172 -0.061932 -0.006292 0.998060 54 64 7 255
-494.781250 340.755127 2.060800 0.014252 0.078004 0.996851 54 64 7 255
-500.000000 342.202637 2.022147 0.014252 0.078004 0.996851 54 64 7 255
-500.000000 323.746094 3.466377 0.014252 0.078004 0.996851 54 64 7 255
-494.781250 365.327637 2.686172 -0.014459 -0.025439 0.999572 54 64 7 255
-500.000000 342.202637 2.022147 -0.014459 -0.025439 0.999572 54 64 7 255
-494.781250 340.755127 2.060800 -0.014459 -0.025439 0.999572 54 64 7 255
-500.000000 362.808594 2.546571 -0.014459 -0.025439 0.999572 54 64 7 255
-500.000000 342.202637 2.022147 -0.014459 -0.025439 0.999572 54 64 7 255
-494.781250 365.327637 2.686172 -0.014459 -0.025439 0.999572 54 64 7 255
3 0 1 2
3 3 4 5
3 6 7 8
3 9 10 11
3 12 13 14
3 15 16 17
3 18 19 20
3 21 22 23
3 24 25 26
3 27 28 29
3 30 31 32
3 33 34 35
3 36 37 38
3 39 40 41
3 42 43 44
3 45 46 47
3 48 49 50
3 51 52 53
3 54 55 56
3 57 58 59
3 60 61 62
3 63 64 65
3 66 67 68
3 69 70 71
3 72 73 74
3 75 76 77
3 78 79 80
3 81 82 83
3 84 85 86
3 87 88 89
3 90 91 92
3 93 94 95
3 96 97 98
3 99 100 101
3 102 103 104
3 105 106 107
3 108 109 110
3 111 112 113
3 114 115 116
3 117 118 119
3 120 121 122
3 123 124 125
3 126 127 128
3 129 130 131
3 132 133 134
3 135 136 137
3 138 139 140
3 141 142 143
3 144 145 146
3 147 148 149
3 150 151 152
3 153 154 155
3 156 157 158
3 159 160 161
3 162 163 164
3 165 166 167
3 168 169 170
3 171 172 173
3 174 175 176
3 177 178 179
3 180 181 182
3 183 184 185
3 186 187 188
3 189 190 191
3 192 193 194
3 195 196 197
3 198 199 200
3 201 202 203
3 204 205 206
3 207 208 209
3 210 211 212
3 213 214 215
3 216 217 218
3 219 220 221
3 222 223 224
3 225 226 227
3 228 229 230
3 231 232 233
3 234 235 236
3 237 238 239
3 240 241 242
3 243 244 245
3 246 247 248
3 249 250 251
3 252 253 254
3 255 256 257
3 258 259 260
3 261 262 263
3 264 265 266
3 267 268 269
3 270 271 272
3 273 274 275
3 276 277 278
3 279 280 281
3 282 283 284
3 285 286 287
3 288 289 290
3 291 292 293
3 294 295 296
3 297 298 299
3 300 301 302
3 303 304 305
3 306 307 308
3 309 310 311
3 312 313 314
3 315 316 317
3 318 319 320
3 321 322 323
3 324 325 326
3 327 328 329
3 330 331 332
3 333 334 335
3 336 337 338
3 339 340 341
3 342 343 344
3 345 346 347
3 348 349 350
3 351 352 353
3 354 355 356
3 357 358 359
3 360 361 362
3 363 364 365
3 366 367 368
3 369 370 371
3 372 373 374
3 375 376 377
3 378 379 380
3 381 382 383
3 384 385 386
3 387 388 389
3 390 391 392
3 393 394 395
3 396 397 398
3 399 400 401
3 402 403 404
3 405 406 407
3 408 409 410
3 411 412 413
3 414 415 416
3 417 418 419
3 420 421 422
3 423 424 425
3 426 427 428
3 429 430 431
3 432 433 434
3 435 436 437
3 438 439 440
3 441 442 443
3 444 445 446
3 447 448 449
3 450 451 452
3 453 454 455
3 456 457 458
3 459 460 461
3 462 463 464
3 465 466 467
3 468 469 470
3 471 472 473
3 474 475 476
3 477 478 479
3 480 481 482
3 483 484 485
3 486 487 488
3 489 490 491
3 492 493 494
3 495 496 497
3 498 499 500
3 501 502 503
3 504 505 506
3 507 508 509
3 510 511 512
3 513 514 515
3 516 517 518
3 519 520 521
3 522 523 524
3 525 526 527
3 528 529 530
3 531 532 533
3 534 535 536
