ply
format ascii 1.0
comment Created by Blender 3.4.1 - www.blender.org
element vertex 327
property float x
property float y
property float z
property float nx
property float ny
property float nz
property uchar red
property uchar green
property uchar blue
property uchar alpha
element face 109
property list uchar uint vertex_indices
end_header
-233.515625 -67.639893 -99.822052 0.357211 -0.795589 0.489325 77 77 62 255
-270.593750 -50.152832 -44.322647 0.357211 -0.795589 0.489325 77 77 62 255
-296.974609 -111.555176 -124.898033 0.357211 -0.795589 0.489325 77 77 62 255
-233.515625 -67.639893 -99.822052 0.842231 0.112330 0.527285 77 77 62 255
-244.228516 35.841553 -104.755478 0.842231 0.112330 0.527285 77 77 62 255
-270.593750 -50.152832 -44.322647 0.842231 0.112330 0.527285 77 77 62 255
-349.701172 -148.406006 -149.342346 -0.000986 -0.897846 0.440308 77 77 62 255
-468.388672 -74.707031 0.673997 -0.000986 -0.897846 0.440308 77 77 62 255
-402.447266 -148.406006 -149.460434 -0.000986 -0.897846 0.440308 77 77 62 255
-468.388672 -74.707031 0.673997 0.173893 -0.822441 0.541621 77 77 62 255
-349.701172 -148.406006 -149.342346 0.173893 -0.822440 0.541621 77 77 62 255
-376.085938 -62.430176 -10.318610 0.173893 -0.822441 0.541621 77 77 62 255
-191.478516 -50.152832 -102.604050 0.145435 -0.195312 0.969898 77 77 62 255
-204.673828 -13.304077 -93.205063 0.145435 -0.195312 0.969898 77 77 62 255
-233.515625 -67.639893 -99.822052 0.145435 -0.195312 0.969898 77 77 62 255
-494.751953 -1.008423 -41.971043 -0.387724 0.790770 0.473660 77 77 62 255
-500.000000 7.140015 -59.870663 -0.387724 0.790770 0.473660 77 77 62 255
-500.000000 -5.900146 -38.100258 -0.387724 0.790770 0.473660 77 77 62 255
-455.197266 -13.304077 6.578242 -0.571765 0.300151 0.763540 77 77 62 255
-481.558594 -13.304077 -13.162031 -0.571765 0.300151 0.763540 77 77 62 255
-455.197266 -37.857788 16.230404 -0.571765 0.300151 0.763540 77 77 62 255
-155.558594 27.493530 -163.722626 0.405232 0.662745 0.629727 77 77 62 255
-191.478516 48.119141 -162.315079 0.405232 0.662745 0.629727 77 77 62 255
-191.478516 17.407227 -129.992889 0.405232 0.662745 0.629727 77 77 62 255
-271.437500 72.691040 -111.266945 0.496355 0.492789 0.714697 77 77 62 255
-283.783203 11.267822 -60.341072 0.496355 0.492789 0.714696 77 77 62 255
-244.228516 35.841553 -104.755478 0.496355 0.492789 0.714696 77 77 62 255
-393.658203 101.343384 -165.567947 0.078093 0.674458 0.734172 77 77 62 255
-448.599609 103.392578 -161.606430 0.078093 0.674458 0.734172 77 77 62 255
-444.642578 53.033447 -115.764168 0.078093 0.674458 0.734172 77 77 62 255
-494.751953 -148.406006 -102.242462 0.131407 -0.853075 0.504970 77 77 62 255
-500.000000 -121.424072 -55.294674 0.131407 -0.853075 0.504970 77 77 62 255
-500.000000 -133.745605 -76.110138 0.131407 -0.853075 0.504970 77 77 62 255
-468.384766 -160.700195 -129.873474 0.131413 -0.853074 0.504971 77 77 62 255
-500.000000 -121.424072 -55.294674 0.131413 -0.853074 0.504971 77 77 62 255
-494.751953 -148.406006 -102.242462 0.131413 -0.853074 0.504971 77 77 62 255
-500.000000 -121.424072 -55.294674 0.251816 -0.808190 0.532369 77 77 62 255
-468.388672 -74.707031 0.673997 0.251816 -0.808190 0.532370 77 77 62 255
-500.000000 -104.156006 -29.080023 0.251816 -0.808190 0.532370 77 77 62 255
-468.384766 -160.700195 -129.873474 0.251812 -0.808190 0.532372 77 77 62 255
-468.388672 -74.707031 0.673997 0.251812 -0.808190 0.532372 77 77 62 255
-500.000000 -121.424072 -55.294674 0.251812 -0.808190 0.532372 77 77 62 255
-415.640625 35.840942 -77.474625 0.002535 0.912971 0.408016 77 77 62 255
-444.642578 53.033447 -115.764168 0.002535 0.912971 0.408016 77 77 62 255
-442.001953 5.129761 -8.591827 0.002535 0.912971 0.408016 77 77 62 255
-455.197266 -37.857788 16.230404 0.175428 -0.257597 0.950194 77 77 62 255
-415.640625 -50.153320 5.594001 0.175428 -0.257597 0.950194 77 77 62 255
-402.447266 -13.304077 13.147983 0.175428 -0.257597 0.950194 77 77 62 255
-376.085938 -62.430176 -10.318610 0.279222 -0.287768 0.916092 77 77 62 255
-402.447266 -13.304077 13.147983 0.279222 -0.287768 0.916092 77 77 62 255
-415.640625 -50.153320 5.594001 0.279222 -0.287768 0.916092 77 77 62 255
-244.228516 35.841553 -104.755478 -0.258040 0.019337 0.965941 77 77 62 255
-233.515625 -67.639893 -99.822052 -0.258040 0.019337 0.965941 77 77 62 255
-204.673828 -13.304077 -93.205063 -0.258040 0.019337 0.965941 77 77 62 255
-224.439453 48.119141 -135.039337 0.495209 0.629804 0.598427 77 77 62 255
-191.478516 17.407227 -129.992889 0.495209 0.629804 0.598427 77 77 62 255
-191.478516 48.119141 -162.315079 0.495209 0.629804 0.598427 77 77 62 255
-444.642578 53.033447 -115.764168 -0.180574 0.654302 0.734358 77 77 62 255
-448.599609 103.392578 -161.606430 -0.180574 0.654302 0.734358 77 77 62 255
-494.751953 84.968506 -156.539398 -0.180574 0.654302 0.734358 77 77 62 255
-402.447266 -13.304077 13.147983 -0.115140 0.363418 0.924484 77 77 62 255
-455.197266 -13.304077 6.578242 -0.115140 0.363418 0.924484 77 77 62 255
-455.197266 -37.857788 16.230404 -0.115140 0.363418 0.924484 77 77 62 255
-402.447266 11.267822 -15.277598 -0.078628 0.921353 0.380692 77 77 62 255
-415.640625 35.840942 -77.474625 -0.078628 0.921353 0.380692 77 77 62 255
-442.001953 5.129761 -8.591827 -0.078628 0.921353 0.380692 77 77 62 255
-271.437500 72.691040 -111.266945 0.178222 0.606564 0.774801 77 77 62 255
-296.974609 35.841553 -76.544662 0.178222 0.606564 0.774801 77 77 62 255
-283.783203 11.267822 -60.341072 0.178222 0.606565 0.774801 77 77 62 255
-296.974609 97.244751 -163.476547 0.051313 0.759238 0.648786 77 77 62 255
-270.593750 78.829712 -144.012955 0.051313 0.759238 0.648786 77 77 62 255
-257.400391 97.244751 -166.606522 0.051313 0.759238 0.648786 77 77 62 255
-442.001953 5.129761 -8.591827 -0.485546 0.748221 0.452117 77 77 62 255
-461.792969 35.841553 -80.672012 -0.485546 0.748221 0.452117 77 77 62 255
-481.558594 23.552246 -81.561180 -0.485546 0.748221 0.452117 77 77 62 255
-415.640625 35.840942 -77.474625 -0.089325 0.937785 0.335531 77 77 62 255
-382.669922 23.545410 -34.332062 -0.089325 0.937785 0.335531 77 77 62 255
-402.447266 48.118530 -108.277275 -0.089325 0.937785 0.335531 77 77 62 255
-349.703125 23.545410 -46.459229 0.209212 0.795475 0.568727 77 77 62 255
-382.669922 23.545410 -34.332062 0.209212 0.795475 0.568727 77 77 62 255
-376.085938 -13.304077 14.787102 0.209212 0.795475 0.568727 77 77 62 255
-481.558594 -50.153320 15.903498 -0.343888 0.535902 0.771071 77 77 62 255
-500.000000 -36.410156 -1.872781 -0.343888 0.535902 0.771071 77 77 62 255
-500.000000 -58.734131 13.642620 -0.343888 0.535902 0.771071 77 77 62 255
-481.558594 -13.304077 -13.162031 -0.493733 0.538554 0.682779 77 77 62 255
-500.000000 -24.397827 -17.747040 -0.493733 0.538554 0.682779 77 77 62 255
-481.558594 -50.153320 15.903498 -0.493733 0.538554 0.682779 77 77 62 255
-500.000000 -13.304077 -26.497465 -0.493733 0.538555 0.682778 77 77 62 255
-500.000000 -24.397827 -17.747040 -0.493733 0.538555 0.682778 77 77 62 255
-481.558594 -13.304077 -13.162031 -0.493733 0.538555 0.682778 77 77 62 255
-323.335938 35.834717 -72.375618 0.125713 0.592271 0.795871 77 77 62 255
-283.783203 11.267822 -60.341072 0.125713 0.592271 0.795871 77 77 62 255
-296.974609 35.841553 -76.544662 0.125713 0.592271 0.795871 77 77 62 255
-336.531250 -25.580933 15.220737 0.237032 0.783958 0.573782 77 77 62 255
-349.703125 23.545410 -46.459229 0.237032 0.783958 0.573782 77 77 62 255
-376.085938 -13.304077 14.787102 0.237032 0.783958 0.573782 77 77 62 255
-362.160156 73.711304 -171.503265 -0.232351 0.901460 0.365216 77 77 62 255
-310.144531 60.394775 -105.541649 -0.232351 0.901460 0.365216 77 77 62 255
-271.437500 72.691040 -111.266945 -0.232351 0.901460 0.365216 77 77 62 255
-481.558594 -50.153320 15.903498 0.098761 -0.446561 0.889286 77 77 62 255
-500.000000 -58.734131 13.642620 0.098761 -0.446561 0.889286 77 77 62 255
-500.000000 -84.493164 0.707540 0.098761 -0.446561 0.889286 77 77 62 255
-165.117188 -13.304077 -158.633636 0.843024 0.171880 0.509674 77 77 62 255
-204.673828 -13.304077 -93.205063 0.843024 0.171880 0.509674 77 77 62 255
-191.478516 -50.152832 -102.604050 0.843024 0.171880 0.509674 77 77 62 255
-362.160156 73.711304 -171.503265 0.589958 0.544417 0.596288 77 77 62 255
-393.658203 101.343384 -165.567947 0.589958 0.544417 0.596288 77 77 62 255
-402.447266 48.118530 -108.277275 0.589958 0.544417 0.596288 77 77 62 255
-494.751953 -148.406006 -102.242462 0.193028 -0.796427 0.573100 77 77 62 255
-500.000000 -146.777100 -98.211182 0.193028 -0.796427 0.573100 77 77 62 255
-500.000000 -155.252197 -109.988884 0.193028 -0.796427 0.573100 77 77 62 255
-494.751953 -148.406006 -102.242462 0.564136 -0.405988 0.718974 77 77 62 255
-461.791016 -191.401855 -152.383713 0.564136 -0.405988 0.718974 77 77 62 255
-468.384766 -160.700195 -129.873474 0.564136 -0.405988 0.718974 77 77 62 255
-233.515625 -67.639893 -99.822052 0.189991 -0.679298 0.708842 77 77 62 255
-296.974609 -111.555176 -124.898033 0.189991 -0.679298 0.708842 77 77 62 255
-244.228516 -123.850830 -150.818756 0.189991 -0.679298 0.708842 77 77 62 255
-233.515625 -67.639893 -99.822052 0.539040 -0.261053 0.800804 77 77 62 255
-178.291016 -111.555176 -151.310883 0.539040 -0.261053 0.800804 77 77 62 255
-165.117188 -87.001465 -152.174255 0.539040 -0.261053 0.800804 77 77 62 255
-444.642578 53.033447 -115.764168 -0.034596 0.734828 0.677371 77 77 62 255
-402.447266 48.118530 -108.277275 -0.034596 0.734828 0.677371 77 77 62 255
-393.658203 101.343384 -165.567947 -0.034596 0.734828 0.677371 77 77 62 255
-271.437500 72.691040 -111.266945 0.785855 0.603841 0.133447 77 77 62 255
-244.228516 35.841553 -104.755478 0.785855 0.603841 0.133447 77 77 62 255
-270.593750 78.829712 -144.012955 0.785855 0.603841 0.133447 77 77 62 255
-237.632812 78.829712 -155.757538 0.247597 0.675161 0.694877 77 77 62 255
-257.400391 97.244751 -166.606522 0.247597 0.675161 0.694877 77 77 62 255
-270.593750 78.829712 -144.012955 0.247597 0.675161 0.694877 77 77 62 255
-336.531250 -25.580933 15.220737 0.658702 0.565825 0.495937 77 77 62 255
-270.593750 -50.152832 -44.322647 0.658702 0.565825 0.495937 77 77 62 255
-323.335938 35.834717 -72.375618 0.658702 0.565825 0.495937 77 77 62 255
-376.085938 -62.430176 -10.318610 0.267665 -0.795920 0.543016 77 77 62 255
-349.701172 -148.406006 -149.342346 0.267665 -0.795920 0.543016 77 77 62 255
-270.593750 -50.152832 -44.322647 0.267665 -0.795920 0.543016 77 77 62 255
-402.447266 11.267822 -15.277598 0.072485 0.802456 0.592292 77 77 62 255
-376.085938 -13.304077 14.787102 0.072485 0.802456 0.592292 77 77 62 255
-382.669922 23.545410 -34.332062 0.072485 0.802456 0.592292 77 77 62 255
-442.001953 5.129761 -8.591827 -0.006860 0.756509 0.653948 77 77 62 255
-402.447266 -13.304077 13.147983 -0.006860 0.756508 0.653948 77 77 62 255
-402.447266 11.267822 -15.277598 -0.006860 0.756508 0.653948 77 77 62 255
-296.974609 -111.555176 -124.898033 0.182638 -0.711450 0.678588 77 77 62 255
-349.701172 -148.406006 -149.342346 0.182638 -0.711450 0.678588 77 77 62 255
-296.974609 -136.128418 -150.661270 0.182638 -0.711450 0.678588 77 77 62 255
-296.974609 -111.555176 -124.898033 0.326104 -0.800328 0.503121 77 77 62 255
-270.593750 -50.152832 -44.322647 0.326104 -0.800329 0.503121 77 77 62 255
-349.701172 -148.406006 -149.342346 0.326104 -0.800328 0.503121 77 77 62 255
-455.197266 -13.304077 6.578242 -0.334726 0.829550 0.446996 77 77 62 255
-481.558594 23.552246 -81.561180 -0.334726 0.829550 0.446996 77 77 62 255
-481.558594 -13.304077 -13.162031 -0.334726 0.829550 0.446996 77 77 62 255
-494.751953 -1.008423 -41.971043 -0.362528 0.785644 0.501335 77 77 62 255
-500.000000 -13.304077 -26.497465 -0.362528 0.785644 0.501335 77 77 62 255
-481.558594 -13.304077 -13.162031 -0.362528 0.785644 0.501335 77 77 62 255
-500.000000 -5.900146 -38.100258 -0.362535 0.785643 0.501332 77 77 62 255
-500.000000 -13.304077 -26.497465 -0.362535 0.785643 0.501332 77 77 62 255
-494.751953 -1.008423 -41.971043 -0.362535 0.785643 0.501332 77 77 62 255
-481.558594 -50.153320 15.903498 0.144680 -0.464347 0.873756 77 77 62 255
-500.000000 -86.500000 -0.358911 0.144680 -0.464347 0.873756 77 77 62 255
-468.388672 -74.707031 0.673997 0.144680 -0.464347 0.873756 77 77 62 255
-500.000000 -84.493164 0.707540 0.144633 -0.464331 0.873772 77 77 62 255
-500.000000 -86.500000 -0.358911 0.144633 -0.464331 0.873772 77 77 62 255
-481.558594 -50.153320 15.903498 0.144633 -0.464331 0.873772 77 77 62 255
-468.388672 -74.707031 0.673997 0.287963 -0.815818 0.501516 77 77 62 255
-500.000000 -86.500000 -0.358911 0.287963 -0.815818 0.501516 77 77 62 255
-500.000000 -104.156006 -29.080023 0.287963 -0.815818 0.501516 77 77 62 255
-323.335938 35.834717 -72.375618 0.205894 0.786408 0.582383 77 77 62 255
-349.703125 23.545410 -46.459229 0.205894 0.786408 0.582383 77 77 62 255
-336.531250 -25.580933 15.220737 0.205894 0.786408 0.582383 77 77 62 255
-444.642578 53.033447 -115.764168 -0.244293 0.849152 0.468254 77 77 62 255
-500.000000 31.188354 -105.029892 -0.244293 0.849152 0.468254 77 77 62 255
-481.558594 23.552246 -81.561180 -0.244293 0.849152 0.468254 77 77 62 255
-500.000000 43.551758 -127.450134 -0.244293 0.849151 0.468255 77 77 62 255
-500.000000 31.188354 -105.029892 -0.244293 0.849151 0.468255 77 77 62 255
-444.642578 53.033447 -115.764168 -0.244293 0.849151 0.468255 77 77 62 255
-178.291016 -111.555176 -151.310883 0.292813 -0.549353 0.782606 77 77 62 255
-233.515625 -67.639893 -99.822052 0.292813 -0.549353 0.782606 77 77 62 255
-204.673828 -123.850830 -150.070694 0.292813 -0.549353 0.782606 77 77 62 255
-402.447266 48.118530 -108.277275 -0.075305 0.940077 0.332543 77 77 62 255
-382.669922 23.545410 -34.332062 -0.075305 0.940077 0.332543 77 77 62 255
-362.160156 73.711304 -171.503265 -0.075305 0.940077 0.332543 77 77 62 255
-500.000000 43.551758 -127.450134 -0.262125 0.576681 0.773777 77 77 62 255
-494.751953 84.968506 -156.539398 -0.262125 0.576681 0.773777 77 77 62 255
-500.000000 76.005615 -151.637360 -0.262125 0.576681 0.773777 77 77 62 255
-444.642578 53.033447 -115.764168 -0.262119 0.576681 0.773778 77 77 62 255
-494.751953 84.968506 -156.539398 -0.262119 0.576681 0.773778 77 77 62 255
-500.000000 43.551758 -127.450134 -0.262119 0.576681 0.773778 77 77 62 255
-494.751953 -148.406006 -102.242462 0.121872 -0.854987 0.504128 77 77 62 255
-500.000000 -133.745605 -76.110138 0.121872 -0.854987 0.504128 77 77 62 255
-500.000000 -146.777100 -98.211182 0.121872 -0.854987 0.504128 77 77 62 255
-362.160156 73.711304 -171.503265 -0.108818 0.977546 0.180450 77 77 62 255
-271.437500 72.691040 -111.266945 -0.108818 0.977546 0.180450 77 77 62 255
-270.593750 78.829712 -144.012955 -0.108818 0.977546 0.180450 77 77 62 255
-244.228516 35.841553 -104.755478 0.508489 0.562482 0.651961 77 77 62 255
-204.673828 -13.304077 -93.205063 0.508489 0.562482 0.651961 77 77 62 255
-191.478516 17.407227 -129.992889 0.508489 0.562482 0.651961 77 77 62 255
-165.117188 -13.304077 -158.633636 0.829806 0.244413 0.501682 77 77 62 255
-191.478516 17.407227 -129.992889 0.829806 0.244413 0.501682 77 77 62 255
-204.673828 -13.304077 -93.205063 0.829806 0.244413 0.501682 77 77 62 255
-244.228516 35.841553 -104.755478 0.502518 0.635616 0.586061 77 77 62 255
-191.478516 17.407227 -129.992889 0.502518 0.635616 0.586061 77 77 62 255
-224.439453 48.119141 -135.039337 0.502518 0.635616 0.586061 77 77 62 255
-270.593750 78.829712 -144.012955 0.385077 0.739902 0.551598 77 77 62 255
-244.228516 35.841553 -104.755478 0.385077 0.739902 0.551598 77 77 62 255
-224.439453 48.119141 -135.039337 0.385077 0.739902 0.551598 77 77 62 255
-415.640625 -50.153320 5.594001 0.145499 -0.336682 0.930309 77 77 62 255
-455.197266 -37.857788 16.230404 0.145499 -0.336682 0.930309 77 77 62 255
-481.558594 -50.153320 15.903498 0.145499 -0.336682 0.930309 77 77 62 255
-455.197266 -37.857788 16.230404 -0.286112 0.593414 0.752330 77 77 62 255
-481.558594 -13.304077 -13.162031 -0.286112 0.593414 0.752330 77 77 62 255
-481.558594 -50.153320 15.903498 -0.286112 0.593414 0.752330 77 77 62 255
-415.640625 35.840942 -77.474625 -0.179712 0.901281 0.394204 77 77 62 255
-402.447266 11.267822 -15.277598 -0.179712 0.901281 0.394204 77 77 62 255
-382.669922 23.545410 -34.332062 -0.179712 0.901281 0.394204 77 77 62 255
-310.144531 60.394775 -105.541649 -0.368316 0.811194 0.454211 77 77 62 255
-362.160156 73.711304 -171.503265 -0.368316 0.811194 0.454211 77 77 62 255
-323.335938 35.834717 -72.375618 -0.368316 0.811194 0.454211 77 77 62 255
-237.632812 78.829712 -155.757538 0.333257 0.621486 0.709010 77 77 62 255
-224.439453 48.119141 -135.039337 0.333257 0.621486 0.709010 77 77 62 255
-217.845703 72.691040 -159.677216 0.333257 0.621486 0.709010 77 77 62 255
-191.478516 48.119141 -162.315079 0.546343 0.515384 0.660219 77 77 62 255
-217.845703 72.691040 -159.677216 0.546343 0.515383 0.660219 77 77 62 255
-224.439453 48.119141 -135.039337 0.546343 0.515383 0.660219 77 77 62 255
-444.642578 53.033447 -115.764168 0.039222 0.922322 0.384427 77 77 62 255
-415.640625 35.840942 -77.474625 0.039222 0.922322 0.384427 77 77 62 255
-402.447266 48.118530 -108.277275 0.039222 0.922322 0.384427 77 77 62 255
-270.593750 78.829712 -144.012955 0.264699 0.614878 0.742872 77 77 62 255
-224.439453 48.119141 -135.039337 0.264699 0.614878 0.742873 77 77 62 255
-237.632812 78.829712 -155.757538 0.264699 0.614878 0.742873 77 77 62 255
-481.558594 23.552246 -81.561180 -0.226632 0.859684 0.457801 77 77 62 255
-500.000000 7.140015 -59.870663 -0.226632 0.859684 0.457801 77 77 62 255
-494.751953 -1.008423 -41.971043 -0.226632 0.859684 0.457801 77 77 62 255
-500.000000 31.188354 -105.029892 -0.226630 0.859684 0.457802 77 77 62 255
-500.000000 7.140015 -59.870663 -0.226630 0.859684 0.457802 77 77 62 255
-481.558594 23.552246 -81.561180 -0.226630 0.859684 0.457802 77 77 62 255
-494.751953 -1.008423 -41.971043 -0.210551 0.860597 0.463726 77 77 62 255
-481.558594 -13.304077 -13.162031 -0.210551 0.860597 0.463726 77 77 62 255
-481.558594 23.552246 -81.561180 -0.210551 0.860597 0.463726 77 77 62 255
-481.558594 23.552246 -81.561180 -0.501031 0.734845 0.457134 77 77 62 255
-455.197266 -13.304077 6.578242 -0.501031 0.734845 0.457134 77 77 62 255
-442.001953 5.129761 -8.591827 -0.501031 0.734845 0.457134 77 77 62 255
-323.335938 35.834717 -72.375618 -0.158139 0.217248 0.963221 77 77 62 255
-270.593750 -50.152832 -44.322647 -0.158139 0.217248 0.963221 77 77 62 255
-283.783203 11.267822 -60.341072 -0.158139 0.217248 0.963221 77 77 62 255
-244.228516 35.841553 -104.755478 0.612639 0.320030 0.722672 77 77 62 255
-283.783203 11.267822 -60.341072 0.612639 0.320030 0.722672 77 77 62 255
-270.593750 -50.152832 -44.322647 0.612639 0.320030 0.722672 77 77 62 255
-468.384766 -160.700195 -129.873474 0.304011 -0.795573 0.524062 77 77 62 255
-402.447266 -148.406006 -149.460434 0.304011 -0.795573 0.524062 77 77 62 255
-468.388672 -74.707031 0.673997 0.304011 -0.795573 0.524062 77 77 62 255
-402.447266 -148.406006 -149.460434 0.330937 -0.510717 0.793504 77 77 62 255
-468.384766 -160.700195 -129.873474 0.330937 -0.510717 0.793504 77 77 62 255
-461.791016 -191.401855 -152.383713 0.330937 -0.510717 0.793504 77 77 62 255
-500.000000 82.115845 -156.542404 -0.322516 0.592555 0.738148 77 77 62 255
-500.000000 76.005615 -151.637360 -0.322516 0.592555 0.738148 77 77 62 255
-494.751953 84.968506 -156.539398 -0.322516 0.592555 0.738148 77 77 62 255
-336.531250 -25.580933 15.220737 -0.149311 -0.449964 0.880476 77 77 62 255
-376.085938 -13.304077 14.787102 -0.149311 -0.449964 0.880476 77 77 62 255
-376.085938 -62.430176 -10.318610 -0.149311 -0.449964 0.880476 77 77 62 255
-336.531250 -25.580933 15.220737 0.284405 -0.733303 0.617560 77 77 62 255
-376.085938 -62.430176 -10.318610 0.284405 -0.733303 0.617560 77 77 62 255
-270.593750 -50.152832 -44.322647 0.284405 -0.733303 0.617560 77 77 62 255
-494.751953 -148.406006 -102.242462 0.187395 -0.795563 0.576162 77 77 62 255
-500.000000 -186.232910 -152.766830 0.187395 -0.795563 0.576162 77 77 62 255
-494.751953 -185.253906 -153.121933 0.187395 -0.795563 0.576162 77 77 62 255
-500.000000 -155.252197 -109.988884 0.187378 -0.795565 0.576165 77 77 62 255
-500.000000 -186.232910 -152.766830 0.187378 -0.795565 0.576165 77 77 62 255
-494.751953 -148.406006 -102.242462 0.187378 -0.795565 0.576165 77 77 62 255
-461.791016 -191.401855 -152.383713 -0.162033 -0.799208 0.578802 77 77 62 255
-494.751953 -148.406006 -102.242462 -0.162033 -0.799208 0.578802 77 77 62 255
-494.751953 -185.253906 -153.121933 -0.162033 -0.799208 0.578802 77 77 62 255
-204.673828 -123.850830 -150.070694 -0.014031 -0.670387 0.741879 77 77 62 255
-233.515625 -67.639893 -99.822052 -0.014031 -0.670387 0.741879 77 77 62 255
-244.228516 -123.850830 -150.818756 -0.014031 -0.670387 0.741879 77 77 62 255
-376.085938 -62.430176 -10.318610 0.169475 -0.530506 0.830567 77 77 62 255
-415.640625 -50.153320 5.594001 0.169475 -0.530506 0.830567 77 77 62 255
-468.388672 -74.707031 0.673997 0.169475 -0.530506 0.830567 77 77 62 255
-481.558594 -50.153320 15.903498 0.136534 -0.468240 0.872989 77 77 62 255
-468.388672 -74.707031 0.673997 0.136534 -0.468240 0.872989 77 77 62 255
-415.640625 -50.153320 5.594001 0.136534 -0.468240 0.872989 77 77 62 255
-191.478516 -50.152832 -102.604050 0.893173 0.041862 0.447760 77 77 62 255
-165.117188 -50.152100 -155.188629 0.893173 0.041862 0.447760 77 77 62 255
-165.117188 -13.304077 -158.633636 0.893173 0.041862 0.447760 77 77 62 255
-349.703125 23.545410 -46.459229 0.131613 0.924485 0.357779 77 77 62 255
-362.160156 73.711304 -171.503265 0.131613 0.924485 0.357779 77 77 62 255
-382.669922 23.545410 -34.332062 0.131613 0.924485 0.357779 77 77 62 255
-165.117188 -13.304077 -158.633636 0.693532 -0.073089 0.716709 77 77 62 255
-155.558594 27.493530 -163.722626 0.693532 -0.073089 0.716709 77 77 62 255
-191.478516 17.407227 -129.992889 0.693532 -0.073089 0.716709 77 77 62 255
-165.117188 -50.152100 -155.188629 0.893357 0.036635 0.447852 77 77 62 255
-191.478516 -50.152832 -102.604050 0.893357 0.036635 0.447852 77 77 62 255
-165.117188 -87.001465 -152.174255 0.893357 0.036635 0.447852 77 77 62 255
-165.117188 -87.001465 -152.174255 0.322729 -0.669347 0.669194 77 77 62 255
-191.478516 -50.152832 -102.604050 0.322729 -0.669347 0.669194 77 77 62 255
-233.515625 -67.639893 -99.822052 0.322729 -0.669347 0.669194 77 77 62 255
-362.160156 73.711304 -171.503265 -0.060410 0.924308 0.376837 77 77 62 255
-349.703125 23.545410 -46.459229 -0.060410 0.924308 0.376837 77 77 62 255
-323.335938 35.834717 -72.375618 -0.060410 0.924307 0.376837 77 77 62 255
-323.335938 35.834717 -72.375618 0.097377 0.780909 0.617008 77 77 62 255
-296.974609 35.841553 -76.544662 0.097377 0.780909 0.617008 77 77 62 255
-310.144531 60.394775 -105.541649 0.097377 0.780909 0.617008 77 77 62 255
-271.437500 72.691040 -111.266945 -0.130991 0.726452 0.674618 77 77 62 255
-310.144531 60.394775 -105.541649 -0.130991 0.726452 0.674618 77 77 62 255
-296.974609 35.841553 -76.544662 -0.130991 0.726452 0.674618 77 77 62 255
-461.792969 35.841553 -80.672012 -0.526789 0.836253 0.152231 77 77 62 255
-444.642578 53.033447 -115.764168 -0.526789 0.836253 0.152231 77 77 62 255
-481.558594 23.552246 -81.561180 -0.526789 0.836253 0.152231 77 77 62 255
-402.447266 -13.304077 13.147983 -0.040629 0.755902 0.653423 77 77 62 255
-376.085938 -13.304077 14.787102 -0.040629 0.755902 0.653423 77 77 62 255
-402.447266 11.267822 -15.277598 -0.040629 0.755902 0.653423 77 77 62 255
-402.447266 -13.304077 13.147983 -0.055283 -0.454369 0.889096 77 77 62 255
-376.085938 -62.430176 -10.318610 -0.055283 -0.454369 0.889096 77 77 62 255
-376.085938 -13.304077 14.787102 -0.055283 -0.454369 0.889096 77 77 62 255
-461.792969 35.841553 -80.672012 -0.076064 0.909607 0.408448 77 77 62 255
-442.001953 5.129761 -8.591827 -0.076064 0.909607 0.408448 77 77 62 255
-444.642578 53.033447 -115.764168 -0.076064 0.909607 0.408448 77 77 62 255
-296.974609 -111.555176 -124.898033 0.168071 -0.713328 0.680379 77 77 62 255
-296.974609 -136.128418 -150.661270 0.168071 -0.713328 0.680379 77 77 62 255
-244.228516 -123.850830 -150.818756 0.168071 -0.713328 0.680379 77 77 62 255
-481.558594 -50.153320 15.903498 0.012606 0.797358 0.603375 77 77 62 255
-500.000000 -24.397827 -17.747040 0.012606 0.797358 0.603375 77 77 62 255
-500.000000 -36.410156 -1.872781 0.012606 0.797358 0.603375 77 77 62 255
-362.160156 73.711304 -171.503265 -0.276501 0.482391 0.831172 77 77 62 255
-270.593750 78.829712 -144.012955 -0.276501 0.482391 0.831172 77 77 62 255
-296.974609 97.244751 -163.476547 -0.276501 0.482391 0.831172 77 77 62 255
-455.197266 -13.304077 6.578242 -0.091631 0.671054 0.735725 77 77 62 255
-402.447266 -13.304077 13.147983 -0.091631 0.671054 0.735725 77 77 62 255
-442.001953 5.129761 -8.591827 -0.091631 0.671054 0.735725 77 77 62 255
3 0 1 2
3 3 4 5
3 6 7 8
3 9 10 11
3 12 13 14
3 15 16 17
3 18 19 20
3 21 22 23
3 24 25 26
3 27 28 29
3 30 31 32
3 33 34 35
3 36 37 38
3 39 40 41
3 42 43 44
3 45 46 47
3 48 49 50
3 51 52 53
3 54 55 56
3 57 58 59
3 60 61 62
3 63 64 65
3 66 67 68
3 69 70 71
3 72 73 74
3 75 76 77
3 78 79 80
3 81 82 83
3 84 85 86
3 87 88 89
3 90 91 92
3 93 94 95
3 96 97 98
3 99 100 101
3 102 103 104
3 105 106 107
3 108 109 110
3 111 112 113
3 114 115 116
3 117 118 119
3 120 121 122
3 123 124 125
3 126 127 128
3 129 130 131
3 132 133 134
3 135 136 137
3 138 139 140
3 141 142 143
3 144 145 146
3 147 148 149
3 150 151 152
3 153 154 155
3 156 157 158
3 159 160 161
3 162 163 164
3 165 166 167
3 168 169 170
3 171 172 173
3 174 175 176
3 177 178 179
3 180 181 182
3 183 184 185
3 186 187 188
3 189 190 191
3 192 193 194
3 195 196 197
3 198 199 200
3 201 202 203
3 204 205 206
3 207 208 209
3 210 211 212
3 213 214 215
3 216 217 218
3 219 220 221
3 222 223 224
3 225 226 227
3 228 229 230
3 231 232 233
3 234 235 236
3 237 238 239
3 240 241 242
3 243 244 245
3 246 247 248
3 249 250 251
3 252 253 254
3 255 256 257
3 258 259 260
3 261 262 263
3 264 265 266
3 267 268 269
3 270 271 272
3 273 274 275
3 276 277 278
3 279 280 281
3 282 283 284
3 285 286 287
3 288 289 290
3 291 292 293
3 294 295 296
3 297 298 299
3 300 301 302
3 303 304 305
3 306 307 308
3 309 310 311
3 312 313 314
3 315 316 317
3 318 319 320
3 321 322 323
3 324 325 326
