ply
format ascii 1.0
comment Created by Blender 3.4.1 - www.blender.org
element vertex 80
property float x
property float y
property float z
property float nx
property float ny
property float nz
property float s
property float t
property uchar red
property uchar green
property uchar blue
property uchar alpha
element face 40
property list uchar uint vertex_indices
end_header
-2.751008 25.000002 0.010000 0.000000 0.000000 1.000000 1.000000 0.000000 255 255 255 255
-2.500992 -24.999998 0.010000 0.000000 0.000000 1.000000 0.000000 1.000000 255 255 255 255
-2.501008 25.000002 0.010000 0.000000 0.000000 1.000000 0.000000 0.000000 255 255 255 255
-15.000000 25.000000 0.000000 0.000000 0.000000 1.000000 0.000000 1.000000 133 128 123 255
-15.500000 -25.000000 0.000000 0.000000 0.000000 1.000000 0.000000 0.000000 133 128 123 255
-15.000000 -25.000000 0.000000 0.000000 0.000000 1.000000 0.000000 0.000000 133 128 123 255
-2.250000 -25.000000 0.000000 0.000000 0.000000 1.000000 1.000000 0.000000 133 128 123 255
-15.000000 25.000000 0.000000 0.000000 0.000000 1.000000 0.000000 1.000000 133 128 123 255
-15.000000 -25.000000 0.000000 0.000000 0.000000 1.000000 0.000000 0.000000 133 128 123 255
-15.500000 -25.000000 -0.250000 0.000000 0.000000 -1.000000 0.000000 0.000000 133 128 123 255
-15.000000 25.000000 -0.250000 0.000000 0.000000 -1.000000 0.000000 1.000000 133 128 123 255
-15.000000 -25.000000 -0.250000 0.000000 0.000000 -1.000000 0.000000 0.000000 133 128 123 255
-15.000000 -25.000000 -2.000000 0.000000 -1.000000 0.000000 0.000000 0.000000 102 94 92 255
-2.250000 -25.000000 -0.250000 0.000000 -1.000000 0.000000 1.000000 0.000000 102 94 92 255
-15.000000 -25.000000 -0.250000 0.000000 -1.000000 0.000000 0.000000 0.000000 102 94 92 255
-2.250000 25.000000 -0.250000 0.000000 1.000000 0.000000 1.000000 1.000000 133 128 123 255
-15.000000 25.000000 0.000000 0.000000 1.000000 0.000000 0.000000 1.000000 133 128 123 255
-2.250000 25.000000 0.000000 0.000000 1.000000 0.000000 1.000000 1.000000 133 128 123 255
-15.500000 -25.000000 -0.250000 0.000000 -1.000000 0.000000 0.000000 0.000000 133 128 123 255
-15.000000 -25.000000 0.000000 0.000000 -1.000000 0.000000 0.000000 0.000000 133 128 123 255
-15.500000 -25.000000 0.000000 0.000000 -1.000000 0.000000 0.000000 0.000000 133 128 123 255
-15.500000 25.000000 -0.250000 -1.000000 0.000000 0.000000 0.000000 1.000000 133 128 123 255
-15.500000 -25.000000 0.000000 -1.000000 0.000000 0.000000 0.000000 0.000000 133 128 123 255
-15.500000 25.000000 0.000000 -1.000000 0.000000 0.000000 0.000000 1.000000 133 128 123 255
-1.750000 -25.000000 0.000000 0.000000 0.000000 1.000000 1.000000 0.000000 133 128 123 255
-2.250000 25.000000 0.000000 0.000000 0.000000 1.000000 1.000000 1.000000 133 128 123 255
-2.250000 -25.000000 0.000000 0.000000 0.000000 1.000000 1.000000 0.000000 133 128 123 255
-15.000000 25.000000 -0.250000 0.000000 1.000000 0.000000 0.000000 1.000000 133 128 123 255
-15.500000 25.000000 0.000000 0.000000 1.000000 0.000000 0.000000 1.000000 133 128 123 255
-15.000000 25.000000 0.000000 0.000000 1.000000 0.000000 0.000000 1.000000 133 128 123 255
-15.000000 -25.000000 -0.250000 0.000000 -1.000000 0.000000 0.000000 0.000000 133 128 123 255
-2.250000 -25.000000 0.000000 0.000000 -1.000000 0.000000 1.000000 0.000000 133 128 123 255
-15.000000 -25.000000 0.000000 0.000000 -1.000000 0.000000 0.000000 0.000000 133 128 123 255
-2.250000 -25.000000 -2.000000 1.000000 0.000000 0.000000 1.000000 0.000000 102 94 92 255
-2.250000 25.000000 -0.250000 1.000000 0.000000 0.000000 1.000000 1.000000 102 94 92 255
-2.250000 -25.000000 -0.250000 1.000000 0.000000 0.000000 1.000000 0.000000 102 94 92 255
-15.000000 25.000000 -2.000000 -1.000000 0.000000 0.000000 0.000000 1.000000 102 94 92 255
-15.000000 -25.000000 -0.250000 -1.000000 0.000000 0.000000 0.000000 0.000000 102 94 92 255
-15.000000 25.000000 -0.250000 -1.000000 0.000000 0.000000 0.000000 1.000000 102 94 92 255
-15.000000 25.000000 -2.000000 0.000000 0.000000 -1.000000 0.000000 1.000000 102 94 92 255
-2.250000 -25.000000 -2.000000 0.000000 0.000000 -1.000000 1.000000 0.000000 102 94 92 255
-15.000000 -25.000000 -2.000000 0.000000 0.000000 -1.000000 0.000000 0.000000 102 94 92 255
-2.250000 25.000000 -2.000000 0.000000 1.000000 0.000000 1.000000 1.000000 102 94 92 255
-15.000000 25.000000 -0.250000 0.000000 1.000000 0.000000 0.000000 1.000000 102 94 92 255
-2.250000 25.000000 -0.250000 0.000000 1.000000 0.000000 1.000000 1.000000 102 94 92 255
-1.750000 -25.000000 -0.250000 1.000000 0.000000 0.000000 1.000000 0.000000 133 128 123 255
-1.750000 25.000000 0.000000 1.000000 0.000000 0.000000 1.000000 1.000000 133 128 123 255
-1.750000 -25.000000 0.000000 1.000000 0.000000 0.000000 1.000000 0.000000 133 128 123 255
-1.750000 -25.000000 -0.250000 0.000000 -1.000000 0.000000 1.000000 0.000000 133 128 123 255
-2.250000 -25.000000 0.000000 0.000000 -1.000000 0.000000 1.000000 0.000000 133 128 123 255
-2.250000 -25.000000 -0.250000 0.000000 -1.000000 0.000000 1.000000 0.000000 133 128 123 255
-1.750000 25.000000 -0.250000 0.000000 0.000000 -1.000000 1.000000 1.000000 133 128 123 255
-2.250000 -25.000000 -0.250000 0.000000 0.000000 -1.000000 1.000000 0.000000 133 128 123 255
-2.250000 25.000000 -0.250000 0.000000 0.000000 -1.000000 1.000000 1.000000 133 128 123 255
-1.750000 25.000000 0.000000 0.000000 1.000000 0.000000 1.000000 1.000000 133 128 123 255
-2.250000 25.000000 -0.250000 0.000000 1.000000 0.000000 1.000000 1.000000 133 128 123 255
-2.250000 25.000000 0.000000 0.000000 1.000000 0.000000 1.000000 1.000000 133 128 123 255
-14.499001 -25.000000 0.010000 0.000000 0.000000 1.000000 1.000000 0.000000 255 255 255 255
-14.749001 25.000000 0.010000 0.000000 0.000000 1.000000 0.000000 1.000000 255 255 255 255
-14.749001 -25.000000 0.010000 0.000000 0.000000 1.000000 0.000000 0.000000 255 255 255 255
-2.750992 -24.999998 0.010000 0.000000 0.000000 1.000000 1.000000 1.000000 255 255 255 255
-15.500000 25.000000 0.000000 0.000000 0.000000 1.000000 0.000000 1.000000 133 128 123 255
-2.250000 25.000000 0.000000 0.000000 0.000000 1.000000 1.000000 1.000000 133 128 123 255
-15.500000 25.000000 -0.250000 0.000000 0.000000 -1.000000 0.000000 1.000000 133 128 123 255
-2.250000 -25.000000 -2.000000 0.000000 -1.000000 0.000000 1.000000 0.000000 102 94 92 255
-15.000000 25.000000 -0.250000 0.000000 1.000000 0.000000 0.000000 1.000000 133 128 123 255
-15.000000 -25.000000 -0.250000 0.000000 -1.000000 0.000000 0.000000 0.000000 133 128 123 255
-15.500000 -25.000000 -0.250000 -1.000000 0.000000 0.000000 0.000000 0.000000 133 128 123 255
-1.750000 25.000000 0.000000 0.000000 0.000000 1.000000 1.000000 1.000000 133 128 123 255
-15.500000 25.000000 -0.250000 0.000000 1.000000 0.000000 0.000000 1.000000 133 128 123 255
-2.250000 -25.000000 -0.250000 0.000000 -1.000000 0.000000 1.000000 0.000000 133 128 123 255
-2.250000 25.000000 -2.000000 1.000000 0.000000 0.000000 1.000000 1.000000 102 94 92 255
-15.000000 -25.000000 -2.000000 -1.000000 0.000000 0.000000 0.000000 0.000000 102 94 92 255
-2.250000 25.000000 -2.000000 0.000000 0.000000 -1.000000 1.000000 1.000000 102 94 92 255
-15.000000 25.000000 -2.000000 0.000000 1.000000 0.000000 0.000000 1.000000 102 94 92 255
-1.750000 25.000000 -0.250000 1.000000 0.000000 0.000000 1.000000 1.000000 133 128 123 255
-1.750000 -25.000000 0.000000 0.000000 -1.000000 0.000000 1.000000 0.000000 133 128 123 255
-1.750000 -25.000000 -0.250000 0.000000 0.000000 -1.000000 1.000000 0.000000 133 128 123 255
-1.750000 25.000000 -0.250000 0.000000 1.000000 0.000000 1.000000 1.000000 133 128 123 255
-14.499001 25.000000 0.010000 0.000000 0.000000 1.000000 1.000000 1.000000 255 255 255 255
3 0 1 2
3 3 4 5
3 6 7 8
3 9 10 11
3 12 13 14
3 15 16 17
3 18 19 20
3 21 22 23
3 24 25 26
3 27 28 29
3 30 31 32
3 33 34 35
3 36 37 38
3 39 40 41
3 42 43 44
3 45 46 47
3 48 49 50
3 51 52 53
3 54 55 56
3 57 58 59
3 0 60 1
3 3 61 4
3 6 62 7
3 9 63 10
3 12 64 13
3 15 65 16
3 18 66 19
3 21 67 22
3 24 68 25
3 27 69 28
3 30 70 31
3 33 71 34
3 36 72 37
3 39 73 40
3 42 74 43
3 45 75 46
3 48 76 49
3 51 77 52
3 54 78 55
3 57 79 58
