ply
format ascii 1.0
comment Created by Blender 3.4.1 - www.blender.org
element vertex 20
property float x
property float y
property float z
property float nx
property float ny
property float nz
property uchar red
property uchar green
property uchar blue
property uchar alpha
element face 36
property list uchar uint vertex_indices
end_header
-15.000000 25.000000 0.000000 0.000000 0.707108 0.707106 199 185 170 255
-15.500000 -25.000000 0.000000 -0.577352 -0.577350 0.577349 199 185 170 255
-15.000000 -25.000000 0.000000 0.000000 -0.707107 0.707107 199 185 170 255
-2.250000 -25.000000 0.000000 0.000000 -0.707107 0.707107 199 185 170 255
-15.500000 -25.000000 -0.250000 -0.577351 -0.577351 -0.577349 199 185 170 255
-15.000000 25.000000 -0.250000 -0.301511 0.904534 -0.301510 199 185 170 255
-15.000000 -25.000000 -0.250000 -0.301512 -0.904534 -0.301511 199 185 170 255
-15.000000 -25.000000 -2.000000 -0.577350 -0.577350 -0.577350 199 185 170 255
-2.250000 -25.000000 -0.250000 0.301511 -0.904534 -0.301510 199 185 170 255
-2.250000 25.000000 -0.250000 0.301512 0.904534 -0.301511 199 185 170 255
-2.250000 25.000000 0.000000 0.000000 0.707107 0.707106 199 185 170 255
-15.500000 25.000000 -0.250000 -0.577351 0.577350 -0.577350 199 185 170 255
-15.500000 25.000000 0.000000 -0.577350 0.577350 0.577350 199 185 170 255
-1.750000 -25.000000 0.000000 0.577351 -0.577351 0.577349 199 185 170 255
-2.250000 -25.000000 -2.000000 0.577351 -0.577350 -0.577350 199 185 170 255
-15.000000 25.000000 -2.000000 -0.577351 0.577350 -0.577350 199 185 170 255
-2.250000 25.000000 -2.000000 0.577350 0.577350 -0.577350 199 185 170 255
-1.750000 -25.000000 -0.250000 0.577351 -0.577350 -0.577350 199 185 170 255
-1.750000 25.000000 0.000000 0.577351 0.577350 0.577350 199 185 170 255
-1.750000 25.000000 -0.250000 0.577351 0.577351 -0.577349 199 185 170 255
3 0 1 2
3 3 0 2
3 4 5 6
3 7 8 6
3 9 0 10
3 4 2 1
3 11 1 12
3 13 10 3
3 5 12 0
3 6 3 2
3 14 9 8
3 15 6 5
3 15 14 7
3 16 5 9
3 17 18 13
3 17 3 8
3 19 8 9
3 18 9 10
3 0 12 1
3 3 10 0
3 4 11 5
3 7 14 8
3 9 5 0
3 4 6 2
3 11 4 1
3 13 18 10
3 5 11 12
3 6 8 3
3 14 16 9
3 15 7 6
3 15 16 14
3 16 15 5
3 17 19 18
3 17 13 3
3 19 17 8
3 18 19 9
