ply
format ascii 1.0
comment Created by Blender 3.4.1 - www.blender.org
element vertex 378
property float x
property float y
property float z
property float nx
property float ny
property float nz
property uchar red
property uchar green
property uchar blue
property uchar alpha
element face 126
property list uchar uint vertex_indices
end_header
144.504776 37.243320 17.750000 0.000000 0.000000 1.000000 45 41 45 255
150.234375 41.460938 17.750000 0.000000 0.000000 1.000000 45 41 45 255
144.246964 37.610996 17.750000 0.000000 0.000000 1.000000 45 41 45 255
120.679688 48.734863 17.000000 -0.073346 -0.054211 0.995832 45 41 45 255
135.151947 38.339024 17.500000 -0.073346 -0.054211 0.995832 45 41 45 255
125.302612 51.664944 17.500000 -0.073346 -0.054211 0.995832 45 41 45 255
90.578995 126.667221 17.000002 0.001408 0.000106 -0.999999 45 41 45 255
93.529297 87.568359 17.000000 0.001408 0.000106 -0.999999 45 41 45 255
73.487900 116.233109 16.974827 0.001408 0.000106 -0.999999 45 41 45 255
150.234375 41.460938 17.500000 0.000000 0.000000 1.000000 45 41 45 255
130.521118 69.617912 17.500000 0.000000 0.000000 1.000000 45 41 45 255
141.224976 41.979820 17.500000 0.000000 0.000000 1.000000 45 41 45 255
93.936470 87.826721 17.500000 0.000000 0.000000 1.000000 45 41 45 255
90.578995 126.667221 17.499998 0.000000 0.000000 1.000000 45 41 45 255
73.895309 116.491486 17.500000 0.000000 0.000000 1.000000 45 41 45 255
110.550056 98.142563 17.499998 0.819181 0.573536 0.000000 45 41 45 255
130.521118 69.617912 17.000004 0.819181 0.573536 0.000000 45 41 45 255
110.550056 98.142563 17.000002 0.819181 0.573536 0.000000 45 41 45 255
125.302612 51.664944 17.500000 0.000000 0.000000 1.000000 45 41 45 255
135.151947 38.339024 17.500000 0.000000 0.000000 1.000000 45 41 45 255
141.224976 41.979820 17.500000 0.000000 0.000000 1.000000 45 41 45 255
73.488083 116.233185 17.750000 -0.819556 -0.572999 0.000250 45 41 45 255
53.446762 144.897827 16.987415 -0.819556 -0.572999 0.000250 45 41 45 255
73.487900 116.233109 16.974827 -0.819556 -0.572999 0.000250 45 41 45 255
47.974365 153.566071 17.500000 -0.611302 0.786243 0.090173 45 41 45 255
52.561279 157.132385 17.499998 -0.611302 0.786243 0.090173 45 41 45 255
47.567379 153.307846 16.992487 -0.611302 0.786243 0.090173 45 41 45 255
50.636868 183.716522 17.000000 -0.507684 0.861544 0.000000 45 41 45 255
33.405762 173.562714 17.750000 -0.507684 0.861544 0.000000 45 41 45 255
50.636868 183.716522 17.749996 -0.507684 0.861544 0.000000 45 41 45 255
150.492188 41.093018 17.000000 0.540815 -0.841142 -0.000077 45 41 45 255
144.504776 37.243320 17.750000 0.540815 -0.841142 -0.000077 45 41 45 255
144.504669 37.243320 17.000000 0.540815 -0.841142 -0.000077 45 41 45 255
113.977631 59.161964 17.500000 0.000000 0.000000 1.000000 45 41 45 255
121.086914 48.993164 17.500000 0.000000 0.000000 1.000000 45 41 45 255
125.302612 51.664944 17.500000 0.000000 0.000000 1.000000 45 41 45 255
70.607933 155.191864 17.499998 0.000000 0.000000 1.000000 45 41 45 255
52.561279 157.132385 17.499998 0.000000 0.000000 1.000000 45 41 45 255
53.854149 145.156250 17.500000 0.000000 0.000000 1.000000 45 41 45 255
42.782951 171.537766 17.499998 0.000000 0.000000 1.000000 45 41 45 255
52.561279 157.132385 17.499998 0.000000 0.000000 1.000000 45 41 45 255
50.808743 183.471893 17.499996 0.000000 0.000000 1.000000 45 41 45 255
93.529297 87.568359 17.000000 -0.819553 -0.573003 0.000250 45 41 45 255
73.488083 116.233185 17.750000 -0.819553 -0.573003 0.000250 45 41 45 255
73.487900 116.233109 16.974827 -0.819553 -0.573003 0.000250 45 41 45 255
120.679688 48.734863 17.000000 -0.819568 -0.572982 -0.000011 45 41 45 255
113.570404 58.903664 17.750000 -0.819568 -0.572982 -0.000011 45 41 45 255
113.570312 58.903809 17.000000 -0.819568 -0.572982 -0.000011 45 41 45 255
141.224976 41.979820 17.500000 -0.822407 -0.568873 -0.005557 45 41 45 255
144.504669 37.243320 17.000000 -0.822407 -0.568873 -0.005557 45 41 45 255
144.246964 37.610996 17.500000 -0.822407 -0.568873 -0.005557 45 41 45 255
52.561279 157.132385 17.499998 0.000000 0.000000 1.000000 45 41 45 255
47.974365 153.566071 17.500000 0.000000 0.000000 1.000000 45 41 45 255
53.854149 145.156250 17.500000 0.000000 0.000000 1.000000 45 41 45 255
50.808743 183.471893 17.499996 0.819180 0.573535 -0.000985 45 41 45 255
70.607933 155.191864 17.000002 0.819180 0.573535 -0.000985 45 41 45 255
50.636868 183.716522 17.000000 0.819180 0.573535 -0.000985 45 41 45 255
120.679871 48.734863 17.750000 0.000000 0.000000 1.000000 45 41 45 255
113.977631 59.161964 17.750000 0.000000 0.000000 1.000000 45 41 45 255
113.570404 58.903664 17.750000 0.000000 0.000000 1.000000 45 41 45 255
37.297520 167.996353 17.750000 -0.819556 -0.572999 0.000290 45 41 45 255
33.405621 173.562531 17.000002 -0.819556 -0.572999 0.000290 45 41 45 255
37.297371 167.996185 16.997559 -0.819556 -0.572999 0.000290 45 41 45 255
70.607933 155.191864 17.499998 0.000000 0.000000 1.000000 45 41 45 255
50.808743 183.471893 17.499996 0.000000 0.000000 1.000000 45 41 45 255
52.561279 157.132385 17.499998 0.000000 0.000000 1.000000 45 41 45 255
50.808743 183.471893 17.499996 0.000000 0.000000 1.000000 45 41 45 255
33.839832 173.468887 17.500000 0.000000 0.000000 1.000000 45 41 45 255
42.782951 171.537766 17.499998 0.000000 0.000000 1.000000 45 41 45 255
33.839832 173.468887 17.500000 0.000000 0.000000 1.000000 45 41 45 255
37.610996 168.198502 17.500000 0.000000 0.000000 1.000000 45 41 45 255
42.782951 171.537766 17.499998 0.000000 0.000000 1.000000 45 41 45 255
42.782951 171.537766 17.499998 0.542416 -0.840110 -0.000293 45 41 45 255
37.610996 168.198502 17.500000 0.542416 -0.840110 -0.000293 45 41 45 255
37.297371 167.996185 16.997559 0.542416 -0.840110 -0.000293 45 41 45 255
121.086914 48.993164 17.500000 0.819561 0.572992 -0.000600 45 41 45 255
113.977631 59.161964 17.750000 0.819561 0.572992 -0.000600 45 41 45 255
121.087097 48.993164 17.750000 0.819561 0.572992 -0.000600 45 41 45 255
130.521118 69.617912 17.500000 0.000000 0.000000 1.000000 45 41 45 255
113.977631 59.161964 17.500000 0.000000 0.000000 1.000000 45 41 45 255
125.302612 51.664944 17.500000 0.000000 0.000000 1.000000 45 41 45 255
53.446922 144.897949 17.750000 0.000000 0.000000 1.000000 45 41 45 255
47.974365 153.566071 17.750000 0.000000 0.000000 1.000000 45 41 45 255
47.567139 153.307770 17.750000 0.000000 0.000000 1.000000 45 41 45 255
137.500885 32.739803 17.000000 -0.021874 -0.098023 0.994944 45 41 45 255
135.151947 38.339024 17.500000 -0.021874 -0.098023 0.994944 45 41 45 255
130.820450 34.230560 17.000000 -0.021874 -0.098023 0.994944 45 41 45 255
144.504669 37.243320 17.000000 0.045064 -0.070083 0.996523 45 41 45 255
135.151947 38.339024 17.500000 0.045064 -0.070083 0.996523 45 41 45 255
137.500885 32.739803 17.000000 0.045064 -0.070083 0.996523 45 41 45 255
130.521118 69.617912 17.500000 0.000000 0.000000 1.000000 45 41 45 255
125.302612 51.664944 17.500000 0.000000 0.000000 1.000000 45 41 45 255
141.224976 41.979820 17.500000 0.000000 0.000000 1.000000 45 41 45 255
144.246964 37.610996 17.500000 0.000000 0.000000 1.000000 45 41 45 255
150.234375 41.460938 17.500000 0.000000 0.000000 1.000000 45 41 45 255
141.224976 41.979820 17.500000 0.000000 0.000000 1.000000 45 41 45 255
150.234375 41.460938 17.500000 0.819186 0.573528 0.000000 45 41 45 255
130.521118 69.617912 17.000004 0.819186 0.573528 0.000000 45 41 45 255
130.521118 69.617912 17.500000 0.819186 0.573528 0.000000 45 41 45 255
150.234375 41.460938 17.750000 -0.540846 0.841121 0.000000 45 41 45 255
144.246964 37.610996 17.500000 -0.540846 0.841122 0.000000 45 41 45 255
144.246964 37.610996 17.750000 -0.540846 0.841121 0.000000 45 41 45 255
50.808743 183.471893 17.499996 0.507823 -0.861461 0.000000 45 41 45 255
33.839832 173.468887 17.750000 0.507823 -0.861461 0.000000 45 41 45 255
33.839832 173.468887 17.500000 0.507823 -0.861461 0.000000 45 41 45 255
144.504669 37.243320 17.000000 -0.000000 0.000000 -1.000000 45 41 45 255
130.521118 69.617912 17.000004 -0.000000 0.000000 -1.000000 45 41 45 255
150.492188 41.093018 17.000000 -0.000000 0.000000 -1.000000 45 41 45 255
150.234375 41.460938 17.500000 0.819183 0.573533 0.000363 45 41 45 255
150.492188 41.093018 17.000000 0.819183 0.573532 0.000363 45 41 45 255
130.521118 69.617912 17.000004 0.819183 0.573533 0.000363 45 41 45 255
113.977631 59.161964 17.500000 0.000000 0.000000 1.000000 45 41 45 255
110.550056 98.142563 17.499998 0.000000 0.000000 1.000000 45 41 45 255
93.936470 87.826721 17.500000 0.000000 0.000000 1.000000 45 41 45 255
33.405621 173.562531 17.000002 -0.000183 0.000311 -1.000000 45 41 45 255
50.636868 183.716522 17.000000 -0.000183 0.000311 -1.000000 45 41 45 255
37.297371 167.996185 16.997559 -0.000183 0.000311 -1.000000 45 41 45 255
73.895309 116.491486 17.500000 0.819556 0.572998 0.000000 45 41 45 255
93.936470 87.826721 17.750000 0.819556 0.572998 0.000000 45 41 45 255
93.936470 87.826721 17.500000 0.819557 0.572998 0.000000 45 41 45 255
70.607933 155.191864 17.499998 0.000000 0.000000 1.000000 45 41 45 255
73.895309 116.491486 17.500000 0.000000 0.000000 1.000000 45 41 45 255
90.578995 126.667221 17.499998 0.000000 0.000000 1.000000 45 41 45 255
73.487900 116.233109 16.974827 0.001032 0.000722 -0.999999 45 41 45 255
70.607933 155.191864 17.000002 0.001032 0.000722 -0.999999 45 41 45 255
90.578995 126.667221 17.000002 0.001032 0.000722 -0.999999 45 41 45 255
50.636868 183.716522 17.000000 -0.000123 0.000259 -1.000000 45 41 45 255
47.567379 153.307846 16.992487 -0.000123 0.000259 -1.000000 45 41 45 255
37.297371 167.996185 16.997559 -0.000123 0.000259 -1.000000 45 41 45 255
144.504669 37.243320 17.000000 0.000000 0.000000 -1.000000 45 41 45 255
137.500885 32.739803 17.000000 0.000000 0.000000 -1.000000 45 41 45 255
130.820450 34.230560 17.000000 0.000000 0.000000 -1.000000 45 41 45 255
113.570312 58.903809 17.000000 0.000000 0.000000 -1.000000 45 41 45 255
130.521118 69.617912 17.000004 0.000000 0.000000 -1.000000 45 41 45 255
120.679688 48.734863 17.000000 0.000000 0.000000 -1.000000 45 41 45 255
47.567379 153.307846 16.992487 0.000262 0.000786 -1.000000 45 41 45 255
70.607933 155.191864 17.000002 0.000262 0.000786 -1.000000 45 41 45 255
53.446762 144.897827 16.987415 0.000262 0.000786 -1.000000 45 41 45 255
144.504669 37.243320 17.000000 0.000000 0.000000 -1.000000 45 41 45 255
130.820450 34.230560 17.000000 0.000000 0.000000 -1.000000 45 41 45 255
120.679688 48.734863 17.000000 0.000000 0.000000 -1.000000 45 41 45 255
37.297371 167.996185 16.997559 -0.063496 -0.043101 0.997051 45 41 45 255
52.561279 157.132385 17.499998 -0.063496 -0.043101 0.997051 45 41 45 255
42.782951 171.537766 17.499998 -0.063496 -0.043101 0.997051 45 41 45 255
33.839832 173.468887 17.750000 0.813251 0.581913 0.000000 45 41 45 255
37.610996 168.198502 17.500000 0.813251 0.581913 0.000000 45 41 45 255
33.839832 173.468887 17.500000 0.813251 0.581913 0.000000 45 41 45 255
144.504776 37.243320 17.750000 -0.818809 -0.574066 0.000117 45 41 45 255
144.246964 37.610996 17.500000 -0.818809 -0.574066 0.000117 45 41 45 255
144.504669 37.243320 17.000000 -0.818809 -0.574066 0.000117 45 41 45 255
150.234375 41.460938 17.500000 0.818832 0.574034 -0.000187 45 41 45 255
150.492188 41.093262 17.750000 0.818832 0.574034 -0.000187 45 41 45 255
150.492188 41.093018 17.000000 0.818832 0.574034 -0.000187 45 41 45 255
144.504776 37.243320 17.750000 -0.818772 -0.574119 0.000000 45 41 45 255
144.246964 37.610996 17.750000 -0.818772 -0.574119 0.000000 45 41 45 255
144.246964 37.610996 17.500000 -0.818772 -0.574119 0.000000 45 41 45 255
150.234375 41.460938 17.500000 0.818772 0.574119 0.000000 45 41 45 255
150.234375 41.460938 17.750000 0.818772 0.574119 0.000000 45 41 45 255
150.492188 41.093262 17.750000 0.818772 0.574119 0.000000 45 41 45 255
110.550056 98.142563 17.000002 0.819181 0.573536 0.000000 45 41 45 255
90.578995 126.667221 17.499998 0.819181 0.573536 0.000000 45 41 45 255
110.550056 98.142563 17.499998 0.819181 0.573536 0.000000 45 41 45 255
37.297520 167.996353 17.750000 0.541948 -0.840412 0.000000 45 41 45 255
37.610996 168.198502 17.500000 0.541948 -0.840412 0.000000 45 41 45 255
37.610996 168.198502 17.750000 0.541948 -0.840412 0.000000 45 41 45 255
93.529243 87.568420 17.750000 -0.819556 -0.572999 -0.000011 45 41 45 255
113.570312 58.903809 17.000000 -0.819556 -0.572998 -0.000011 45 41 45 255
113.570404 58.903664 17.750000 -0.819556 -0.572998 -0.000011 45 41 45 255
50.636868 183.716522 17.749996 0.000000 0.000000 1.000000 45 41 45 255
33.839832 173.468887 17.750000 0.000000 0.000000 1.000000 45 41 45 255
50.808743 183.471893 17.749996 0.000000 0.000000 1.000000 45 41 45 255
37.297520 167.996353 17.750000 0.000000 0.000000 1.000000 45 41 45 255
33.839832 173.468887 17.750000 0.000000 0.000000 1.000000 45 41 45 255
33.405762 173.562714 17.750000 0.000000 0.000000 1.000000 45 41 45 255
37.297520 167.996353 17.750000 0.541993 -0.840383 0.000080 45 41 45 255
37.297371 167.996185 16.997559 0.541993 -0.840383 0.000080 45 41 45 255
37.610996 168.198502 17.500000 0.541993 -0.840383 0.000080 45 41 45 255
37.610996 168.198502 17.750000 0.000000 0.000000 1.000000 45 41 45 255
33.839832 173.468887 17.750000 0.000000 0.000000 1.000000 45 41 45 255
37.297520 167.996353 17.750000 0.000000 0.000000 1.000000 45 41 45 255
50.636868 183.716522 17.749996 0.000000 0.000000 1.000000 45 41 45 255
33.405762 173.562714 17.750000 0.000000 0.000000 1.000000 45 41 45 255
33.839832 173.468887 17.750000 0.000000 0.000000 1.000000 45 41 45 255
50.636868 183.716522 17.749996 0.818233 0.574886 0.000000 45 41 45 255
50.808743 183.471893 17.499996 0.818233 0.574886 0.000000 45 41 45 255
50.636868 183.716522 17.000000 0.818233 0.574886 0.000000 45 41 45 255
113.570404 58.903664 17.750000 0.000000 0.000000 1.000000 45 41 45 255
93.936470 87.826721 17.750000 0.000000 0.000000 1.000000 45 41 45 255
93.529243 87.568420 17.750000 0.000000 0.000000 1.000000 45 41 45 255
73.488083 116.233185 17.750000 0.000000 0.000000 1.000000 45 41 45 255
53.854149 145.156250 17.750000 0.000000 0.000000 1.000000 45 41 45 255
53.446922 144.897949 17.750000 0.000000 0.000000 1.000000 45 41 45 255
93.529243 87.568420 17.750000 0.000000 0.000000 1.000000 45 41 45 255
73.895309 116.491486 17.750000 0.000000 0.000000 1.000000 45 41 45 255
73.488083 116.233185 17.750000 0.000000 0.000000 1.000000 45 41 45 255
110.550056 98.142563 17.000002 0.000000 0.000000 -1.000000 45 41 45 255
113.570312 58.903809 17.000000 0.000000 0.000000 -1.000000 45 41 45 255
93.529297 87.568359 17.000000 0.000000 0.000000 -1.000000 45 41 45 255
90.578995 126.667221 17.000002 0.819180 0.573536 0.000000 45 41 45 255
70.607933 155.191864 17.499998 0.819180 0.573536 0.000000 45 41 45 255
90.578995 126.667221 17.499998 0.819180 0.573536 0.000000 45 41 45 255
47.974365 153.566071 17.750000 0.819556 0.572998 0.000000 45 41 45 255
53.854149 145.156250 17.500000 0.819556 0.572999 0.000000 45 41 45 255
47.974365 153.566071 17.500000 0.819556 0.572998 0.000000 45 41 45 255
47.567379 153.307846 16.992487 -0.819556 -0.572998 -0.000318 45 41 45 255
53.446922 144.897949 17.750000 -0.819556 -0.572998 -0.000318 45 41 45 255
47.567139 153.307770 17.750000 -0.819556 -0.572998 -0.000318 45 41 45 255
120.679871 48.734863 17.750000 0.535630 -0.844453 -0.000392 45 41 45 255
121.086914 48.993164 17.500000 0.535630 -0.844453 -0.000392 45 41 45 255
121.087097 48.993164 17.750000 0.535630 -0.844453 -0.000392 45 41 45 255
125.302612 51.664944 17.500000 0.535315 -0.844653 0.000360 45 41 45 255
121.086914 48.993164 17.500000 0.535315 -0.844653 0.000360 45 41 45 255
120.679688 48.734863 17.000000 0.535315 -0.844653 0.000360 45 41 45 255
50.636868 183.716522 17.749996 0.818233 0.574886 0.000000 45 41 45 255
50.808743 183.471893 17.749996 0.818233 0.574886 0.000000 45 41 45 255
50.808743 183.471893 17.499996 0.818233 0.574886 0.000000 45 41 45 255
47.567139 153.307770 17.750000 -0.535667 0.844429 -0.000085 45 41 45 255
47.974365 153.566071 17.500000 -0.535667 0.844429 -0.000085 45 41 45 255
47.567379 153.307846 16.992487 -0.535667 0.844429 -0.000085 45 41 45 255
53.854149 145.156250 17.500000 0.819556 0.572998 0.000000 45 41 45 255
53.854149 145.156250 17.750000 0.819557 0.572998 0.000000 45 41 45 255
73.895309 116.491486 17.750000 0.819556 0.572998 0.000000 45 41 45 255
93.936470 87.826721 17.750000 0.819556 0.572999 0.000000 45 41 45 255
113.977631 59.161964 17.500000 0.819556 0.572998 0.000000 45 41 45 255
93.936470 87.826721 17.500000 0.819556 0.572998 0.000000 45 41 45 255
120.679871 48.734863 17.750000 0.535745 -0.844380 -0.000131 45 41 45 255
120.679688 48.734863 17.000000 0.535745 -0.844380 -0.000131 45 41 45 255
121.086914 48.993164 17.500000 0.535745 -0.844380 -0.000131 45 41 45 255
144.504776 37.243320 17.750000 0.000000 0.000000 1.000000 45 41 45 255
150.492188 41.093262 17.750000 0.000000 0.000000 1.000000 45 41 45 255
150.234375 41.460938 17.750000 0.000000 0.000000 1.000000 45 41 45 255
120.679688 48.734863 17.000000 -0.069159 -0.048353 0.996433 45 41 45 255
130.820450 34.230560 17.000000 -0.069159 -0.048353 0.996433 45 41 45 255
135.151947 38.339024 17.500000 -0.069159 -0.048353 0.996433 45 41 45 255
90.578995 126.667221 17.000002 0.000000 0.000000 -1.000000 45 41 45 255
110.550056 98.142563 17.000002 0.000000 0.000000 -1.000000 45 41 45 255
93.529297 87.568359 17.000000 0.000000 0.000000 -1.000000 45 41 45 255
93.936470 87.826721 17.500000 0.000000 0.000000 1.000000 45 41 45 255
110.550056 98.142563 17.499998 0.000000 0.000000 1.000000 45 41 45 255
90.578995 126.667221 17.499998 0.000000 0.000000 1.000000 45 41 45 255
110.550056 98.142563 17.499998 0.819181 0.573536 0.000000 45 41 45 255
130.521118 69.617912 17.500000 0.819181 0.573536 0.000000 45 41 45 255
130.521118 69.617912 17.000004 0.819181 0.573536 0.000000 45 41 45 255
73.488083 116.233185 17.750000 -0.819557 -0.572998 0.000264 45 41 45 255
53.446922 144.897949 17.750000 -0.819556 -0.572998 0.000264 45 41 45 255
53.446762 144.897827 16.987415 -0.819556 -0.572998 0.000264 45 41 45 255
50.636868 183.716522 17.000000 -0.507687 0.861542 -0.000115 45 41 45 255
33.405621 173.562531 17.000002 -0.507687 0.861541 -0.000115 45 41 45 255
33.405762 173.562714 17.750000 -0.507687 0.861541 -0.000115 45 41 45 255
150.492188 41.093018 17.000000 0.540846 -0.841121 0.000274 45 41 45 255
150.492188 41.093262 17.750000 0.540846 -0.841121 0.000274 45 41 45 255
144.504776 37.243320 17.750000 0.540846 -0.841122 0.000274 45 41 45 255
93.529297 87.568359 17.000000 -0.819557 -0.572998 -0.000012 45 41 45 255
93.529243 87.568420 17.750000 -0.819557 -0.572998 -0.000012 45 41 45 255
73.488083 116.233185 17.750000 -0.819556 -0.572998 -0.000012 45 41 45 255
120.679688 48.734863 17.000000 -0.819561 -0.572992 0.000200 45 41 45 255
120.679871 48.734863 17.750000 -0.819561 -0.572992 0.000200 45 41 45 255
113.570404 58.903664 17.750000 -0.819561 -0.572992 0.000200 45 41 45 255
50.808743 183.471893 17.499996 0.819189 0.573524 0.000000 45 41 45 255
70.607933 155.191864 17.499998 0.819189 0.573524 0.000000 45 41 45 255
70.607933 155.191864 17.000002 0.819189 0.573524 0.000000 45 41 45 255
120.679871 48.734863 17.750000 0.000000 0.000000 1.000000 45 41 45 255
121.087097 48.993164 17.750000 0.000000 0.000000 1.000000 45 41 45 255
113.977631 59.161964 17.750000 0.000000 0.000000 1.000000 45 41 45 255
37.297520 167.996353 17.750000 -0.819556 -0.572998 0.000294 45 41 45 255
33.405762 173.562714 17.750000 -0.819556 -0.572998 0.000294 45 41 45 255
33.405621 173.562531 17.000002 -0.819556 -0.572998 0.000294 45 41 45 255
121.086914 48.993164 17.500000 0.819568 0.572982 0.000000 45 41 45 255
113.977631 59.161964 17.500000 0.819568 0.572982 0.000000 45 41 45 255
113.977631 59.161964 17.750000 0.819568 0.572982 0.000000 45 41 45 255
53.446922 144.897949 17.750000 0.000000 0.000000 1.000000 45 41 45 255
53.854149 145.156250 17.750000 0.000000 0.000000 1.000000 45 41 45 255
47.974365 153.566071 17.750000 0.000000 0.000000 1.000000 45 41 45 255
144.504669 37.243320 17.000000 0.044553 -0.074316 0.996239 45 41 45 255
141.224976 41.979820 17.500000 0.044553 -0.074316 0.996239 45 41 45 255
135.151947 38.339024 17.500000 0.044553 -0.074316 0.996239 45 41 45 255
150.234375 41.460938 17.750000 -0.540846 0.841122 0.000000 45 41 45 255
150.234375 41.460938 17.500000 -0.540846 0.841121 0.000000 45 41 45 255
144.246964 37.610996 17.500000 -0.540846 0.841121 0.000000 45 41 45 255
50.808743 183.471893 17.499996 0.507823 -0.861461 0.000000 45 41 45 255
50.808743 183.471893 17.749996 0.507823 -0.861461 0.000000 45 41 45 255
33.839832 173.468887 17.750000 0.507823 -0.861461 0.000000 45 41 45 255
144.504669 37.243320 17.000000 0.000000 0.000000 -1.000000 45 41 45 255
120.679688 48.734863 17.000000 0.000000 0.000000 -1.000000 45 41 45 255
130.521118 69.617912 17.000004 0.000000 0.000000 -1.000000 45 41 45 255
113.977631 59.161964 17.500000 -0.000000 0.000000 1.000000 45 41 45 255
130.521118 69.617912 17.500000 -0.000000 0.000000 1.000000 45 41 45 255
110.550056 98.142563 17.499998 -0.000000 0.000000 1.000000 45 41 45 255
73.895309 116.491486 17.500000 0.819556 0.572998 0.000000 45 41 45 255
73.895309 116.491486 17.750000 0.819557 0.572998 0.000000 45 41 45 255
93.936470 87.826721 17.750000 0.819556 0.572998 0.000000 45 41 45 255
70.607933 155.191864 17.499998 0.000000 0.000000 1.000000 45 41 45 255
53.854149 145.156250 17.500000 0.000000 0.000000 1.000000 45 41 45 255
73.895309 116.491486 17.500000 0.000000 0.000000 1.000000 45 41 45 255
73.487900 116.233109 16.974827 0.000331 0.000671 -1.000000 45 41 45 255
53.446762 144.897827 16.987415 0.000331 0.000671 -1.000000 45 41 45 255
70.607933 155.191864 17.000002 0.000331 0.000671 -1.000000 45 41 45 255
50.636868 183.716522 17.000000 0.000309 0.000216 -1.000000 45 41 45 255
70.607933 155.191864 17.000002 0.000309 0.000216 -1.000000 45 41 45 255
47.567379 153.307846 16.992487 0.000309 0.000216 -1.000000 45 41 45 255
37.297371 167.996185 16.997559 -0.065799 -0.046351 0.996756 45 41 45 255
47.567379 153.307846 16.992487 -0.065799 -0.046351 0.996756 45 41 45 255
52.561279 157.132385 17.499998 -0.065799 -0.046351 0.996756 45 41 45 255
33.839832 173.468887 17.750000 0.813251 0.581913 0.000000 45 41 45 255
37.610996 168.198502 17.750000 0.813251 0.581913 0.000000 45 41 45 255
37.610996 168.198502 17.500000 0.813251 0.581913 0.000000 45 41 45 255
110.550056 98.142563 17.000002 0.819181 0.573536 0.000000 45 41 45 255
90.578995 126.667221 17.000002 0.819181 0.573536 0.000000 45 41 45 255
90.578995 126.667221 17.499998 0.819181 0.573536 0.000000 45 41 45 255
93.529243 87.568420 17.750000 -0.819556 -0.572998 -0.000012 45 41 45 255
93.529297 87.568359 17.000000 -0.819556 -0.572998 -0.000012 45 41 45 255
113.570312 58.903809 17.000000 -0.819556 -0.572998 -0.000012 45 41 45 255
113.570404 58.903664 17.750000 0.000000 0.000000 1.000000 45 41 45 255
113.977631 59.161964 17.750000 0.000000 0.000000 1.000000 45 41 45 255
93.936470 87.826721 17.750000 0.000000 0.000000 1.000000 45 41 45 255
73.488083 116.233185 17.750000 0.000000 0.000000 1.000000 45 41 45 255
73.895309 116.491486 17.750000 0.000000 0.000000 1.000000 45 41 45 255
53.854149 145.156250 17.750000 0.000000 0.000000 1.000000 45 41 45 255
93.529243 87.568420 17.750000 0.000000 0.000000 1.000000 45 41 45 255
93.936470 87.826721 17.750000 0.000000 0.000000 1.000000 45 41 45 255
73.895309 116.491486 17.750000 0.000000 0.000000 1.000000 45 41 45 255
110.550056 98.142563 17.000002 0.000000 0.000000 -1.000000 45 41 45 255
130.521118 69.617912 17.000004 0.000000 0.000000 -1.000000 45 41 45 255
113.570312 58.903809 17.000000 0.000000 0.000000 -1.000000 45 41 45 255
90.578995 126.667221 17.000002 0.819180 0.573536 0.000000 45 41 45 255
70.607933 155.191864 17.000002 0.819180 0.573536 0.000000 45 41 45 255
70.607933 155.191864 17.499998 0.819180 0.573536 0.000000 45 41 45 255
47.974365 153.566071 17.750000 0.819556 0.572999 0.000000 45 41 45 255
53.854149 145.156250 17.750000 0.819556 0.572998 0.000000 45 41 45 255
53.854149 145.156250 17.500000 0.819556 0.572998 0.000000 45 41 45 255
47.567379 153.307846 16.992487 -0.819581 -0.572963 0.000264 45 41 45 255
53.446762 144.897827 16.987415 -0.819581 -0.572963 0.000264 45 41 45 255
53.446922 144.897949 17.750000 -0.819581 -0.572963 0.000264 45 41 45 255
47.567139 153.307770 17.750000 -0.535630 0.844453 0.000000 45 41 45 255
47.974365 153.566071 17.750000 -0.535630 0.844453 0.000000 45 41 45 255
47.974365 153.566071 17.500000 -0.535630 0.844453 0.000000 45 41 45 255
93.936470 87.826721 17.750000 0.819556 0.572998 0.000000 45 41 45 255
113.977631 59.161964 17.750000 0.819556 0.572998 0.000000 45 41 45 255
113.977631 59.161964 17.500000 0.819556 0.572999 0.000000 45 41 45 255
53.854149 145.156250 17.500000 0.819556 0.572998 0.000000 45 41 45 255
73.895309 116.491486 17.750000 0.819556 0.572998 0.000000 45 41 45 255
73.895309 116.491486 17.500000 0.819557 0.572998 0.000000 45 41 45 255
157.283203 31.124756 16.999994 -0.861273 -0.508142 0.000165 45 41 45 255
157.553711 30.666504 17.749994 -0.861273 -0.508142 0.000165 45 41 45 255
157.283203 31.125000 17.749994 -0.861273 -0.508142 0.000165 45 41 45 255
224.879181 73.692612 17.749994 0.761075 0.648664 -0.000211 45 41 45 255
224.535431 74.095688 16.999994 0.761075 0.648664 -0.000211 45 41 45 255
224.535431 74.095932 17.749994 0.761075 0.648664 -0.000211 45 41 45 255
157.283203 31.125000 17.749994 -0.538427 0.842672 -0.000273 45 41 45 255
224.535431 74.095688 16.999994 -0.538427 0.842672 -0.000273 45 41 45 255
157.283203 31.124756 16.999994 -0.538427 0.842672 -0.000273 45 41 45 255
224.535431 74.095688 16.999994 0.000000 0.000000 -1.000000 45 41 45 255
157.553711 30.666504 16.999994 0.000000 0.000000 -1.000000 45 41 45 255
157.283203 31.124756 16.999994 0.000000 0.000000 -1.000000 45 41 45 255
157.553711 30.666504 17.749994 0.000000 0.000000 1.000000 45 41 45 255
224.535431 74.095932 17.749994 0.000000 0.000000 1.000000 45 41 45 255
157.283203 31.125000 17.749994 0.000000 0.000000 1.000000 45 41 45 255
224.879181 73.692612 16.999994 0.538501 -0.842625 0.000000 45 41 45 255
157.553711 30.666504 17.749994 0.538501 -0.842625 0.000000 45 41 45 255
157.553711 30.666504 16.999994 0.538501 -0.842625 0.000000 45 41 45 255
157.283203 31.124756 16.999994 -0.861155 -0.508343 0.000000 45 41 45 255
157.553711 30.666504 16.999994 -0.861155 -0.508343 0.000000 45 41 45 255
157.553711 30.666504 17.749994 -0.861155 -0.508343 0.000000 45 41 45 255
224.879181 73.692612 17.749994 0.760881 0.648892 0.000000 45 41 45 255
224.879181 73.692612 16.999994 0.760881 0.648892 0.000000 45 41 45 255
224.535431 74.095688 16.999994 0.760881 0.648892 0.000000 45 41 45 255
157.283203 31.125000 17.749994 -0.538427 0.842672 -0.000274 45 41 45 255
224.535431 74.095932 17.749994 -0.538427 0.842672 -0.000274 45 41 45 255
224.535431 74.095688 16.999994 -0.538427 0.842672 -0.000274 45 41 45 255
224.535431 74.095688 16.999994 0.000000 0.000000 -1.000000 45 41 45 255
224.879181 73.692612 16.999994 0.000000 0.000000 -1.000000 45 41 45 255
157.553711 30.666504 16.999994 0.000000 0.000000 -1.000000 45 41 45 255
157.553711 30.666504 17.749994 0.000000 0.000000 1.000000 45 41 45 255
224.879181 73.692612 17.749994 0.000000 0.000000 1.000000 45 41 45 255
224.535431 74.095932 17.749994 0.000000 0.000000 1.000000 45 41 45 255
224.879181 73.692612 16.999994 0.538501 -0.842625 0.000000 45 41 45 255
224.879181 73.692612 17.749994 0.538501 -0.842625 0.000000 45 41 45 255
157.553711 30.666504 17.749994 0.538501 -0.842625 0.000000 45 41 45 255
3 0 1 2
3 3 4 5
3 6 7 8
3 9 10 11
3 12 13 14
3 15 16 17
3 18 19 20
3 21 22 23
3 24 25 26
3 27 28 29
3 30 31 32
3 33 34 35
3 36 37 38
3 39 40 41
3 42 43 44
3 45 46 47
3 48 49 50
3 51 52 53
3 54 55 56
3 57 58 59
3 60 61 62
3 63 64 65
3 66 67 68
3 69 70 71
3 72 73 74
3 75 76 77
3 78 79 80
3 81 82 83
3 84 85 86
3 87 88 89
3 90 91 92
3 93 94 95
3 96 97 98
3 99 100 101
3 102 103 104
3 105 106 107
3 108 109 110
3 111 112 113
3 114 115 116
3 117 118 119
3 120 121 122
3 123 124 125
3 126 127 128
3 129 130 131
3 132 133 134
3 135 136 137
3 138 139 140
3 141 142 143
3 144 145 146
3 147 148 149
3 150 151 152
3 153 154 155
3 156 157 158
3 159 160 161
3 162 163 164
3 165 166 167
3 168 169 170
3 171 172 173
3 174 175 176
3 177 178 179
3 180 181 182
3 183 184 185
3 186 187 188
3 189 190 191
3 192 193 194
3 195 196 197
3 198 199 200
3 201 202 203
3 204 205 206
3 207 208 209
3 210 211 212
3 213 214 215
3 216 217 218
3 219 220 221
3 222 223 224
3 225 226 227
3 228 229 230
3 231 232 233
3 234 235 236
3 237 238 239
3 240 241 242
3 243 244 245
3 246 247 248
3 249 250 251
3 252 253 254
3 255 256 257
3 258 259 260
3 261 262 263
3 264 265 266
3 267 268 269
3 270 271 272
3 273 274 275
3 276 277 278
3 279 280 281
3 282 283 284
3 285 286 287
3 288 289 290
3 291 292 293
3 294 295 296
3 297 298 299
3 300 301 302
3 303 304 305
3 306 307 308
3 309 310 311
3 312 313 314
3 315 316 317
3 318 319 320
3 321 322 323
3 324 325 326
3 327 328 329
3 330 331 332
3 333 334 335
3 336 337 338
3 339 340 341
3 342 343 344
3 345 346 347
3 348 349 350
3 351 352 353
3 354 355 356
3 357 358 359
3 360 361 362
3 363 364 365
3 366 367 368
3 369 370 371
3 372 373 374
3 375 376 377
