ply
format ascii 1.0
comment Created by Blender 3.4.1 - www.blender.org
element vertex 19
property float x
property float y
property float z
property float nx
property float ny
property float nz
property uchar red
property uchar green
property uchar blue
property uchar alpha
element face 29
property list uchar uint vertex_indices
end_header
0.295409 0.521630 -0.011304 0.577350 0.577350 -0.577350 199 185 170 255
-0.304591 0.521630 9.959352 -0.577350 0.577350 0.577350 199 185 170 255
0.295409 0.521630 9.959352 0.360491 0.704062 0.611835 199 185 170 255
-0.304591 -0.500000 -0.011304 -0.577350 -0.577350 -0.577350 199 185 170 255
-0.304591 -0.500000 8.008294 -0.904534 -0.301511 -0.301511 199 185 170 255
-0.304591 -0.633627 9.959352 -0.577350 -0.577350 0.577350 199 185 170 255
-0.304591 -0.633627 8.008294 -0.577350 -0.577350 -0.577350 199 185 170 255
0.295409 -0.500000 8.008294 0.904534 -0.301511 -0.301511 199 185 170 255
0.295409 -0.633627 8.008294 0.577350 -0.577350 -0.577350 199 185 170 255
24.749617 0.521630 9.959352 0.562876 0.667089 0.488019 199 185 170 255
0.295409 -0.278370 9.959352 0.000000 -0.738978 0.673730 199 185 170 255
24.749617 -0.278370 9.959352 0.572651 -0.605814 0.552323 199 185 170 255
0.295409 -0.335215 -0.011304 0.000000 -0.999562 0.029581 199 185 170 255
24.749617 -0.097856 8.009352 0.224627 -0.919577 -0.322369 199 185 170 255
0.295409 -0.097856 8.009352 0.000000 -0.943693 -0.330822 199 185 170 255
0.295409 -0.633627 9.959352 0.577350 -0.577350 0.577350 199 185 170 255
0.295409 -0.500000 -0.011304 0.577350 -0.577350 -0.577350 199 185 170 255
-0.304591 0.521630 -0.011304 -0.577350 0.577350 -0.577350 199 185 170 255
24.749617 -0.335215 -0.011304 0.000000 -0.999562 0.029581 199 185 170 255
3 0 1 2
3 1 3 4
3 4 5 1
3 6 7 8
3 9 10 11
3 7 0 2
3 3 7 4
3 12 13 14
3 15 1 5
3 3 0 16
3 6 15 5
3 1 17 3
3 7 16 0
3 7 15 8
3 11 14 13
3 2 13 14
3 9 11 13
3 0 17 1
3 4 6 5
3 6 4 7
3 9 2 10
3 3 16 7
3 12 18 13
3 15 2 1
3 3 17 0
3 6 8 15
3 7 2 15
3 11 10 14
3 2 9 13
