ply
format ascii 1.0
comment Created by Blender 3.4.1 - www.blender.org
element vertex 284
property float x
property float y
property float z
property float nx
property float ny
property float nz
property float s
property float t
property uchar red
property uchar green
property uchar blue
property uchar alpha
element face 142
property list uchar uint vertex_indices
end_header
16.091618 -0.089837 -0.011304 -0.609574 -0.792204 0.028839 0.545261 0.000000 102 96 87 255
16.410511 -0.043234 8.009352 -0.609574 -0.792204 0.028839 0.621405 1.000000 102 96 87 255
16.091618 0.202144 8.009352 -0.609574 -0.792204 0.028839 0.545261 1.000000 102 96 87 255
12.375652 0.202144 8.009352 0.000000 0.000000 -1.000000 0.000000 1.000000 102 96 87 255
18.562634 -0.097856 8.009352 0.000000 0.000000 -1.000000 1.000000 1.000000 102 96 87 255
12.375652 -0.097856 8.009352 0.000000 0.000000 -1.000000 0.000000 1.000000 102 96 87 255
18.562634 -0.097856 8.009352 0.000000 -0.995743 -0.092177 1.000000 1.000000 102 96 87 255
12.375652 -0.278370 9.959352 0.000000 -0.995743 -0.092177 0.000000 1.000000 102 96 87 255
12.375652 -0.097856 8.009352 0.000000 -0.995743 -0.092177 0.000000 1.000000 102 96 87 255
12.375652 -0.089837 -0.011304 -0.598384 -0.800679 0.029148 0.000000 0.000000 102 96 87 255
12.703984 -0.043234 8.009352 -0.598384 -0.800679 0.029148 0.121406 1.000000 102 96 87 255
12.375652 0.202144 8.009352 -0.598384 -0.800679 0.029148 0.000000 1.000000 102 96 87 255
13.620600 -0.089837 -0.011304 -0.609574 -0.792204 0.028839 0.211928 0.000000 102 96 87 255
13.939492 -0.043234 8.009352 -0.609574 -0.792204 0.028839 0.288072 1.000000 102 96 87 255
13.620599 0.202144 8.009352 -0.609574 -0.792204 0.028839 0.211928 1.000000 102 96 87 255
17.327126 -0.089837 -0.011304 -0.609574 -0.792204 0.028839 0.711928 0.000000 102 96 87 255
17.646019 -0.043234 8.009352 -0.609574 -0.792204 0.028839 0.788072 1.000000 102 96 87 255
17.327126 0.202144 8.009352 -0.609574 -0.792204 0.028839 0.711928 1.000000 102 96 87 255
13.620600 -0.089837 -0.011304 0.258434 -0.965389 0.035144 0.211928 0.000000 102 96 87 255
12.703984 -0.043234 8.009352 0.258435 -0.965389 0.035144 0.121406 1.000000 102 96 87 255
12.703984 -0.335215 -0.011304 0.258434 -0.965389 0.035144 0.121406 0.000000 102 96 87 255
14.856109 -0.089837 -0.011304 0.258434 -0.965389 0.035144 0.378595 0.000000 102 96 87 255
13.939492 -0.043234 8.009352 0.258434 -0.965389 0.035144 0.288072 1.000000 102 96 87 255
13.939493 -0.335215 -0.011304 0.258434 -0.965389 0.035144 0.288072 0.000000 102 96 87 255
16.091618 -0.089837 -0.011304 0.258434 -0.965389 0.035144 0.545261 0.000000 102 96 87 255
15.175001 -0.043234 8.009352 0.258434 -0.965389 0.035144 0.454739 1.000000 102 96 87 255
15.175001 -0.335215 -0.011304 0.258434 -0.965389 0.035144 0.454739 0.000000 102 96 87 255
17.327126 -0.089837 -0.011304 0.258435 -0.965389 0.035144 0.711928 0.000000 102 96 87 255
16.410511 -0.043234 8.009352 0.258435 -0.965389 0.035144 0.621405 1.000000 102 96 87 255
16.410511 -0.335215 -0.011304 0.258435 -0.965389 0.035144 0.621405 0.000000 102 96 87 255
18.562635 -0.089837 -0.011304 0.258434 -0.965389 0.035144 0.878595 0.000000 102 96 87 255
17.646019 -0.043234 8.009352 0.258434 -0.965389 0.035144 0.788072 1.000000 102 96 87 255
17.646019 -0.335215 -0.011304 0.258434 -0.965389 0.035144 0.788072 0.000000 102 96 87 255
14.856109 -0.089837 -0.011304 -0.609575 -0.792203 0.028839 0.378595 0.000000 102 96 87 255
15.175001 -0.043234 8.009352 -0.609574 -0.792204 0.028839 0.454739 1.000000 102 96 87 255
14.856108 0.202144 8.009352 -0.609574 -0.792204 0.028839 0.378594 1.000000 102 96 87 255
18.562634 -0.278370 9.959352 0.000000 0.000000 1.000000 1.000000 1.000000 102 96 87 255
12.375652 0.521630 9.959352 0.000000 0.000000 1.000000 0.000000 1.000000 102 96 87 255
12.375652 -0.278370 9.959352 0.000000 0.000000 1.000000 0.000000 1.000000 102 96 87 255
22.278599 -0.089837 -0.011304 -0.609574 -0.792204 0.028839 0.545261 0.000000 102 96 87 255
22.597492 -0.043234 8.009352 -0.609574 -0.792204 0.028839 0.621405 1.000000 102 96 87 255
22.278599 0.202144 8.009352 -0.609574 -0.792204 0.028839 0.545261 1.000000 102 96 87 255
18.562635 0.202144 8.009352 0.000000 0.000000 -1.000000 0.000000 1.000000 102 96 87 255
24.749619 -0.097856 8.009352 0.000000 0.000000 -1.000000 1.000000 1.000000 102 96 87 255
18.562634 -0.097856 8.009352 0.000000 0.000000 -1.000000 0.000000 1.000000 102 96 87 255
24.749619 -0.097856 8.009352 0.000000 -0.995743 -0.092177 1.000000 1.000000 102 96 87 255
18.562634 -0.278370 9.959352 0.000000 -0.995743 -0.092177 0.000000 1.000000 102 96 87 255
18.562634 -0.097856 8.009352 0.000000 -0.995743 -0.092177 0.000000 1.000000 102 96 87 255
18.562635 -0.089837 -0.011304 -0.598385 -0.800678 0.029148 0.000000 0.000000 102 96 87 255
18.890966 -0.043234 8.009352 -0.598385 -0.800678 0.029148 0.121406 1.000000 102 96 87 255
18.562635 0.202144 8.009352 -0.598385 -0.800678 0.029148 0.000000 1.000000 102 96 87 255
19.807583 -0.089837 -0.011304 -0.609574 -0.792204 0.028839 0.211928 0.000000 102 96 87 255
20.126476 -0.043234 8.009352 -0.609574 -0.792204 0.028839 0.288072 1.000000 102 96 87 255
19.807583 0.202144 8.009352 -0.609574 -0.792204 0.028839 0.211928 1.000000 102 96 87 255
23.514109 -0.089837 -0.011304 -0.609572 -0.792206 0.028839 0.711928 0.000000 102 96 87 255
23.833002 -0.043234 8.009352 -0.609574 -0.792204 0.028839 0.788072 1.000000 102 96 87 255
23.514109 0.202144 8.009352 -0.609574 -0.792204 0.028839 0.711928 1.000000 102 96 87 255
19.807583 -0.089837 -0.011304 0.258434 -0.965389 0.035144 0.211928 0.000000 102 96 87 255
18.890966 -0.043234 8.009352 0.258434 -0.965389 0.035144 0.121406 1.000000 102 96 87 255
18.890966 -0.335215 -0.011304 0.258434 -0.965389 0.035144 0.121406 0.000000 102 96 87 255
21.043091 -0.089837 -0.011304 0.258435 -0.965389 0.035144 0.378595 0.000000 102 96 87 255
20.126476 -0.043234 8.009352 0.258435 -0.965389 0.035144 0.288072 1.000000 102 96 87 255
20.126476 -0.335215 -0.011304 0.258435 -0.965389 0.035144 0.288072 0.000000 102 96 87 255
22.278599 -0.089837 -0.011304 0.258435 -0.965389 0.035144 0.545261 0.000000 102 96 87 255
21.361984 -0.043234 8.009352 0.258435 -0.965389 0.035144 0.454739 1.000000 102 96 87 255
21.361984 -0.335215 -0.011304 0.258435 -0.965389 0.035144 0.454739 0.000000 102 96 87 255
23.514109 -0.089837 -0.011304 0.258434 -0.965389 0.035144 0.711928 0.000000 102 96 87 255
22.597492 -0.043234 8.009352 0.258434 -0.965389 0.035144 0.621405 1.000000 102 96 87 255
22.597492 -0.335215 -0.011304 0.258434 -0.965389 0.035144 0.621405 0.000000 102 96 87 255
24.749619 -0.089837 -0.011304 0.258435 -0.965389 0.035144 0.878595 0.000000 102 96 87 255
23.833002 -0.043234 8.009352 0.258434 -0.965389 0.035144 0.788072 1.000000 102 96 87 255
23.833004 -0.335215 -0.011304 0.258435 -0.965389 0.035144 0.788072 0.000000 102 96 87 255
21.043091 -0.089837 -0.011304 -0.609574 -0.792204 0.028839 0.378595 0.000000 102 96 87 255
21.361984 -0.043234 8.009352 -0.609574 -0.792204 0.028839 0.454739 1.000000 102 96 87 255
21.043091 0.202144 8.009352 -0.609574 -0.792204 0.028839 0.378594 1.000000 102 96 87 255
24.749619 -0.278370 9.959352 0.000000 0.000000 1.000000 1.000000 1.000000 102 96 87 255
18.562634 0.521630 9.959352 0.000000 0.000000 1.000000 0.000000 1.000000 102 96 87 255
18.562634 -0.278370 9.959352 0.000000 0.000000 1.000000 0.000000 1.000000 102 96 87 255
3.717652 -0.089837 -0.011304 -0.609574 -0.792204 0.028839 0.545261 0.000000 102 96 87 255
4.036546 -0.043234 8.009352 -0.609574 -0.792204 0.028839 0.621405 1.000000 102 96 87 255
3.717652 0.202144 8.009352 -0.609574 -0.792204 0.028839 0.545261 1.000000 102 96 87 255
0.001689 0.202144 8.009352 0.000000 0.000000 -1.000000 0.000000 1.000000 102 96 87 255
6.188670 -0.097856 8.009352 0.000000 0.000000 -1.000000 1.000000 1.000000 102 96 87 255
0.001689 -0.097856 8.009352 0.000000 0.000000 -1.000000 0.000000 1.000000 102 96 87 255
6.188670 -0.097856 8.009352 0.000000 -0.995743 -0.092177 1.000000 1.000000 102 96 87 255
0.001689 -0.278370 9.959352 0.000000 -0.995743 -0.092177 0.000000 1.000000 102 96 87 255
0.001689 -0.097856 8.009352 0.000000 -0.995743 -0.092177 0.000000 1.000000 102 96 87 255
0.001689 -0.089837 -0.011304 -0.598385 -0.800678 0.029148 0.000000 0.000000 102 96 87 255
0.330020 -0.043234 8.009352 -0.598385 -0.800678 0.029148 0.121406 1.000000 102 96 87 255
0.001689 0.202144 8.009352 -0.598385 -0.800678 0.029148 0.000000 1.000000 102 96 87 255
1.246635 -0.089837 -0.011304 -0.609575 -0.792203 0.028839 0.211928 0.000000 102 96 87 255
1.565528 -0.043234 8.009352 -0.609574 -0.792204 0.028839 0.288072 1.000000 102 96 87 255
1.246634 0.202144 8.009352 -0.609574 -0.792204 0.028839 0.211928 1.000000 102 96 87 255
4.953161 -0.089837 -0.011304 -0.609573 -0.792205 0.028839 0.711928 0.000000 102 96 87 255
5.272056 -0.043234 8.009352 -0.609573 -0.792205 0.028839 0.788072 1.000000 102 96 87 255
4.953161 0.202144 8.009352 -0.609573 -0.792205 0.028839 0.711928 1.000000 102 96 87 255
1.246635 -0.089837 -0.011304 0.258434 -0.965389 0.035144 0.211928 0.000000 102 96 87 255
0.330020 -0.043234 8.009352 0.258435 -0.965389 0.035144 0.121406 1.000000 102 96 87 255
0.330020 -0.335215 -0.011304 0.258434 -0.965389 0.035144 0.121406 0.000000 102 96 87 255
2.482144 -0.089837 -0.011304 0.258434 -0.965389 0.035144 0.378595 0.000000 102 96 87 255
1.565528 -0.043234 8.009352 0.258434 -0.965389 0.035144 0.288072 1.000000 102 96 87 255
1.565528 -0.335215 -0.011304 0.258434 -0.965389 0.035144 0.288072 0.000000 102 96 87 255
3.717652 -0.089837 -0.011304 0.258434 -0.965389 0.035144 0.545261 0.000000 102 96 87 255
2.801037 -0.043234 8.009352 0.258434 -0.965389 0.035144 0.454739 1.000000 102 96 87 255
2.801037 -0.335215 -0.011304 0.258434 -0.965389 0.035144 0.454739 0.000000 102 96 87 255
4.953161 -0.089837 -0.011304 0.258434 -0.965389 0.035144 0.711928 0.000000 102 96 87 255
4.036546 -0.043234 8.009352 0.258434 -0.965389 0.035144 0.621405 1.000000 102 96 87 255
4.036546 -0.335215 -0.011304 0.258434 -0.965389 0.035144 0.621405 0.000000 102 96 87 255
6.188671 -0.089837 -0.011304 0.258434 -0.965389 0.035144 0.878595 0.000000 102 96 87 255
5.272056 -0.043234 8.009352 0.258434 -0.965389 0.035144 0.788072 1.000000 102 96 87 255
5.272056 -0.335215 -0.011304 0.258434 -0.965389 0.035144 0.788072 0.000000 102 96 87 255
2.482144 -0.089837 -0.011304 -0.609575 -0.792203 0.028839 0.378595 0.000000 102 96 87 255
2.801037 -0.043234 8.009352 -0.609574 -0.792204 0.028839 0.454739 1.000000 102 96 87 255
2.482143 0.202144 8.009352 -0.609574 -0.792204 0.028839 0.378594 1.000000 102 96 87 255
6.188670 -0.278370 9.959352 0.000000 0.000000 1.000000 1.000000 1.000000 102 96 87 255
0.001689 0.521630 9.959352 0.000000 0.000000 1.000000 0.000000 1.000000 102 96 87 255
0.001689 -0.278370 9.959352 0.000000 0.000000 1.000000 0.000000 1.000000 102 96 87 255
9.904635 -0.089837 -0.011304 -0.609574 -0.792204 0.028839 0.545261 0.000000 102 96 87 255
10.223528 -0.043234 8.009352 -0.609574 -0.792204 0.028839 0.621405 1.000000 102 96 87 255
9.904634 0.202144 8.009352 -0.609574 -0.792204 0.028839 0.545261 1.000000 102 96 87 255
6.188671 0.202144 8.009352 0.000000 0.000000 -1.000000 0.000000 1.000000 102 96 87 255
12.375653 -0.097856 8.009352 0.000000 0.000000 -1.000000 1.000000 1.000000 102 96 87 255
6.188670 -0.097856 8.009352 0.000000 0.000000 -1.000000 0.000000 1.000000 102 96 87 255
12.375653 -0.097856 8.009352 0.000000 -0.995743 -0.092177 1.000000 1.000000 102 96 87 255
6.188670 -0.278370 9.959352 0.000000 -0.995743 -0.092177 0.000000 1.000000 102 96 87 255
6.188670 -0.097856 8.009352 0.000000 -0.995743 -0.092177 0.000000 1.000000 102 96 87 255
6.188671 -0.089837 -0.011304 -0.598384 -0.800679 0.029148 0.000000 0.000000 102 96 87 255
6.517003 -0.043234 8.009352 -0.598384 -0.800679 0.029148 0.121406 1.000000 102 96 87 255
6.188671 0.202144 8.009352 -0.598384 -0.800679 0.029148 0.000000 1.000000 102 96 87 255
7.433618 -0.089837 -0.011304 -0.609574 -0.792204 0.028839 0.211928 0.000000 102 96 87 255
7.752511 -0.043234 8.009352 -0.609574 -0.792204 0.028839 0.288072 1.000000 102 96 87 255
7.433618 0.202144 8.009352 -0.609574 -0.792204 0.028839 0.211928 1.000000 102 96 87 255
11.140144 -0.089837 -0.011304 -0.609573 -0.792205 0.028839 0.711928 0.000000 102 96 87 255
11.459038 -0.043234 8.009352 -0.609574 -0.792204 0.028839 0.788072 1.000000 102 96 87 255
11.140144 0.202144 8.009352 -0.609574 -0.792204 0.028839 0.711928 1.000000 102 96 87 255
7.433618 -0.089837 -0.011304 0.258435 -0.965389 0.035144 0.211928 0.000000 102 96 87 255
6.517003 -0.043234 8.009352 0.258435 -0.965389 0.035144 0.121406 1.000000 102 96 87 255
6.517003 -0.335215 -0.011304 0.258435 -0.965389 0.035144 0.121406 0.000000 102 96 87 255
8.669127 -0.089837 -0.011304 0.258434 -0.965389 0.035144 0.378595 0.000000 102 96 87 255
7.752511 -0.043234 8.009352 0.258434 -0.965389 0.035144 0.288072 1.000000 102 96 87 255
7.752511 -0.335215 -0.011304 0.258434 -0.965389 0.035144 0.288072 0.000000 102 96 87 255
9.904635 -0.089837 -0.011304 0.258434 -0.965389 0.035144 0.545261 0.000000 102 96 87 255
8.988020 -0.043234 8.009352 0.258435 -0.965389 0.035144 0.454739 1.000000 102 96 87 255
8.988020 -0.335215 -0.011304 0.258434 -0.965389 0.035144 0.454739 0.000000 102 96 87 255
11.140144 -0.089837 -0.011304 0.258434 -0.965389 0.035144 0.711928 0.000000 102 96 87 255
10.223528 -0.043234 8.009352 0.258434 -0.965389 0.035144 0.621405 1.000000 102 96 87 255
10.223529 -0.335215 -0.011304 0.258434 -0.965389 0.035144 0.621405 0.000000 102 96 87 255
12.375653 -0.089837 -0.011304 0.258435 -0.965389 0.035144 0.878595 0.000000 102 96 87 255
11.459038 -0.043234 8.009352 0.258434 -0.965389 0.035144 0.788072 1.000000 102 96 87 255
11.459039 -0.335215 -0.011304 0.258435 -0.965389 0.035144 0.788072 0.000000 102 96 87 255
8.669127 -0.089837 -0.011304 -0.609574 -0.792204 0.028839 0.378595 0.000000 102 96 87 255
8.988020 -0.043234 8.009352 -0.609574 -0.792204 0.028839 0.454739 1.000000 102 96 87 255
8.669127 0.202144 8.009352 -0.609574 -0.792204 0.028839 0.378594 1.000000 102 96 87 255
12.375653 -0.278370 9.959352 0.000000 0.000000 1.000000 1.000000 1.000000 102 96 87 255
6.188670 0.521630 9.959352 0.000000 0.000000 1.000000 0.000000 1.000000 102 96 87 255
6.188670 -0.278370 9.959352 0.000000 0.000000 1.000000 0.000000 1.000000 102 96 87 255
-0.304590 -0.500000 9.959352 -1.000000 0.000000 0.000000 0.625000 0.000000 102 96 87 255
-0.304590 0.521630 8.008294 -1.000000 0.000000 0.000000 0.576080 0.250000 102 96 87 255
-0.304590 -0.500000 8.008294 -1.000000 0.000000 0.000000 0.576080 0.000000 102 96 87 255
-0.304590 0.521630 9.959352 0.000000 1.000000 0.000000 0.625000 0.250000 102 96 87 255
0.295410 0.521630 8.008294 0.000000 1.000000 0.000000 0.576080 0.500000 102 96 87 255
-0.304590 0.521630 8.008294 0.000000 1.000000 0.000000 0.576080 0.250000 102 96 87 255
0.295410 0.521630 9.959352 1.000000 0.000000 0.000000 0.625000 0.500000 102 96 87 255
0.295410 -0.500000 8.008294 1.000000 0.000000 0.000000 0.576080 0.750000 102 96 87 255
0.295410 0.521630 8.008294 1.000000 0.000000 0.000000 0.576080 0.500000 102 96 87 255
-0.304590 -0.500000 9.959352 0.000000 0.000000 1.000000 0.875000 0.750000 102 96 87 255
0.295410 -0.633627 9.959352 0.000000 0.000000 1.000000 0.625000 0.750000 102 96 87 255
0.295410 -0.500000 9.959352 0.000000 0.000000 1.000000 0.625000 0.750000 102 96 87 255
0.295410 0.521630 -0.011304 0.000000 0.000000 -1.000000 0.375000 0.500000 102 96 87 255
-0.304590 -0.500000 -0.011304 0.000000 0.000000 -1.000000 0.125000 0.750000 102 96 87 255
-0.304590 0.521630 -0.011304 0.000000 0.000000 -1.000000 0.125000 0.500000 102 96 87 255
-0.304590 0.521630 9.959352 0.000000 0.000000 1.000000 0.875000 0.500000 102 96 87 255
0.295410 -0.500000 9.959352 0.000000 0.000000 1.000000 0.625000 0.750000 102 96 87 255
0.295410 0.521630 9.959352 0.000000 0.000000 1.000000 0.625000 0.500000 102 96 87 255
0.295410 -0.500000 8.008294 0.000000 -1.000000 0.000000 0.576080 0.750000 102 96 87 255
-0.304590 -0.500000 -0.011304 0.000000 -1.000000 0.000000 0.375000 1.000000 102 96 87 255
0.295410 -0.500000 -0.011304 0.000000 -1.000000 0.000000 0.375000 0.750000 102 96 87 255
0.295410 0.521630 8.008294 1.000000 0.000000 0.000000 0.576080 0.500000 102 96 87 255
0.295410 -0.500000 -0.011304 1.000000 0.000000 0.000000 0.375000 0.750000 102 96 87 255
0.295410 0.521630 -0.011304 1.000000 0.000000 0.000000 0.375000 0.500000 102 96 87 255
-0.304590 0.521630 8.008294 0.000000 1.000000 0.000000 0.576080 0.250000 102 96 87 255
0.295410 0.521630 -0.011304 0.000000 1.000000 0.000000 0.375000 0.500000 102 96 87 255
-0.304590 0.521630 -0.011304 0.000000 1.000000 0.000000 0.375000 0.250000 102 96 87 255
-0.304590 -0.500000 8.008294 -1.000000 0.000000 0.000000 0.576080 0.000000 102 96 87 255
-0.304590 0.521630 -0.011304 -1.000000 0.000000 0.000000 0.375000 0.250000 102 96 87 255
-0.304590 -0.500000 -0.011304 -1.000000 0.000000 0.000000 0.375000 0.000000 102 96 87 255
0.295410 -0.633627 9.959352 0.000000 -1.000000 0.000000 0.625000 0.750000 102 96 87 255
-0.304590 -0.633627 8.008294 0.000000 -1.000000 0.000000 0.576080 1.000000 102 96 87 255
0.295410 -0.633627 8.008294 0.000000 -1.000000 0.000000 0.576080 0.750000 102 96 87 255
0.295410 -0.500000 8.008294 0.000000 0.000000 -1.000000 0.576080 0.750000 102 96 87 255
-0.304590 -0.633627 8.008294 0.000000 0.000000 -1.000000 0.576080 1.000000 102 96 87 255
-0.304590 -0.500000 8.008294 0.000000 0.000000 -1.000000 0.576080 1.000000 102 96 87 255
-0.304590 -0.500000 8.008294 -1.000000 0.000000 0.000000 0.576080 0.000000 102 96 87 255
-0.304590 -0.633627 9.959352 -1.000000 0.000000 0.000000 0.625000 0.000000 102 96 87 255
-0.304590 -0.500000 9.959352 -1.000000 0.000000 0.000000 0.625000 0.000000 102 96 87 255
0.295410 -0.500000 9.959352 1.000000 0.000000 0.000000 0.625000 0.750000 102 96 87 255
0.295410 -0.633627 8.008294 1.000000 0.000000 0.000000 0.576080 0.750000 102 96 87 255
0.295410 -0.500000 8.008294 1.000000 0.000000 0.000000 0.576080 0.750000 102 96 87 255
24.749619 -0.278370 9.959352 1.000000 0.000000 0.000000 1.000000 1.000000 102 96 87 255
24.749619 0.202144 8.009352 1.000000 0.000000 0.000000 1.000000 1.000000 102 96 87 255
24.749619 0.521630 9.959352 1.000000 0.000000 0.000000 1.000000 1.000000 102 96 87 255
18.562635 0.202144 8.009352 0.000000 0.986843 -0.161683 0.000000 1.000000 102 96 87 255
24.749619 0.521630 9.959352 0.000000 0.986843 -0.161683 1.000000 1.000000 102 96 87 255
24.749619 0.202144 8.009352 0.000000 0.986843 -0.161683 1.000000 1.000000 102 96 87 255
18.562634 0.521630 9.959352 0.000000 0.986843 -0.161683 0.000000 1.000000 102 96 87 255
12.375652 0.202144 8.009352 0.000000 0.986843 -0.161683 0.000000 1.000000 102 96 87 255
12.375652 0.521630 9.959352 0.000000 0.986843 -0.161683 0.000000 1.000000 102 96 87 255
6.188671 0.202144 8.009352 0.000000 0.986843 -0.161683 0.000000 1.000000 102 96 87 255
12.375653 0.521630 9.959352 0.000000 0.986843 -0.161683 1.000000 1.000000 102 96 87 255
12.375653 0.202144 8.009352 0.000000 0.986843 -0.161683 1.000000 1.000000 102 96 87 255
6.188670 0.521630 9.959352 0.000000 0.986843 -0.161683 0.000000 1.000000 102 96 87 255
0.001689 0.202144 8.009352 0.000000 0.986843 -0.161683 0.000000 1.000000 102 96 87 255
0.001689 0.521630 9.959352 0.000000 0.986843 -0.161683 0.000000 1.000000 102 96 87 255
16.410511 -0.335215 -0.011304 -0.609574 -0.792204 0.028839 0.621405 0.000000 102 96 87 255
18.562635 0.202144 8.009352 0.000000 0.000000 -1.000000 1.000000 1.000000 102 96 87 255
18.562634 -0.278370 9.959352 0.000000 -0.995743 -0.092177 1.000000 1.000000 102 96 87 255
12.703984 -0.335215 -0.011304 -0.598384 -0.800679 0.029148 0.121406 0.000000 102 96 87 255
13.939493 -0.335215 -0.011304 -0.609574 -0.792204 0.028839 0.288072 0.000000 102 96 87 255
17.646019 -0.335215 -0.011304 -0.609574 -0.792204 0.028839 0.788072 0.000000 102 96 87 255
13.620599 0.202144 8.009352 0.258435 -0.965389 0.035144 0.211928 1.000000 102 96 87 255
14.856108 0.202144 8.009352 0.258434 -0.965389 0.035144 0.378594 1.000000 102 96 87 255
16.091618 0.202144 8.009352 0.258434 -0.965389 0.035144 0.545261 1.000000 102 96 87 255
17.327126 0.202144 8.009352 0.258435 -0.965389 0.035144 0.711928 1.000000 102 96 87 255
18.562635 0.202144 8.009352 0.258434 -0.965389 0.035144 0.878594 1.000000 102 96 87 255
15.175001 -0.335215 -0.011304 -0.609575 -0.792203 0.028839 0.454739 0.000000 102 96 87 255
18.562634 0.521630 9.959352 0.000000 0.000000 1.000000 1.000000 1.000000 102 96 87 255
22.597492 -0.335215 -0.011304 -0.609574 -0.792204 0.028839 0.621405 0.000000 102 96 87 255
24.749619 0.202144 8.009352 0.000000 0.000000 -1.000000 1.000000 1.000000 102 96 87 255
24.749619 -0.278370 9.959352 0.000000 -0.995743 -0.092177 1.000000 1.000000 102 96 87 255
18.890966 -0.335215 -0.011304 -0.598385 -0.800678 0.029148 0.121406 0.000000 102 96 87 255
20.126476 -0.335215 -0.011304 -0.609574 -0.792204 0.028839 0.288072 0.000000 102 96 87 255
23.833004 -0.335215 -0.011304 -0.609572 -0.792206 0.028839 0.788072 0.000000 102 96 87 255
19.807583 0.202144 8.009352 0.258434 -0.965389 0.035144 0.211928 1.000000 102 96 87 255
21.043091 0.202144 8.009352 0.258435 -0.965389 0.035144 0.378594 1.000000 102 96 87 255
22.278599 0.202144 8.009352 0.258435 -0.965389 0.035144 0.545261 1.000000 102 96 87 255
23.514109 0.202144 8.009352 0.258434 -0.965389 0.035144 0.711928 1.000000 102 96 87 255
24.749619 0.202144 8.009352 0.258434 -0.965389 0.035144 0.878594 1.000000 102 96 87 255
21.361984 -0.335215 -0.011304 -0.609574 -0.792204 0.028839 0.454739 0.000000 102 96 87 255
24.749619 0.521630 9.959352 0.000000 0.000000 1.000000 1.000000 1.000000 102 96 87 255
4.036546 -0.335215 -0.011304 -0.609574 -0.792204 0.028839 0.621405 0.000000 102 96 87 255
6.188671 0.202144 8.009352 0.000000 0.000000 -1.000000 1.000000 1.000000 102 96 87 255
6.188670 -0.278370 9.959352 0.000000 -0.995743 -0.092177 1.000000 1.000000 102 96 87 255
0.330020 -0.335215 -0.011304 -0.598385 -0.800678 0.029148 0.121406 0.000000 102 96 87 255
1.565528 -0.335215 -0.011304 -0.609575 -0.792203 0.028839 0.288072 0.000000 102 96 87 255
5.272056 -0.335215 -0.011304 -0.609573 -0.792205 0.028839 0.788072 0.000000 102 96 87 255
1.246634 0.202144 8.009352 0.258435 -0.965389 0.035144 0.211928 1.000000 102 96 87 255
2.482143 0.202144 8.009352 0.258434 -0.965389 0.035144 0.378594 1.000000 102 96 87 255
3.717652 0.202144 8.009352 0.258434 -0.965389 0.035144 0.545261 1.000000 102 96 87 255
4.953161 0.202144 8.009352 0.258434 -0.965389 0.035144 0.711928 1.000000 102 96 87 255
6.188671 0.202144 8.009352 0.258434 -0.965389 0.035144 0.878594 1.000000 102 96 87 255
2.801037 -0.335215 -0.011304 -0.609575 -0.792203 0.028839 0.454739 0.000000 102 96 87 255
6.188670 0.521630 9.959352 0.000000 0.000000 1.000000 1.000000 1.000000 102 96 87 255
10.223529 -0.335215 -0.011304 -0.609574 -0.792204 0.028839 0.621405 0.000000 102 96 87 255
12.375653 0.202144 8.009352 0.000000 0.000000 -1.000000 1.000000 1.000000 102 96 87 255
12.375653 -0.278370 9.959352 0.000000 -0.995743 -0.092177 1.000000 1.000000 102 96 87 255
6.517003 -0.335215 -0.011304 -0.598384 -0.800679 0.029148 0.121406 0.000000 102 96 87 255
7.752511 -0.335215 -0.011304 -0.609574 -0.792204 0.028839 0.288072 0.000000 102 96 87 255
11.459039 -0.335215 -0.011304 -0.609573 -0.792205 0.028839 0.788072 0.000000 102 96 87 255
7.433618 0.202144 8.009352 0.258435 -0.965389 0.035144 0.211928 1.000000 102 96 87 255
8.669127 0.202144 8.009352 0.258434 -0.965389 0.035144 0.378594 1.000000 102 96 87 255
9.904634 0.202144 8.009352 0.258435 -0.965389 0.035144 0.545261 1.000000 102 96 87 255
11.140144 0.202144 8.009352 0.258434 -0.965389 0.035144 0.711928 1.000000 102 96 87 255
12.375653 0.202144 8.009352 0.258434 -0.965389 0.035144 0.878594 1.000000 102 96 87 255
8.988020 -0.335215 -0.011304 -0.609574 -0.792204 0.028839 0.454739 0.000000 102 96 87 255
12.375653 0.521630 9.959352 0.000000 0.000000 1.000000 1.000000 1.000000 102 96 87 255
-0.304590 0.521630 9.959352 -1.000000 0.000000 0.000000 0.625000 0.250000 102 96 87 255
0.295410 0.521630 9.959352 0.000000 1.000000 0.000000 0.625000 0.500000 102 96 87 255
0.295410 -0.500000 9.959352 1.000000 0.000000 0.000000 0.625000 0.750000 102 96 87 255
-0.304590 -0.633627 9.959352 0.000000 0.000000 1.000000 0.875000 0.750000 102 96 87 255
0.295410 -0.500000 -0.011304 0.000000 0.000000 -1.000000 0.375000 0.750000 102 96 87 255
-0.304590 -0.500000 9.959352 0.000000 0.000000 1.000000 0.875000 0.750000 102 96 87 255
-0.304590 -0.500000 8.008294 0.000000 -1.000000 0.000000 0.576080 1.000000 102 96 87 255
0.295410 -0.500000 8.008294 1.000000 0.000000 0.000000 0.576080 0.750000 102 96 87 255
0.295410 0.521630 8.008294 0.000000 1.000000 0.000000 0.576080 0.500000 102 96 87 255
-0.304590 0.521630 8.008294 -1.000000 0.000000 0.000000 0.576080 0.250000 102 96 87 255
-0.304590 -0.633627 9.959352 0.000000 -1.000000 0.000000 0.625000 1.000000 102 96 87 255
0.295410 -0.633627 8.008294 0.000000 0.000000 -1.000000 0.576080 0.750000 102 96 87 255
-0.304590 -0.633627 8.008294 -1.000000 0.000000 0.000000 0.576080 0.000000 102 96 87 255
0.295410 -0.633627 9.959352 1.000000 0.000000 0.000000 0.625000 0.750000 102 96 87 255
24.749619 -0.097856 8.009352 1.000000 0.000000 0.000000 1.000000 1.000000 102 96 87 255
18.562634 0.521630 9.959352 0.000000 0.986843 -0.161683 0.000000 1.000000 102 96 87 255
18.562635 0.202144 8.009352 0.000000 0.986843 -0.161683 1.000000 1.000000 102 96 87 255
6.188670 0.521630 9.959352 0.000000 0.986843 -0.161683 0.000000 1.000000 102 96 87 255
6.188671 0.202144 8.009352 0.000000 0.986843 -0.161683 1.000000 1.000000 102 96 87 255
3 0 1 2
3 3 4 5
3 6 7 8
3 9 10 11
3 12 13 14
3 15 16 17
3 18 19 20
3 21 22 23
3 24 25 26
3 27 28 29
3 30 31 32
3 33 34 35
3 36 37 38
3 39 40 41
3 42 43 44
3 45 46 47
3 48 49 50
3 51 52 53
3 54 55 56
3 57 58 59
3 60 61 62
3 63 64 65
3 66 67 68
3 69 70 71
3 72 73 74
3 75 76 77
3 78 79 80
3 81 82 83
3 84 85 86
3 87 88 89
3 90 91 92
3 93 94 95
3 96 97 98
3 99 100 101
3 102 103 104
3 105 106 107
3 108 109 110
3 111 112 113
3 114 115 116
3 117 118 119
3 120 121 122
3 123 124 125
3 126 127 128
3 129 130 131
3 132 133 134
3 135 136 137
3 138 139 140
3 141 142 143
3 144 145 146
3 147 148 149
3 150 151 152
3 153 154 155
3 156 157 158
3 159 160 161
3 162 163 164
3 165 166 167
3 168 169 170
3 171 172 173
3 174 175 176
3 177 178 179
3 180 181 182
3 183 184 185
3 186 187 188
3 189 190 191
3 192 193 194
3 195 196 197
3 198 199 200
3 201 202 203
3 204 205 206
3 207 208 209
3 210 211 212
3 0 213 1
3 3 214 4
3 6 215 7
3 9 216 10
3 12 217 13
3 15 218 16
3 18 219 19
3 21 220 22
3 24 221 25
3 27 222 28
3 30 223 31
3 33 224 34
3 36 225 37
3 39 226 40
3 42 227 43
3 45 228 46
3 48 229 49
3 51 230 52
3 54 231 55
3 57 232 58
3 60 233 61
3 63 234 64
3 66 235 67
3 69 236 70
3 72 237 73
3 75 238 76
3 78 239 79
3 81 240 82
3 84 241 85
3 87 242 88
3 90 243 91
3 93 244 94
3 96 245 97
3 99 246 100
3 102 247 103
3 105 248 106
3 108 249 109
3 111 250 112
3 114 251 115
3 117 252 118
3 120 253 121
3 123 254 124
3 126 255 127
3 129 256 130
3 132 257 133
3 135 258 136
3 138 259 139
3 141 260 142
3 144 261 145
3 147 262 148
3 150 263 151
3 153 264 154
3 156 265 157
3 159 266 160
3 162 267 163
3 165 268 166
3 168 269 169
3 171 270 172
3 174 271 175
3 177 272 178
3 180 273 181
3 183 274 184
3 186 275 187
3 189 276 190
3 192 277 193
3 195 278 196
3 198 279 199
3 201 280 202
3 204 281 205
3 207 282 208
3 210 283 211
