ply
format ascii 1.0
comment Created by Blender 3.4.1 - www.blender.org
element vertex 460
property float x
property float y
property float z
property float nx
property float ny
property float nz
property float s
property float t
property uchar red
property uchar green
property uchar blue
property uchar alpha
element face 212
property list uchar uint vertex_indices
end_header
-2.249992 -25.000000 0.000000 0.000000 0.000000 1.000000 0.000000 1.000000 133 128 123 255
-1.750008 25.000000 0.000000 0.000000 0.000000 1.000000 0.000000 0.000000 133 128 123 255
-2.250008 25.000000 0.000000 0.000000 0.000000 1.000000 0.000000 0.000000 133 128 123 255
-12.500008 24.999996 0.000000 0.000000 0.000000 1.000000 1.000000 0.000000 133 128 123 255
-2.249992 -25.000000 0.000000 0.000000 0.000000 1.000000 0.000000 1.000000 133 128 123 255
-2.250008 25.000000 0.000000 0.000000 0.000000 1.000000 0.000000 0.000000 133 128 123 255
-1.750008 25.000000 -0.250000 0.000000 0.000000 -1.000000 0.000000 0.000000 133 128 123 255
-2.249992 -25.000000 -0.250000 0.000000 0.000000 -1.000000 0.000000 1.000000 133 128 123 255
-2.250008 25.000000 -0.250000 0.000000 0.000000 -1.000000 0.000000 0.000000 133 128 123 255
-2.250008 25.000000 -2.000000 -0.000000 1.000000 0.000000 0.000000 0.000000 102 94 92 255
-12.500008 24.999996 -0.250000 -0.000000 1.000000 0.000000 1.000000 0.000000 102 94 92 255
-2.250008 25.000000 -0.250000 -0.000000 1.000000 0.000000 0.000000 0.000000 102 94 92 255
-12.499990 -25.000004 -0.250000 0.000000 -1.000000 0.000000 1.000000 1.000000 133 128 123 255
-2.249992 -25.000000 0.000000 0.000000 -1.000000 0.000000 0.000000 1.000000 133 128 123 255
-12.499990 -25.000004 0.000000 0.000000 -1.000000 0.000000 1.000000 1.000000 133 128 123 255
-1.750008 25.000000 -0.250000 0.000000 1.000000 0.000000 0.000000 0.000000 133 128 123 255
-2.250008 25.000000 0.000000 0.000000 1.000000 0.000000 0.000000 0.000000 133 128 123 255
-1.750008 25.000000 0.000000 0.000000 1.000000 0.000000 0.000000 0.000000 133 128 123 255
-1.749992 -25.000000 -0.250000 1.000000 0.000000 0.000000 0.000000 1.000000 133 128 123 255
-1.750008 25.000000 0.000000 1.000000 0.000000 0.000000 0.000000 0.000000 133 128 123 255
-1.749992 -25.000000 0.000000 1.000000 0.000000 0.000000 0.000000 1.000000 133 128 123 255
-12.500008 24.999996 -0.250000 -1.000000 -0.000000 0.000000 1.000000 0.000000 133 128 123 255
-12.499990 -25.000004 0.000000 -1.000000 -0.000000 0.000000 1.000000 1.000000 133 128 123 255
-12.500008 24.999996 0.000000 -1.000000 -0.000000 0.000000 1.000000 0.000000 133 128 123 255
-2.249992 -25.000000 -0.250000 0.000000 -1.000000 0.000000 0.000000 1.000000 133 128 123 255
-1.749992 -25.000000 0.000000 0.000000 -1.000000 0.000000 0.000000 1.000000 133 128 123 255
-2.249992 -25.000000 0.000000 0.000000 -1.000000 0.000000 0.000000 1.000000 133 128 123 255
-2.250008 25.000000 -0.250000 -0.000000 1.000000 0.000000 0.000000 0.000000 133 128 123 255
-12.500008 24.999996 0.000000 -0.000000 1.000000 0.000000 1.000000 0.000000 133 128 123 255
-2.250008 25.000000 0.000000 -0.000000 1.000000 0.000000 0.000000 0.000000 133 128 123 255
-12.500008 24.999996 -2.000000 -1.000000 -0.000000 0.000000 1.000000 0.000000 102 94 92 255
-12.499990 -25.000004 -0.250000 -1.000000 -0.000000 0.000000 1.000000 1.000000 102 94 92 255
-12.500008 24.999996 -0.250000 -1.000000 -0.000000 0.000000 1.000000 0.000000 102 94 92 255
-2.249992 -25.000000 -2.000000 1.000000 0.000000 0.000000 0.000000 1.000000 102 94 92 255
-2.250008 25.000000 -0.250000 1.000000 0.000000 0.000000 0.000000 0.000000 102 94 92 255
-2.249992 -25.000000 -0.250000 1.000000 0.000000 0.000000 0.000000 1.000000 102 94 92 255
-2.249992 -25.000000 -2.000000 0.000000 0.000000 -1.000000 0.000000 1.000000 102 94 92 255
-12.500008 24.999996 -2.000000 0.000000 0.000000 -1.000000 1.000000 0.000000 102 94 92 255
-2.250008 25.000000 -2.000000 0.000000 0.000000 -1.000000 0.000000 0.000000 102 94 92 255
-12.499990 -25.000004 -2.000000 0.000000 -1.000000 0.000000 1.000000 1.000000 102 94 92 255
-2.249992 -25.000000 -0.250000 0.000000 -1.000000 0.000000 0.000000 1.000000 102 94 92 255
-12.499990 -25.000004 -0.250000 0.000000 -1.000000 0.000000 1.000000 1.000000 102 94 92 255
-3.001008 24.999998 0.010000 0.000000 0.000000 1.000000 1.000000 0.000000 241 240 234 255
-2.750992 -25.000000 0.010000 0.000000 0.000000 1.000000 0.000000 1.000000 241 240 234 255
-2.751008 25.000000 0.010000 0.000000 0.000000 1.000000 0.000000 0.000000 241 240 234 255
-2.574231 23.822222 0.005000 -0.000000 -0.000000 1.000000 0.000000 0.846464 241 240 234 255
-2.932709 23.817295 0.005000 -0.000000 -0.000000 1.000000 1.000000 1.000000 241 240 234 255
-2.755931 23.640520 0.005000 -0.000000 -0.000000 1.000000 0.000000 1.000000 241 240 234 255
-1.750008 24.646446 0.005000 -0.000000 -0.000000 1.000000 0.000000 0.150000 241 240 234 255
-1.750008 25.000000 0.005000 -0.000000 -0.000000 1.000000 1.000000 0.000000 241 240 234 255
-1.926785 24.823223 0.005000 -0.000000 -0.000000 1.000000 1.000000 0.150000 241 240 234 255
-1.750008 24.646446 0.005000 -0.000000 -0.000000 1.000000 0.000000 0.150000 241 240 234 255
-2.751008 23.998999 0.005000 -0.000000 -0.000000 1.000000 1.000000 0.846463 241 240 234 255
-2.574231 23.822222 0.005000 -0.000000 -0.000000 1.000000 0.000000 0.846464 241 240 234 255
-2.574230 22.432833 0.005000 -0.000000 -0.000000 1.000000 0.000000 0.846464 241 240 234 255
-2.932708 22.427906 0.005000 -0.000000 -0.000000 1.000000 1.000000 1.000000 241 240 234 255
-2.755931 22.251131 0.005000 -0.000000 -0.000000 1.000000 0.000000 1.000000 241 240 234 255
-1.750008 23.257057 0.005000 -0.000000 -0.000000 1.000000 0.000000 0.150000 241 240 234 255
-1.750008 23.610611 0.005000 -0.000000 -0.000000 1.000000 1.000000 0.000000 241 240 234 255
-1.926785 23.433834 0.005000 -0.000000 -0.000000 1.000000 1.000000 0.150000 241 240 234 255
-1.750008 23.257057 0.005000 -0.000000 -0.000000 1.000000 0.000000 0.150000 241 240 234 255
-2.751007 22.609610 0.005000 -0.000000 -0.000000 1.000000 1.000000 0.846463 241 240 234 255
-2.574230 22.432833 0.005000 -0.000000 -0.000000 1.000000 0.000000 0.846464 241 240 234 255
-2.574230 21.043446 0.005000 -0.000000 -0.000000 1.000000 0.000000 0.846464 241 240 234 255
-2.932708 21.038519 0.005000 -0.000000 -0.000000 1.000000 1.000000 1.000000 241 240 234 255
-2.755931 20.861744 0.005000 -0.000000 -0.000000 1.000000 0.000000 1.000000 241 240 234 255
-1.750007 21.867670 0.005000 -0.000000 -0.000000 1.000000 0.000000 0.150000 241 240 234 255
-1.750007 22.221224 0.005000 -0.000000 -0.000000 1.000000 1.000000 0.000000 241 240 234 255
-1.926784 22.044447 0.005000 -0.000000 -0.000000 1.000000 1.000000 0.150000 241 240 234 255
-1.750007 21.867670 0.005000 -0.000000 -0.000000 1.000000 0.000000 0.150000 241 240 234 255
-2.751007 21.220222 0.005000 -0.000000 -0.000000 1.000000 1.000000 0.846463 241 240 234 255
-2.574230 21.043446 0.005000 -0.000000 -0.000000 1.000000 0.000000 0.846464 241 240 234 255
-2.574229 19.654057 0.005000 -0.000000 -0.000000 1.000000 0.000000 0.846464 241 240 234 255
-2.932707 19.649130 0.005000 -0.000000 -0.000000 1.000000 1.000000 1.000000 241 240 234 255
-2.755930 19.472355 0.005000 -0.000000 -0.000000 1.000000 0.000000 1.000000 241 240 234 255
-1.750007 20.478281 0.005000 -0.000000 -0.000000 1.000000 0.000000 0.150000 241 240 234 255
-1.750007 20.831835 0.005000 -0.000000 -0.000000 1.000000 1.000000 0.000000 241 240 234 255
-1.926784 20.655058 0.005000 -0.000000 -0.000000 1.000000 1.000000 0.150000 241 240 234 255
-1.750007 20.478281 0.005000 -0.000000 -0.000000 1.000000 0.000000 0.150000 241 240 234 255
-2.751006 19.830833 0.005000 -0.000000 -0.000000 1.000000 1.000000 0.846463 241 240 234 255
-2.574229 19.654057 0.005000 -0.000000 -0.000000 1.000000 0.000000 0.846464 241 240 234 255
-2.574229 18.264668 0.005000 -0.000000 -0.000000 1.000000 0.000000 0.846464 241 240 234 255
-2.932707 18.259741 0.005000 -0.000000 -0.000000 1.000000 1.000000 1.000000 241 240 234 255
-2.755930 18.082966 0.005000 -0.000000 -0.000000 1.000000 0.000000 1.000000 241 240 234 255
-1.750006 19.088892 0.005000 -0.000000 -0.000000 1.000000 0.000000 0.150000 241 240 234 255
-1.750006 19.442446 0.005000 -0.000000 -0.000000 1.000000 1.000000 0.000000 241 240 234 255
-1.926783 19.265669 0.005000 -0.000000 -0.000000 1.000000 1.000000 0.150000 241 240 234 255
-1.750006 19.088892 0.005000 -0.000000 -0.000000 1.000000 0.000000 0.150000 241 240 234 255
-2.751006 18.441444 0.005000 -0.000000 -0.000000 1.000000 1.000000 0.846463 241 240 234 255
-2.574229 18.264668 0.005000 -0.000000 -0.000000 1.000000 0.000000 0.846464 241 240 234 255
-2.574229 16.875278 0.005000 -0.000000 -0.000000 1.000000 0.000000 0.846464 241 240 234 255
-2.932706 16.870352 0.005000 -0.000000 -0.000000 1.000000 1.000000 1.000000 241 240 234 255
-2.755929 16.693577 0.005000 -0.000000 -0.000000 1.000000 0.000000 1.000000 241 240 234 255
-1.750006 17.699505 0.005000 -0.000000 -0.000000 1.000000 0.000000 0.150000 241 240 234 255
-1.750006 18.053059 0.005000 -0.000000 -0.000000 1.000000 1.000000 0.000000 241 240 234 255
-1.926783 17.876282 0.005000 -0.000000 -0.000000 1.000000 1.000000 0.150000 241 240 234 255
-1.750006 17.699505 0.005000 -0.000000 -0.000000 1.000000 0.000000 0.150000 241 240 234 255
-2.751005 17.052055 0.005000 -0.000000 -0.000000 1.000000 1.000000 0.846463 241 240 234 255
-2.574229 16.875278 0.005000 -0.000000 -0.000000 1.000000 0.000000 0.846464 241 240 234 255
-2.574228 15.485890 0.005000 -0.000000 -0.000000 1.000000 0.000000 0.846464 241 240 234 255
-2.932706 15.480966 0.005000 -0.000000 -0.000000 1.000000 1.000000 1.000000 241 240 234 255
-2.755929 15.304189 0.005000 -0.000000 -0.000000 1.000000 0.000000 1.000000 241 240 234 255
-1.750005 16.310116 0.005000 -0.000000 -0.000000 1.000000 0.000000 0.150000 241 240 234 255
-1.750005 16.663670 0.005000 -0.000000 -0.000000 1.000000 1.000000 0.000000 241 240 234 255
-1.926782 16.486893 0.005000 -0.000000 -0.000000 1.000000 1.000000 0.150000 241 240 234 255
-1.750005 16.310116 0.005000 -0.000000 -0.000000 1.000000 0.000000 0.150000 241 240 234 255
-2.751005 15.662667 0.005000 -0.000000 -0.000000 1.000000 1.000000 0.846463 241 240 234 255
-2.574228 15.485890 0.005000 -0.000000 -0.000000 1.000000 0.000000 0.846464 241 240 234 255
-2.574228 14.096502 0.005000 -0.000000 -0.000000 1.000000 0.000000 0.846464 241 240 234 255
-2.932705 14.091578 0.005000 -0.000000 -0.000000 1.000000 1.000000 1.000000 241 240 234 255
-2.755928 13.914801 0.005000 -0.000000 -0.000000 1.000000 0.000000 1.000000 241 240 234 255
-1.750005 14.920727 0.005000 -0.000000 -0.000000 1.000000 0.000000 0.150000 241 240 234 255
-1.750005 15.274281 0.005000 -0.000000 -0.000000 1.000000 1.000000 0.000000 241 240 234 255
-1.926782 15.097504 0.005000 -0.000000 -0.000000 1.000000 1.000000 0.150000 241 240 234 255
-1.750005 14.920727 0.005000 -0.000000 -0.000000 1.000000 0.000000 0.150000 241 240 234 255
-2.751005 14.273279 0.005000 -0.000000 -0.000000 1.000000 1.000000 0.846463 241 240 234 255
-2.574228 14.096502 0.005000 -0.000000 -0.000000 1.000000 0.000000 0.846464 241 240 234 255
-2.574227 12.707114 0.005000 -0.000000 -0.000000 1.000000 0.000000 0.846464 241 240 234 255
-2.932705 12.702189 0.005000 -0.000000 -0.000000 1.000000 1.000000 1.000000 241 240 234 255
-2.755928 12.525413 0.005000 -0.000000 -0.000000 1.000000 0.000000 1.000000 241 240 234 255
-1.750004 13.531339 0.005000 -0.000000 -0.000000 1.000000 0.000000 0.150000 241 240 234 255
-1.750005 13.884892 0.005000 -0.000000 -0.000000 1.000000 1.000000 0.000000 241 240 234 255
-1.926781 13.708116 0.005000 -0.000000 -0.000000 1.000000 1.000000 0.150000 241 240 234 255
-1.750004 13.531339 0.005000 -0.000000 -0.000000 1.000000 0.000000 0.150000 241 240 234 255
-2.751004 12.883891 0.005000 -0.000000 -0.000000 1.000000 1.000000 0.846463 241 240 234 255
-2.574227 12.707114 0.005000 -0.000000 -0.000000 1.000000 0.000000 0.846464 241 240 234 255
-2.574227 11.317726 0.005000 -0.000000 -0.000000 1.000000 0.000000 0.846464 241 240 234 255
-2.932704 11.312801 0.005000 -0.000000 -0.000000 1.000000 1.000000 1.000000 241 240 234 255
-2.755927 11.136024 0.005000 -0.000000 -0.000000 1.000000 0.000000 1.000000 241 240 234 255
-1.750004 12.141951 0.005000 -0.000000 -0.000000 1.000000 0.000000 0.150000 241 240 234 255
-1.750004 12.495504 0.005000 -0.000000 -0.000000 1.000000 1.000000 0.000000 241 240 234 255
-1.926781 12.318727 0.005000 -0.000000 -0.000000 1.000000 1.000000 0.150000 241 240 234 255
-1.750004 12.141951 0.005000 -0.000000 -0.000000 1.000000 0.000000 0.150000 241 240 234 255
-2.751004 11.494503 0.005000 -0.000000 -0.000000 1.000000 1.000000 0.846463 241 240 234 255
-2.574227 11.317726 0.005000 -0.000000 -0.000000 1.000000 0.000000 0.846464 241 240 234 255
-2.574226 9.928338 0.005000 -0.000000 -0.000000 1.000000 0.000000 0.846464 241 240 234 255
-2.932704 9.923413 0.005000 -0.000000 -0.000000 1.000000 1.000000 1.000000 241 240 234 255
-2.755927 9.746636 0.005000 -0.000000 -0.000000 1.000000 0.000000 1.000000 241 240 234 255
-1.750003 10.752563 0.005000 -0.000000 -0.000000 1.000000 0.000000 0.150000 241 240 234 255
-1.750004 11.106116 0.005000 -0.000000 -0.000000 1.000000 1.000000 0.000000 241 240 234 255
-1.926780 10.929339 0.005000 -0.000000 -0.000000 1.000000 1.000000 0.150000 241 240 234 255
-1.750003 10.752563 0.005000 -0.000000 -0.000000 1.000000 0.000000 0.150000 241 240 234 255
-2.751003 10.105115 0.005000 -0.000000 -0.000000 1.000000 1.000000 0.846463 241 240 234 255
-2.574226 9.928338 0.005000 -0.000000 -0.000000 1.000000 0.000000 0.846464 241 240 234 255
-2.574226 8.538950 0.005000 -0.000000 -0.000000 1.000000 0.000000 0.846464 241 240 234 255
-2.932703 8.534025 0.005000 -0.000000 -0.000000 1.000000 1.000000 1.000000 241 240 234 255
-2.755926 8.357248 0.005000 -0.000000 -0.000000 1.000000 0.000000 1.000000 241 240 234 255
-1.750003 9.363174 0.005000 -0.000000 -0.000000 1.000000 0.000000 0.150000 241 240 234 255
-1.750003 9.716728 0.005000 -0.000000 -0.000000 1.000000 1.000000 0.000000 241 240 234 255
-1.926780 9.539951 0.005000 -0.000000 -0.000000 1.000000 1.000000 0.150000 241 240 234 255
-1.750003 9.363174 0.005000 -0.000000 -0.000000 1.000000 0.000000 0.150000 241 240 234 255
-2.751003 8.715727 0.005000 -0.000000 -0.000000 1.000000 1.000000 0.846463 241 240 234 255
-2.574226 8.538950 0.005000 -0.000000 -0.000000 1.000000 0.000000 0.846464 241 240 234 255
-2.574225 7.149562 0.005000 -0.000000 -0.000000 1.000000 0.000000 0.846464 241 240 234 255
-2.932703 7.144637 0.005000 -0.000000 -0.000000 1.000000 1.000000 1.000000 241 240 234 255
-2.755926 6.967860 0.005000 -0.000000 -0.000000 1.000000 0.000000 1.000000 241 240 234 255
-1.750003 7.973787 0.005000 -0.000000 -0.000000 1.000000 0.000000 0.150000 241 240 234 255
-1.750003 8.327340 0.005000 -0.000000 -0.000000 1.000000 1.000000 0.000000 241 240 234 255
-1.926780 8.150563 0.005000 -0.000000 -0.000000 1.000000 1.000000 0.150000 241 240 234 255
-1.750003 7.973787 0.005000 -0.000000 -0.000000 1.000000 0.000000 0.150000 241 240 234 255
-2.751002 7.326339 0.005000 -0.000000 -0.000000 1.000000 1.000000 0.846463 241 240 234 255
-2.574225 7.149562 0.005000 -0.000000 -0.000000 1.000000 0.000000 0.846464 241 240 234 255
-2.574225 5.760173 0.005000 -0.000000 -0.000000 1.000000 0.000000 0.846464 241 240 234 255
-2.932703 5.755248 0.005000 -0.000000 -0.000000 1.000000 1.000000 1.000000 241 240 234 255
-2.755926 5.578471 0.005000 -0.000000 -0.000000 1.000000 0.000000 1.000000 241 240 234 255
-1.750002 6.584398 0.005000 -0.000000 -0.000000 1.000000 0.000000 0.150000 241 240 234 255
-1.750002 6.937952 0.005000 -0.000000 -0.000000 1.000000 1.000000 0.000000 241 240 234 255
-1.926779 6.761175 0.005000 -0.000000 -0.000000 1.000000 1.000000 0.150000 241 240 234 255
-1.750002 6.584398 0.005000 -0.000000 -0.000000 1.000000 0.000000 0.150000 241 240 234 255
-2.751002 5.936950 0.005000 -0.000000 -0.000000 1.000000 1.000000 0.846463 241 240 234 255
-2.574225 5.760173 0.005000 -0.000000 -0.000000 1.000000 0.000000 0.846464 241 240 234 255
-2.574224 4.370784 0.005000 -0.000000 -0.000000 1.000000 0.000000 0.846464 241 240 234 255
-2.932702 4.365859 0.005000 -0.000000 -0.000000 1.000000 1.000000 1.000000 241 240 234 255
-2.755925 4.189082 0.005000 -0.000000 -0.000000 1.000000 0.000000 1.000000 241 240 234 255
-1.750002 5.195009 0.005000 -0.000000 -0.000000 1.000000 0.000000 0.150000 241 240 234 255
-1.750002 5.548563 0.005000 -0.000000 -0.000000 1.000000 1.000000 0.000000 241 240 234 255
-1.926779 5.371786 0.005000 -0.000000 -0.000000 1.000000 1.000000 0.150000 241 240 234 255
-1.750002 5.195009 0.005000 -0.000000 -0.000000 1.000000 0.000000 0.150000 241 240 234 255
-2.751001 4.547561 0.005000 -0.000000 -0.000000 1.000000 1.000000 0.846463 241 240 234 255
-2.574224 4.370784 0.005000 -0.000000 -0.000000 1.000000 0.000000 0.846464 241 240 234 255
-2.574224 2.981395 0.005000 -0.000000 -0.000000 1.000000 0.000000 0.846464 241 240 234 255
-2.932702 2.976470 0.005000 -0.000000 -0.000000 1.000000 1.000000 1.000000 241 240 234 255
-2.755925 2.799693 0.005000 -0.000000 -0.000000 1.000000 0.000000 1.000000 241 240 234 255
-1.750001 3.805620 0.005000 -0.000000 -0.000000 1.000000 0.000000 0.150000 241 240 234 255
-1.750001 4.159173 0.005000 -0.000000 -0.000000 1.000000 1.000000 0.000000 241 240 234 255
-1.926778 3.982396 0.005000 -0.000000 -0.000000 1.000000 1.000000 0.150000 241 240 234 255
-1.750001 3.805620 0.005000 -0.000000 -0.000000 1.000000 0.000000 0.150000 241 240 234 255
-2.751001 3.158172 0.005000 -0.000000 -0.000000 1.000000 1.000000 0.846463 241 240 234 255
-2.574224 2.981395 0.005000 -0.000000 -0.000000 1.000000 0.000000 0.846464 241 240 234 255
-2.574224 1.592006 0.005000 -0.000000 -0.000000 1.000000 0.000000 0.846464 241 240 234 255
-2.932701 1.587081 0.005000 -0.000000 -0.000000 1.000000 1.000000 1.000000 241 240 234 255
-2.755924 1.410304 0.005000 -0.000000 -0.000000 1.000000 0.000000 1.000000 241 240 234 255
-1.750001 2.416231 0.005000 -0.000000 -0.000000 1.000000 0.000000 0.150000 241 240 234 255
-1.750001 2.769784 0.005000 -0.000000 -0.000000 1.000000 1.000000 0.000000 241 240 234 255
-1.926778 2.593007 0.005000 -0.000000 -0.000000 1.000000 1.000000 0.150000 241 240 234 255
-1.750001 2.416231 0.005000 -0.000000 -0.000000 1.000000 0.000000 0.150000 241 240 234 255
-2.751000 1.768783 0.005000 -0.000000 -0.000000 1.000000 1.000000 0.846463 241 240 234 255
-2.574224 1.592006 0.005000 -0.000000 -0.000000 1.000000 0.000000 0.846464 241 240 234 255
-2.574223 0.202617 0.005000 -0.000000 -0.000000 1.000000 0.000000 0.846464 241 240 234 255
-2.932701 0.197692 0.005000 -0.000000 -0.000000 1.000000 1.000000 1.000000 241 240 234 255
-2.755924 0.020915 0.005000 -0.000000 -0.000000 1.000000 0.000000 1.000000 241 240 234 255
-1.750000 1.026842 0.005000 -0.000000 -0.000000 1.000000 0.000000 0.150000 241 240 234 255
-1.750000 1.380395 0.005000 -0.000000 -0.000000 1.000000 1.000000 0.000000 241 240 234 255
-1.926777 1.203618 0.005000 -0.000000 -0.000000 1.000000 1.000000 0.150000 241 240 234 255
-1.750000 1.026842 0.005000 -0.000000 -0.000000 1.000000 0.000000 0.150000 241 240 234 255
-2.751000 0.379394 0.005000 -0.000000 -0.000000 1.000000 1.000000 0.846463 241 240 234 255
-2.574223 0.202617 0.005000 -0.000000 -0.000000 1.000000 0.000000 0.846464 241 240 234 255
-2.574223 -1.186772 0.005000 -0.000000 -0.000000 1.000000 0.000000 0.846464 241 240 234 255
-2.932700 -1.191697 0.005000 -0.000000 -0.000000 1.000000 1.000000 1.000000 241 240 234 255
-2.755923 -1.368474 0.005000 -0.000000 -0.000000 1.000000 0.000000 1.000000 241 240 234 255
-1.750000 -0.362547 0.005000 -0.000000 -0.000000 1.000000 0.000000 0.150000 241 240 234 255
-1.750000 -0.008994 0.005000 -0.000000 -0.000000 1.000000 1.000000 0.000000 241 240 234 255
-1.926777 -0.185771 0.005000 -0.000000 -0.000000 1.000000 1.000000 0.150000 241 240 234 255
-1.750000 -0.362547 0.005000 -0.000000 -0.000000 1.000000 0.000000 0.150000 241 240 234 255
-2.751000 -1.009995 0.005000 -0.000000 -0.000000 1.000000 1.000000 0.846463 241 240 234 255
-2.574223 -1.186772 0.005000 -0.000000 -0.000000 1.000000 0.000000 0.846464 241 240 234 255
-2.574222 -2.576161 0.005000 -0.000000 -0.000000 1.000000 0.000000 0.846464 241 240 234 255
-2.932700 -2.581086 0.005000 -0.000000 -0.000000 1.000000 1.000000 1.000000 241 240 234 255
-2.755923 -2.757863 0.005000 -0.000000 -0.000000 1.000000 0.000000 1.000000 241 240 234 255
-1.749999 -1.751937 0.005000 -0.000000 -0.000000 1.000000 0.000000 0.150000 241 240 234 255
-1.750000 -1.398383 0.005000 -0.000000 -0.000000 1.000000 1.000000 0.000000 241 240 234 255
-1.926776 -1.575160 0.005000 -0.000000 -0.000000 1.000000 1.000000 0.150000 241 240 234 255
-1.749999 -1.751937 0.005000 -0.000000 -0.000000 1.000000 0.000000 0.150000 241 240 234 255
-2.750999 -2.399384 0.005000 -0.000000 -0.000000 1.000000 1.000000 0.846463 241 240 234 255
-2.574222 -2.576161 0.005000 -0.000000 -0.000000 1.000000 0.000000 0.846464 241 240 234 255
-2.574222 -3.965550 0.005000 -0.000000 -0.000000 1.000000 0.000000 0.846464 241 240 234 255
-2.932699 -3.970475 0.005000 -0.000000 -0.000000 1.000000 1.000000 1.000000 241 240 234 255
-2.755922 -4.147252 0.005000 -0.000000 -0.000000 1.000000 0.000000 1.000000 241 240 234 255
-1.749999 -3.141325 0.005000 -0.000000 -0.000000 1.000000 0.000000 0.150000 241 240 234 255
-1.749999 -2.787772 0.005000 -0.000000 -0.000000 1.000000 1.000000 0.000000 241 240 234 255
-1.926776 -2.964549 0.005000 -0.000000 -0.000000 1.000000 1.000000 0.150000 241 240 234 255
-1.749999 -3.141325 0.005000 -0.000000 -0.000000 1.000000 0.000000 0.150000 241 240 234 255
-2.750999 -3.788774 0.005000 -0.000000 -0.000000 1.000000 1.000000 0.846463 241 240 234 255
-2.574222 -3.965550 0.005000 -0.000000 -0.000000 1.000000 0.000000 0.846464 241 240 234 255
-2.574221 -5.354939 0.005000 -0.000000 -0.000000 1.000000 0.000000 0.846464 241 240 234 255
-2.932699 -5.359864 0.005000 -0.000000 -0.000000 1.000000 1.000000 1.000000 241 240 234 255
-2.755922 -5.536641 0.005000 -0.000000 -0.000000 1.000000 0.000000 1.000000 241 240 234 255
-1.749999 -4.530715 0.005000 -0.000000 -0.000000 1.000000 0.000000 0.150000 241 240 234 255
-1.749999 -4.177161 0.005000 -0.000000 -0.000000 1.000000 1.000000 0.000000 241 240 234 255
-1.926775 -4.353938 0.005000 -0.000000 -0.000000 1.000000 1.000000 0.150000 241 240 234 255
-1.749999 -4.530715 0.005000 -0.000000 -0.000000 1.000000 0.000000 0.150000 241 240 234 255
-2.750998 -5.178163 0.005000 -0.000000 -0.000000 1.000000 1.000000 0.846463 241 240 234 255
-2.574221 -5.354939 0.005000 -0.000000 -0.000000 1.000000 0.000000 0.846464 241 240 234 255
-2.574221 -6.744328 0.005000 -0.000000 -0.000000 1.000000 0.000000 0.846464 241 240 234 255
-2.932698 -6.749253 0.005000 -0.000000 -0.000000 1.000000 1.000000 1.000000 241 240 234 255
-2.755922 -6.926030 0.005000 -0.000000 -0.000000 1.000000 0.000000 1.000000 241 240 234 255
-1.749998 -5.920104 0.005000 -0.000000 -0.000000 1.000000 0.000000 0.150000 241 240 234 255
-1.749998 -5.566550 0.005000 -0.000000 -0.000000 1.000000 1.000000 0.000000 241 240 234 255
-1.926775 -5.743327 0.005000 -0.000000 -0.000000 1.000000 1.000000 0.150000 241 240 234 255
-1.749998 -5.920104 0.005000 -0.000000 -0.000000 1.000000 0.000000 0.150000 241 240 234 255
-2.750998 -6.567552 0.005000 -0.000000 -0.000000 1.000000 1.000000 0.846463 241 240 234 255
-2.574221 -6.744328 0.005000 -0.000000 -0.000000 1.000000 0.000000 0.846464 241 240 234 255
-2.574220 -8.133718 0.005000 -0.000000 -0.000000 1.000000 0.000000 0.846464 241 240 234 255
-2.932698 -8.138642 0.005000 -0.000000 -0.000000 1.000000 1.000000 1.000000 241 240 234 255
-2.755921 -8.315419 0.005000 -0.000000 -0.000000 1.000000 0.000000 1.000000 241 240 234 255
-1.749998 -7.309493 0.005000 -0.000000 -0.000000 1.000000 0.000000 0.150000 241 240 234 255
-1.749998 -6.955939 0.005000 -0.000000 -0.000000 1.000000 1.000000 0.000000 241 240 234 255
-1.926775 -7.132716 0.005000 -0.000000 -0.000000 1.000000 1.000000 0.150000 241 240 234 255
-1.749998 -7.309493 0.005000 -0.000000 -0.000000 1.000000 0.000000 0.150000 241 240 234 255
-2.750997 -7.956941 0.005000 -0.000000 -0.000000 1.000000 1.000000 0.846463 241 240 234 255
-2.574220 -8.133718 0.005000 -0.000000 -0.000000 1.000000 0.000000 0.846464 241 240 234 255
-2.574220 -9.523105 0.005000 -0.000000 -0.000000 1.000000 0.000000 0.846464 241 240 234 255
-2.932698 -9.528029 0.005000 -0.000000 -0.000000 1.000000 1.000000 1.000000 241 240 234 255
-2.755921 -9.704806 0.005000 -0.000000 -0.000000 1.000000 0.000000 1.000000 241 240 234 255
-1.749997 -8.698880 0.005000 -0.000000 -0.000000 1.000000 0.000000 0.150000 241 240 234 255
-1.749997 -8.345326 0.005000 -0.000000 -0.000000 1.000000 1.000000 0.000000 241 240 234 255
-1.926774 -8.522103 0.005000 -0.000000 -0.000000 1.000000 1.000000 0.150000 241 240 234 255
-1.749997 -8.698880 0.005000 -0.000000 -0.000000 1.000000 0.000000 0.150000 241 240 234 255
-2.750997 -9.346328 0.005000 -0.000000 -0.000000 1.000000 1.000000 0.846463 241 240 234 255
-2.574220 -9.523105 0.005000 -0.000000 -0.000000 1.000000 0.000000 0.846464 241 240 234 255
-2.574219 -10.912494 0.005000 -0.000000 -0.000000 1.000000 0.000000 0.846464 241 240 234 255
-2.932697 -10.917418 0.005000 -0.000000 -0.000000 1.000000 1.000000 1.000000 241 240 234 255
-2.755920 -11.094195 0.005000 -0.000000 -0.000000 1.000000 0.000000 1.000000 241 240 234 255
-1.749997 -10.088269 0.005000 -0.000000 -0.000000 1.000000 0.000000 0.150000 241 240 234 255
-1.749997 -9.734715 0.005000 -0.000000 -0.000000 1.000000 1.000000 0.000000 241 240 234 255
-1.926774 -9.911492 0.005000 -0.000000 -0.000000 1.000000 1.000000 0.150000 241 240 234 255
-1.749997 -10.088269 0.005000 -0.000000 -0.000000 1.000000 0.000000 0.150000 241 240 234 255
-2.750996 -10.735717 0.005000 -0.000000 -0.000000 1.000000 1.000000 0.846463 241 240 234 255
-2.574219 -10.912494 0.005000 -0.000000 -0.000000 1.000000 0.000000 0.846464 241 240 234 255
-2.574219 -12.301883 0.005000 -0.000000 -0.000000 1.000000 0.000000 0.846464 241 240 234 255
-2.932697 -12.306808 0.005000 -0.000000 -0.000000 1.000000 1.000000 1.000000 241 240 234 255
-2.755920 -12.483584 0.005000 -0.000000 -0.000000 1.000000 0.000000 1.000000 241 240 234 255
-1.749996 -11.477658 0.005000 -0.000000 -0.000000 1.000000 0.000000 0.150000 241 240 234 255
-1.749996 -11.124104 0.005000 -0.000000 -0.000000 1.000000 1.000000 0.000000 241 240 234 255
-1.926773 -11.300881 0.005000 -0.000000 -0.000000 1.000000 1.000000 0.150000 241 240 234 255
-1.749996 -11.477658 0.005000 -0.000000 -0.000000 1.000000 0.000000 0.150000 241 240 234 255
-2.750996 -12.125106 0.005000 -0.000000 -0.000000 1.000000 1.000000 0.846463 241 240 234 255
-2.574219 -12.301883 0.005000 -0.000000 -0.000000 1.000000 0.000000 0.846464 241 240 234 255
-2.574219 -13.691272 0.005000 -0.000000 -0.000000 1.000000 0.000000 0.846464 241 240 234 255
-2.932696 -13.696197 0.005000 -0.000000 -0.000000 1.000000 1.000000 1.000000 241 240 234 255
-2.755919 -13.872973 0.005000 -0.000000 -0.000000 1.000000 0.000000 1.000000 241 240 234 255
-1.749996 -12.867047 0.005000 -0.000000 -0.000000 1.000000 0.000000 0.150000 241 240 234 255
-1.749996 -12.513494 0.005000 -0.000000 -0.000000 1.000000 1.000000 0.000000 241 240 234 255
-1.926773 -12.690270 0.005000 -0.000000 -0.000000 1.000000 1.000000 0.150000 241 240 234 255
-1.749996 -12.867047 0.005000 -0.000000 -0.000000 1.000000 0.000000 0.150000 241 240 234 255
-2.750996 -13.514495 0.005000 -0.000000 -0.000000 1.000000 1.000000 0.846463 241 240 234 255
-2.574219 -13.691272 0.005000 -0.000000 -0.000000 1.000000 0.000000 0.846464 241 240 234 255
-2.574218 -15.080661 0.005000 -0.000000 -0.000000 1.000000 0.000000 0.846464 241 240 234 255
-2.932696 -15.085586 0.005000 -0.000000 -0.000000 1.000000 1.000000 1.000000 241 240 234 255
-2.755919 -15.262362 0.005000 -0.000000 -0.000000 1.000000 0.000000 1.000000 241 240 234 255
-1.749995 -14.256436 0.005000 -0.000000 -0.000000 1.000000 0.000000 0.150000 241 240 234 255
-1.749995 -13.902883 0.005000 -0.000000 -0.000000 1.000000 1.000000 0.000000 241 240 234 255
-1.926772 -14.079659 0.005000 -0.000000 -0.000000 1.000000 1.000000 0.150000 241 240 234 255
-1.749995 -14.256436 0.005000 -0.000000 -0.000000 1.000000 0.000000 0.150000 241 240 234 255
-2.750995 -14.903884 0.005000 -0.000000 -0.000000 1.000000 1.000000 0.846463 241 240 234 255
-2.574218 -15.080661 0.005000 -0.000000 -0.000000 1.000000 0.000000 0.846464 241 240 234 255
-2.574218 -16.470049 0.005000 -0.000000 -0.000000 1.000000 0.000000 0.846464 241 240 234 255
-2.932695 -16.474976 0.005000 -0.000000 -0.000000 1.000000 1.000000 1.000000 241 240 234 255
-2.755918 -16.651751 0.005000 -0.000000 -0.000000 1.000000 0.000000 1.000000 241 240 234 255
-1.749995 -15.645825 0.005000 -0.000000 -0.000000 1.000000 0.000000 0.150000 241 240 234 255
-1.749995 -15.292272 0.005000 -0.000000 -0.000000 1.000000 1.000000 0.000000 241 240 234 255
-1.926772 -15.469049 0.005000 -0.000000 -0.000000 1.000000 1.000000 0.150000 241 240 234 255
-1.926772 -15.469049 0.005000 -0.000000 -0.000000 1.000000 1.000000 0.150000 241 240 234 255
-2.574218 -16.470049 0.005000 -0.000000 -0.000000 1.000000 0.000000 0.846464 241 240 234 255
-1.749995 -15.645825 0.005000 -0.000000 -0.000000 1.000000 0.000000 0.150000 241 240 234 255
-2.574217 -17.859438 0.005000 -0.000000 -0.000000 1.000000 0.000000 0.846464 241 240 234 255
-2.932695 -17.864365 0.005000 -0.000000 -0.000000 1.000000 1.000000 1.000000 241 240 234 255
-2.755918 -18.041140 0.005000 -0.000000 -0.000000 1.000000 0.000000 1.000000 241 240 234 255
-1.749994 -17.035213 0.005000 -0.000000 -0.000000 1.000000 0.000000 0.150000 241 240 234 255
-1.749995 -16.681660 0.005000 -0.000000 -0.000000 1.000000 1.000000 0.000000 241 240 234 255
-1.926771 -16.858437 0.005000 -0.000000 -0.000000 1.000000 1.000000 0.150000 241 240 234 255
-1.749994 -17.035213 0.005000 -0.000000 -0.000000 1.000000 0.000000 0.150000 241 240 234 255
-2.750994 -17.682661 0.005000 -0.000000 -0.000000 1.000000 1.000000 0.846463 241 240 234 255
-2.574217 -17.859438 0.005000 -0.000000 -0.000000 1.000000 0.000000 0.846464 241 240 234 255
-2.574217 -19.248827 0.005000 -0.000000 -0.000000 1.000000 0.000000 0.846464 241 240 234 255
-2.932694 -19.253754 0.005000 -0.000000 -0.000000 1.000000 1.000000 1.000000 241 240 234 255
-2.755917 -19.430529 0.005000 -0.000000 -0.000000 1.000000 0.000000 1.000000 241 240 234 255
-1.749994 -18.424603 0.005000 -0.000000 -0.000000 1.000000 0.000000 0.150000 241 240 234 255
-1.749994 -18.071049 0.005000 -0.000000 -0.000000 1.000000 1.000000 0.000000 241 240 234 255
-1.926771 -18.247826 0.005000 -0.000000 -0.000000 1.000000 1.000000 0.150000 241 240 234 255
-1.749994 -18.424603 0.005000 -0.000000 -0.000000 1.000000 0.000000 0.150000 241 240 234 255
-2.750994 -19.072050 0.005000 -0.000000 -0.000000 1.000000 1.000000 0.846463 241 240 234 255
-2.574217 -19.248827 0.005000 -0.000000 -0.000000 1.000000 0.000000 0.846464 241 240 234 255
-2.574216 -20.638216 0.005000 -0.000000 -0.000000 1.000000 0.000000 0.846464 241 240 234 255
-2.932694 -20.643143 0.005000 -0.000000 -0.000000 1.000000 1.000000 1.000000 241 240 234 255
-2.755917 -20.819918 0.005000 -0.000000 -0.000000 1.000000 0.000000 1.000000 241 240 234 255
-1.749994 -19.813992 0.005000 -0.000000 -0.000000 1.000000 0.000000 0.150000 241 240 234 255
-1.749994 -19.460438 0.005000 -0.000000 -0.000000 1.000000 1.000000 0.000000 241 240 234 255
-1.926770 -19.637215 0.005000 -0.000000 -0.000000 1.000000 1.000000 0.150000 241 240 234 255
-1.749994 -19.813992 0.005000 -0.000000 -0.000000 1.000000 0.000000 0.150000 241 240 234 255
-2.750993 -20.461439 0.005000 -0.000000 -0.000000 1.000000 1.000000 0.846463 241 240 234 255
-2.574216 -20.638216 0.005000 -0.000000 -0.000000 1.000000 0.000000 0.846464 241 240 234 255
-2.574216 -22.027605 0.005000 -0.000000 -0.000000 1.000000 0.000000 0.846464 241 240 234 255
-2.932693 -22.032532 0.005000 -0.000000 -0.000000 1.000000 1.000000 1.000000 241 240 234 255
-2.755917 -22.209307 0.005000 -0.000000 -0.000000 1.000000 0.000000 1.000000 241 240 234 255
-1.749993 -21.203381 0.005000 -0.000000 -0.000000 1.000000 0.000000 0.150000 241 240 234 255
-1.749993 -20.849827 0.005000 -0.000000 -0.000000 1.000000 1.000000 0.000000 241 240 234 255
-1.926770 -21.026604 0.005000 -0.000000 -0.000000 1.000000 1.000000 0.150000 241 240 234 255
-1.749993 -21.203381 0.005000 -0.000000 -0.000000 1.000000 0.000000 0.150000 241 240 234 255
-2.750993 -21.850828 0.005000 -0.000000 -0.000000 1.000000 1.000000 0.846463 241 240 234 255
-2.574216 -22.027605 0.005000 -0.000000 -0.000000 1.000000 0.000000 0.846464 241 240 234 255
-2.574215 -23.416994 0.005000 -0.000000 -0.000000 1.000000 0.000000 0.846464 241 240 234 255
-2.932693 -23.421921 0.005000 -0.000000 -0.000000 1.000000 1.000000 1.000000 241 240 234 255
-2.755916 -23.598696 0.005000 -0.000000 -0.000000 1.000000 0.000000 1.000000 241 240 234 255
-1.749993 -22.592770 0.005000 -0.000000 -0.000000 1.000000 0.000000 0.150000 241 240 234 255
-1.749993 -22.239216 0.005000 -0.000000 -0.000000 1.000000 1.000000 0.000000 241 240 234 255
-1.926770 -22.415993 0.005000 -0.000000 -0.000000 1.000000 1.000000 0.150000 241 240 234 255
-1.749993 -22.592770 0.005000 -0.000000 -0.000000 1.000000 0.000000 0.150000 241 240 234 255
-2.750992 -23.240217 0.005000 -0.000000 -0.000000 1.000000 1.000000 0.846463 241 240 234 255
-2.574215 -23.416994 0.005000 -0.000000 -0.000000 1.000000 0.000000 0.846464 241 240 234 255
-2.574215 -24.806383 0.005000 -0.000000 -0.000000 1.000000 0.000000 0.846464 241 240 234 255
-2.932693 -24.811310 0.005000 -0.000000 -0.000000 1.000000 1.000000 1.000000 241 240 234 255
-2.755916 -24.988085 0.005000 -0.000000 -0.000000 1.000000 0.000000 1.000000 241 240 234 255
-1.749992 -23.982159 0.005000 -0.000000 -0.000000 1.000000 0.000000 0.150000 241 240 234 255
-1.749992 -23.628605 0.005000 -0.000000 -0.000000 1.000000 1.000000 0.000000 241 240 234 255
-1.926769 -23.805382 0.005000 -0.000000 -0.000000 1.000000 1.000000 0.150000 241 240 234 255
-1.749992 -23.982159 0.005000 -0.000000 -0.000000 1.000000 0.000000 0.150000 241 240 234 255
-2.750992 -24.629606 0.005000 -0.000000 -0.000000 1.000000 1.000000 0.846463 241 240 234 255
-2.574215 -24.806383 0.005000 -0.000000 -0.000000 1.000000 0.000000 0.846464 241 240 234 255
-2.000008 25.000000 0.010000 0.000000 0.000000 1.000000 1.000000 0.000000 241 240 234 255
-1.749992 -25.000000 0.010000 0.000000 0.000000 1.000000 0.000000 1.000000 241 240 234 255
-1.750008 25.000000 0.010000 0.000000 0.000000 1.000000 0.000000 0.000000 241 240 234 255
-1.749992 -25.000000 0.000000 0.000000 0.000000 1.000000 0.000000 1.000000 133 128 123 255
-12.499990 -25.000004 0.000000 0.000000 0.000000 1.000000 1.000000 1.000000 133 128 123 255
-1.749992 -25.000000 -0.250000 0.000000 0.000000 -1.000000 0.000000 1.000000 133 128 123 255
-12.500008 24.999996 -2.000000 -0.000000 1.000000 0.000000 1.000000 0.000000 102 94 92 255
-2.249992 -25.000000 -0.250000 0.000000 -1.000000 0.000000 0.000000 1.000000 133 128 123 255
-2.250008 25.000000 -0.250000 0.000000 1.000000 0.000000 0.000000 0.000000 133 128 123 255
-1.750008 25.000000 -0.250000 1.000000 0.000000 0.000000 0.000000 0.000000 133 128 123 255
-12.499990 -25.000004 -0.250000 -1.000000 -0.000000 0.000000 1.000000 1.000000 133 128 123 255
-1.749992 -25.000000 -0.250000 0.000000 -1.000000 0.000000 0.000000 1.000000 133 128 123 255
-12.500008 24.999996 -0.250000 -0.000000 1.000000 0.000000 1.000000 0.000000 133 128 123 255
-12.499990 -25.000004 -2.000000 -1.000000 -0.000000 0.000000 1.000000 1.000000 102 94 92 255
-2.250008 25.000000 -2.000000 1.000000 0.000000 0.000000 0.000000 0.000000 102 94 92 255
-12.499990 -25.000004 -2.000000 0.000000 0.000000 -1.000000 1.000000 1.000000 102 94 92 255
-2.249992 -25.000000 -2.000000 0.000000 -1.000000 0.000000 0.000000 1.000000 102 94 92 255
-3.000992 -25.000002 0.010000 0.000000 0.000000 1.000000 1.000000 1.000000 241 240 234 255
-2.751008 23.998999 0.005000 -0.000000 -0.000000 1.000000 1.000000 0.846463 241 240 234 255
-1.926785 24.823223 0.005000 -0.000000 -0.000000 1.000000 1.000000 0.150000 241 240 234 255
-2.751007 22.609610 0.005000 -0.000000 -0.000000 1.000000 1.000000 0.846463 241 240 234 255
-1.926785 23.433834 0.005000 -0.000000 -0.000000 1.000000 1.000000 0.150000 241 240 234 255
-2.751007 21.220222 0.005000 -0.000000 -0.000000 1.000000 1.000000 0.846463 241 240 234 255
-1.926784 22.044447 0.005000 -0.000000 -0.000000 1.000000 1.000000 0.150000 241 240 234 255
-2.751006 19.830833 0.005000 -0.000000 -0.000000 1.000000 1.000000 0.846463 241 240 234 255
-1.926784 20.655058 0.005000 -0.000000 -0.000000 1.000000 1.000000 0.150000 241 240 234 255
-2.751006 18.441444 0.005000 -0.000000 -0.000000 1.000000 1.000000 0.846463 241 240 234 255
-1.926783 19.265669 0.005000 -0.000000 -0.000000 1.000000 1.000000 0.150000 241 240 234 255
-2.751005 17.052055 0.005000 -0.000000 -0.000000 1.000000 1.000000 0.846463 241 240 234 255
-1.926783 17.876282 0.005000 -0.000000 -0.000000 1.000000 1.000000 0.150000 241 240 234 255
-2.751005 15.662667 0.005000 -0.000000 -0.000000 1.000000 1.000000 0.846463 241 240 234 255
-1.926782 16.486893 0.005000 -0.000000 -0.000000 1.000000 1.000000 0.150000 241 240 234 255
-2.751005 14.273279 0.005000 -0.000000 -0.000000 1.000000 1.000000 0.846463 241 240 234 255
-1.926782 15.097504 0.005000 -0.000000 -0.000000 1.000000 1.000000 0.150000 241 240 234 255
-2.751004 12.883891 0.005000 -0.000000 -0.000000 1.000000 1.000000 0.846463 241 240 234 255
-1.926781 13.708116 0.005000 -0.000000 -0.000000 1.000000 1.000000 0.150000 241 240 234 255
-2.751004 11.494503 0.005000 -0.000000 -0.000000 1.000000 1.000000 0.846463 241 240 234 255
-1.926781 12.318727 0.005000 -0.000000 -0.000000 1.000000 1.000000 0.150000 241 240 234 255
-2.751003 10.105115 0.005000 -0.000000 -0.000000 1.000000 1.000000 0.846463 241 240 234 255
-1.926780 10.929339 0.005000 -0.000000 -0.000000 1.000000 1.000000 0.150000 241 240 234 255
-2.751003 8.715727 0.005000 -0.000000 -0.000000 1.000000 1.000000 0.846463 241 240 234 255
-1.926780 9.539951 0.005000 -0.000000 -0.000000 1.000000 1.000000 0.150000 241 240 234 255
-2.751002 7.326339 0.005000 -0.000000 -0.000000 1.000000 1.000000 0.846463 241 240 234 255
-1.926780 8.150563 0.005000 -0.000000 -0.000000 1.000000 1.000000 0.150000 241 240 234 255
-2.751002 5.936950 0.005000 -0.000000 -0.000000 1.000000 1.000000 0.846463 241 240 234 255
-1.926779 6.761175 0.005000 -0.000000 -0.000000 1.000000 1.000000 0.150000 241 240 234 255
-2.751001 4.547561 0.005000 -0.000000 -0.000000 1.000000 1.000000 0.846463 241 240 234 255
-1.926779 5.371786 0.005000 -0.000000 -0.000000 1.000000 1.000000 0.150000 241 240 234 255
-2.751001 3.158172 0.005000 -0.000000 -0.000000 1.000000 1.000000 0.846463 241 240 234 255
-1.926778 3.982396 0.005000 -0.000000 -0.000000 1.000000 1.000000 0.150000 241 240 234 255
-2.751000 1.768783 0.005000 -0.000000 -0.000000 1.000000 1.000000 0.846463 241 240 234 255
-1.926778 2.593007 0.005000 -0.000000 -0.000000 1.000000 1.000000 0.150000 241 240 234 255
-2.751000 0.379394 0.005000 -0.000000 -0.000000 1.000000 1.000000 0.846463 241 240 234 255
-1.926777 1.203618 0.005000 -0.000000 -0.000000 1.000000 1.000000 0.150000 241 240 234 255
-2.751000 -1.009995 0.005000 -0.000000 -0.000000 1.000000 1.000000 0.846463 241 240 234 255
-1.926777 -0.185771 0.005000 -0.000000 -0.000000 1.000000 1.000000 0.150000 241 240 234 255
-2.750999 -2.399384 0.005000 -0.000000 -0.000000 1.000000 1.000000 0.846463 241 240 234 255
-1.926776 -1.575160 0.005000 -0.000000 -0.000000 1.000000 1.000000 0.150000 241 240 234 255
-2.750999 -3.788774 0.005000 -0.000000 -0.000000 1.000000 1.000000 0.846463 241 240 234 255
-1.926776 -2.964549 0.005000 -0.000000 -0.000000 1.000000 1.000000 0.150000 241 240 234 255
-2.750998 -5.178163 0.005000 -0.000000 -0.000000 1.000000 1.000000 0.846463 241 240 234 255
-1.926775 -4.353938 0.005000 -0.000000 -0.000000 1.000000 1.000000 0.150000 241 240 234 255
-2.750998 -6.567552 0.005000 -0.000000 -0.000000 1.000000 1.000000 0.846463 241 240 234 255
-1.926775 -5.743327 0.005000 -0.000000 -0.000000 1.000000 1.000000 0.150000 241 240 234 255
-2.750997 -7.956941 0.005000 -0.000000 -0.000000 1.000000 1.000000 0.846463 241 240 234 255
-1.926775 -7.132716 0.005000 -0.000000 -0.000000 1.000000 1.000000 0.150000 241 240 234 255
-2.750997 -9.346328 0.005000 -0.000000 -0.000000 1.000000 1.000000 0.846463 241 240 234 255
-1.926774 -8.522103 0.005000 -0.000000 -0.000000 1.000000 1.000000 0.150000 241 240 234 255
-2.750996 -10.735717 0.005000 -0.000000 -0.000000 1.000000 1.000000 0.846463 241 240 234 255
-1.926774 -9.911492 0.005000 -0.000000 -0.000000 1.000000 1.000000 0.150000 241 240 234 255
-2.750996 -12.125106 0.005000 -0.000000 -0.000000 1.000000 1.000000 0.846463 241 240 234 255
-1.926773 -11.300881 0.005000 -0.000000 -0.000000 1.000000 1.000000 0.150000 241 240 234 255
-2.750996 -13.514495 0.005000 -0.000000 -0.000000 1.000000 1.000000 0.846463 241 240 234 255
-1.926773 -12.690270 0.005000 -0.000000 -0.000000 1.000000 1.000000 0.150000 241 240 234 255
-2.750995 -14.903884 0.005000 -0.000000 -0.000000 1.000000 1.000000 0.846463 241 240 234 255
-1.926772 -14.079659 0.005000 -0.000000 -0.000000 1.000000 1.000000 0.150000 241 240 234 255
-2.750995 -16.293272 0.005000 -0.000000 -0.000000 1.000000 1.000000 0.846463 241 240 234 255
-2.750995 -16.293272 0.005000 -0.000000 -0.000000 1.000000 1.000000 0.846463 241 240 234 255
-2.750994 -17.682661 0.005000 -0.000000 -0.000000 1.000000 1.000000 0.846463 241 240 234 255
-1.926771 -16.858437 0.005000 -0.000000 -0.000000 1.000000 1.000000 0.150000 241 240 234 255
-2.750994 -19.072050 0.005000 -0.000000 -0.000000 1.000000 1.000000 0.846463 241 240 234 255
-1.926771 -18.247826 0.005000 -0.000000 -0.000000 1.000000 1.000000 0.150000 241 240 234 255
-2.750993 -20.461439 0.005000 -0.000000 -0.000000 1.000000 1.000000 0.846463 241 240 234 255
-1.926770 -19.637215 0.005000 -0.000000 -0.000000 1.000000 1.000000 0.150000 241 240 234 255
-2.750993 -21.850828 0.005000 -0.000000 -0.000000 1.000000 1.000000 0.846463 241 240 234 255
-1.926770 -21.026604 0.005000 -0.000000 -0.000000 1.000000 1.000000 0.150000 241 240 234 255
-2.750992 -23.240217 0.005000 -0.000000 -0.000000 1.000000 1.000000 0.846463 241 240 234 255
-1.926770 -22.415993 0.005000 -0.000000 -0.000000 1.000000 1.000000 0.150000 241 240 234 255
-2.750992 -24.629606 0.005000 -0.000000 -0.000000 1.000000 1.000000 0.846463 241 240 234 255
-1.926769 -23.805382 0.005000 -0.000000 -0.000000 1.000000 1.000000 0.150000 241 240 234 255
-1.999992 -25.000000 0.010000 0.000000 0.000000 1.000000 1.000000 1.000000 241 240 234 255
3 0 1 2
3 3 4 5
3 6 7 8
3 9 10 11
3 12 13 14
3 15 16 17
3 18 19 20
3 21 22 23
3 24 25 26
3 27 28 29
3 30 31 32
3 33 34 35
3 36 37 38
3 39 40 41
3 42 43 44
3 45 46 47
3 48 49 50
3 51 52 53
3 54 55 56
3 57 58 59
3 60 61 62
3 63 64 65
3 66 67 68
3 69 70 71
3 72 73 74
3 75 76 77
3 78 79 80
3 81 82 83
3 84 85 86
3 87 88 89
3 90 91 92
3 93 94 95
3 96 97 98
3 99 100 101
3 102 103 104
3 105 106 107
3 108 109 110
3 111 112 113
3 114 115 116
3 117 118 119
3 120 121 122
3 123 124 125
3 126 127 128
3 129 130 131
3 132 133 134
3 135 136 137
3 138 139 140
3 141 142 143
3 144 145 146
3 147 148 149
3 150 151 152
3 153 154 155
3 156 157 158
3 159 160 161
3 162 163 164
3 165 166 167
3 168 169 170
3 171 172 173
3 174 175 176
3 177 178 179
3 180 181 182
3 183 184 185
3 186 187 188
3 189 190 191
3 192 193 194
3 195 196 197
3 198 199 200
3 201 202 203
3 204 205 206
3 207 208 209
3 210 211 212
3 213 214 215
3 216 217 218
3 219 220 221
3 222 223 224
3 225 226 227
3 228 229 230
3 231 232 233
3 234 235 236
3 237 238 239
3 240 241 242
3 243 244 245
3 246 247 248
3 249 250 251
3 252 253 254
3 255 256 257
3 258 259 260
3 261 262 263
3 264 265 266
3 267 268 269
3 270 271 272
3 273 274 275
3 276 277 278
3 279 280 281
3 282 283 284
3 285 286 287
3 288 289 290
3 291 292 293
3 294 295 296
3 297 298 299
3 300 301 302
3 303 304 305
3 306 307 308
3 309 310 311
3 312 313 314
3 315 316 317
3 318 319 320
3 321 322 323
3 324 325 326
3 327 328 329
3 330 331 332
3 333 334 335
3 336 337 338
3 339 340 341
3 342 343 344
3 345 346 347
3 348 349 350
3 351 352 353
3 354 355 356
3 357 358 359
3 360 361 362
3 363 364 365
3 366 367 368
3 369 370 371
3 0 372 1
3 3 373 4
3 6 374 7
3 9 375 10
3 12 376 13
3 15 377 16
3 18 378 19
3 21 379 22
3 24 380 25
3 27 381 28
3 30 382 31
3 33 383 34
3 36 384 37
3 39 385 40
3 42 386 43
3 45 387 46
3 51 388 52
3 54 389 55
3 60 390 61
3 63 391 64
3 69 392 70
3 72 393 73
3 78 394 79
3 81 395 82
3 87 396 88
3 90 397 91
3 96 398 97
3 99 399 100
3 105 400 106
3 108 401 109
3 114 402 115
3 117 403 118
3 123 404 124
3 126 405 127
3 132 406 133
3 135 407 136
3 141 408 142
3 144 409 145
3 150 410 151
3 153 411 154
3 159 412 160
3 162 413 163
3 168 414 169
3 171 415 172
3 177 416 178
3 180 417 181
3 186 418 187
3 189 419 190
3 195 420 196
3 198 421 199
3 204 422 205
3 207 423 208
3 213 424 214
3 216 425 217
3 222 426 223
3 225 427 226
3 231 428 232
3 234 429 235
3 240 430 241
3 243 431 244
3 249 432 250
3 252 433 253
3 258 434 259
3 261 435 262
3 267 436 268
3 270 437 271
3 276 438 277
3 279 439 280
3 285 440 286
3 288 441 289
3 294 442 295
3 297 443 298
3 303 444 304
3 306 445 307
3 312 446 313
3 315 447 316
3 321 448 322
3 324 449 325
3 330 450 331
3 333 451 334
3 339 452 340
3 342 453 343
3 348 454 349
3 351 455 352
3 357 456 358
3 360 457 361
3 366 458 367
3 369 459 370
