ply
format ascii 1.0
comment Created by Blender 3.4.1 - www.blender.org
element vertex 60
property float x
property float y
property float z
property float nx
property float ny
property float nz
property float s
property float t
property uchar red
property uchar green
property uchar blue
property uchar alpha
element face 30
property list uchar uint vertex_indices
end_header
-2.249992 -25.000000 0.000000 0.000000 0.000000 1.000000 0.000000 1.000000 118 114 109 255
-1.750008 25.000000 0.000000 0.000000 0.000000 1.000000 0.000000 0.000000 118 114 109 255
-2.250008 25.000000 0.000000 0.000000 0.000000 1.000000 0.000000 0.000000 118 114 109 255
-12.500008 24.999996 0.000000 0.000000 0.000000 1.000000 1.000000 0.000000 118 114 109 255
-2.249992 -25.000000 0.000000 0.000000 0.000000 1.000000 0.000000 1.000000 118 114 109 255
-2.250008 25.000000 0.000000 0.000000 0.000000 1.000000 0.000000 0.000000 118 114 109 255
-1.750008 25.000000 -0.250000 0.000000 0.000000 -1.000000 0.000000 0.000000 118 114 109 255
-2.249992 -25.000000 -0.250000 0.000000 0.000000 -1.000000 0.000000 1.000000 118 114 109 255
-2.250008 25.000000 -0.250000 0.000000 0.000000 -1.000000 0.000000 0.000000 118 114 109 255
-2.250008 25.000000 -2.000000 -0.000000 1.000000 0.000000 0.000000 0.000000 102 94 92 255
-12.500008 24.999996 -0.250000 -0.000000 1.000000 0.000000 1.000000 0.000000 102 94 92 255
-2.250008 25.000000 -0.250000 -0.000000 1.000000 0.000000 0.000000 0.000000 102 94 92 255
-12.499990 -25.000004 -0.250000 0.000000 -1.000000 0.000000 1.000000 1.000000 118 114 109 255
-2.249992 -25.000000 0.000000 0.000000 -1.000000 0.000000 0.000000 1.000000 118 114 109 255
-12.499990 -25.000004 0.000000 0.000000 -1.000000 0.000000 1.000000 1.000000 118 114 109 255
-1.750008 25.000000 -0.250000 0.000000 1.000000 0.000000 0.000000 0.000000 118 114 109 255
-2.250008 25.000000 0.000000 0.000000 1.000000 0.000000 0.000000 0.000000 118 114 109 255
-1.750008 25.000000 0.000000 0.000000 1.000000 0.000000 0.000000 0.000000 118 114 109 255
-1.749992 -25.000000 -0.250000 1.000000 0.000000 0.000000 0.000000 1.000000 118 114 109 255
-1.750008 25.000000 0.000000 1.000000 0.000000 0.000000 0.000000 0.000000 118 114 109 255
-1.749992 -25.000000 0.000000 1.000000 0.000000 0.000000 0.000000 1.000000 118 114 109 255
-12.500008 24.999996 -0.250000 -1.000000 -0.000000 0.000000 1.000000 0.000000 118 114 109 255
-12.499990 -25.000004 0.000000 -1.000000 -0.000000 0.000000 1.000000 1.000000 118 114 109 255
-12.500008 24.999996 0.000000 -1.000000 -0.000000 0.000000 1.000000 0.000000 118 114 109 255
-2.249992 -25.000000 -0.250000 0.000000 -1.000000 0.000000 0.000000 1.000000 118 114 109 255
-1.749992 -25.000000 0.000000 0.000000 -1.000000 0.000000 0.000000 1.000000 118 114 109 255
-2.249992 -25.000000 0.000000 0.000000 -1.000000 0.000000 0.000000 1.000000 118 114 109 255
-2.250008 25.000000 -0.250000 -0.000000 1.000000 0.000000 0.000000 0.000000 118 114 109 255
-12.500008 24.999996 0.000000 -0.000000 1.000000 0.000000 1.000000 0.000000 118 114 109 255
-2.250008 25.000000 0.000000 -0.000000 1.000000 0.000000 0.000000 0.000000 118 114 109 255
-12.500008 24.999996 -2.000000 -1.000000 -0.000000 0.000000 1.000000 0.000000 102 94 92 255
-12.499990 -25.000004 -0.250000 -1.000000 -0.000000 0.000000 1.000000 1.000000 102 94 92 255
-12.500008 24.999996 -0.250000 -1.000000 -0.000000 0.000000 1.000000 0.000000 102 94 92 255
-2.249992 -25.000000 -2.000000 1.000000 0.000000 0.000000 0.000000 1.000000 102 94 92 255
-2.250008 25.000000 -0.250000 1.000000 0.000000 0.000000 0.000000 0.000000 102 94 92 255
-2.249992 -25.000000 -0.250000 1.000000 0.000000 0.000000 0.000000 1.000000 102 94 92 255
-2.249992 -25.000000 -2.000000 0.000000 0.000000 -1.000000 0.000000 1.000000 102 94 92 255
-12.500008 24.999996 -2.000000 0.000000 0.000000 -1.000000 1.000000 0.000000 102 94 92 255
-2.250008 25.000000 -2.000000 0.000000 0.000000 -1.000000 0.000000 0.000000 102 94 92 255
-12.499990 -25.000004 -2.000000 0.000000 -1.000000 0.000000 1.000000 1.000000 102 94 92 255
-2.249992 -25.000000 -0.250000 0.000000 -1.000000 0.000000 0.000000 1.000000 102 94 92 255
-12.499990 -25.000004 -0.250000 0.000000 -1.000000 0.000000 1.000000 1.000000 102 94 92 255
-2.750008 25.000000 0.010000 0.000000 0.000000 1.000000 1.000000 0.000000 241 240 234 255
-2.499992 -25.000000 0.010000 0.000000 0.000000 1.000000 0.000000 1.000000 241 240 234 255
-2.500008 25.000000 0.010000 0.000000 0.000000 1.000000 0.000000 0.000000 241 240 234 255
-1.749992 -25.000000 0.000000 0.000000 0.000000 1.000000 0.000000 1.000000 118 114 109 255
-12.499990 -25.000004 0.000000 0.000000 0.000000 1.000000 1.000000 1.000000 118 114 109 255
-1.749992 -25.000000 -0.250000 0.000000 0.000000 -1.000000 0.000000 1.000000 118 114 109 255
-12.500008 24.999996 -2.000000 -0.000000 1.000000 0.000000 1.000000 0.000000 102 94 92 255
-2.249992 -25.000000 -0.250000 0.000000 -1.000000 0.000000 0.000000 1.000000 118 114 109 255
-2.250008 25.000000 -0.250000 0.000000 1.000000 0.000000 0.000000 0.000000 118 114 109 255
-1.750008 25.000000 -0.250000 1.000000 0.000000 0.000000 0.000000 0.000000 118 114 109 255
-12.499990 -25.000004 -0.250000 -1.000000 -0.000000 0.000000 1.000000 1.000000 118 114 109 255
-1.749992 -25.000000 -0.250000 0.000000 -1.000000 0.000000 0.000000 1.000000 118 114 109 255
-12.500008 24.999996 -0.250000 -0.000000 1.000000 0.000000 1.000000 0.000000 118 114 109 255
-12.499990 -25.000004 -2.000000 -1.000000 -0.000000 0.000000 1.000000 1.000000 102 94 92 255
-2.250008 25.000000 -2.000000 1.000000 0.000000 0.000000 0.000000 0.000000 102 94 92 255
-12.499990 -25.000004 -2.000000 0.000000 0.000000 -1.000000 1.000000 1.000000 102 94 92 255
-2.249992 -25.000000 -2.000000 0.000000 -1.000000 0.000000 0.000000 1.000000 102 94 92 255
-2.749992 -25.000000 0.010000 0.000000 0.000000 1.000000 1.000000 1.000000 241 240 234 255
3 0 1 2
3 3 4 5
3 6 7 8
3 9 10 11
3 12 13 14
3 15 16 17
3 18 19 20
3 21 22 23
3 24 25 26
3 27 28 29
3 30 31 32
3 33 34 35
3 36 37 38
3 39 40 41
3 42 43 44
3 0 45 1
3 3 46 4
3 6 47 7
3 9 48 10
3 12 49 13
3 15 50 16
3 18 51 19
3 21 52 22
3 24 53 25
3 27 54 28
3 30 55 31
3 33 56 34
3 36 57 37
3 39 58 40
3 42 59 43
