ply
format ascii 1.0
comment Created by Blender 3.4.1 - www.blender.org
element vertex 16
property float x
property float y
property float z
property float nx
property float ny
property float nz
property uchar red
property uchar green
property uchar blue
property uchar alpha
element face 28
property list uchar uint vertex_indices
end_header
-2.249992 -25.000000 0.000000 0.000000 -0.707107 0.707106 133 128 123 255
-1.750008 25.000000 0.000000 0.577352 0.577350 0.577349 133 128 123 255
-2.250008 25.000000 0.000000 -0.000000 0.707107 0.707107 133 128 123 255
-12.500008 24.999996 0.000000 -0.577351 0.577350 0.577350 133 128 123 255
-1.750008 25.000000 -0.250000 0.577351 0.577351 -0.577349 133 128 123 255
-2.249992 -25.000000 -0.250000 0.301512 -0.904534 -0.301511 133 128 123 255
-2.250008 25.000000 -0.250000 0.301512 0.904534 -0.301511 133 128 123 255
-2.250008 25.000000 -2.000000 0.577350 0.577351 -0.577350 133 128 123 255
-12.500008 24.999996 -0.250000 -0.707107 0.707106 0.000000 133 128 123 255
-12.499990 -25.000004 -0.250000 -0.707107 -0.707107 0.000000 133 128 123 255
-12.499990 -25.000004 0.000000 -0.577351 -0.577350 0.577350 133 128 123 255
-1.749992 -25.000000 -0.250000 0.577351 -0.577350 -0.577350 133 128 123 255
-1.749992 -25.000000 0.000000 0.577350 -0.577350 0.577350 133 128 123 255
-12.500008 24.999996 -2.000000 -0.577351 0.577350 -0.577350 133 128 123 255
-2.249992 -25.000000 -2.000000 0.577351 -0.577350 -0.577350 133 128 123 255
-12.499990 -25.000004 -2.000000 -0.577350 -0.577350 -0.577350 133 128 123 255
3 0 1 2
3 3 0 2
3 4 5 6
3 7 8 6
3 9 0 10
3 4 2 1
3 11 1 12
3 8 10 3
3 5 12 0
3 6 3 2
3 13 9 8
3 14 6 5
3 14 13 7
3 15 5 9
3 0 12 1
3 3 10 0
3 4 11 5
3 7 13 8
3 9 5 0
3 4 6 2
3 11 4 1
3 8 9 10
3 5 11 12
3 6 8 3
3 13 15 9
3 14 7 6
3 14 15 13
3 15 14 5
