ply
format ascii 1.0
commentY29udmVydGVyIGJ5IENvZGVMZW9wYXJk
comment Original mesh name: 'C:\Program Files (x86)\Steam\steamapps\common\Stormworks NSO\rom\meshes\mainland\mega_island_0_9.mesh'
comment SubMesh index: 0
comment SubMesh name: ''
comment Shader: Opaque (0)
element vertex 126
property float x
property float y
property float z
property float nx
property float ny
property float nz
property uchar red
property uchar green
property uchar blue
property uchar alpha
element face 42
property list uchar ushort vertex_index
end_header
417.34842 -406.67688 -164.59558 0.5443034 -0.6547693 -0.52441496 77 77 62 255
388.33063 -453.35498 -136.43295 0.5443034 -0.6547693 -0.52441496 77 77 62 255
427.88562 -453.35562 -95.377045 0.5443034 -0.6547693 -0.52441496 77 77 62 255
500 -382.53458 -132.12123 0.2824007 -0.79027015 -0.5438042 77 77 62 255
500 -362.52304 -161.20253 0.2824007 -0.79027015 -0.5438042 77 77 62 255
474.03687 -370.44812 -163.1684 0.2824007 -0.79027015 -0.5438042 77 77 62 255
493.82407 -477.91122 -22.35089 0.47285673 -0.43664888 -0.7653393 77 77 62 255
500 -469.27853 -23.460354 0.47285673 -0.43664888 -0.7653393 77 77 62 255
500 -441.0606 -39.55953 0.47285673 -0.43664888 -0.7653393 77 77 62 255
493.82407 -477.91122 -22.35089 0.47285673 -0.43664888 -0.7653393 77 77 62 255
500 -441.0606 -39.55953 0.47285673 -0.43664888 -0.7653393 77 77 62 255
493.82437 -441.0606 -43.375072 0.47285673 -0.43664888 -0.7653393 77 77 62 255
427.88562 -453.35562 -95.377045 0.57469296 -0.63527817 -0.515897 77 77 62 255
467.44092 -453.35687 -51.31214 0.57469296 -0.63527817 -0.515897 77 77 62 255
417.34842 -406.67688 -164.59558 0.57469296 -0.6352782 -0.515897 77 77 62 255
500 -485.96793 -19.835854 0.13619071 -0.19858356 -0.9705754 77 77 62 255
500 -475.03625 -22.072517 0.13619071 -0.19858356 -0.9705754 77 77 62 255
493.82407 -477.91122 -22.35089 0.13619071 -0.19858356 -0.9705754 77 77 62 255
500 -469.27853 -23.460354 0.15114537 -0.23163688 -0.96098876 77 77 62 255
493.82407 -477.91122 -22.35089 0.15114537 -0.23163688 -0.96098876 77 77 62 255
500 -475.03625 -22.072517 0.15114537 -0.23163688 -0.96098876 77 77 62 255
500 -398.64444 -121.58746 0.16489595 -0.9007128 -0.4019027 77 77 62 255
493.82437 -391.9325 -139.16351 0.16489595 -0.9007128 -0.4019027 77 77 62 255
500 -403.45474 -110.80698 0.16489595 -0.9007128 -0.4019027 77 77 62 255
467.44092 -404.22998 -135.24 0.06647266 -0.6434431 -0.76260245 77 77 62 255
474.03687 -370.44812 -163.1684 0.066472664 -0.6434431 -0.7626024 77 77 62 255
441.07748 -367.37875 -168.63109 0.066472664 -0.6434431 -0.7626024 77 77 62 255
398.85803 -500 -123.77126 0.7575421 -0.07681642 -0.648251 77 77 62 255
402.8547 -500 -119.100746 0.7575421 -0.07681642 -0.648251 77 77 62 255
427.88562 -453.35562 -95.377045 0.7575421 -0.07681642 -0.648251 77 77 62 255
398.85803 -500 -123.77126 0.7575421 -0.07681642 -0.648251 77 77 62 255
427.88562 -453.35562 -95.377045 0.7575421 -0.07681642 -0.648251 77 77 62 255
375.15875 -477.91122 -154.08356 0.7575421 -0.07681642 -0.648251 77 77 62 255
493.82437 -441.0606 -43.375072 0.44164604 -0.4446022 -0.77928025 77 77 62 255
467.44092 -453.35687 -51.31214 0.44164604 -0.4446022 -0.77928025 77 77 62 255
493.82407 -477.91122 -22.35089 0.44164604 -0.44460213 -0.77928025 77 77 62 255
500 -406.73087 -96.61664 0.60792613 -0.57305104 -0.5495801 77 77 62 255
474.03687 -370.44812 -163.1684 0.60792613 -0.57305104 -0.5495801 77 77 62 255
467.44092 -404.22998 -135.24 0.60792613 -0.57305104 -0.5495801 77 77 62 255
500 -406.73087 -96.61664 0.60792613 -0.57305104 -0.5495801 77 77 62 255
467.44092 -404.22998 -135.24 0.60792613 -0.57305104 -0.5495801 77 77 62 255
500 -414.336 -88.68669 0.60792613 -0.57305104 -0.5495801 77 77 62 255
480.63248 -490.20624 -24.331444 0.7263607 -0.217383 -0.6520313 77 77 62 255
467.44092 -453.35687 -51.31214 0.72636074 -0.21738301 -0.6520313 77 77 62 255
427.88562 -453.35562 -95.377045 0.7263607 -0.21738298 -0.6520313 77 77 62 255
427.88562 -453.35562 -95.377045 0.7742367 -0.09742131 -0.6253533 77 77 62 255
402.8547 -500 -119.100746 0.7742367 -0.09742131 -0.6253533 77 77 62 255
417.52304 -500 -100.9402 0.7742367 -0.09742131 -0.6253533 77 77 62 255
427.88562 -453.35562 -95.377045 0.7742367 -0.09742131 -0.6253533 77 77 62 255
417.52304 -500 -100.9402 0.7742367 -0.09742131 -0.6253533 77 77 62 255
480.63248 -490.20624 -24.331444 0.7742367 -0.09742131 -0.6253533 77 77 62 255
398.85803 -500 -123.77126 0.30416563 -0.6408727 -0.7048158 77 77 62 255
375.15875 -477.91122 -154.08356 0.30416563 -0.6408727 -0.7048158 77 77 62 255
375.15875 -500 -133.99876 0.30416563 -0.6408727 -0.7048158 77 77 62 255
441.07748 -367.37875 -168.63109 0.482642 -0.372812 -0.79250735 77 77 62 255
417.34842 -406.67688 -164.59558 0.482642 -0.37281203 -0.79250735 77 77 62 255
467.44092 -404.22998 -135.24 0.482642 -0.37281203 -0.79250735 77 77 62 255
500 -398.64444 -121.58746 0.54323393 -0.7028286 -0.45927006 77 77 62 255
500 -391.9325 -131.85886 0.54323393 -0.7028286 -0.45927006 77 77 62 255
493.82437 -391.9325 -139.16351 0.54323393 -0.7028286 -0.45927006 77 77 62 255
500 -382.53458 -132.12123 0.76353204 -0.018022396 -0.64551836 77 77 62 255
474.03687 -370.44812 -163.1684 0.76353204 -0.018022396 -0.64551836 77 77 62 255
493.82437 -391.9325 -139.16351 0.76353204 -0.018022396 -0.64551836 77 77 62 255
500 -382.53458 -132.12123 0.76353204 -0.018022396 -0.64551836 77 77 62 255
493.82437 -391.9325 -139.16351 0.76353204 -0.018022396 -0.64551836 77 77 62 255
500 -391.9325 -131.85886 0.76353204 -0.018022396 -0.64551836 77 77 62 255
467.44092 -453.35687 -51.31214 0.3837745 -0.7815907 -0.49176538 77 77 62 255
454.26904 -416.50748 -120.1583 0.38377446 -0.7815906 -0.49176538 77 77 62 255
417.34842 -406.67688 -164.59558 0.38377446 -0.7815907 -0.49176538 77 77 62 255
467.44092 -453.35687 -51.31214 0.38669327 -0.7802508 -0.49160665 77 77 62 255
500 -423.02487 -73.842705 0.38669327 -0.7802508 -0.49160665 77 77 62 255
500 -416.50748 -84.18677 0.38669327 -0.7802508 -0.49160665 77 77 62 255
467.44092 -453.35687 -51.31214 0.38669327 -0.7802508 -0.49160665 77 77 62 255
500 -416.50748 -84.18677 0.38669327 -0.7802508 -0.49160665 77 77 62 255
454.26904 -416.50748 -120.1583 0.38669327 -0.7802508 -0.49160665 77 77 62 255
500 -500 -18.72965 0.29037455 -0.07520381 -0.9539534 77 77 62 255
500 -485.96793 -19.835854 0.29037455 -0.07520381 -0.9539534 77 77 62 255
493.82407 -477.91122 -22.35089 0.29037455 -0.07520381 -0.9539534 77 77 62 255
500 -500 -18.72965 0.29037455 -0.07520381 -0.9539534 77 77 62 255
493.82407 -477.91122 -22.35089 0.29037455 -0.07520381 -0.9539534 77 77 62 255
492.7147 -500 -20.94723 0.29037455 -0.07520381 -0.9539534 77 77 62 255
467.44092 -453.35687 -51.31214 0.48621616 -0.396209 -0.7788532 77 77 62 255
480.63248 -490.20624 -24.331444 0.4862162 -0.396209 -0.77885324 77 77 62 255
493.82407 -477.91122 -22.35089 0.48621616 -0.39620897 -0.7788532 77 77 62 255
500 -406.73087 -96.61664 -0.6174881 -0.76641995 -0.1769434 77 77 62 255
500 -403.45474 -110.80698 -0.6174881 -0.76641995 -0.1769434 77 77 62 255
493.82437 -391.9325 -139.16351 -0.6174881 -0.76641995 -0.1769434 77 77 62 255
500 -406.73087 -96.61664 -0.6174881 -0.76641995 -0.1769434 77 77 62 255
493.82437 -391.9325 -139.16351 -0.6174881 -0.76641995 -0.1769434 77 77 62 255
474.03687 -370.44812 -163.1684 -0.6174881 -0.76641995 -0.1769434 77 77 62 255
375.15875 -477.91122 -154.08356 0.7156404 0.111717165 -0.6894766 77 77 62 255
427.88562 -453.35562 -95.377045 0.7156404 0.11171717 -0.6894767 77 77 62 255
388.33063 -453.35498 -136.43295 0.7156404 0.11171717 -0.68947667 77 77 62 255
500 -441.0606 -39.55953 0.3605795 -0.7275833 -0.58361375 77 77 62 255
500 -440.10226 -40.75426 0.3605795 -0.7275833 -0.58361375 77 77 62 255
493.82437 -441.0606 -43.375072 0.3605795 -0.7275833 -0.58361375 77 77 62 255
500 -429.5486 -59.92995 0.4817114 -0.79343414 -0.37204367 77 77 62 255
500 -423.02487 -73.842705 0.4817114 -0.79343414 -0.37204367 77 77 62 255
467.44092 -453.35687 -51.31214 0.4817114 -0.79343414 -0.37204367 77 77 62 255
500 -429.5486 -59.92995 0.4817114 -0.79343414 -0.37204367 77 77 62 255
467.44092 -453.35687 -51.31214 0.4817114 -0.79343414 -0.37204367 77 77 62 255
493.82437 -441.0606 -43.375072 0.4817114 -0.79343414 -0.37204367 77 77 62 255
500 -429.5486 -59.92995 0.3223869 -0.8293045 -0.45642164 77 77 62 255
493.82437 -441.0606 -43.375072 0.3223869 -0.8293045 -0.45642164 77 77 62 255
500 -440.10226 -40.75426 0.3223869 -0.8293045 -0.45642164 77 77 62 255
500 -414.336 -88.68669 0.32347476 -0.8522023 -0.41123635 77 77 62 255
467.44092 -404.22998 -135.24 0.32347476 -0.8522023 -0.41123635 77 77 62 255
454.26904 -416.50748 -120.1583 0.32347476 -0.8522023 -0.41123635 77 77 62 255
500 -414.336 -88.68669 0.32347476 -0.8522023 -0.41123635 77 77 62 255
454.26904 -416.50748 -120.1583 0.32347476 -0.8522023 -0.41123635 77 77 62 255
500 -416.50748 -84.18677 0.32347476 -0.8522023 -0.41123635 77 77 62 255
417.34842 -406.67688 -164.59558 0.29597798 -0.8508354 -0.43413842 77 77 62 255
454.26904 -416.50748 -120.1583 0.295978 -0.8508354 -0.43413845 77 77 62 255
467.44092 -404.22998 -135.24 0.29597798 -0.8508354 -0.43413842 77 77 62 255
482.96716 -500 -23.08824 0.76161087 0.100287594 -0.64022756 77 77 62 255
480.63248 -490.20624 -24.331444 0.76161087 0.100287594 -0.64022756 77 77 62 255
417.52304 -500 -100.9402 0.76161087 0.100287594 -0.64022756 77 77 62 255
482.96716 -500 -23.08824 0.21396594 -0.0726488 -0.9741359 77 77 62 255
492.7147 -500 -20.94723 0.21396594 -0.0726488 -0.9741359 77 77 62 255
493.82407 -477.91122 -22.35089 0.21396594 -0.0726488 -0.9741359 77 77 62 255
482.96716 -500 -23.08824 0.21396594 -0.0726488 -0.9741359 77 77 62 255
493.82407 -477.91122 -22.35089 0.21396594 -0.0726488 -0.9741359 77 77 62 255
480.63248 -490.20624 -24.331444 0.21396594 -0.0726488 -0.9741359 77 77 62 255
375.15875 -500 -133.99876 0.4004797 -0.61644286 -0.67794853 77 77 62 255
375.15875 -477.91122 -154.08356 0.4004797 -0.61644286 -0.67794853 77 77 62 255
339.6007 -500 -155.00371 0.4004797 -0.61644286 -0.67794853 77 77 62 255
3 2 1 0
3 5 4 3
3 8 7 6
3 11 10 9
3 14 13 12
3 17 16 15
3 20 19 18
3 23 22 21
3 26 25 24
3 29 28 27
3 32 31 30
3 35 34 33
3 38 37 36
3 41 40 39
3 44 43 42
3 47 46 45
3 50 49 48
3 53 52 51
3 56 55 54
3 59 58 57
3 62 61 60
3 65 64 63
3 68 67 66
3 71 70 69
3 74 73 72
3 77 76 75
3 80 79 78
3 83 82 81
3 86 85 84
3 89 88 87
3 92 91 90
3 95 94 93
3 98 97 96
3 101 100 99
3 104 103 102
3 107 106 105
3 110 109 108
3 113 112 111
3 116 115 114
3 119 118 117
3 122 121 120
3 125 124 123

