ply
format ascii 1.0
commentY29udmVydGVyIGJ5IENvZGVMZW9wYXJk
comment Original mesh name: 'C:\Program Files (x86)\Steam\steamapps\common\Stormworks NSO\rom\meshes\mainland\mega_island_14_8.mesh'
comment SubMesh index: 0
comment SubMesh name: ''
comment Shader: Opaque (0)
element vertex 309
property float x
property float y
property float z
property float nx
property float ny
property float nz
property uchar red
property uchar green
property uchar blue
property uchar alpha
element face 103
property list uchar ushort vertex_index
end_header
-500 427.4865 3.1960936 -0.5955621 -0.46615797 -0.65421903 77 77 62 255
-500 412.5907 13.810044 -0.5955621 -0.46615797 -0.65421903 77 77 62 255
-492.09766 423.80377 -1.3736418 -0.5955621 -0.46615797 -0.65421903 77 77 62 255
-327.27148 343.96753 -126.156624 -0.5414719 0.5938485 -0.5951068 77 77 62 255
-360.24316 362.3825 -77.78089 -0.54147196 0.5938485 -0.5951068 77 77 62 255
-399.79492 350.10504 -54.044666 -0.5414719 0.5938486 -0.5951068 77 77 62 255
377.17188 -500 -137.15565 -0.22761452 -0.7595631 -0.60930747 77 77 62 255
378.15723 -491.28992 -148.38159 -0.22761452 -0.7595631 -0.60930747 77 77 62 255
364.79688 -500 -132.53262 -0.22761452 -0.7595631 -0.60930747 77 77 62 255
-412.96777 442.23004 -144.72334 -0.39790162 -0.44770527 -0.8007711 77 77 62 255
-419.5625 488.29532 -167.2011 -0.39790162 -0.4477052 -0.8007711 77 77 62 255
-452.54297 485.22687 -149.09785 -0.39790162 -0.44770527 -0.8007711 77 77 62 255
-500 436.07495 -11.589339 -0.56983525 -0.7105793 -0.41275287 77 77 62 255
-500 427.4865 3.1960936 -0.56983525 -0.7105793 -0.41275287 77 77 62 255
-492.09766 423.80377 -1.3736418 -0.56983525 -0.7105793 -0.41275287 77 77 62 255
-500 282.79102 -104.15545 -0.4552818 0.7041246 -0.54491013 77 77 62 255
-500 257.7798 -136.47505 -0.4552818 0.7041246 -0.54491013 77 77 62 255
-465.71484 276.40814 -141.04916 -0.4552818 0.7041246 -0.54491013 77 77 62 255
-492.09766 423.80377 -1.3736418 -0.5942107 -0.4674886 -0.65449834 77 77 62 255
-500 412.5907 13.810044 -0.5942107 -0.4674886 -0.65449834 77 77 62 255
-500 396.22406 25.500298 -0.5942107 -0.4674886 -0.65449834 77 77 62 255
-492.09766 423.80377 -1.3736418 -0.5942107 -0.4674886 -0.65449834 77 77 62 255
-500 396.22406 25.500298 -0.5942107 -0.4674886 -0.65449834 77 77 62 255
-452.54297 386.9544 -10.964712 -0.5942107 -0.4674886 -0.65449834 77 77 62 255
485.22656 -500 -50.142654 -0.11419171 -0.6165563 -0.7789856 77 77 62 255
500 -500 -52.3083 -0.11419171 -0.6165563 -0.7789856 77 77 62 255
500 -489.80566 -60.376953 -0.11419171 -0.6165563 -0.7789856 77 77 62 255
485.22656 -500 -50.142654 -0.11419171 -0.6165563 -0.7789856 77 77 62 255
500 -489.80566 -60.376953 -0.11419171 -0.6165563 -0.7789856 77 77 62 255
483.62988 -497.4287 -51.94367 -0.11419171 -0.6165563 -0.7789856 77 77 62 255
-500 364.83862 16.301912 -0.59394556 0.4658212 -0.6559263 77 77 62 255
-500 360.87262 13.485387 -0.59394556 0.4658212 -0.6559263 77 77 62 255
-419.5625 337.8294 -75.715576 -0.59394556 0.4658212 -0.6559263 77 77 62 255
-500 364.83862 16.301912 -0.59394556 0.4658212 -0.6559263 77 77 62 255
-419.5625 337.8294 -75.715576 -0.59394556 0.4658212 -0.6559263 77 77 62 255
-452.54297 386.9544 -10.964712 -0.59394556 0.4658212 -0.6559263 77 77 62 255
-419.5625 337.8294 -75.715576 -0.335268 0.8254121 -0.45419183 77 77 62 255
-452.54297 313.2556 -96.02932 -0.33526796 0.8254121 -0.45419177 77 77 62 255
-426.16016 313.2556 -115.50393 -0.33526793 0.8254121 -0.45419177 77 77 62 255
-441.1172 500 -166.83647 -0.33985364 -0.60338265 -0.72140753 77 77 62 255
-456.50488 500 -159.58752 -0.33985364 -0.60338265 -0.72140753 77 77 62 255
-452.54297 485.22687 -149.09785 -0.33985364 -0.60338265 -0.72140753 77 77 62 255
-441.1172 500 -166.83647 -0.33985364 -0.60338265 -0.72140753 77 77 62 255
-452.54297 485.22687 -149.09785 -0.33985364 -0.60338265 -0.72140753 77 77 62 255
-419.5625 488.29532 -167.2011 -0.33985364 -0.60338265 -0.72140753 77 77 62 255
-380.0078 264.1306 -154.4252 0.22265774 0.6894682 -0.6892439 77 77 62 255
-386.60254 300.98004 -119.69432 0.22265774 0.6894682 -0.6892439 77 77 62 255
-412.96777 276.40814 -152.79132 0.22265777 0.6894682 -0.689244 77 77 62 255
-399.79492 350.10504 -54.044666 -0.6034968 -0.32601544 -0.7276714 77 77 62 255
-386.60547 374.6775 -75.99294 -0.60349673 -0.32601544 -0.7276713 77 77 62 255
-412.96777 374.6775 -54.129116 -0.60349673 -0.32601544 -0.7276713 77 77 62 255
364.79688 -500 -132.53262 -0.2609115 -0.7361484 -0.6245085 77 77 62 255
378.15723 -491.28992 -148.38159 -0.2609115 -0.7361484 -0.6245085 77 77 62 255
285.8545 -460.57935 -146.01941 -0.2609115 -0.7361484 -0.6245085 77 77 62 255
364.79688 -500 -132.53262 -0.2609115 -0.7361484 -0.6245085 77 77 62 255
285.8545 -460.57935 -146.01941 -0.2609115 -0.7361484 -0.6245085 77 77 62 255
299.95508 -500 -105.44295 -0.2609115 -0.7361484 -0.6245085 77 77 62 255
-500 214.625 -159.52129 -0.3877036 0.41700304 -0.82206714 77 77 62 255
-467.91992 249.79468 -156.81044 -0.3877036 0.41700304 -0.82206714 77 77 62 255
-500 248.4961 -142.33977 -0.3877036 0.41700304 -0.82206714 77 77 62 255
-465.71484 276.40814 -141.04916 -0.37377504 0.4953692 -0.7841567 77 77 62 255
-500 257.7798 -136.47505 -0.37377504 0.4953692 -0.7841567 77 77 62 255
-500 248.4961 -142.33977 -0.37377504 0.4953692 -0.7841567 77 77 62 255
-465.71484 276.40814 -141.04916 -0.37377504 0.4953692 -0.7841567 77 77 62 255
-500 248.4961 -142.33977 -0.37377504 0.4953692 -0.7841567 77 77 62 255
-467.91992 249.79468 -156.81044 -0.37377504 0.4953692 -0.7841567 77 77 62 255
-493.5205 500 -120.40518 -0.73814416 -0.4410387 -0.5105174 77 77 62 255
-500 500 -111.03668 -0.73814416 -0.4410387 -0.5105174 77 77 62 255
-500 485.22675 -98.27378 -0.73814416 -0.4410387 -0.5105174 77 77 62 255
-493.5205 500 -120.40518 -0.73814416 -0.4410387 -0.5105174 77 77 62 255
-500 485.22675 -98.27378 -0.73814416 -0.4410387 -0.5105174 77 77 62 255
-492.09766 485.22687 -109.699776 -0.73814416 -0.4410387 -0.5105174 77 77 62 255
-452.54297 442.23004 -77.44286 -0.53491634 -0.7841329 -0.31464264 77 77 62 255
-412.96777 442.23004 -144.72334 -0.53491634 -0.7841329 -0.31464267 77 77 62 255
-478.90527 472.9319 -109.137924 -0.53491634 -0.7841329 -0.31464267 77 77 62 255
-500 467.53754 -60.36472 -0.521351 -0.7937555 -0.3132819 77 77 62 255
-465.71484 448.3775 -68.875305 -0.521351 -0.7937555 -0.3132819 77 77 62 255
-478.90527 472.9319 -109.137924 -0.521351 -0.7937555 -0.3132819 77 77 62 255
-500 467.53754 -60.36472 -0.521351 -0.7937555 -0.3132819 77 77 62 255
-478.90527 472.9319 -109.137924 -0.521351 -0.7937555 -0.3132819 77 77 62 255
-500 477.8487 -86.49023 -0.521351 -0.7937555 -0.3132819 77 77 62 255
-340.45312 307.1178 -150.64314 -0.5818835 0.5841463 -0.5658485 77 77 62 255
-327.27148 343.96753 -126.156624 -0.5818835 0.58414644 -0.5658485 77 77 62 255
-386.60547 337.82812 -71.479385 -0.5818835 0.5841464 -0.5658485 77 77 62 255
-426.16016 313.2556 -115.50393 0.19714907 0.8191623 -0.53861433 77 77 62 255
-386.60254 300.98004 -119.69432 0.19714907 0.8191623 -0.53861433 77 77 62 255
-419.5625 337.8294 -75.715576 0.19714907 0.8191622 -0.53861433 77 77 62 255
-386.60547 374.6775 -75.99294 -0.37161937 -0.8130931 -0.44808322 77 77 62 255
-399.79492 405.3806 -120.767746 -0.37161937 -0.8130931 -0.44808322 77 77 62 255
-412.96777 374.6775 -54.129116 -0.37161937 -0.8130931 -0.4480832 77 77 62 255
285.8545 -460.57935 -146.01941 0.10805966 0.39495304 -0.9123241 77 77 62 255
378.15723 -491.28992 -148.38159 0.10805965 0.39495304 -0.9123241 77 77 62 255
430.90234 -460.57935 -128.83936 0.10805964 0.394953 -0.9123241 77 77 62 255
482.25 -500 -49.97653 -0.044913933 -0.591687 -0.80491567 77 77 62 255
485.22656 -500 -50.142654 -0.044913933 -0.591687 -0.80491567 77 77 62 255
483.62988 -497.4287 -51.94367 -0.044913933 -0.591687 -0.80491567 77 77 62 255
-500 295.5675 -80.57379 -0.42552838 0.7649053 -0.4835758 77 77 62 255
-465.71484 276.40814 -141.04916 -0.42552838 0.7649053 -0.4835758 77 77 62 255
-478.90527 325.53314 -51.73805 -0.42552838 0.7649053 -0.4835758 77 77 62 255
-500 295.5675 -80.57379 -0.42552838 0.7649053 -0.4835758 77 77 62 255
-478.90527 325.53314 -51.73805 -0.42552838 0.7649053 -0.4835758 77 77 62 255
-500 320.6231 -40.941895 -0.42552838 0.7649053 -0.4835758 77 77 62 255
-500 396.22406 25.500298 -0.56367946 0.23230152 -0.79265463 77 77 62 255
-500 364.83862 16.301912 -0.56367946 0.23230152 -0.79265463 77 77 62 255
-452.54297 386.9544 -10.964712 -0.56367946 0.23230152 -0.79265463 77 77 62 255
277.97754 -500 -132.548 0.5009883 -0.5135752 -0.69659984 77 77 62 255
272.6621 -485.15125 -147.31859 0.5009883 -0.5135752 -0.69659984 77 77 62 255
256.72363 -500 -147.8342 0.5009883 -0.5135752 -0.69659984 77 77 62 255
-439.3506 288.6844 -137.5131 -0.41174024 0.72065294 -0.5577897 77 77 62 255
-426.16016 313.2556 -115.50393 -0.4117402 0.720653 -0.5577896 77 77 62 255
-452.54297 313.2556 -96.02932 -0.41174024 0.720653 -0.55778956 77 77 62 255
500 -447.58508 -122.190445 0.16348504 -0.7259616 -0.66802126 77 77 62 255
500 -422.98938 -148.91957 0.16348504 -0.7259616 -0.66802126 77 77 62 255
444.07422 -436.00623 -148.46037 0.16348504 -0.7259616 -0.66802126 77 77 62 255
-426.16016 411.52814 -84.50574 -0.69887966 -0.5870272 -0.40861517 77 77 62 255
-412.96777 374.6775 -54.129116 -0.6988796 -0.5870272 -0.40861517 77 77 62 255
-399.79492 405.3806 -120.767746 -0.6988796 -0.58702713 -0.40861517 77 77 62 255
-465.71484 423.80377 -26.4361 -0.7764599 -0.45889124 -0.43188995 77 77 62 255
-452.54297 386.9544 -10.964712 -0.7764599 -0.45889118 -0.43188992 77 77 62 255
-426.16016 411.52814 -84.50574 -0.7764599 -0.45889127 -0.43189 77 77 62 255
-500 320.6231 -40.941895 -0.4834608 0.5051417 -0.71491086 77 77 62 255
-478.90527 325.53314 -51.73805 -0.4834608 0.5051417 -0.71491086 77 77 62 255
-500 332.0852 -32.84317 -0.4834608 0.5051417 -0.71491086 77 77 62 255
-419.5625 488.29532 -167.2011 -0.4552541 -0.4422487 -0.77276117 77 77 62 255
-412.96777 442.23004 -144.72334 -0.45525414 -0.44224873 -0.77276117 77 77 62 255
-379.57324 436.495 -161.1151 -0.4552541 -0.44224867 -0.77276117 77 77 62 255
299.95508 -500 -105.44295 0.7204519 -0.3553174 -0.5955658 77 77 62 255
285.8545 -460.57935 -146.01941 0.7204519 -0.3553174 -0.5955658 77 77 62 255
272.6621 -485.15125 -147.31859 0.7204519 -0.3553174 -0.5955658 77 77 62 255
299.95508 -500 -105.44295 0.7204519 -0.3553174 -0.5955658 77 77 62 255
272.6621 -485.15125 -147.31859 0.7204519 -0.3553174 -0.5955658 77 77 62 255
284.6172 -500 -123.99709 0.7204519 -0.3553174 -0.5955658 77 77 62 255
385.34863 -500 -131.70932 0.36642373 -0.7504201 -0.550094 77 77 62 255
378.15723 -491.28992 -148.38159 0.36642373 -0.7504201 -0.550094 77 77 62 255
377.17188 -500 -137.15565 0.36642373 -0.7504201 -0.550094 77 77 62 255
385.34863 -500 -131.70932 0.5619134 -0.6085418 -0.56029475 77 77 62 255
435.5996 -500 -81.31341 0.5619134 -0.6085418 -0.56029475 77 77 62 255
430.90234 -460.57935 -128.83936 0.5619134 -0.6085418 -0.56029475 77 77 62 255
385.34863 -500 -131.70932 0.5619134 -0.6085418 -0.56029475 77 77 62 255
430.90234 -460.57935 -128.83936 0.5619134 -0.6085418 -0.56029475 77 77 62 255
378.15723 -491.28992 -148.38159 0.5619134 -0.6085418 -0.56029475 77 77 62 255
-477.41797 500 -134.58688 -0.56488335 -0.519178 -0.64137435 77 77 62 255
-493.5205 500 -120.40518 -0.56488335 -0.519178 -0.64137435 77 77 62 255
-492.09766 485.22687 -109.699776 -0.56488335 -0.519178 -0.64137435 77 77 62 255
-477.41797 500 -134.58688 -0.56488335 -0.519178 -0.64137435 77 77 62 255
-492.09766 485.22687 -109.699776 -0.56488335 -0.519178 -0.64137435 77 77 62 255
-465.71484 472.9319 -122.98335 -0.56488335 -0.519178 -0.64137435 77 77 62 255
-465.71484 472.9319 -122.98335 -0.5776966 -0.60281223 -0.55034894 77 77 62 255
-478.90527 472.9319 -109.137924 -0.5776966 -0.60281223 -0.550349 77 77 62 255
-412.96777 442.23004 -144.72334 -0.5776966 -0.6028123 -0.55034894 77 77 62 255
-419.5625 337.8294 -75.715576 0.6024308 0.32043067 -0.7310276 77 77 62 255
-399.79492 350.10504 -54.044666 0.6024308 0.32043067 -0.73102754 77 77 62 255
-412.96777 374.6775 -54.129116 0.6024308 0.32043064 -0.73102754 77 77 62 255
-366.8252 313.2556 -121.37366 -0.011950363 0.87467426 -0.48456383 77 77 62 255
-399.79492 350.10504 -54.044666 -0.011950364 0.87467426 -0.48456383 77 77 62 255
-419.5625 337.8294 -75.715576 -0.011950363 0.87467426 -0.4845639 77 77 62 255
-412.96777 442.23004 -144.72334 -0.4341832 -0.594939 -0.67641157 77 77 62 255
-399.79492 405.3806 -120.767746 -0.43418324 -0.594939 -0.6764115 77 77 62 255
-379.57324 436.495 -161.1151 -0.43418324 -0.594939 -0.67641157 77 77 62 255
-500 436.07495 -11.589339 -0.5171201 -0.7192579 -0.46395573 77 77 62 255
-492.09766 423.80377 -1.3736418 -0.5171201 -0.7192579 -0.46395573 77 77 62 255
-465.71484 448.3775 -68.875305 -0.5171201 -0.7192579 -0.46395573 77 77 62 255
-500 436.07495 -11.589339 -0.5171201 -0.7192579 -0.46395573 77 77 62 255
-465.71484 448.3775 -68.875305 -0.5171201 -0.7192579 -0.46395573 77 77 62 255
-500 467.53754 -60.36472 -0.5171201 -0.7192579 -0.46395573 77 77 62 255
-426.16016 411.52814 -84.50574 -0.74102664 -0.5472686 -0.38907158 77 77 62 255
-452.54297 442.23004 -77.44286 -0.74102664 -0.5472686 -0.38907152 77 77 62 255
-465.71484 423.80377 -26.4361 -0.74102664 -0.5472685 -0.3890715 77 77 62 255
-380.0078 264.1306 -154.4252 -0.4200766 0.58148086 -0.6967178 77 77 62 255
-366.8252 313.2556 -121.37366 -0.4200766 0.58148086 -0.6967178 77 77 62 255
-386.60254 300.98004 -119.69432 -0.4200766 0.5814809 -0.6967178 77 77 62 255
-419.5625 337.8294 -75.715576 -0.39592245 0.5358621 -0.7457192 77 77 62 255
-386.60254 300.98004 -119.69432 -0.39592245 0.5358621 -0.7457192 77 77 62 255
-366.8252 313.2556 -121.37366 -0.3959225 0.5358621 -0.7457193 77 77 62 255
-360.24316 362.3825 -77.78089 -0.2901124 -0.80778825 -0.51314026 77 77 62 255
-319.09766 397.27344 -155.9684 -0.29011238 -0.80778825 -0.51314026 77 77 62 255
-380.0078 393.09314 -114.95126 -0.29011235 -0.80778825 -0.5131402 77 77 62 255
-386.60547 374.6775 -75.99294 -0.30441085 -0.53844136 -0.7857576 77 77 62 255
-399.79492 350.10504 -54.044666 -0.30441085 -0.53844136 -0.7857576 77 77 62 255
-360.24316 362.3825 -77.78089 -0.30441085 -0.5384414 -0.7857576 77 77 62 255
-463.2871 500 -150.51872 -0.67449886 -0.5390706 -0.50443447 77 77 62 255
-452.54297 485.22687 -149.09785 -0.67449886 -0.5390706 -0.50443447 77 77 62 255
-456.50488 500 -159.58752 -0.67449886 -0.5390706 -0.50443447 77 77 62 255
-439.3506 288.6844 -137.5131 -0.20917326 0.5536391 -0.80605847 77 77 62 255
-467.91992 249.79468 -156.81044 -0.20917323 0.55363905 -0.80605847 77 77 62 255
-412.96777 276.40814 -152.79132 -0.20917326 0.55363905 -0.80605847 77 77 62 255
-412.96777 276.40814 -152.79132 0.15588145 0.7296145 -0.6658556 77 77 62 255
-386.60254 300.98004 -119.69432 0.15588145 0.72961444 -0.6658556 77 77 62 255
-426.16016 313.2556 -115.50393 0.15588146 0.7296145 -0.6658556 77 77 62 255
-426.16016 313.2556 -115.50393 -0.09302436 0.69155467 -0.716309 77 77 62 255
-439.3506 288.6844 -137.5131 -0.09302436 0.69155467 -0.716309 77 77 62 255
-412.96777 276.40814 -152.79132 -0.093024366 0.69155467 -0.716309 77 77 62 255
-500 357.47192 7.7990746 -0.30764914 0.8166035 -0.48837575 77 77 62 255
-452.54297 313.2556 -96.02932 -0.30764914 0.8166035 -0.48837575 77 77 62 255
-419.5625 337.8294 -75.715576 -0.30764914 0.8166035 -0.48837575 77 77 62 255
-500 357.47192 7.7990746 -0.30764914 0.8166035 -0.48837575 77 77 62 255
-419.5625 337.8294 -75.715576 -0.30764914 0.8166035 -0.48837575 77 77 62 255
-500 360.87262 13.485387 -0.30764914 0.8166035 -0.48837575 77 77 62 255
-478.90527 325.53314 -51.73805 -0.45679194 0.7492336 -0.4795729 77 77 62 255
-465.71484 276.40814 -141.04916 -0.4567919 0.7492336 -0.47957283 77 77 62 255
-452.54297 313.2556 -96.02932 -0.45679194 0.7492336 -0.4795729 77 77 62 255
-327.27148 343.96753 -126.156624 -0.84291184 -0.15833625 -0.51422673 77 77 62 255
-319.09766 397.27344 -155.9684 -0.84291184 -0.15833627 -0.5142268 77 77 62 255
-360.24316 362.3825 -77.78089 -0.84291184 -0.15833627 -0.5142268 77 77 62 255
-386.60547 337.82812 -71.479385 -0.4148754 0.74026287 -0.5290457 77 77 62 255
-366.8252 313.2556 -121.37366 -0.41487536 0.74026287 -0.52904564 77 77 62 255
-340.45312 307.1178 -150.64314 -0.4148754 0.74026287 -0.52904564 77 77 62 255
-366.8252 313.2556 -121.37366 -0.5522442 0.562304 -0.6155002 77 77 62 255
-380.0078 264.1306 -154.4252 -0.5522442 0.5623041 -0.6155003 77 77 62 255
-340.45312 307.1178 -150.64314 -0.5522442 0.562304 -0.6155002 77 77 62 255
-412.96777 374.6775 -54.129116 -0.66667664 -0.60150033 -0.44015858 77 77 62 255
-426.16016 411.52814 -84.50574 -0.66667664 -0.60150033 -0.4401586 77 77 62 255
-452.54297 386.9544 -10.964712 -0.66667664 -0.6015003 -0.44015858 77 77 62 255
-452.54297 386.9544 -10.964712 -0.56917655 0.4890677 -0.66094697 77 77 62 255
-419.5625 337.8294 -75.715576 -0.56917655 0.48906767 -0.66094697 77 77 62 255
-412.96777 374.6775 -54.129116 -0.56917655 0.48906767 -0.66094697 77 77 62 255
284.6172 -500 -123.99709 0.7506587 -0.3110694 -0.58287853 77 77 62 255
272.6621 -485.15125 -147.31859 0.7506587 -0.3110694 -0.58287853 77 77 62 255
277.97754 -500 -132.548 0.7506587 -0.3110694 -0.58287853 77 77 62 255
-492.09766 485.22687 -109.699776 -0.60875 -0.6724271 -0.42102876 77 77 62 255
-500 485.22675 -98.27378 -0.60875 -0.6724271 -0.42102876 77 77 62 255
-500 477.8487 -86.49023 -0.60875 -0.6724271 -0.42102876 77 77 62 255
-492.09766 485.22687 -109.699776 -0.60875 -0.6724271 -0.42102876 77 77 62 255
-500 477.8487 -86.49023 -0.60875 -0.6724271 -0.42102876 77 77 62 255
-478.90527 472.9319 -109.137924 -0.60875 -0.6724271 -0.42102876 77 77 62 255
-478.90527 472.9319 -109.137924 -0.5630604 -0.62867486 -0.53640556 77 77 62 255
-465.71484 472.9319 -122.98335 -0.5630604 -0.62867486 -0.53640556 77 77 62 255
-492.09766 485.22687 -109.699776 -0.5630604 -0.62867486 -0.53640556 77 77 62 255
-465.71484 423.80377 -26.4361 -0.58950037 -0.6990374 -0.40476653 77 77 62 255
-452.54297 442.23004 -77.44286 -0.58950037 -0.6990374 -0.40476653 77 77 62 255
-465.71484 448.3775 -68.875305 -0.58950037 -0.6990374 -0.4047666 77 77 62 255
500 -447.58508 -122.190445 0.09355771 -0.82213956 -0.5615457 77 77 62 255
444.07422 -436.00623 -148.46037 0.09355771 -0.82213956 -0.5615457 77 77 62 255
483.62988 -497.4287 -51.94367 0.09355771 -0.82213956 -0.5615457 77 77 62 255
500 -447.58508 -122.190445 0.09355771 -0.82213956 -0.5615457 77 77 62 255
483.62988 -497.4287 -51.94367 0.09355771 -0.82213956 -0.5615457 77 77 62 255
500 -489.80566 -60.376953 0.09355771 -0.82213956 -0.5615457 77 77 62 255
430.90234 -460.57935 -128.83936 0.40744188 -0.68270963 -0.6065466 77 77 62 255
435.5996 -500 -81.31341 0.40744188 -0.68270963 -0.6065466 77 77 62 255
482.25 -500 -49.97653 0.40744188 -0.68270963 -0.6065466 77 77 62 255
430.90234 -460.57935 -128.83936 0.40744188 -0.68270963 -0.6065466 77 77 62 255
482.25 -500 -49.97653 0.40744188 -0.68270963 -0.6065466 77 77 62 255
483.62988 -497.4287 -51.94367 0.40744188 -0.68270963 -0.6065466 77 77 62 255
-386.60547 374.6775 -75.99294 -0.37319034 -0.8127557 -0.44738913 77 77 62 255
-380.0078 393.09314 -114.95126 -0.37319034 -0.8127558 -0.44738913 77 77 62 255
-399.79492 405.3806 -120.767746 -0.37319037 -0.8127558 -0.44738913 77 77 62 255
-380.0078 393.09314 -114.95126 -0.40297166 -0.79917777 -0.4460142 77 77 62 255
-386.60547 374.6775 -75.99294 -0.40297166 -0.79917777 -0.4460142 77 77 62 255
-360.24316 362.3825 -77.78089 -0.40297168 -0.79917777 -0.4460142 77 77 62 255
-467.91992 249.79468 -156.81044 -0.12509005 0.51322126 -0.8490916 77 77 62 255
-439.3506 288.6844 -137.5131 -0.12509006 0.51322126 -0.8490916 77 77 62 255
-465.71484 276.40814 -141.04916 -0.12509005 0.51322126 -0.8490916 77 77 62 255
-452.54297 313.2556 -96.02932 -0.28909922 0.7805289 -0.554253 77 77 62 255
-465.71484 276.40814 -141.04916 -0.2890992 0.7805289 -0.55425304 77 77 62 255
-439.3506 288.6844 -137.5131 -0.2890992 0.7805289 -0.55425304 77 77 62 255
-500 282.79102 -104.15545 -0.32944828 0.8301586 -0.44977844 77 77 62 255
-465.71484 276.40814 -141.04916 -0.32944828 0.8301586 -0.44977844 77 77 62 255
-500 295.5675 -80.57379 -0.32944828 0.8301586 -0.44977844 77 77 62 255
-426.16016 411.52814 -84.50574 -0.731241 -0.5294159 -0.43012258 77 77 62 255
-412.96777 442.23004 -144.72334 -0.731241 -0.52941585 -0.43012258 77 77 62 255
-452.54297 442.23004 -77.44286 -0.731241 -0.5294159 -0.43012258 77 77 62 255
-412.96777 442.23004 -144.72334 -0.7217888 -0.53970003 -0.43329513 77 77 62 255
-426.16016 411.52814 -84.50574 -0.7217889 -0.5397001 -0.43329513 77 77 62 255
-399.79492 405.3806 -120.767746 -0.7217889 -0.53970015 -0.43329513 77 77 62 255
-380.0078 393.09314 -114.95126 -0.38155723 -0.6716494 -0.63506 77 77 62 255
-319.09766 397.27344 -155.9684 -0.38155723 -0.67164934 -0.63506 77 77 62 255
-379.57324 436.495 -161.1151 -0.38155726 -0.6716494 -0.6350601 77 77 62 255
-380.0078 393.09314 -114.95126 -0.24251266 -0.7056754 -0.6657401 77 77 62 255
-379.57324 436.495 -161.1151 -0.24251266 -0.7056753 -0.6657401 77 77 62 255
-399.79492 405.3806 -120.767746 -0.24251266 -0.7056753 -0.6657401 77 77 62 255
-386.60547 337.82812 -71.479385 -0.6676246 0.2687254 -0.69430834 77 77 62 255
-327.27148 343.96753 -126.156624 -0.6676246 0.26872537 -0.6943084 77 77 62 255
-399.79492 350.10504 -54.044666 -0.66762465 0.2687254 -0.6943084 77 77 62 255
-399.79492 350.10504 -54.044666 0.49453053 0.8413036 -0.21828395 77 77 62 255
-366.8252 313.2556 -121.37366 0.49453053 0.8413036 -0.21828392 77 77 62 255
-386.60547 337.82812 -71.479385 0.49453047 0.8413036 -0.21828392 77 77 62 255
-452.54297 485.22687 -149.09785 -0.5762214 -0.58810467 -0.5675401 77 77 62 255
-465.71484 472.9319 -122.98335 -0.5762214 -0.58810467 -0.5675401 77 77 62 255
-412.96777 442.23004 -144.72334 -0.57622147 -0.58810467 -0.56754017 77 77 62 255
-463.2871 500 -150.51872 -0.63925856 -0.51946014 -0.5670183 77 77 62 255
-477.41797 500 -134.58688 -0.63925856 -0.51946014 -0.5670183 77 77 62 255
-465.71484 472.9319 -122.98335 -0.63925856 -0.51946014 -0.5670183 77 77 62 255
-463.2871 500 -150.51872 -0.63925856 -0.51946014 -0.5670183 77 77 62 255
-465.71484 472.9319 -122.98335 -0.63925856 -0.51946014 -0.5670183 77 77 62 255
-452.54297 485.22687 -149.09785 -0.63925856 -0.51946014 -0.5670183 77 77 62 255
-500 357.47192 7.7990746 -0.6212902 0.57730705 -0.5298255 77 77 62 255
-500 355.01617 5.123317 -0.6212902 0.57730705 -0.5298255 77 77 62 255
-478.90527 325.53314 -51.73805 -0.6212902 0.57730705 -0.5298255 77 77 62 255
-500 357.47192 7.7990746 -0.6212902 0.57730705 -0.5298255 77 77 62 255
-478.90527 325.53314 -51.73805 -0.6212902 0.57730705 -0.5298255 77 77 62 255
-452.54297 313.2556 -96.02932 -0.6212902 0.57730705 -0.5298255 77 77 62 255
-500 332.0852 -32.84317 -0.19348565 0.8398113 -0.50722814 77 77 62 255
-478.90527 325.53314 -51.73805 -0.19348565 0.8398113 -0.50722814 77 77 62 255
-500 355.01617 5.123317 -0.19348565 0.8398113 -0.50722814 77 77 62 255
-492.09766 423.80377 -1.3736418 -0.60332835 -0.48232323 -0.63510567 77 77 62 255
-452.54297 386.9544 -10.964712 -0.60332835 -0.48232326 -0.63510567 77 77 62 255
-465.71484 423.80377 -26.4361 -0.60332835 -0.48232326 -0.63510567 77 77 62 255
-465.71484 423.80377 -26.4361 -0.4298085 -0.7813814 -0.45244652 77 77 62 255
-465.71484 448.3775 -68.875305 -0.4298085 -0.7813813 -0.4524465 77 77 62 255
-492.09766 423.80377 -1.3736418 -0.4298085 -0.7813813 -0.4524465 77 77 62 255
-478.90527 472.9319 -109.137924 -0.55432487 -0.77887046 -0.2934019 77 77 62 255
-465.71484 448.3775 -68.875305 -0.55432487 -0.77887046 -0.2934019 77 77 62 255
-452.54297 442.23004 -77.44286 -0.5543249 -0.77887046 -0.29340193 77 77 62 255
285.8545 -460.57935 -146.01941 0.08935658 -0.6502836 -0.7544181 77 77 62 255
430.90234 -460.57935 -128.83936 0.08935658 -0.65028363 -0.754418 77 77 62 255
444.07422 -436.00623 -148.46037 0.08935658 -0.65028363 -0.7544181 77 77 62 255
483.62988 -497.4287 -51.94367 0.39492363 -0.6931553 -0.6029686 77 77 62 255
444.07422 -436.00623 -148.46037 0.39492366 -0.69315535 -0.60296845 77 77 62 255
430.90234 -460.57935 -128.83936 0.39492366 -0.69315535 -0.6029685 77 77 62 255
3 2 1 0
3 5 4 3
3 8 7 6
3 11 10 9
3 14 13 12
3 17 16 15
3 20 19 18
3 23 22 21
3 26 25 24
3 29 28 27
3 32 31 30
3 35 34 33
3 38 37 36
3 41 40 39
3 44 43 42
3 47 46 45
3 50 49 48
3 53 52 51
3 56 55 54
3 59 58 57
3 62 61 60
3 65 64 63
3 68 67 66
3 71 70 69
3 74 73 72
3 77 76 75
3 80 79 78
3 83 82 81
3 86 85 84
3 89 88 87
3 92 91 90
3 95 94 93
3 98 97 96
3 101 100 99
3 104 103 102
3 107 106 105
3 110 109 108
3 113 112 111
3 116 115 114
3 119 118 117
3 122 121 120
3 125 124 123
3 128 127 126
3 131 130 129
3 134 133 132
3 137 136 135
3 140 139 138
3 143 142 141
3 146 145 144
3 149 148 147
3 152 151 150
3 155 154 153
3 158 157 156
3 161 160 159
3 164 163 162
3 167 166 165
3 170 169 168
3 173 172 171
3 176 175 174
3 179 178 177
3 182 181 180
3 185 184 183
3 188 187 186
3 191 190 189
3 194 193 192
3 197 196 195
3 200 199 198
3 203 202 201
3 206 205 204
3 209 208 207
3 212 211 210
3 215 214 213
3 218 217 216
3 221 220 219
3 224 223 222
3 227 226 225
3 230 229 228
3 233 232 231
3 236 235 234
3 239 238 237
3 242 241 240
3 245 244 243
3 248 247 246
3 251 250 249
3 254 253 252
3 257 256 255
3 260 259 258
3 263 262 261
3 266 265 264
3 269 268 267
3 272 271 270
3 275 274 273
3 278 277 276
3 281 280 279
3 284 283 282
3 287 286 285
3 290 289 288
3 293 292 291
3 296 295 294
3 299 298 297
3 302 301 300
3 305 304 303
3 308 307 306

