ply
format ascii 1.0
commentY29udmVydGVyIGJ5IENvZGVMZW9wYXJk
comment Original mesh name: 'C:\Program Files (x86)\Steam\steamapps\common\Stormworks NSO\rom\meshes\mainland\mega_island_14_9.mesh'
comment SubMesh index: 0
comment SubMesh name: ''
comment Shader: Opaque (0)
element vertex 36
property float x
property float y
property float z
property float nx
property float ny
property float nz
property uchar red
property uchar green
property uchar blue
property uchar alpha
element face 12
property list uchar ushort vertex_index
end_header
-441.1172 -500 -166.83647 -0.33985364 -0.60338265 -0.72140753 77 77 62 255
-459.12793 -490.22 -166.53181 -0.33985364 -0.60338265 -0.72140753 77 77 62 255
-456.50488 -500 -159.58752 -0.33985364 -0.60338265 -0.72140753 77 77 62 255
-500 -452.13602 -151.98991 -0.80716294 -0.33632794 -0.48515108 77 77 62 255
-500 -454.09763 -150.63007 -0.80716294 -0.33632794 -0.48515108 77 77 62 255
-498.13574 -452.0847 -155.12718 -0.80716294 -0.33632794 -0.48515108 77 77 62 255
-493.5205 -500 -120.40518 -0.73814416 -0.4410387 -0.5105174 77 77 62 255
-498.13574 -452.0847 -155.12718 -0.73814416 -0.4410387 -0.5105174 77 77 62 255
-500 -455.57156 -149.41928 -0.73814416 -0.4410387 -0.5105174 77 77 62 255
-493.5205 -500 -120.40518 -0.73814416 -0.4410387 -0.5105174 77 77 62 255
-500 -455.57156 -149.41928 -0.73814416 -0.4410387 -0.5105174 77 77 62 255
-500 -500 -111.03668 -0.73814416 -0.4410387 -0.5105174 77 77 62 255
-500 -449.4237 -154.53514 -0.75178456 -0.41219202 -0.51470155 77 77 62 255
-500 -451.0023 -153.27104 -0.75178456 -0.41219202 -0.51470155 77 77 62 255
-498.13574 -452.0847 -155.12718 -0.75178456 -0.41219202 -0.51470155 77 77 62 255
-477.41797 -500 -134.58688 -0.56488335 -0.519178 -0.64137435 77 77 62 255
-498.13574 -452.0847 -155.12718 -0.56488335 -0.519178 -0.64137435 77 77 62 255
-493.5205 -500 -120.40518 -0.56488335 -0.519178 -0.64137435 77 77 62 255
-463.2871 -500 -150.51872 -0.67449886 -0.5390706 -0.50443447 77 77 62 255
-456.50488 -500 -159.58752 -0.67449886 -0.5390706 -0.50443447 77 77 62 255
-459.12793 -490.22 -166.53181 -0.67449886 -0.5390706 -0.50443447 77 77 62 255
-463.2871 -500 -150.51872 -0.67449886 -0.5390706 -0.50443447 77 77 62 255
-459.12793 -490.22 -166.53181 -0.67449886 -0.5390706 -0.50443447 77 77 62 255
-498.13574 -452.0847 -155.12718 -0.67449886 -0.5390706 -0.50443447 77 77 62 255
-500 -455.57156 -149.41928 -0.7625381 -0.41063702 -0.49991292 77 77 62 255
-498.13574 -452.0847 -155.12718 -0.7625381 -0.41063702 -0.49991292 77 77 62 255
-500 -454.09763 -150.63007 -0.7625381 -0.41063702 -0.49991292 77 77 62 255
-500 -447.5298 -155.76251 -0.72173446 -0.37641656 -0.58087003 77 77 62 255
-500 -449.4237 -154.53514 -0.72173446 -0.37641656 -0.58087003 77 77 62 255
-498.13574 -452.0847 -155.12718 -0.72173446 -0.37641656 -0.58087003 77 77 62 255
-463.2871 -500 -150.51872 -0.63925856 -0.51946014 -0.5670183 77 77 62 255
-498.13574 -452.0847 -155.12718 -0.63925856 -0.51946014 -0.5670183 77 77 62 255
-477.41797 -500 -134.58688 -0.63925856 -0.51946014 -0.5670183 77 77 62 255
-500 -452.13602 -151.98991 -0.7383033 -0.50507885 -0.446994 77 77 62 255
-498.13574 -452.0847 -155.12718 -0.7383033 -0.50507885 -0.446994 77 77 62 255
-500 -451.0023 -153.27104 -0.7383033 -0.50507885 -0.446994 77 77 62 255
3 2 1 0
3 5 4 3
3 8 7 6
3 11 10 9
3 14 13 12
3 17 16 15
3 20 19 18
3 23 22 21
3 26 25 24
3 29 28 27
3 32 31 30
3 35 34 33

