ply
format ascii 1.0
commentY29udmVydGVyIGJ5IENvZGVMZW9wYXJk
comment Original mesh name: 'C:\Program Files (x86)\Steam\steamapps\common\Stormworks NSO\rom\meshes\mainland\mega_island_15_0.mesh'
comment SubMesh index: 0
comment SubMesh name: ''
comment Shader: Opaque (0)
element vertex 561
property float x
property float y
property float z
property float nx
property float ny
property float nz
property uchar red
property uchar green
property uchar blue
property uchar alpha
element face 187
property list uchar ushort vertex_index
end_header
-500 11.051758 -11.731104 -0.35510978 0.016200028 -0.9346842 77 77 62 255
-441.85156 19.120117 -33.683346 -0.35510978 0.016200028 -0.9346842 77 77 62 255
-500 24.264648 -11.502137 -0.35510978 0.016200028 -0.9346842 77 77 62 255
-466.875 163.90918 -25.630947 -0.11989211 -0.47630492 -0.87106806 77 77 62 255
-404.8379 198.6123 -53.145874 -0.11989211 -0.47630492 -0.87106806 77 77 62 255
-445.95508 211.39648 -54.47677 -0.11989211 -0.47630492 -0.871068 77 77 62 255
-399.41797 -19.582031 -78.36156 -0.23077683 0.3007597 -0.9253571 77 77 62 255
-385.70898 18.708008 -69.335396 -0.23077683 0.3007597 -0.9253571 77 77 62 255
-413.10254 5.9316406 -66.65614 -0.23077683 0.30075964 -0.9253571 77 77 62 255
-442.24023 51.012695 -20.84908 -0.33407465 0.55681485 -0.7604942 77 77 62 255
-413.10254 5.9316406 -66.65614 -0.33407465 0.55681485 -0.76049423 77 77 62 255
-385.70898 18.708008 -69.335396 -0.33407465 0.55681485 -0.7604942 77 77 62 255
-440.51758 -45.11621 -71.00666 -0.5031847 0.40151924 -0.76523685 77 77 62 255
-419.958 -32.359375 -77.83245 -0.50318474 0.4015192 -0.7652368 77 77 62 255
-470.7705 -19.078125 -37.452145 -0.50318474 0.4015192 -0.7652368 77 77 62 255
-500 311.75586 -79.67118 -0.45690608 -0.16816328 -0.8734746 77 77 62 255
-500 284.60742 -74.4447 -0.45690608 -0.16816328 -0.8734746 77 77 62 255
-487.05762 281.58984 -80.633736 -0.45690608 -0.16816328 -0.8734746 77 77 62 255
-404.8379 198.6123 -53.145874 -0.3035085 -0.17192507 -0.93718964 77 77 62 255
-447.94238 150.3623 -30.334997 -0.3035085 -0.17192508 -0.93718964 77 77 62 255
-397.66992 133.50684 -43.523487 -0.3035085 -0.17192507 -0.93718964 77 77 62 255
-499.62402 162.02832 -13.827362 0.417052 -0.49181986 -0.76431733 77 77 62 255
-498.51758 121.08887 13.119773 0.417052 -0.49181986 -0.76431733 77 77 62 255
-489.3125 148.95117 0.21365689 0.41705203 -0.49181983 -0.76431733 77 77 62 255
-468.4756 151.42285 -17.054598 -0.61226887 -0.77337635 -0.16436501 77 77 62 255
-445.53418 129.46973 0.779664 -0.6122689 -0.77337635 -0.16436502 77 77 62 255
-439.31055 129.95117 -24.668545 -0.6122689 -0.7733763 -0.16436501 77 77 62 255
-459.64453 262.44434 -81.431656 -0.1759772 -0.21190299 -0.9613164 77 77 62 255
-464.4463 276.5078 -83.65259 -0.1759772 -0.21190299 -0.9613164 77 77 62 255
-487.05762 281.58984 -80.633736 -0.17597717 -0.21190298 -0.9613164 77 77 62 255
-430.36426 104.7666 2.4779181 -0.3779723 0.61783147 -0.6895079 77 77 62 255
-472.67773 88.37598 10.987127 -0.37797233 0.6178315 -0.68950796 77 77 62 255
-420.54004 93.487305 -13.013525 -0.3779723 0.61783147 -0.68950796 77 77 62 255
-500 -54.000977 -47.852455 -0.48328057 0.2971459 -0.8234951 77 77 62 255
-500 -62.246094 -50.828064 -0.48328057 0.2971459 -0.8234951 77 77 62 255
-495.3086 -57.874023 -52.003258 -0.48328057 0.2971459 -0.8234951 77 77 62 255
-500 36.814453 -7.8637533 -0.32337755 0.26348668 -0.9088463 77 77 62 255
-500 24.264648 -11.502137 -0.32337755 0.26348668 -0.9088463 77 77 62 255
-441.85156 19.120117 -33.683346 -0.32337755 0.26348668 -0.9088463 77 77 62 255
-442.24023 51.012695 -20.84908 -0.6164736 0.32860157 -0.71552867 77 77 62 255
-435.98047 19.092773 -40.901505 -0.6164736 0.32860157 -0.71552867 77 77 62 255
-413.10254 5.9316406 -66.65614 -0.6164736 0.32860157 -0.71552867 77 77 62 255
-500 249.33984 -56.39457 -0.4957637 -0.5280127 -0.6895077 77 77 62 255
-500 236.91016 -46.876392 -0.4957637 -0.5280127 -0.6895077 77 77 62 255
-473.3506 236.91016 -66.03795 -0.4957637 -0.5280127 -0.6895077 77 77 62 255
-500 124.506836 11.269846 -0.23296487 -0.53906286 -0.80940634 77 77 62 255
-498.51758 121.08887 13.119773 -0.23296487 -0.53906286 -0.80940634 77 77 62 255
-499.62402 162.02832 -13.827362 -0.23296487 -0.53906286 -0.80940634 77 77 62 255
-500 124.506836 11.269846 -0.23296487 -0.53906286 -0.80940634 77 77 62 255
-499.62402 162.02832 -13.827362 -0.23296487 -0.53906286 -0.80940634 77 77 62 255
-500 162.09375 -13.762555 -0.23296487 -0.53906286 -0.80940634 77 77 62 255
-351.33496 185.10547 -84.12287 -0.5033512 -0.06421688 -0.86169237 77 77 62 255
-385.70898 120.80371 -59.25171 -0.5033512 -0.06421688 -0.86169237 77 77 62 255
-344.60547 133.58008 -84.214294 -0.5033512 -0.06421688 -0.86169237 77 77 62 255
-457.6631 129.12207 8.567278 -0.23747805 -0.654516 -0.71778345 77 77 62 255
-473.53906 149.67578 -4.9221625 -0.23747806 -0.6545159 -0.71778345 77 77 62 255
-477.8789 140.56055 4.8258705 -0.23747809 -0.654516 -0.71778345 77 77 62 255
-462.08203 116.631836 12.678689 -0.17492498 -0.2514549 -0.9519305 77 77 62 255
-457.6631 129.12207 8.567278 -0.174925 -0.2514549 -0.9519305 77 77 62 255
-476.458 129.12305 12.020847 -0.174925 -0.25145492 -0.9519305 77 77 62 255
-462.5879 64.98535 -12.641909 -0.38992247 0.56574905 -0.7265594 77 77 62 255
-420.54004 93.487305 -13.013525 -0.38992247 0.56574905 -0.7265593 77 77 62 255
-472.67773 88.37598 10.987127 -0.38992247 0.56574905 -0.7265593 77 77 62 255
-385.70898 108.046875 -63.03518 -0.48946896 0.024019254 -0.8716898 77 77 62 255
-399.41797 95.29004 -55.688995 -0.48946896 0.024019258 -0.8716898 77 77 62 255
-358.29395 88.90039 -78.95673 -0.48946896 0.024019254 -0.8716898 77 77 62 255
-420.68945 83.25781 -28.655607 -0.49139225 0.5047174 -0.7097845 77 77 62 255
-462.5879 64.98535 -12.641909 -0.4913922 0.5047174 -0.70978445 77 77 62 255
-399.41797 69.75586 -52.982933 -0.4913922 0.5047174 -0.70978445 77 77 62 255
-385.70898 -6.826172 -78.740425 -0.382541 0.31934676 -0.86699486 77 77 62 255
-358.29395 18.708008 -81.43162 -0.38254097 0.31934676 -0.86699486 77 77 62 255
-385.70898 18.708008 -69.335396 -0.382541 0.31934676 -0.86699486 77 77 62 255
-500 46.208984 -9.332296 -0.52200323 -0.74136376 -0.4217729 77 77 62 255
-441.85156 19.120117 -33.683346 -0.52200323 -0.74136376 -0.4217729 77 77 62 255
-435.98047 19.092773 -40.901505 -0.52200323 -0.74136376 -0.4217729 77 77 62 255
-500 46.208984 -9.332296 -0.52200323 -0.74136376 -0.4217729 77 77 62 255
-435.98047 19.092773 -40.901505 -0.52200323 -0.74136376 -0.4217729 77 77 62 255
-500 46.927734 -10.596078 -0.52200323 -0.74136376 -0.4217729 77 77 62 255
-500 -38.621094 -35.72424 -0.118475385 0.67577887 -0.7275208 77 77 62 255
-500 -42.378906 -39.215145 -0.118475385 0.67577887 -0.7275208 77 77 62 255
-495.3086 -45.11621 -42.521515 -0.118475385 0.67577887 -0.7275208 77 77 62 255
-454.20508 -57.874023 -65.523026 -0.55389476 0.2533704 -0.79309773 77 77 62 255
-440.51758 -45.11621 -71.00666 -0.55389476 0.2533704 -0.79309773 77 77 62 255
-477.55762 -32.197266 -41.01101 -0.5538948 0.25337043 -0.79309773 77 77 62 255
-487.05762 281.58984 -80.633736 -0.50159013 -0.3813441 -0.77652043 77 77 62 255
-500 251.42383 -57.459145 -0.50159013 -0.3813441 -0.77652043 77 77 62 255
-500 249.6875 -56.60625 -0.50159013 -0.3813441 -0.77652043 77 77 62 255
-487.05762 281.58984 -80.633736 -0.50159013 -0.3813441 -0.77652043 77 77 62 255
-500 249.6875 -56.60625 -0.50159013 -0.3813441 -0.77652043 77 77 62 255
-473.3506 249.6875 -73.820625 -0.50159013 -0.3813441 -0.77652043 77 77 62 255
-473.3506 249.6875 -73.820625 -0.1350553 -0.52206445 -0.84214526 77 77 62 255
-445.95508 211.39648 -54.47677 -0.13505532 -0.52206457 -0.84214526 77 77 62 255
-404.8379 198.6123 -53.145874 -0.1350553 -0.5220645 -0.8421453 77 77 62 255
-500 236.67871 -46.62188 -0.43530908 -0.666306 -0.6054274 77 77 62 255
-459.64453 224.1543 -61.85394 -0.43530908 -0.666306 -0.6054274 77 77 62 255
-473.3506 236.91016 -66.03795 -0.43530908 -0.666306 -0.6054274 77 77 62 255
-500 236.67871 -46.62188 -0.43530908 -0.666306 -0.6054274 77 77 62 255
-473.3506 236.91016 -66.03795 -0.43530908 -0.666306 -0.6054274 77 77 62 255
-500 236.91016 -46.876392 -0.43530908 -0.666306 -0.6054274 77 77 62 255
-358.29395 18.708008 -81.43162 -0.48167297 0.046152458 -0.87513494 77 77 62 255
-358.29395 44.22168 -80.08605 -0.48167297 0.046152465 -0.87513494 77 77 62 255
-385.70898 44.22168 -64.99687 -0.48167297 0.04615246 -0.87513494 77 77 62 255
-399.41797 69.75586 -52.982933 -0.61168563 0.043259364 -0.78991735 77 77 62 255
-442.24023 51.012695 -20.84908 -0.61168563 0.04325936 -0.7899173 77 77 62 255
-385.70898 44.22168 -64.99687 -0.61168563 0.043259364 -0.78991735 77 77 62 255
-472.67773 88.37598 10.987127 -0.30309623 0.3156836 -0.89915323 77 77 62 255
-430.36426 104.7666 2.4779181 -0.30309623 0.31568363 -0.89915323 77 77 62 255
-472.54004 104.67285 16.662226 -0.30309623 0.31568363 -0.89915323 77 77 62 255
-497.87793 84.20801 14.682743 -0.17425211 0.19829036 -0.96452945 77 77 62 255
-472.67773 88.37598 10.987127 -0.1742521 0.19829036 -0.96452945 77 77 62 255
-480.6963 110.493164 16.98251 -0.17425211 0.19829038 -0.96452945 77 77 62 255
-500 -10.083984 -15.57944 -0.6337899 -0.31708923 -0.7055245 77 77 62 255
-499.41016 -10.313477 -16.006351 -0.6337899 -0.31708923 -0.7055245 77 77 62 255
-500 -9.890625 -15.666487 -0.6337899 -0.31708923 -0.7055245 77 77 62 255
-500 70.603516 4.946697 -0.15514852 0.5133064 -0.8440649 77 77 62 255
-500 59.698242 -1.6852944 -0.15514852 0.5133064 -0.8440649 77 77 62 255
-471.78906 52.081055 -11.50277 -0.15514852 0.5133064 -0.8440649 77 77 62 255
-500 54.094727 -5.755174 -0.14725602 0.55366534 -0.81961596 77 77 62 255
-500 46.927734 -10.596078 -0.14725602 0.55366534 -0.81961596 77 77 62 255
-435.98047 19.092773 -40.901505 -0.14725602 0.55366534 -0.81961596 77 77 62 255
-489.3125 148.95117 0.21365689 -0.08843152 -0.7604764 -0.6433161 77 77 62 255
-484.26758 168.7998 -23.943428 -0.08843152 -0.76047635 -0.64331603 77 77 62 255
-499.62402 162.02832 -13.827362 -0.08843152 -0.7604764 -0.6433161 77 77 62 255
-500 236.67871 -46.62188 -0.41490808 -0.28671148 -0.863509 77 77 62 255
-500 194.09277 -32.482483 -0.41490808 -0.28671148 -0.863509 77 77 62 255
-459.64453 224.1543 -61.85394 -0.41490808 -0.28671148 -0.863509 77 77 62 255
-500 -113.30664 -70.430405 -0.51486635 0.35235262 -0.78151155 77 77 62 255
-495.3086 -108.94043 -71.55242 -0.51486635 0.35235262 -0.78151155 77 77 62 255
-500 -102.384766 -65.506096 -0.51486635 0.35235262 -0.78151155 77 77 62 255
-495.3086 -57.874023 -52.003258 -0.47562462 0.2539824 -0.8421841 77 77 62 255
-500 -68.7959 -52.64788 -0.47562462 0.2539824 -0.8421841 77 77 62 255
-500 -91.884766 -59.61117 -0.47562462 0.2539824 -0.8421841 77 77 62 255
-495.3086 -57.874023 -52.003258 -0.47562462 0.2539824 -0.8421841 77 77 62 255
-500 -91.884766 -59.61117 -0.47562462 0.2539824 -0.8421841 77 77 62 255
-481.62012 -96.16406 -71.28153 -0.47562462 0.2539824 -0.8421841 77 77 62 255
-420.54004 93.487305 -13.013525 -0.8628551 -0.06265719 -0.5015528 77 77 62 255
-416.0752 118.92578 -23.872858 -0.86285514 -0.06265718 -0.5015528 77 77 62 255
-430.36426 104.7666 2.4779181 -0.86285514 -0.062657185 -0.5015528 77 77 62 255
-399.41797 69.75586 -52.982933 -0.70222986 0.1483159 -0.6963301 77 77 62 255
-404.46777 108.15625 -39.710945 -0.70222986 0.1483159 -0.6963301 77 77 62 255
-420.68945 83.25781 -28.655607 -0.70222986 0.1483159 -0.69633013 77 77 62 255
-484.26758 168.7998 -23.943428 -0.26428816 -0.717367 -0.6446212 77 77 62 255
-489.3125 148.95117 0.21365689 -0.26428816 -0.71736693 -0.64462125 77 77 62 255
-466.875 163.90918 -25.630947 -0.26428816 -0.71736693 -0.64462125 77 77 62 255
-445.53418 129.46973 0.779664 -0.5082971 -0.79673845 -0.32686687 77 77 62 255
-468.4756 151.42285 -17.054598 -0.5082971 -0.79673845 -0.32686684 77 77 62 255
-473.53906 149.67578 -4.9221625 -0.508297 -0.79673845 -0.32686684 77 77 62 255
-404.8379 198.6123 -53.145874 -0.7390715 -0.17740792 -0.64984596 77 77 62 255
-397.66992 133.50684 -43.523487 -0.73907155 -0.1774079 -0.64984596 77 77 62 255
-379.23047 159.67871 -71.640434 -0.7390715 -0.1774079 -0.64984596 77 77 62 255
-500 124.506836 11.269846 -0.4315766 -0.5669001 -0.7016879 77 77 62 255
-500 122.44043 12.939939 -0.4315766 -0.5669001 -0.7016879 77 77 62 255
-498.51758 121.08887 13.119773 -0.4315766 -0.5669001 -0.7016879 77 77 62 255
-480.6963 110.493164 16.98251 0.04949624 -0.26754075 -0.96227443 77 77 62 255
-476.458 129.12305 12.020847 0.049496233 -0.26754075 -0.96227443 77 77 62 255
-498.51758 121.08887 13.119773 0.049496233 -0.26754075 -0.96227443 77 77 62 255
-399.41797 95.29004 -55.688995 -0.48196644 0.030223848 -0.8756682 77 77 62 255
-385.70898 44.22168 -64.99687 -0.48196647 0.030223848 -0.8756682 77 77 62 255
-358.29395 44.22168 -80.08605 -0.48196644 0.030223845 -0.8756682 77 77 62 255
-500 -38.621094 -35.72424 -0.20623466 0.63242555 -0.7466627 77 77 62 255
-495.3086 -45.11621 -42.521515 -0.20623466 0.63242555 -0.7466627 77 77 62 255
-491.46777 -32.20703 -32.648754 -0.20623466 0.63242555 -0.7466627 77 77 62 255
-500 -38.621094 -35.72424 -0.20623466 0.63242555 -0.7466627 77 77 62 255
-491.46777 -32.20703 -32.648754 -0.20623466 0.63242555 -0.7466627 77 77 62 255
-500 -26.529297 -25.483032 -0.20623466 0.63242555 -0.7466627 77 77 62 255
-500 -9.800781 -15.724252 -0.21213527 0.2722675 -0.93854624 77 77 62 255
-499.41016 -10.313477 -16.006351 -0.21213527 0.2722675 -0.93854624 77 77 62 255
-500 -9.277344 -15.572369 -0.21213527 0.2722675 -0.93854624 77 77 62 255
-416.0752 118.92578 -23.872858 -0.42223248 -0.8984757 -0.12025441 77 77 62 255
-439.31055 129.95117 -24.668545 -0.42223248 -0.8984757 -0.12025441 77 77 62 255
-445.53418 129.46973 0.779664 -0.42223248 -0.8984757 -0.12025441 77 77 62 255
-379.23047 159.67871 -71.640434 -0.81368387 -0.048987515 -0.5792398 77 77 62 255
-397.66992 133.50684 -43.523487 -0.81368387 -0.048987515 -0.5792398 77 77 62 255
-385.70898 120.80371 -59.25171 -0.81368387 -0.048987515 -0.5792398 77 77 62 255
-467.8369 60.938477 0.18771008 -0.14922202 0.8117654 -0.5645971 77 77 62 255
-471.78906 52.081055 -11.50277 -0.14922202 0.8117654 -0.5645971 77 77 62 255
-442.24023 51.012695 -20.84908 -0.14922202 0.8117654 -0.5645971 77 77 62 255
-472.67773 88.37598 10.987127 -0.518546 0.4865734 -0.70310473 77 77 62 255
-483.0078 73.58496 8.369526 -0.518546 0.4865734 -0.70310473 77 77 62 255
-462.5879 64.98535 -12.641909 -0.518546 0.4865734 -0.70310473 77 77 62 255
-449.03516 5.9804688 -42.429443 -0.53952664 0.31268898 -0.7817523 77 77 62 255
-470.7705 -19.078125 -37.452145 -0.53952664 0.31268898 -0.7817523 77 77 62 255
-419.958 -32.359375 -77.83245 -0.5395267 0.312689 -0.7817523 77 77 62 255
-440.51758 -6.826172 -67.37588 -0.60997653 0.6159746 -0.49850178 77 77 62 255
-435.98047 19.092773 -40.901505 -0.60997653 0.6159746 -0.49850175 77 77 62 255
-441.85156 19.120117 -33.683346 -0.60997653 0.6159746 -0.49850175 77 77 62 255
-372.00195 108.046875 -69.49638 -0.12847692 0.53335345 -0.8360788 77 77 62 255
-344.60547 108.046875 -73.70625 -0.12847692 0.53335345 -0.8360788 77 77 62 255
-385.70898 120.80371 -59.25171 -0.12847692 0.5333534 -0.8360788 77 77 62 255
-500 36.814453 -7.8637533 -0.43688864 -0.13890576 -0.8887259 77 77 62 255
-441.85156 19.120117 -33.683346 -0.43688864 -0.13890576 -0.8887259 77 77 62 255
-500 46.208984 -9.332296 -0.43688864 -0.13890576 -0.8887259 77 77 62 255
-404.8379 198.6123 -53.145874 -0.07052127 -0.45411798 -0.8881462 77 77 62 255
-459.64453 262.44434 -81.431656 -0.070521265 -0.45411792 -0.8881462 77 77 62 255
-473.3506 249.6875 -73.820625 -0.070521265 -0.45411792 -0.8881462 77 77 62 255
-473.3506 249.6875 -73.820625 -0.23553781 -0.2987032 -0.92482334 77 77 62 255
-459.64453 262.44434 -81.431656 -0.23553786 -0.29870322 -0.92482346 77 77 62 255
-487.05762 281.58984 -80.633736 -0.23553784 -0.29870322 -0.92482334 77 77 62 255
-472.67773 88.37598 10.987127 0.19282468 0.3212508 -0.92715514 77 77 62 255
-472.54004 104.67285 16.662226 0.19282466 0.32125074 -0.9271551 77 77 62 255
-480.6963 110.493164 16.98251 0.19282466 0.32125074 -0.92715514 77 77 62 255
-466.875 163.90918 -25.630947 -0.08812215 -0.4884996 -0.8681029 77 77 62 255
-445.95508 211.39648 -54.47677 -0.08812216 -0.48849964 -0.8681029 77 77 62 255
-480.99316 186.6836 -37.013832 -0.08812216 -0.48849964 -0.8681029 77 77 62 255
-500 190.62988 -30.988823 -0.34972885 -0.37102765 -0.8602489 77 77 62 255
-480.99316 186.6836 -37.013832 -0.34972885 -0.37102765 -0.8602489 77 77 62 255
-459.64453 224.1543 -61.85394 -0.34972885 -0.37102765 -0.8602489 77 77 62 255
-500 190.62988 -30.988823 -0.34972885 -0.37102765 -0.8602489 77 77 62 255
-459.64453 224.1543 -61.85394 -0.34972885 -0.37102765 -0.8602489 77 77 62 255
-500 194.09277 -32.482483 -0.34972885 -0.37102765 -0.8602489 77 77 62 255
-495.3086 -45.11621 -42.521515 -0.21265562 0.5828723 -0.7842433 77 77 62 255
-500 -42.378906 -39.215145 -0.21265562 0.5828723 -0.7842433 77 77 62 255
-500 -54.000977 -47.852455 -0.21265562 0.5828723 -0.7842433 77 77 62 255
-495.3086 -45.11621 -42.521515 -0.21265562 0.5828723 -0.7842433 77 77 62 255
-500 -54.000977 -47.852455 -0.21265562 0.5828723 -0.7842433 77 77 62 255
-495.3086 -57.874023 -52.003258 -0.21265562 0.5828723 -0.7842433 77 77 62 255
-404.85254 211.39648 -64.49669 -0.5147916 -0.5695562 -0.64077723 77 77 62 255
-404.8379 198.6123 -53.145874 -0.5147916 -0.5695562 -0.64077723 77 77 62 255
-351.33496 185.10547 -84.12287 -0.51479155 -0.5695562 -0.6407772 77 77 62 255
-459.64453 262.44434 -81.431656 -0.36154175 -0.6192791 -0.6969799 77 77 62 255
-404.8379 198.6123 -53.145874 -0.36154175 -0.6192791 -0.6969799 77 77 62 255
-404.85254 211.39648 -64.49669 -0.36154175 -0.61927915 -0.6969798 77 77 62 255
-457.6631 129.12207 8.567278 -0.26750627 -0.21456592 -0.9393624 77 77 62 255
-462.08203 116.631836 12.678689 -0.2675063 -0.21456595 -0.9393625 77 77 62 255
-444.11523 117.05762 7.4649997 -0.2675063 -0.21456592 -0.9393624 77 77 62 255
-445.53418 129.46973 0.779664 -0.66709447 -0.41092715 -0.62138873 77 77 62 255
-444.11523 117.05762 7.4649997 -0.66709447 -0.4109271 -0.6213887 77 77 62 255
-416.0752 118.92578 -23.872858 -0.66709447 -0.4109271 -0.6213887 77 77 62 255
-440.51758 -6.826172 -67.37588 -0.17803183 0.24675514 -0.95258415 77 77 62 255
-419.958 -32.359375 -77.83245 -0.17803182 0.24675511 -0.95258415 77 77 62 255
-399.41797 -19.582031 -78.36156 -0.17803183 0.24675514 -0.9525842 77 77 62 255
-419.958 -32.359375 -77.83245 -0.7629031 -0.64276785 0.06948556 77 77 62 255
-440.51758 -6.826172 -67.37588 -0.76290315 -0.6427679 0.06948557 77 77 62 255
-449.03516 5.9804688 -42.429443 -0.76290315 -0.6427679 0.06948557 77 77 62 255
-399.41797 95.29004 -55.688995 -0.7030153 0.42871168 -0.56742907 77 77 62 255
-385.70898 108.046875 -63.03518 -0.7030153 0.4287117 -0.567429 77 77 62 255
-404.46777 108.15625 -39.710945 -0.7030153 0.42871168 -0.567429 77 77 62 255
-397.66992 133.50684 -43.523487 -0.7739196 0.11383119 -0.62296945 77 77 62 255
-404.46777 108.15625 -39.710945 -0.77391964 0.11383121 -0.62296945 77 77 62 255
-385.70898 108.046875 -63.03518 -0.7739196 0.11383121 -0.6229695 77 77 62 255
-483.0078 73.58496 8.369526 -0.18634683 0.29593673 -0.9368545 77 77 62 255
-472.67773 88.37598 10.987127 -0.18634683 0.29593673 -0.9368545 77 77 62 255
-497.87793 84.20801 14.682743 -0.18634684 0.29593676 -0.9368545 77 77 62 255
-500 82.19629 13.428957 -0.3103148 0.7166968 -0.62454015 77 77 62 255
-497.87793 84.20801 14.682743 -0.3103148 0.7166968 -0.62454015 77 77 62 255
-500 83.08984 14.454562 -0.3103148 0.7166968 -0.62454015 77 77 62 255
-500 -3.9384766 -18.458399 -0.8290793 -0.26587787 -0.4918705 77 77 62 255
-500 -9.277344 -15.572369 -0.8290793 -0.26587787 -0.4918705 77 77 62 255
-499.41016 -10.313477 -16.006351 -0.8290793 -0.26587787 -0.4918705 77 77 62 255
-500 -3.9384766 -18.458399 -0.8290793 -0.26587787 -0.4918705 77 77 62 255
-499.41016 -10.313477 -16.006351 -0.8290793 -0.26587787 -0.4918705 77 77 62 255
-477.55762 -32.197266 -41.01101 -0.8290793 -0.26587787 -0.4918705 77 77 62 255
-470.7705 -19.078125 -37.452145 -0.46345407 0.4472995 -0.7649402 77 77 62 255
-477.55762 -32.197266 -41.01101 -0.463454 0.44729948 -0.7649402 77 77 62 255
-440.51758 -45.11621 -71.00666 -0.463454 0.4472995 -0.7649402 77 77 62 255
-489.3125 148.95117 0.21365689 -0.18612881 -0.6557682 -0.73165846 77 77 62 255
-486.917 141.17188 6.576538 -0.1861288 -0.6557682 -0.73165846 77 77 62 255
-477.8789 140.56055 4.8258705 -0.1861288 -0.6557682 -0.7316584 77 77 62 255
-481.62012 -45.11621 -51.690136 -0.20066258 0.4891454 -0.84880584 77 77 62 255
-481.62012 -57.874023 -59.04196 -0.20066258 0.4891454 -0.84880584 77 77 62 255
-454.20508 -57.874023 -65.523026 -0.20066257 0.4891454 -0.84880584 77 77 62 255
-454.20508 -57.874023 -65.523026 -0.079071715 0.649793 -0.7559872 77 77 62 255
-477.55762 -32.197266 -41.01101 -0.07907172 0.6497931 -0.75598717 77 77 62 255
-481.62012 -45.11621 -51.690136 -0.07907172 0.649793 -0.7559872 77 77 62 255
-385.70898 44.22168 -64.99687 -0.72989535 -0.07203998 -0.67975223 77 77 62 255
-399.41797 95.29004 -55.688995 -0.72989535 -0.07203996 -0.67975223 77 77 62 255
-399.41797 69.75586 -52.982933 -0.72989535 -0.07203997 -0.67975223 77 77 62 255
-399.41797 69.75586 -52.982933 -0.95969754 -0.029618127 -0.27946967 77 77 62 255
-399.41797 95.29004 -55.688995 -0.9596976 -0.029618125 -0.27946964 77 77 62 255
-404.46777 108.15625 -39.710945 -0.95969754 -0.029618127 -0.27946967 77 77 62 255
-476.458 129.12305 12.020847 -0.14933176 -0.22260372 -0.96340424 77 77 62 255
-480.6963 110.493164 16.98251 -0.14933175 -0.22260371 -0.96340424 77 77 62 255
-462.08203 116.631836 12.678689 -0.14933175 -0.2226037 -0.96340424 77 77 62 255
-497.87793 84.20801 14.682743 0.010089593 0.5212779 -0.8533274 77 77 62 255
-500 82.19629 13.428957 0.010089593 0.5212779 -0.8533274 77 77 62 255
-500 74.82129 8.924051 0.010089593 0.5212779 -0.8533274 77 77 62 255
-497.87793 84.20801 14.682743 0.010089593 0.5212779 -0.8533274 77 77 62 255
-500 74.82129 8.924051 0.010089593 0.5212779 -0.8533274 77 77 62 255
-483.0078 73.58496 8.369526 0.010089593 0.5212779 -0.8533274 77 77 62 255
-500 70.603516 4.946697 0.13752455 0.76654977 -0.62728655 77 77 62 255
-471.78906 52.081055 -11.50277 0.13752455 0.76654977 -0.62728655 77 77 62 255
-467.8369 60.938477 0.18771008 0.13752455 0.76654977 -0.62728655 77 77 62 255
-500 70.603516 4.946697 0.13752455 0.76654977 -0.62728655 77 77 62 255
-467.8369 60.938477 0.18771008 0.13752455 0.76654977 -0.62728655 77 77 62 255
-500 72.7041 7.513973 0.13752455 0.76654977 -0.62728655 77 77 62 255
-467.91504 -83.40723 -73.43637 -0.21172513 0.3912448 -0.89560044 77 77 62 255
-454.20508 -57.874023 -65.523026 -0.21172513 0.39124477 -0.8956003 77 77 62 255
-481.62012 -57.874023 -59.04196 -0.21172513 0.39124474 -0.8956003 77 77 62 255
-495.3086 -57.874023 -52.003258 -0.4067174 0.29065004 -0.86608523 77 77 62 255
-481.62012 -96.16406 -71.28153 -0.40671733 0.29065 -0.86608523 77 77 62 255
-467.91504 -83.40723 -73.43637 -0.40671733 0.29065 -0.86608523 77 77 62 255
-486.917 141.17188 6.576538 0.42279616 -0.49215296 -0.7609395 77 77 62 255
-489.3125 148.95117 0.21365689 0.4227962 -0.49215296 -0.7609395 77 77 62 255
-498.51758 121.08887 13.119773 0.42279616 -0.49215296 -0.7609395 77 77 62 255
-358.29395 44.22168 -80.08605 -0.48972598 0.022030793 -0.871598 77 77 62 255
-358.29395 88.90039 -78.95673 -0.48972592 0.022030791 -0.87159806 77 77 62 255
-399.41797 95.29004 -55.688995 -0.48972598 0.022030793 -0.87159806 77 77 62 255
-385.70898 44.22168 -64.99687 -0.3988803 0.1537226 -0.90402645 77 77 62 255
-385.70898 18.708008 -69.335396 -0.3988803 0.1537226 -0.90402645 77 77 62 255
-358.29395 18.708008 -81.43162 -0.39888033 0.1537226 -0.90402645 77 77 62 255
-442.24023 51.012695 -20.84908 -0.5998756 0.13412447 -0.7887712 77 77 62 255
-385.70898 18.708008 -69.335396 -0.5998756 0.13412447 -0.78877115 77 77 62 255
-385.70898 44.22168 -64.99687 -0.5998756 0.13412447 -0.7887712 77 77 62 255
-439.31055 129.95117 -24.668545 -0.35299543 -0.38591093 -0.8523303 77 77 62 255
-397.66992 133.50684 -43.523487 -0.35299543 -0.3859109 -0.8523303 77 77 62 255
-447.94238 150.3623 -30.334997 -0.3529954 -0.38591087 -0.8523303 77 77 62 255
-439.31055 129.95117 -24.668545 -0.27462265 -0.63108504 -0.7254751 77 77 62 255
-416.0752 118.92578 -23.872858 -0.27462265 -0.631085 -0.7254751 77 77 62 255
-397.66992 133.50684 -43.523487 -0.27462262 -0.631085 -0.7254751 77 77 62 255
-439.31055 129.95117 -24.668545 -0.50740993 -0.42301166 -0.7507305 77 77 62 255
-447.94238 150.3623 -30.334997 -0.50740993 -0.4230116 -0.7507305 77 77 62 255
-468.4756 151.42285 -17.054598 -0.5074099 -0.4230116 -0.7507306 77 77 62 255
-466.875 163.90918 -25.630947 -0.90279275 -0.15883453 -0.3996708 77 77 62 255
-473.53906 149.67578 -4.9221625 -0.90279275 -0.15883455 -0.3996708 77 77 62 255
-468.4756 151.42285 -17.054598 -0.90279275 -0.15883455 -0.39967084 77 77 62 255
-385.70898 120.80371 -59.25171 -0.17515095 -0.27232382 -0.94613 77 77 62 255
-351.33496 185.10547 -84.12287 -0.17515093 -0.27232382 -0.94613 77 77 62 255
-379.23047 159.67871 -71.640434 -0.17515093 -0.27232382 -0.94613 77 77 62 255
-404.8379 198.6123 -53.145874 -0.47988284 0.09849319 -0.8717864 77 77 62 255
-379.23047 159.67871 -71.640434 -0.47988284 0.09849319 -0.8717864 77 77 62 255
-351.33496 185.10547 -84.12287 -0.47988284 0.098493196 -0.8717865 77 77 62 255
-344.60547 108.046875 -73.70625 -0.4052774 -0.34791335 -0.84540313 77 77 62 255
-344.60547 133.58008 -84.214294 -0.4052774 -0.34791335 -0.84540313 77 77 62 255
-385.70898 120.80371 -59.25171 -0.4052774 -0.34791335 -0.84540313 77 77 62 255
-440.51758 -6.826172 -67.37588 -0.31142375 0.7051655 -0.6369905 77 77 62 255
-413.10254 5.9316406 -66.65614 -0.31142375 0.7051655 -0.6369905 77 77 62 255
-435.98047 19.092773 -40.901505 -0.31142372 0.70516557 -0.6369905 77 77 62 255
-413.10254 5.9316406 -66.65614 -0.13878688 0.35049832 -0.92622304 77 77 62 255
-440.51758 -6.826172 -67.37588 -0.13878688 0.3504983 -0.92622304 77 77 62 255
-399.41797 -19.582031 -78.36156 -0.13878687 0.3504983 -0.92622304 77 77 62 255
-500 54.094727 -5.755174 -0.12199961 0.5832529 -0.8030767 77 77 62 255
-435.98047 19.092773 -40.901505 -0.12199961 0.5832529 -0.8030767 77 77 62 255
-471.78906 52.081055 -11.50277 -0.12199961 0.5832529 -0.8030767 77 77 62 255
-500 54.094727 -5.755174 -0.12199961 0.5832529 -0.8030767 77 77 62 255
-471.78906 52.081055 -11.50277 -0.12199961 0.5832529 -0.8030767 77 77 62 255
-500 59.698242 -1.6852944 -0.12199961 0.5832529 -0.8030767 77 77 62 255
-471.78906 52.081055 -11.50277 -0.24877757 0.47977525 -0.8413831 77 77 62 255
-435.98047 19.092773 -40.901505 -0.24877757 0.4797753 -0.841383 77 77 62 255
-442.24023 51.012695 -20.84908 -0.24877754 0.47977525 -0.841383 77 77 62 255
-500 -10.483398 -15.848917 -0.35748184 0.52232563 -0.77419806 77 77 62 255
-499.41016 -10.313477 -16.006351 -0.35748184 0.52232563 -0.77419806 77 77 62 255
-500 -10.083984 -15.57944 -0.35748184 0.52232563 -0.77419806 77 77 62 255
-499.41016 -10.313477 -16.006351 -0.3531623 0.48158664 -0.8020914 77 77 62 255
-500 -10.483398 -15.848917 -0.3531623 0.48158664 -0.8020914 77 77 62 255
-500 -26.529297 -25.483032 -0.3531623 0.48158664 -0.8020914 77 77 62 255
-499.41016 -10.313477 -16.006351 -0.3531623 0.48158664 -0.8020914 77 77 62 255
-500 -26.529297 -25.483032 -0.3531623 0.48158664 -0.8020914 77 77 62 255
-491.46777 -32.20703 -32.648754 -0.3531623 0.48158664 -0.8020914 77 77 62 255
-477.8789 140.56055 4.8258705 -0.20222585 -0.66878074 -0.7154278 77 77 62 255
-473.53906 149.67578 -4.9221625 -0.20222586 -0.66878074 -0.7154279 77 77 62 255
-489.3125 148.95117 0.21365689 -0.20222585 -0.66878074 -0.7154278 77 77 62 255
-473.53906 149.67578 -4.9221625 -0.1568769 -0.78962874 -0.5931914 77 77 62 255
-466.875 163.90918 -25.630947 -0.1568769 -0.78962874 -0.5931914 77 77 62 255
-489.3125 148.95117 0.21365689 -0.1568769 -0.78962874 -0.5931914 77 77 62 255
-442.24023 51.012695 -20.84908 -0.62145746 -0.63755375 -0.45531946 77 77 62 255
-462.5879 64.98535 -12.641909 -0.62145746 -0.6375538 -0.45531946 77 77 62 255
-467.8369 60.938477 0.18771008 -0.62145746 -0.6375538 -0.45531946 77 77 62 255
-442.24023 51.012695 -20.84908 -0.50682616 -0.2542395 -0.8237047 77 77 62 255
-399.41797 69.75586 -52.982933 -0.50682616 -0.25423953 -0.8237047 77 77 62 255
-462.5879 64.98535 -12.641909 -0.50682616 -0.25423953 -0.8237047 77 77 62 255
-500 249.33984 -56.39457 -0.4830352 -0.45549867 -0.7477954 77 77 62 255
-473.3506 236.91016 -66.03795 -0.4830352 -0.45549867 -0.7477954 77 77 62 255
-473.3506 249.6875 -73.820625 -0.4830352 -0.45549867 -0.7477954 77 77 62 255
-500 249.33984 -56.39457 -0.4830352 -0.45549867 -0.7477954 77 77 62 255
-473.3506 249.6875 -73.820625 -0.4830352 -0.45549867 -0.7477954 77 77 62 255
-500 249.6875 -56.60625 -0.4830352 -0.45549867 -0.7477954 77 77 62 255
-459.64453 224.1543 -61.85394 -0.21807265 -0.5076925 -0.8334823 77 77 62 255
-473.3506 249.6875 -73.820625 -0.21807265 -0.5076925 -0.8334823 77 77 62 255
-473.3506 236.91016 -66.03795 -0.21807265 -0.5076925 -0.8334823 77 77 62 255
-500 1.8759766 -15.672723 -0.3405687 0.4062338 -0.84793115 77 77 62 255
-500 -3.9384766 -18.458399 -0.3405687 0.4062338 -0.84793115 77 77 62 255
-477.55762 -32.197266 -41.01101 -0.3405687 0.4062338 -0.84793115 77 77 62 255
-500 1.8759766 -15.672723 -0.3405687 0.4062338 -0.84793115 77 77 62 255
-477.55762 -32.197266 -41.01101 -0.3405687 0.4062338 -0.84793115 77 77 62 255
-470.7705 -19.078125 -37.452145 -0.3405687 0.4062338 -0.84793115 77 77 62 255
-500 1.8759766 -15.672723 -0.46656868 0.23533541 -0.8526024 77 77 62 255
-470.7705 -19.078125 -37.452145 -0.46656868 0.23533541 -0.8526024 77 77 62 255
-449.03516 5.9804688 -42.429443 -0.46656868 0.23533541 -0.8526024 77 77 62 255
-500 1.8759766 -15.672723 -0.46656868 0.23533541 -0.8526024 77 77 62 255
-449.03516 5.9804688 -42.429443 -0.46656868 0.23533541 -0.8526024 77 77 62 255
-500 8.94043 -13.722768 -0.46656868 0.23533541 -0.8526024 77 77 62 255
-500 -68.7959 -52.64788 -0.44067708 0.24031326 -0.86490077 77 77 62 255
-495.3086 -57.874023 -52.003258 -0.44067708 0.24031326 -0.86490077 77 77 62 255
-500 -62.246094 -50.828064 -0.44067708 0.24031326 -0.86490077 77 77 62 255
-467.91504 -83.40723 -73.43637 -0.44300953 0.2479137 -0.8615575 77 77 62 255
-481.62012 -57.874023 -59.04196 -0.4430096 0.2479137 -0.8615575 77 77 62 255
-495.3086 -57.874023 -52.003258 -0.44300953 0.24791372 -0.8615575 77 77 62 255
-495.3086 -45.11621 -42.521515 -0.3814844 0.55140483 -0.7419045 77 77 62 255
-495.3086 -57.874023 -52.003258 -0.3814844 0.55140483 -0.7419046 77 77 62 255
-481.62012 -57.874023 -59.04196 -0.3814844 0.55140483 -0.7419045 77 77 62 255
-466.875 163.90918 -25.630947 -0.33355436 -0.14257616 -0.9318871 77 77 62 255
-447.94238 150.3623 -30.334997 -0.33355436 -0.14257616 -0.9318871 77 77 62 255
-404.8379 198.6123 -53.145874 -0.33355436 -0.14257616 -0.9318871 77 77 62 255
-466.875 163.90918 -25.630947 -0.50248384 -0.44483307 -0.74137276 77 77 62 255
-468.4756 151.42285 -17.054598 -0.50248384 -0.44483307 -0.74137276 77 77 62 255
-447.94238 150.3623 -30.334997 -0.50248384 -0.44483307 -0.74137276 77 77 62 255
-500 -102.384766 -65.506096 -0.40249503 0.44816598 -0.79821366 77 77 62 255
-495.3086 -108.94043 -71.55242 -0.40249503 0.44816598 -0.79821366 77 77 62 255
-481.62012 -96.16406 -71.28153 -0.40249503 0.44816598 -0.79821366 77 77 62 255
-500 -102.384766 -65.506096 -0.40249503 0.44816598 -0.79821366 77 77 62 255
-481.62012 -96.16406 -71.28153 -0.40249503 0.44816598 -0.79821366 77 77 62 255
-500 -91.884766 -59.61117 -0.40249503 0.44816598 -0.79821366 77 77 62 255
-500 -9.890625 -15.666487 -0.6571784 -0.40678713 -0.63453984 77 77 62 255
-499.41016 -10.313477 -16.006351 -0.6571784 -0.40678713 -0.63453984 77 77 62 255
-500 -9.800781 -15.724252 -0.6571784 -0.40678713 -0.63453984 77 77 62 255
-385.70898 -6.826172 -78.740425 -0.3282922 0.32647985 -0.8863606 77 77 62 255
-385.70898 18.708008 -69.335396 -0.32829222 0.32647982 -0.8863606 77 77 62 255
-399.41797 -19.582031 -78.36156 -0.32829222 0.32647985 -0.8863606 77 77 62 255
-473.53906 149.67578 -4.9221625 -0.37508172 -0.6934574 -0.61516696 77 77 62 255
-457.6631 129.12207 8.567278 -0.37508175 -0.6934574 -0.61516696 77 77 62 255
-445.53418 129.46973 0.779664 -0.37508172 -0.6934574 -0.61516696 77 77 62 255
-444.11523 117.05762 7.4649997 -0.4704978 -0.45951062 -0.7533139 77 77 62 255
-445.53418 129.46973 0.779664 -0.4704978 -0.4595106 -0.75331396 77 77 62 255
-457.6631 129.12207 8.567278 -0.4704978 -0.4595106 -0.7533139 77 77 62 255
-430.36426 104.7666 2.4779181 -0.27955216 0.075597815 -0.9571497 77 77 62 255
-444.11523 117.05762 7.4649997 -0.27955216 0.075597815 -0.9571497 77 77 62 255
-462.08203 116.631836 12.678689 -0.2795522 0.075597815 -0.9571497 77 77 62 255
-444.11523 117.05762 7.4649997 -0.6420633 -0.47377357 -0.60273826 77 77 62 255
-430.36426 104.7666 2.4779181 -0.6420633 -0.47377354 -0.6027382 77 77 62 255
-416.0752 118.92578 -23.872858 -0.6420633 -0.47377357 -0.60273826 77 77 62 255
-420.54004 93.487305 -13.013525 -0.49769038 0.7280572 -0.47142026 77 77 62 255
-462.5879 64.98535 -12.641909 -0.49769038 0.7280572 -0.47142026 77 77 62 255
-420.68945 83.25781 -28.655607 -0.49769032 0.7280572 -0.4714203 77 77 62 255
-416.0752 118.92578 -23.872858 -0.9870158 0.13856567 -0.08123652 77 77 62 255
-420.54004 93.487305 -13.013525 -0.9870158 0.13856567 -0.08123651 77 77 62 255
-420.68945 83.25781 -28.655607 -0.9870158 0.13856567 -0.08123651 77 77 62 255
-476.458 129.12305 12.020847 0.08132353 -0.35091358 -0.9328699 77 77 62 255
-486.917 141.17188 6.576538 0.08132352 -0.35091358 -0.9328699 77 77 62 255
-498.51758 121.08887 13.119773 0.08132352 -0.35091358 -0.9328699 77 77 62 255
-472.54004 104.67285 16.662226 -0.1654114 -0.17843258 -0.96994895 77 77 62 255
-462.08203 116.631836 12.678689 -0.16541141 -0.17843258 -0.96994895 77 77 62 255
-480.6963 110.493164 16.98251 -0.16541143 -0.1784326 -0.96994895 77 77 62 255
-462.08203 116.631836 12.678689 -0.3184741 -0.036994077 -0.9472095 77 77 62 255
-472.54004 104.67285 16.662226 -0.3184741 -0.036994077 -0.9472095 77 77 62 255
-430.36426 104.7666 2.4779181 -0.31847408 -0.036994074 -0.9472095 77 77 62 255
-500 164.7793 -15.327715 -0.35415834 -0.48456904 -0.799853 77 77 62 255
-499.62402 162.02832 -13.827362 -0.35415834 -0.48456904 -0.799853 77 77 62 255
-480.99316 186.6836 -37.013832 -0.35415834 -0.48456904 -0.799853 77 77 62 255
-500 164.7793 -15.327715 -0.35415834 -0.48456904 -0.799853 77 77 62 255
-480.99316 186.6836 -37.013832 -0.35415834 -0.48456904 -0.799853 77 77 62 255
-500 190.62988 -30.988823 -0.35415834 -0.48456904 -0.799853 77 77 62 255
-500 162.09375 -13.762555 -0.22987951 -0.48996443 -0.8408866 77 77 62 255
-499.62402 162.02832 -13.827362 -0.22987951 -0.48996443 -0.8408866 77 77 62 255
-500 164.7793 -15.327715 -0.22987951 -0.48996443 -0.8408866 77 77 62 255
-500 284.60742 -74.4447 -0.41937834 0.059250873 -0.90587586 77 77 62 255
-500 275.54883 -75.03714 -0.41937834 0.059250873 -0.90587586 77 77 62 255
-487.05762 281.58984 -80.633736 -0.41937834 0.059250873 -0.90587586 77 77 62 255
-500 275.54883 -75.03714 -0.1369329 -0.49925968 -0.8555637 77 77 62 255
-500 263.48633 -67.99783 -0.1369329 -0.49925968 -0.8555637 77 77 62 255
-487.05762 281.58984 -80.633736 -0.1369329 -0.49925968 -0.8555637 77 77 62 255
-418.54004 249.6875 -83.809326 -0.20329279 -0.49789158 -0.8430754 77 77 62 255
-459.64453 262.44434 -81.431656 -0.2032928 -0.49789158 -0.8430754 77 77 62 255
-404.85254 211.39648 -64.49669 -0.20329282 -0.49789158 -0.8430754 77 77 62 255
-351.33496 185.10547 -84.12287 -0.508385 -0.5257228 -0.6820266 77 77 62 255
-418.54004 249.6875 -83.809326 -0.508385 -0.5257228 -0.6820266 77 77 62 255
-404.85254 211.39648 -64.49669 -0.508385 -0.5257228 -0.6820266 77 77 62 255
-483.0078 73.58496 8.369526 -0.7017348 -0.54491884 -0.45894638 77 77 62 255
-467.8369 60.938477 0.18771008 -0.7017348 -0.5449188 -0.45894638 77 77 62 255
-462.5879 64.98535 -12.641909 -0.7017348 -0.5449188 -0.4589464 77 77 62 255
-500 72.7041 7.513973 0.013177319 0.5542508 -0.83224535 77 77 62 255
-467.8369 60.938477 0.18771008 0.013177319 0.5542508 -0.83224535 77 77 62 255
-483.0078 73.58496 8.369526 0.013177319 0.5542508 -0.83224535 77 77 62 255
-500 72.7041 7.513973 0.013177319 0.5542508 -0.83224535 77 77 62 255
-483.0078 73.58496 8.369526 0.013177319 0.5542508 -0.83224535 77 77 62 255
-500 74.82129 8.924051 0.013177319 0.5542508 -0.83224535 77 77 62 255
-404.46777 108.15625 -39.710945 -0.76473415 0.10956442 -0.63496244 77 77 62 255
-397.66992 133.50684 -43.523487 -0.7647342 0.10956443 -0.63496244 77 77 62 255
-416.0752 118.92578 -23.872858 -0.76473415 0.10956443 -0.63496244 77 77 62 255
-416.0752 118.92578 -23.872858 -0.7296192 0.18274133 -0.65898514 77 77 62 255
-420.68945 83.25781 -28.655607 -0.7296192 0.18274133 -0.65898514 77 77 62 255
-404.46777 108.15625 -39.710945 -0.72961926 0.18274134 -0.65898514 77 77 62 255
-344.60547 108.046875 -73.70625 -0.3326368 -0.3588971 -0.8720927 77 77 62 255
-317.19238 108.046875 -84.16203 -0.3326368 -0.3588971 -0.8720926 77 77 62 255
-344.60547 133.58008 -84.214294 -0.3326368 -0.3588971 -0.8720927 77 77 62 255
-480.99316 186.6836 -37.013832 -0.04349835 -0.53468615 -0.8439304 77 77 62 255
-445.95508 211.39648 -54.47677 -0.04349835 -0.53468615 -0.8439304 77 77 62 255
-459.64453 224.1543 -61.85394 -0.043498345 -0.5346861 -0.8439304 77 77 62 255
-445.95508 211.39648 -54.47677 0.18890177 -0.33176953 -0.9242539 77 77 62 255
-473.3506 249.6875 -73.820625 0.18890178 -0.33176953 -0.9242539 77 77 62 255
-459.64453 224.1543 -61.85394 0.18890178 -0.33176947 -0.9242539 77 77 62 255
-441.85156 19.120117 -33.683346 -0.34684953 0.643687 -0.6821748 77 77 62 255
-500 11.051758 -11.731104 -0.34684953 0.643687 -0.6821748 77 77 62 255
-500 8.94043 -13.722768 -0.34684953 0.643687 -0.6821748 77 77 62 255
-441.85156 19.120117 -33.683346 -0.34684953 0.643687 -0.6821748 77 77 62 255
-500 8.94043 -13.722768 -0.34684953 0.643687 -0.6821748 77 77 62 255
-449.03516 5.9804688 -42.429443 -0.34684953 0.643687 -0.6821748 77 77 62 255
-441.85156 19.120117 -33.683346 -0.55256057 0.64963984 -0.5221541 77 77 62 255
-449.03516 5.9804688 -42.429443 -0.55256057 0.64963984 -0.5221541 77 77 62 255
-440.51758 -6.826172 -67.37588 -0.5525605 0.64963984 -0.5221541 77 77 62 255
-480.99316 186.6836 -37.013832 -0.23166713 -0.54599905 -0.8051182 77 77 62 255
-484.26758 168.7998 -23.943428 -0.23166713 -0.54599905 -0.8051182 77 77 62 255
-466.875 163.90918 -25.630947 -0.23166713 -0.54599905 -0.8051182 77 77 62 255
-480.99316 186.6836 -37.013832 -0.29168695 -0.5290097 -0.79691124 77 77 62 255
-499.62402 162.02832 -13.827362 -0.29168698 -0.5290097 -0.79691124 77 77 62 255
-484.26758 168.7998 -23.943428 -0.29168695 -0.5290097 -0.79691124 77 77 62 255
-481.62012 -45.11621 -51.690136 -0.38898098 0.65654117 -0.6462565 77 77 62 255
-477.55762 -32.197266 -41.01101 -0.38898098 0.6565411 -0.6462565 77 77 62 255
-491.46777 -32.20703 -32.648754 -0.388981 0.6565412 -0.6462565 77 77 62 255
-491.46777 -32.20703 -32.648754 -0.46752766 0.42117253 -0.7771946 77 77 62 255
-477.55762 -32.197266 -41.01101 -0.46752772 0.42117253 -0.7771946 77 77 62 255
-499.41016 -10.313477 -16.006351 -0.46752775 0.42117262 -0.7771946 77 77 62 255
-385.70898 120.80371 -59.25171 -0.41181007 0.25909957 -0.8736589 77 77 62 255
-385.70898 108.046875 -63.03518 -0.41180998 0.25909954 -0.8736589 77 77 62 255
-372.00195 108.046875 -69.49638 -0.41180998 0.25909957 -0.8736589 77 77 62 255
-385.70898 108.046875 -63.03518 -0.69204783 0.20524271 -0.6920587 77 77 62 255
-385.70898 120.80371 -59.25171 -0.69204783 0.20524271 -0.6920587 77 77 62 255
-397.66992 133.50684 -43.523487 -0.69204783 0.20524271 -0.6920587 77 77 62 255
-481.62012 -57.874023 -59.04196 -0.5019298 0.4318496 -0.74938136 77 77 62 255
-481.62012 -45.11621 -51.690136 -0.5019298 0.43184957 -0.74938136 77 77 62 255
-495.3086 -45.11621 -42.521515 -0.5019298 0.43184963 -0.74938136 77 77 62 255
-491.46777 -32.20703 -32.648754 -0.43433043 0.6251899 -0.64845556 77 77 62 255
-495.3086 -45.11621 -42.521515 -0.4343305 0.6251899 -0.6484556 77 77 62 255
-481.62012 -45.11621 -51.690136 -0.43433043 0.62518996 -0.64845556 77 77 62 255
-476.458 129.12305 12.020847 -0.19518596 -0.539495 -0.8190529 77 77 62 255
-477.8789 140.56055 4.8258705 -0.19518594 -0.539495 -0.8190529 77 77 62 255
-486.917 141.17188 6.576538 -0.19518593 -0.53949493 -0.8190529 77 77 62 255
-477.8789 140.56055 4.8258705 -0.15215506 -0.539751 -0.82795995 77 77 62 255
-476.458 129.12305 12.020847 -0.15215507 -0.53975105 -0.82795995 77 77 62 255
-457.6631 129.12207 8.567278 -0.15215507 -0.53975105 -0.82795995 77 77 62 255
-500 251.42383 -57.459145 0.18200889 -0.64695174 -0.7404905 77 77 62 255
-487.05762 281.58984 -80.633736 0.18200889 -0.64695174 -0.7404905 77 77 62 255
-500 263.48633 -67.99783 0.18200889 -0.64695174 -0.7404905 77 77 62 255
-358.29395 88.90039 -78.95673 -0.42215338 0.1402956 -0.89560246 77 77 62 255
-372.00195 108.046875 -69.49638 -0.42215338 0.1402956 -0.89560246 77 77 62 255
-385.70898 108.046875 -63.03518 -0.42215338 0.1402956 -0.89560246 77 77 62 255
-358.29395 88.90039 -78.95673 -0.14199443 0.3549327 -0.9240457 77 77 62 255
-344.60547 108.046875 -73.70625 -0.14199443 0.3549327 -0.9240457 77 77 62 255
-372.00195 108.046875 -69.49638 -0.14199443 0.35493267 -0.9240457 77 77 62 255
-330.8994 82.512695 -82.96011 -0.066851124 0.30805477 -0.949017 77 77 62 255
-344.60547 108.046875 -73.70625 -0.066851124 0.30805477 -0.949017 77 77 62 255
-358.29395 88.90039 -78.95673 -0.06685113 0.30805477 -0.949017 77 77 62 255
-344.60547 108.046875 -73.70625 -0.35257438 0.14574692 -0.9243642 77 77 62 255
-330.8994 82.512695 -82.96011 -0.35257438 0.14574692 -0.9243642 77 77 62 255
-317.19238 108.046875 -84.16203 -0.35257438 0.14574693 -0.9243642 77 77 62 255
500 500 -147.2919 0.5527972 0.41898802 -0.7203223 77 77 62 255
499.8125 500 -147.43613 0.5527972 0.41898802 -0.7203223 77 77 62 255
500 499.7373 -147.44469 0.5527972 0.41898802 -0.7203223 77 77 62 255
-500 120.086914 13.092291 0.059239965 -0.060321935 -0.9964196 54 64 7 255
-498.51758 121.08887 13.119773 0.059239965 -0.060321935 -0.9964196 54 64 7 255
-500 121.07129 13.03273 0.059239965 -0.060321935 -0.9964196 54 64 7 255
-500 83.08984 14.454562 0.13671437 -0.0576788 -0.9889299 54 64 7 255
-497.87793 84.20801 14.682743 0.13671437 -0.0576788 -0.9889299 54 64 7 255
-500 85.075195 14.33877 0.13671437 -0.0576788 -0.9889299 54 64 7 255
-497.87793 84.20801 14.682743 0.18988258 -0.038280785 -0.98106027 54 64 7 255
-480.6963 110.493164 16.98251 0.18988258 -0.038280785 -0.98106027 54 64 7 255
-498.51758 121.08887 13.119773 0.18988256 -0.038280785 -0.98106027 54 64 7 255
-500 122.44043 12.939939 0.059299994 -0.06749809 -0.99595565 54 64 7 255
-500 121.07129 13.03273 0.059299994 -0.06749809 -0.99595565 54 64 7 255
-498.51758 121.08887 13.119773 0.059299994 -0.06749809 -0.99595565 54 64 7 255
-500 119.11621 13.064954 -0.028100552 0.04886095 -0.9984102 54 64 7 255
-500 118.18457 13.019366 -0.028100552 0.04886095 -0.9984102 54 64 7 255
-498.51758 121.08887 13.119773 -0.028100552 0.04886095 -0.9984102 54 64 7 255
-500 119.11621 13.064954 -0.00049115554 0.02814657 -0.99960375 54 64 7 255
-498.51758 121.08887 13.119773 -0.00049115554 0.02814657 -0.99960375 54 64 7 255
-500 120.086914 13.092291 -0.00049115554 0.02814657 -0.99960375 54 64 7 255
-500 85.075195 14.33877 0.1441604 -0.03940092 -0.98876965 54 64 7 255
-497.87793 84.20801 14.682743 0.1441604 -0.03940092 -0.98876965 54 64 7 255
-498.51758 121.08887 13.119773 0.1441604 -0.03940092 -0.98876965 54 64 7 255
-500 85.075195 14.33877 0.1441604 -0.03940092 -0.98876965 54 64 7 255
-498.51758 121.08887 13.119773 0.1441604 -0.03940092 -0.98876965 54 64 7 255
-500 118.18457 13.019366 0.1441604 -0.03940092 -0.98876965 54 64 7 255
3 2 1 0
3 5 4 3
3 8 7 6
3 11 10 9
3 14 13 12
3 17 16 15
3 20 19 18
3 23 22 21
3 26 25 24
3 29 28 27
3 32 31 30
3 35 34 33
3 38 37 36
3 41 40 39
3 44 43 42
3 47 46 45
3 50 49 48
3 53 52 51
3 56 55 54
3 59 58 57
3 62 61 60
3 65 64 63
3 68 67 66
3 71 70 69
3 74 73 72
3 77 76 75
3 80 79 78
3 83 82 81
3 86 85 84
3 89 88 87
3 92 91 90
3 95 94 93
3 98 97 96
3 101 100 99
3 104 103 102
3 107 106 105
3 110 109 108
3 113 112 111
3 116 115 114
3 119 118 117
3 122 121 120
3 125 124 123
3 128 127 126
3 131 130 129
3 134 133 132
3 137 136 135
3 140 139 138
3 143 142 141
3 146 145 144
3 149 148 147
3 152 151 150
3 155 154 153
3 158 157 156
3 161 160 159
3 164 163 162
3 167 166 165
3 170 169 168
3 173 172 171
3 176 175 174
3 179 178 177
3 182 181 180
3 185 184 183
3 188 187 186
3 191 190 189
3 194 193 192
3 197 196 195
3 200 199 198
3 203 202 201
3 206 205 204
3 209 208 207
3 212 211 210
3 215 214 213
3 218 217 216
3 221 220 219
3 224 223 222
3 227 226 225
3 230 229 228
3 233 232 231
3 236 235 234
3 239 238 237
3 242 241 240
3 245 244 243
3 248 247 246
3 251 250 249
3 254 253 252
3 257 256 255
3 260 259 258
3 263 262 261
3 266 265 264
3 269 268 267
3 272 271 270
3 275 274 273
3 278 277 276
3 281 280 279
3 284 283 282
3 287 286 285
3 290 289 288
3 293 292 291
3 296 295 294
3 299 298 297
3 302 301 300
3 305 304 303
3 308 307 306
3 311 310 309
3 314 313 312
3 317 316 315
3 320 319 318
3 323 322 321
3 326 325 324
3 329 328 327
3 332 331 330
3 335 334 333
3 338 337 336
3 341 340 339
3 344 343 342
3 347 346 345
3 350 349 348
3 353 352 351
3 356 355 354
3 359 358 357
3 362 361 360
3 365 364 363
3 368 367 366
3 371 370 369
3 374 373 372
3 377 376 375
3 380 379 378
3 383 382 381
3 386 385 384
3 389 388 387
3 392 391 390
3 395 394 393
3 398 397 396
3 401 400 399
3 404 403 402
3 407 406 405
3 410 409 408
3 413 412 411
3 416 415 414
3 419 418 417
3 422 421 420
3 425 424 423
3 428 427 426
3 431 430 429
3 434 433 432
3 437 436 435
3 440 439 438
3 443 442 441
3 446 445 444
3 449 448 447
3 452 451 450
3 455 454 453
3 458 457 456
3 461 460 459
3 464 463 462
3 467 466 465
3 470 469 468
3 473 472 471
3 476 475 474
3 479 478 477
3 482 481 480
3 485 484 483
3 488 487 486
3 491 490 489
3 494 493 492
3 497 496 495
3 500 499 498
3 503 502 501
3 506 505 504
3 509 508 507
3 512 511 510
3 515 514 513
3 518 517 516
3 521 520 519
3 524 523 522
3 527 526 525
3 530 529 528
3 533 532 531
3 536 535 534
3 539 538 537
3 542 541 540
3 545 544 543
3 548 547 546
3 551 550 549
3 554 553 552
3 557 556 555
3 560 559 558

