ply
format ascii 1.0
commentY29udmVydGVyIGJ5IENvZGVMZW9wYXJk
comment Original mesh name: 'C:\Program Files (x86)\Steam\steamapps\common\Stormworks NSO\rom\meshes\mainland\mega_island_17_8.mesh'
comment SubMesh index: 0
comment SubMesh name: ''
comment Shader: Opaque (0)
element vertex 165
property float x
property float y
property float z
property float nx
property float ny
property float nz
property uchar red
property uchar green
property uchar blue
property uchar alpha
element face 55
property list uchar ushort vertex_index
end_header
94.39453 -472.84033 -110.971344 0.19149196 -0.74824303 -0.63518757 77 77 62 255
35.064453 -443.67493 -163.21411 0.19149196 -0.748243 -0.6351875 77 77 62 255
28.46875 -472.8396 -130.8467 0.19149196 -0.748243 -0.63518757 77 77 62 255
147.14258 -466.70215 -145.70657 -0.16127364 -0.66799533 -0.7264799 77 77 62 255
166.92188 -454.42468 -161.38672 -0.16127366 -0.6679954 -0.7264799 77 77 62 255
122.96875 -433.94373 -170.4617 -0.16127364 -0.66799533 -0.7264799 77 77 62 255
269.55273 -500 -141.28418 -0.21409391 -0.7779716 -0.5906979 77 77 62 255
315.7793 -500 -158.03893 -0.21409391 -0.7779716 -0.5906979 77 77 62 255
318.55664 -497.41272 -162.45296 -0.21409391 -0.7779716 -0.5906979 77 77 62 255
269.55273 -500 -141.28418 -0.21409391 -0.7779716 -0.5906979 77 77 62 255
318.55664 -497.41272 -162.45296 -0.21409391 -0.7779716 -0.5906979 77 77 62 255
257.5664 -478.98743 -164.61444 -0.21409391 -0.7779716 -0.5906979 77 77 62 255
-24.269531 -448.2859 -168.69325 0.11825421 -0.7541896 -0.64592105 77 77 62 255
-4.4921875 -460.56335 -150.73698 0.11825421 -0.7541896 -0.64592105 77 77 62 255
35.064453 -443.67493 -163.21411 0.11825421 -0.75418955 -0.645921 77 77 62 255
-4.4921875 -460.56335 -150.73698 0.7410671 -0.46771476 -0.48172846 77 77 62 255
-11.078125 -485.13525 -137.00995 0.7410672 -0.46771476 -0.48172855 77 77 62 255
15.285156 -497.41272 -84.53485 0.74106723 -0.46771482 -0.48172852 77 77 62 255
47.48828 -500 -49.31606 -0.22588238 -0.81639755 -0.53148097 77 77 62 255
82.73633 -500 -64.2976 -0.22588238 -0.81639755 -0.53148097 77 77 62 255
94.39453 -472.84033 -110.971344 -0.22588238 -0.81639755 -0.53148097 77 77 62 255
47.48828 -500 -49.31606 -0.22588238 -0.81639755 -0.53148097 77 77 62 255
94.39453 -472.84033 -110.971344 -0.22588238 -0.81639755 -0.53148097 77 77 62 255
46.029297 -497.56836 -52.431557 -0.22588238 -0.81639755 -0.53148097 77 77 62 255
147.14258 -466.70215 -145.70657 -0.21472088 -0.88019264 -0.4232681 77 77 62 255
163.02344 -500 -84.51899 -0.21472088 -0.88019264 -0.4232681 77 77 62 255
180.25195 -500 -93.25937 -0.21472088 -0.88019264 -0.4232681 77 77 62 255
147.14258 -466.70215 -145.70657 -0.21472088 -0.88019264 -0.4232681 77 77 62 255
180.25195 -500 -93.25937 -0.21472088 -0.88019264 -0.4232681 77 77 62 255
186.69727 -478.98718 -140.2257 -0.21472088 -0.88019264 -0.4232681 77 77 62 255
81.2168 -435.99683 -163.7853 0.12558894 -0.79868174 -0.58850235 77 77 62 255
35.064453 -443.67493 -163.21411 0.12558892 -0.7986818 -0.5885022 77 77 62 255
94.39453 -472.84033 -110.971344 0.12558892 -0.79868174 -0.5885022 77 77 62 255
20.839844 -500 -74.56971 0.4797134 -0.7464141 -0.4612386 77 77 62 255
15.285156 -497.41272 -84.53485 0.4797134 -0.7464141 -0.4612386 77 77 62 255
14.591797 -500 -81.06984 0.4797134 -0.7464141 -0.4612386 77 77 62 255
255.14844 -500 -142.06924 -0.02310513 -0.7301014 -0.68294805 77 77 62 255
257.5664 -478.98743 -164.61444 -0.02310513 -0.7301014 -0.68294805 77 77 62 255
231.61914 -500 -141.2733 -0.02310513 -0.7301014 -0.68294805 77 77 62 255
81.2168 -435.99683 -163.7853 -0.2013699 -0.82621723 -0.52613235 77 77 62 255
94.39453 -472.84033 -110.971344 -0.20136987 -0.82621723 -0.5261324 77 77 62 255
120.7793 -472.84033 -121.06984 -0.20136987 -0.82621723 -0.52613235 77 77 62 255
123.546875 -500 -64.13064 -0.09924163 -0.8828108 -0.4591256 77 77 62 255
107.58789 -485.13525 -89.262955 -0.09924163 -0.8828108 -0.4591256 77 77 62 255
107.58789 -500 -60.680943 -0.09924163 -0.8828108 -0.4591256 77 77 62 255
321.33203 -500 -160.95157 -0.19687389 -0.6414752 -0.74145144 77 77 62 255
328.2793 -500 -162.79614 -0.19687389 -0.6414752 -0.74145144 77 77 62 255
318.55664 -497.41272 -162.45296 -0.19687389 -0.6414752 -0.74145144 77 77 62 255
321.33203 -500 -160.95157 -0.16122814 -0.6190165 -0.7686508 77 77 62 255
318.55664 -497.41272 -162.45296 -0.16122814 -0.6190165 -0.7686508 77 77 62 255
317.86133 -500 -160.22363 -0.16122814 -0.6190165 -0.7686508 77 77 62 255
147.14258 -497.41272 -93.40454 -0.30523202 -0.8201173 -0.48398456 77 77 62 255
133.94922 -485.13525 -105.888855 -0.30523202 -0.8201173 -0.4839845 77 77 62 255
107.58789 -485.13525 -89.262955 -0.30523202 -0.8201173 -0.48398456 77 77 62 255
163.02344 -500 -84.51899 0.14139538 -0.8536686 -0.5012557 77 77 62 255
147.14258 -466.70215 -145.70657 0.14139538 -0.8536686 -0.5012557 77 77 62 255
147.14258 -497.41272 -93.40454 0.14139538 -0.8536686 -0.5012557 77 77 62 255
163.02344 -500 -84.51899 0.14139538 -0.8536686 -0.5012557 77 77 62 255
147.14258 -497.41272 -93.40454 0.14139538 -0.8536686 -0.5012557 77 77 62 255
149.91797 -500 -88.215225 0.14139538 -0.8536686 -0.5012557 77 77 62 255
101.421875 -500 -59.77774 0.11560167 -0.87080115 -0.47785106 77 77 62 255
94.39453 -472.84033 -110.971344 0.11560167 -0.87080115 -0.47785106 77 77 62 255
82.73633 -500 -64.2976 0.11560167 -0.87080115 -0.47785106 77 77 62 255
81.2168 -435.99683 -163.7853 -0.06051758 -0.78288674 -0.619214 77 77 62 255
120.7793 -472.84033 -121.06984 -0.060517598 -0.7828867 -0.61921406 77 77 62 255
122.96875 -433.94373 -170.4617 -0.060517594 -0.78288674 -0.6192141 77 77 62 255
209.2539 -500 -133.57648 -0.55811685 -0.72616524 -0.40148428 77 77 62 255
186.69727 -478.98718 -140.2257 -0.55811685 -0.72616524 -0.40148428 77 77 62 255
180.25195 -500 -93.25937 -0.55811685 -0.72616524 -0.40148428 77 77 62 255
209.2539 -500 -133.57648 -0.27301863 -0.54411995 -0.7933437 77 77 62 255
231.61914 -500 -141.2733 -0.27301863 -0.54411995 -0.7933437 77 77 62 255
257.5664 -478.98743 -164.61444 -0.27301863 -0.54411995 -0.7933437 77 77 62 255
209.2539 -500 -133.57648 -0.27301863 -0.54411995 -0.7933437 77 77 62 255
257.5664 -478.98743 -164.61444 -0.27301863 -0.54411995 -0.7933437 77 77 62 255
186.69727 -478.98718 -140.2257 -0.27301863 -0.54411995 -0.7933437 77 77 62 255
20.839844 -500 -74.56971 0.4767979 -0.74888533 -0.46025473 77 77 62 255
45.15039 -500 -49.385803 0.4767979 -0.74888533 -0.46025473 77 77 62 255
46.029297 -497.56836 -52.431557 0.4767979 -0.74888533 -0.46025473 77 77 62 255
20.839844 -500 -74.56971 0.4767979 -0.74888533 -0.46025473 77 77 62 255
46.029297 -497.56836 -52.431557 0.4767979 -0.74888533 -0.46025473 77 77 62 255
15.285156 -497.41272 -84.53485 0.4767979 -0.74888533 -0.46025473 77 77 62 255
-21.93164 -500 -133.94968 0.48904318 -0.50366473 -0.71215075 77 77 62 255
-11.078125 -500 -126.49695 0.48904318 -0.50366473 -0.71215075 77 77 62 255
-11.078125 -485.13525 -137.00995 0.48904318 -0.50366473 -0.71215075 77 77 62 255
-21.93164 -500 -133.94968 0.48904318 -0.50366473 -0.71215075 77 77 62 255
-11.078125 -485.13525 -137.00995 0.48904318 -0.50366473 -0.71215075 77 77 62 255
-39.335938 -474.60156 -163.86469 0.48904318 -0.50366473 -0.71215075 77 77 62 255
257.5664 -478.98743 -164.61444 -0.23883076 -0.67921114 -0.69399714 77 77 62 255
219.6543 -460.56335 -169.59885 -0.23883075 -0.67921114 -0.69399714 77 77 62 255
186.69727 -478.98718 -140.2257 -0.23883076 -0.6792112 -0.69399714 77 77 62 255
317.86133 -500 -160.22363 -0.6720662 -0.37149364 -0.6405619 77 77 62 255
318.55664 -497.41272 -162.45296 -0.6720662 -0.37149364 -0.6405619 77 77 62 255
315.7793 -500 -158.03893 -0.6720662 -0.37149364 -0.6405619 77 77 62 255
-21.93164 -500 -133.94968 0.76309305 -0.20066938 -0.61434585 77 77 62 255
-39.335938 -474.60156 -163.86469 0.76309305 -0.20066938 -0.61434585 77 77 62 255
-45.390625 -500 -163.0905 0.76309305 -0.20066938 -0.61434585 77 77 62 255
15.285156 -497.41272 -84.53485 -0.039153785 -0.8780175 -0.47702438 77 77 62 255
28.46875 -472.8396 -130.8467 -0.039153785 -0.8780175 -0.47702438 77 77 62 255
-4.4921875 -460.56335 -150.73698 -0.039153777 -0.8780175 -0.47702432 77 77 62 255
-3.1035156 -500 -102.56765 0.9258391 -0.2182193 -0.30854863 77 77 62 255
-11.078125 -485.13525 -137.00995 0.9258391 -0.2182193 -0.30854863 77 77 62 255
-11.078125 -500 -126.49695 0.9258391 -0.2182193 -0.30854863 77 77 62 255
-3.1035156 -500 -102.56765 0.530311 -0.7268176 -0.43647042 77 77 62 255
14.591797 -500 -81.06984 0.530311 -0.7268176 -0.43647042 77 77 62 255
15.285156 -497.41272 -84.53485 0.530311 -0.7268176 -0.43647042 77 77 62 255
-3.1035156 -500 -102.56765 0.530311 -0.7268176 -0.43647042 77 77 62 255
15.285156 -497.41272 -84.53485 0.530311 -0.7268176 -0.43647042 77 77 62 255
-11.078125 -485.13525 -137.00995 0.530311 -0.7268176 -0.43647042 77 77 62 255
122.96875 -433.94373 -170.4617 -0.47772184 -0.72615784 -0.49444583 77 77 62 255
133.94922 -485.13525 -105.888855 -0.47772184 -0.72615784 -0.49444577 77 77 62 255
147.14258 -466.70215 -145.70657 -0.47772187 -0.72615784 -0.49444577 77 77 62 255
147.14258 -497.41272 -93.40454 -0.30767518 -0.8205018 -0.48178092 77 77 62 255
147.14258 -466.70215 -145.70657 -0.30767518 -0.8205018 -0.48178092 77 77 62 255
133.94922 -485.13525 -105.888855 -0.30767518 -0.82050174 -0.48178092 77 77 62 255
-11.078125 -485.13525 -137.00995 0.4768456 -0.52261335 -0.7067486 77 77 62 255
-4.4921875 -460.56335 -150.73698 0.4768456 -0.5226134 -0.7067486 77 77 62 255
-39.335938 -474.60156 -163.86469 0.4768456 -0.52261335 -0.7067486 77 77 62 255
101.421875 -500 -59.77774 -0.067436375 -0.8851708 -0.46035314 77 77 62 255
107.58789 -500 -60.680943 -0.067436375 -0.8851708 -0.46035314 77 77 62 255
107.58789 -485.13525 -89.262955 -0.067436375 -0.8851708 -0.46035314 77 77 62 255
101.421875 -500 -59.77774 -0.067436375 -0.8851708 -0.46035314 77 77 62 255
107.58789 -485.13525 -89.262955 -0.067436375 -0.8851708 -0.46035314 77 77 62 255
94.39453 -472.84033 -110.971344 -0.067436375 -0.8851708 -0.46035314 77 77 62 255
107.58789 -485.13525 -89.262955 -0.15780053 -0.89728 -0.41229573 77 77 62 255
120.7793 -472.84033 -121.06984 -0.15780053 -0.89728 -0.41229573 77 77 62 255
94.39453 -472.84033 -110.971344 -0.15780053 -0.89728 -0.4122957 77 77 62 255
47.48828 -500 -49.31606 0.018513935 -0.7839565 -0.6205395 77 77 62 255
46.029297 -497.56836 -52.431557 0.018513935 -0.7839565 -0.6205395 77 77 62 255
45.15039 -500 -49.385803 0.018513935 -0.7839565 -0.6205395 77 77 62 255
122.96875 -433.94373 -170.4617 -0.019272642 -0.78507113 -0.61910564 77 77 62 255
120.7793 -472.84033 -121.06984 -0.019272644 -0.78507113 -0.6191057 77 77 62 255
133.94922 -485.13525 -105.888855 -0.019272642 -0.78507113 -0.61910564 77 77 62 255
120.7793 -472.84033 -121.06984 -0.28072858 -0.85032326 -0.44513127 77 77 62 255
107.58789 -485.13525 -89.262955 -0.28072858 -0.85032326 -0.44513127 77 77 62 255
133.94922 -485.13525 -105.888855 -0.28072858 -0.85032326 -0.4451312 77 77 62 255
149.91797 -500 -88.215225 -0.25450584 -0.912935 -0.31902418 77 77 62 255
147.14258 -497.41272 -93.40454 -0.25450584 -0.912935 -0.31902418 77 77 62 255
144.36133 -500 -83.78276 -0.25450584 -0.912935 -0.31902418 77 77 62 255
123.546875 -500 -64.13064 -0.31118158 -0.8913639 -0.32960027 77 77 62 255
144.36133 -500 -83.78276 -0.31118158 -0.8913639 -0.32960027 77 77 62 255
147.14258 -497.41272 -93.40454 -0.31118158 -0.8913639 -0.32960027 77 77 62 255
123.546875 -500 -64.13064 -0.31118158 -0.8913639 -0.32960027 77 77 62 255
147.14258 -497.41272 -93.40454 -0.31118158 -0.8913639 -0.32960027 77 77 62 255
107.58789 -485.13525 -89.262955 -0.31118158 -0.8913639 -0.32960027 77 77 62 255
269.55273 -500 -141.28418 0.037016872 -0.73301095 -0.67920893 77 77 62 255
257.5664 -478.98743 -164.61444 0.037016872 -0.73301095 -0.67920893 77 77 62 255
255.14844 -500 -142.06924 0.037016872 -0.73301095 -0.67920893 77 77 62 255
28.46875 -472.8396 -130.8467 0.114321895 -0.74950707 -0.6520503 77 77 62 255
35.064453 -443.67493 -163.21411 0.11432189 -0.74950707 -0.6520503 77 77 62 255
-4.4921875 -460.56335 -150.73698 0.114321895 -0.7495072 -0.65205026 77 77 62 255
28.46875 -472.8396 -130.8467 0.36458212 -0.8615311 -0.35333285 77 77 62 255
15.285156 -497.41272 -84.53485 0.36458212 -0.8615311 -0.35333285 77 77 62 255
46.029297 -497.56836 -52.431557 0.36458215 -0.8615311 -0.35333285 77 77 62 255
46.029297 -497.56836 -52.431557 0.09612812 -0.94290805 -0.3188791 77 77 62 255
94.39453 -472.84033 -110.971344 0.09612811 -0.94290805 -0.31887907 77 77 62 255
28.46875 -472.8396 -130.8467 0.09612811 -0.94290805 -0.31887907 77 77 62 255
-24.269531 -448.2859 -168.69325 0.46134782 -0.4086101 -0.7875253 77 77 62 255
-39.335938 -474.60156 -163.86469 0.46134782 -0.4086101 -0.7875253 77 77 62 255
-4.4921875 -460.56335 -150.73698 0.46134782 -0.4086101 -0.7875253 77 77 62 255
186.69727 -478.98718 -140.2257 -0.120745495 -0.70193607 -0.70193034 77 77 62 255
166.92188 -454.42468 -161.38672 -0.120745495 -0.7019361 -0.70193034 77 77 62 255
147.14258 -466.70215 -145.70657 -0.120745495 -0.70193607 -0.70193046 77 77 62 255
186.69727 -478.98718 -140.2257 -0.18768287 -0.72346175 -0.66436315 77 77 62 255
219.6543 -460.56335 -169.59885 -0.18768287 -0.72346175 -0.6643631 77 77 62 255
166.92188 -454.42468 -161.38672 -0.18768285 -0.72346175 -0.6643631 77 77 62 255
3 2 1 0
3 5 4 3
3 8 7 6
3 11 10 9
3 14 13 12
3 17 16 15
3 20 19 18
3 23 22 21
3 26 25 24
3 29 28 27
3 32 31 30
3 35 34 33
3 38 37 36
3 41 40 39
3 44 43 42
3 47 46 45
3 50 49 48
3 53 52 51
3 56 55 54
3 59 58 57
3 62 61 60
3 65 64 63
3 68 67 66
3 71 70 69
3 74 73 72
3 77 76 75
3 80 79 78
3 83 82 81
3 86 85 84
3 89 88 87
3 92 91 90
3 95 94 93
3 98 97 96
3 101 100 99
3 104 103 102
3 107 106 105
3 110 109 108
3 113 112 111
3 116 115 114
3 119 118 117
3 122 121 120
3 125 124 123
3 128 127 126
3 131 130 129
3 134 133 132
3 137 136 135
3 140 139 138
3 143 142 141
3 146 145 144
3 149 148 147
3 152 151 150
3 155 154 153
3 158 157 156
3 161 160 159
3 164 163 162

