ply
format ascii 1.0
commentY29udmVydGVyIGJ5IENvZGVMZW9wYXJk
comment Original mesh name: 'C:\Program Files (x86)\Steam\steamapps\common\Stormworks NSO\rom\meshes\mainland\mega_island_19_2.mesh'
comment SubMesh index: 0
comment SubMesh name: ''
comment Shader: Opaque (0)
element vertex 333
property float x
property float y
property float z
property float nx
property float ny
property float nz
property uchar red
property uchar green
property uchar blue
property uchar alpha
element face 111
property list uchar ushort vertex_index
end_header
-442.03125 196.28369 -97.844444 -0.87545323 0.22673975 -0.42681462 77 77 62 255
-468.41602 233.13379 -24.149248 -0.87545323 0.22673978 -0.42681468 77 77 62 255
-494.78125 208.5791 16.884321 -0.87545323 0.22673978 -0.4268147 77 77 62 255
-500 128.33643 -37.117767 -0.9063946 -0.3714494 -0.20118195 77 77 62 255
-500 117.19824 -16.554924 -0.9063946 -0.3714494 -0.20118195 77 77 62 255
-494.78125 110.308105 -27.346107 -0.9063946 -0.3714494 -0.20118195 77 77 62 255
-500 128.33643 -37.117767 -0.9063946 -0.3714494 -0.20118195 77 77 62 255
-494.78125 110.308105 -27.346107 -0.9063946 -0.3714494 -0.20118195 77 77 62 255
-468.4121 110.308105 -146.14082 -0.9063946 -0.3714494 -0.20118195 77 77 62 255
-415.66797 171.72998 -191.09792 -0.68019354 0.27934384 -0.6777196 77 77 62 255
-402.4746 110.308105 -229.65556 -0.68019354 0.27934384 -0.67771953 77 77 62 255
-376.11328 171.72998 -230.7973 -0.68019354 0.27934384 -0.67771953 77 77 62 255
-500 309.39404 -151.04073 -0.21543846 -0.9075491 -0.36047313 77 77 62 255
-494.7754 319.12744 -178.66943 -0.21543846 -0.9075491 -0.36047313 77 77 62 255
-500 320.74902 -179.62978 -0.21543846 -0.9075491 -0.36047313 77 77 62 255
-481.58594 -24.811035 -291.26544 -0.13819255 0.82191974 -0.55258554 77 77 62 255
-442.03125 24.33252 -228.06073 -0.13819253 0.82191974 -0.5525855 77 77 62 255
-494.78125 36.61035 -196.60718 -0.13819253 0.82191974 -0.5525855 77 77 62 255
-494.78125 110.308105 -27.346107 -0.9474512 0.24106534 -0.21029483 77 77 62 255
-468.4121 85.73633 -174.30807 -0.9474512 0.24106535 -0.21029483 77 77 62 255
-468.4121 110.308105 -146.14082 -0.9474512 0.24106534 -0.21029481 77 77 62 255
-468.41602 159.43457 -53.112087 -0.03042406 0.97899735 -0.20159024 77 77 62 255
-500 168.90186 -2.3680916 -0.03042406 0.97899735 -0.20159024 77 77 62 255
-500 165.69678 -17.934309 -0.03042406 0.97899735 -0.20159024 77 77 62 255
-468.41602 159.43457 -53.112087 -0.03042406 0.97899735 -0.20159024 77 77 62 255
-500 165.69678 -17.934309 -0.03042406 0.97899735 -0.20159024 77 77 62 255
-442.03125 134.88135 -176.33325 -0.03042406 0.97899735 -0.20159024 77 77 62 255
-500 172.48193 9.883577 -0.4477633 0.6077254 -0.6558795 77 77 62 255
-481.58594 171.72998 -3.3840373 -0.4477633 0.6077254 -0.6558795 77 77 62 255
-494.78125 184.00684 16.999594 -0.4477633 0.6077254 -0.6558795 77 77 62 255
-500 172.48193 9.883577 -0.4477633 0.6077254 -0.6558795 77 77 62 255
-494.78125 184.00684 16.999594 -0.4477633 0.6077254 -0.6558795 77 77 62 255
-500 181.00342 17.779451 -0.4477633 0.6077254 -0.6558795 77 77 62 255
-455.2246 233.13379 -66.91103 -0.6799834 -0.6679025 -0.3025372 77 77 62 255
-468.41016 282.2788 -145.77237 -0.6799834 -0.6679025 -0.3025372 77 77 62 255
-494.7754 269.9834 -59.36964 -0.6799834 -0.6679025 -0.3025372 77 77 62 255
-468.41016 282.2788 -145.77237 -0.54075646 -0.7515066 -0.3779155 77 77 62 255
-455.2246 233.13379 -66.91103 -0.5407565 -0.75150675 -0.3779155 77 77 62 255
-428.83984 269.9834 -177.94223 -0.5407565 -0.7515067 -0.3779155 77 77 62 255
-442.03125 24.33252 -228.06073 -0.35585648 0.71699554 -0.5994027 77 77 62 255
-415.66797 36.61035 -229.0256 -0.35585645 0.71699554 -0.5994027 77 77 62 255
-468.4121 48.88623 -183.02704 -0.35585648 0.71699554 -0.5994027 77 77 62 255
-500 165.69678 -17.934309 -0.8251079 0.41552565 -0.38279957 77 77 62 255
-500 153.9458 -30.688494 -0.8251079 0.41552565 -0.38279957 77 77 62 255
-468.4121 110.308105 -146.14082 -0.8251079 0.41552565 -0.38279957 77 77 62 255
-500 165.69678 -17.934309 -0.8251079 0.41552565 -0.38279957 77 77 62 255
-468.4121 110.308105 -146.14082 -0.8251079 0.41552565 -0.38279957 77 77 62 255
-442.03125 134.88135 -176.33325 -0.8251079 0.41552565 -0.38279957 77 77 62 255
-494.78125 73.458984 -69.40807 -0.93303365 0.24584493 -0.2626947 77 77 62 255
-468.4121 61.182617 -174.54845 -0.93303365 0.24584495 -0.2626947 77 77 62 255
-455.2246 73.45947 -209.8981 -0.93303365 0.24584495 -0.2626947 77 77 62 255
-494.78125 208.5791 16.884321 -0.6271063 -0.4214015 -0.65510195 77 77 62 255
-468.41602 233.13379 -24.149248 -0.6271063 -0.4214015 -0.65510195 77 77 62 255
-494.78125 245.42871 -6.8198414 -0.62710625 -0.42140144 -0.6551019 77 77 62 255
-468.41016 306.83252 -200.60437 -0.4351517 -0.8217303 -0.36797044 77 77 62 255
-468.41016 282.2788 -145.77237 -0.43515164 -0.8217303 -0.36797044 77 77 62 255
-415.66797 282.2788 -208.14418 -0.4351517 -0.82173043 -0.36797044 77 77 62 255
-415.66797 36.61035 -229.0256 -0.6586313 -0.36567345 -0.65763795 77 77 62 255
-455.2246 73.45947 -209.8981 -0.6586313 -0.36567345 -0.65763795 77 77 62 255
-468.4121 48.88623 -183.02704 -0.6586313 -0.36567345 -0.65763795 77 77 62 255
-455.2246 233.13379 -66.91103 -0.9269764 -0.01737237 -0.37471715 77 77 62 255
-442.03125 196.28369 -97.844444 -0.9269764 -0.01737237 -0.37471715 77 77 62 255
-389.28125 208.57959 -228.90758 -0.9269764 -0.01737237 -0.37471715 77 77 62 255
-415.66797 282.2788 -208.14418 -0.5946019 -0.17582156 -0.78456056 77 77 62 255
-402.4746 239.28223 -208.50682 -0.59460187 -0.17582154 -0.7845606 77 77 62 255
-376.11328 245.42871 -229.86392 -0.5946019 -0.17582156 -0.78456056 77 77 62 255
-500 -7.6586914 -297.88562 0.705091 0.6357056 -0.31420562 77 77 62 255
-481.58594 -24.811035 -291.26544 0.705091 0.6357056 -0.31420562 77 77 62 255
-494.78125 36.61035 -196.60718 0.705091 0.6357056 -0.31420562 77 77 62 255
-500 -7.6586914 -297.88562 0.705091 0.6357056 -0.31420562 77 77 62 255
-494.78125 36.61035 -196.60718 0.705091 0.6357056 -0.31420562 77 77 62 255
-500 22.023438 -237.83195 0.705091 0.6357056 -0.31420562 77 77 62 255
-500 46.333008 -143.47392 -0.19895758 0.96035665 -0.19527175 77 77 62 255
-500 31.750488 -215.19022 -0.19895758 0.96035665 -0.19527175 77 77 62 255
-494.78125 36.61035 -196.60718 -0.19895758 0.96035665 -0.19527175 77 77 62 255
-481.58594 184.00684 3.65709 -0.766486 -0.067797564 -0.63867265 77 77 62 255
-468.41602 196.28369 -13.451773 -0.7664859 -0.06779756 -0.6386726 77 77 62 255
-494.78125 208.5791 16.884321 -0.7664859 -0.067797564 -0.6386726 77 77 62 255
-442.03125 134.88135 -176.33325 -0.8313465 0.48880863 -0.26444125 77 77 62 255
-415.66797 171.72998 -191.09792 -0.8313465 0.48880866 -0.26444122 77 77 62 255
-455.2246 177.86816 -55.391533 -0.8313465 0.48880863 -0.26444122 77 77 62 255
-500 128.33643 -37.117767 -0.7693489 -0.6276257 -0.11911475 77 77 62 255
-468.4121 110.308105 -146.14082 -0.7693489 -0.6276257 -0.11911475 77 77 62 255
-500 131.84326 -55.590824 -0.7693489 -0.6276257 -0.11911475 77 77 62 255
-389.28125 208.57959 -228.90758 -0.89675283 -0.30725908 -0.31847474 77 77 62 255
-415.66797 245.42871 -190.158 -0.89675295 -0.3072591 -0.31847474 77 77 62 255
-455.2246 233.13379 -66.91103 -0.89675283 -0.30725908 -0.31847474 77 77 62 255
-415.66797 245.42871 -190.158 -0.89223695 -0.32028532 -0.3183248 77 77 62 255
-428.83984 269.9834 -177.94223 -0.8922368 -0.32028532 -0.31832477 77 77 62 255
-455.2246 233.13379 -66.91103 -0.89223695 -0.3202853 -0.31832477 77 77 62 255
-455.2246 73.45947 -209.8981 -0.5754398 0.6835582 -0.44901815 77 77 62 255
-433.23633 81.64404 -225.62003 -0.5754398 0.68355817 -0.4490181 77 77 62 255
-468.4121 85.73633 -174.30807 -0.5754398 0.6835582 -0.4490181 77 77 62 255
-481.58594 245.42871 -18.364235 -0.68817973 -0.69833773 -0.19680709 77 77 62 255
-455.2246 233.13379 -66.91103 -0.68817973 -0.6983378 -0.19680712 77 77 62 255
-494.7754 269.9834 -59.36964 -0.6881798 -0.69833773 -0.19680712 77 77 62 255
-500 213.44043 14.618592 -0.13747172 -0.5358614 -0.83303905 77 77 62 255
-494.78125 208.5791 16.884321 -0.13747172 -0.5358614 -0.83303905 77 77 62 255
-494.78125 245.42871 -6.8198414 -0.13747172 -0.5358614 -0.83303905 77 77 62 255
-500 213.44043 14.618592 -0.13747172 -0.5358614 -0.83303905 77 77 62 255
-494.78125 245.42871 -6.8198414 -0.13747172 -0.5358614 -0.83303905 77 77 62 255
-500 242.99463 -4.3928595 -0.13747172 -0.5358614 -0.83303905 77 77 62 255
-415.66797 171.72998 -191.09792 -0.8943735 0.2999828 -0.33182272 77 77 62 255
-389.28125 208.57959 -228.90758 -0.8943735 0.2999828 -0.33182272 77 77 62 255
-442.03125 196.28369 -97.844444 -0.8943735 0.2999828 -0.33182272 77 77 62 255
-402.4746 239.28223 -208.50682 -0.8439774 -0.25497305 -0.47190145 77 77 62 255
-415.66797 282.2788 -208.14418 -0.8439774 -0.25497305 -0.47190145 77 77 62 255
-428.83984 269.9834 -177.94223 -0.8439774 -0.25497308 -0.47190148 77 77 62 255
-428.83984 269.9834 -177.94223 -0.60559833 -0.60909915 -0.5121025 77 77 62 255
-415.66797 282.2788 -208.14418 -0.60559833 -0.60909915 -0.5121024 77 77 62 255
-468.41016 282.2788 -145.77237 -0.6055983 -0.6090991 -0.5121025 77 77 62 255
-433.23633 81.64404 -225.62003 -0.49551427 0.4251 -0.75746655 77 77 62 255
-402.4746 110.308105 -229.65556 -0.49551427 0.4251 -0.75746655 77 77 62 255
-442.03125 110.308105 -203.77975 -0.49551427 0.4251 -0.7574665 77 77 62 255
-415.66797 171.72998 -191.09792 -0.7174553 0.2532691 -0.648932 77 77 62 255
-442.03125 134.88135 -176.33325 -0.7174553 0.2532691 -0.6489319 77 77 62 255
-402.4746 110.308105 -229.65556 -0.7174553 0.2532691 -0.648932 77 77 62 255
-500 320.74902 -179.62978 -0.15348786 -0.82054615 -0.5505864 77 77 62 255
-494.7754 319.12744 -178.66943 -0.15348786 -0.82054615 -0.5505864 77 77 62 255
-500 323.99414 -184.46587 -0.15348786 -0.82054615 -0.5505864 77 77 62 255
-500 153.9458 -30.688494 -0.8123469 0.43616408 -0.38710907 77 77 62 255
-500 131.84326 -55.590824 -0.8123469 0.43616408 -0.38710907 77 77 62 255
-468.4121 110.308105 -146.14082 -0.8123469 0.43616408 -0.38710907 77 77 62 255
-481.58594 171.72998 -3.3840373 -0.16078104 0.94737357 -0.2768264 77 77 62 255
-500 172.48193 9.883577 -0.16078104 0.94737357 -0.2768264 77 77 62 255
-500 168.90186 -2.3680916 -0.16078104 0.94737357 -0.2768264 77 77 62 255
-481.58594 171.72998 -3.3840373 -0.16078104 0.94737357 -0.2768264 77 77 62 255
-500 168.90186 -2.3680916 -0.16078104 0.94737357 -0.2768264 77 77 62 255
-468.41602 159.43457 -53.112087 -0.16078104 0.94737357 -0.2768264 77 77 62 255
-389.28125 208.57959 -228.90758 -0.6922911 -0.2120049 -0.6897731 77 77 62 255
-415.66797 171.72998 -191.09792 -0.6922911 -0.2120049 -0.6897731 77 77 62 255
-376.11328 171.72998 -230.7973 -0.69229114 -0.21200493 -0.68977314 77 77 62 255
-468.4121 110.308105 -146.14082 -0.656888 0.5681777 -0.49565342 77 77 62 255
-468.4121 85.73633 -174.30807 -0.65688795 0.5681777 -0.49565342 77 77 62 255
-433.23633 81.64404 -225.62003 -0.656888 0.5681777 -0.49565342 77 77 62 255
-433.23633 81.64404 -225.62003 -0.90861595 0.038093064 -0.41589183 77 77 62 255
-442.03125 110.308105 -203.77975 -0.90861595 0.03809307 -0.41589183 77 77 62 255
-468.4121 110.308105 -146.14082 -0.90861595 0.038093064 -0.41589183 77 77 62 255
-494.78125 61.182617 -111.41694 -0.29138827 0.9191332 -0.2651173 77 77 62 255
-494.78125 36.61035 -196.60718 -0.2913883 0.9191332 -0.2651173 77 77 62 255
-468.4121 48.88623 -183.02704 -0.29138827 0.9191332 -0.2651173 77 77 62 255
-442.03125 24.33252 -228.06073 -0.11932531 0.8406576 -0.5282578 77 77 62 255
-468.4121 48.88623 -183.02704 -0.11932531 0.8406576 -0.52825785 77 77 62 255
-494.78125 36.61035 -196.60718 -0.11932531 0.8406576 -0.5282578 77 77 62 255
-500 247.85889 -8.96465 -0.019451452 -0.68472356 -0.7285432 77 77 62 255
-500 242.99463 -4.3928595 -0.019451452 -0.68472356 -0.7285432 77 77 62 255
-494.78125 245.42871 -6.8198414 -0.019451452 -0.68472356 -0.7285432 77 77 62 255
-494.78125 73.458984 -69.40807 -0.5575294 0.7968301 -0.2328577 77 77 62 255
-494.78125 61.182617 -111.41694 -0.5575294 0.7968302 -0.23285767 77 77 62 255
-468.4121 61.182617 -174.54845 -0.5575294 0.7968301 -0.2328577 77 77 62 255
-500 68.60156 -66.604454 -0.7307392 0.55864555 -0.39234608 77 77 62 255
-494.78125 73.458984 -69.40807 -0.7307392 0.55864555 -0.39234608 77 77 62 255
-500 78.32373 -52.76126 -0.7307392 0.55864555 -0.39234608 77 77 62 255
-494.7754 319.12744 -178.66943 -0.58564186 -0.72342855 -0.3656156 77 77 62 255
-500 309.39404 -151.04073 -0.58564186 -0.72342855 -0.3656156 77 77 62 255
-500 294.55518 -121.67973 -0.58564186 -0.72342855 -0.3656156 77 77 62 255
-494.7754 319.12744 -178.66943 -0.58564186 -0.72342855 -0.3656156 77 77 62 255
-500 294.55518 -121.67973 -0.58564186 -0.72342855 -0.3656156 77 77 62 255
-494.7754 294.55518 -130.04884 -0.58564186 -0.72342855 -0.3656156 77 77 62 255
-500 289.6919 -110.6531 -0.54284596 -0.7684181 -0.33889815 77 77 62 255
-494.7754 294.55518 -130.04884 -0.54284596 -0.7684181 -0.33889815 77 77 62 255
-500 294.55518 -121.67973 -0.54284596 -0.7684181 -0.33889815 77 77 62 255
-433.23633 81.64404 -225.62003 0.02634266 0.08559524 -0.9959817 77 77 62 255
-415.66797 36.61035 -229.0256 0.026342658 0.085595235 -0.9959817 77 77 62 255
-402.4746 61.182617 -226.56491 0.026342658 0.08559522 -0.9959817 77 77 62 255
-500 22.023438 -237.83195 0.4818344 0.8051097 -0.34588155 77 77 62 255
-494.78125 36.61035 -196.60718 0.4818344 0.8051097 -0.34588155 77 77 62 255
-500 31.750488 -215.19022 0.4818344 0.8051097 -0.34588155 77 77 62 255
-376.11328 245.42871 -229.86392 -0.39970452 0.10750513 -0.910318 77 77 62 255
-389.28125 294.55518 -218.28069 -0.39970458 0.10750514 -0.910318 77 77 62 255
-415.66797 282.2788 -208.14418 -0.39970455 0.107505135 -0.9103181 77 77 62 255
-415.66797 282.2788 -208.14418 -0.24723902 -0.24305259 -0.9379757 77 77 62 255
-389.28125 294.55518 -218.28069 -0.24723905 -0.24305259 -0.9379757 77 77 62 255
-468.41016 306.83252 -200.60437 -0.24723905 -0.24305259 -0.9379757 77 77 62 255
-494.78125 208.5791 16.884321 -0.71102226 -0.0032987562 -0.7031617 77 77 62 255
-494.78125 184.00684 16.999594 -0.71102226 -0.0032987555 -0.7031618 77 77 62 255
-481.58594 184.00684 3.65709 -0.71102226 -0.0032987562 -0.7031618 77 77 62 255
-468.41602 233.13379 -24.149248 -0.621263 -0.3313665 -0.7100906 77 77 62 255
-481.58594 245.42871 -18.364235 -0.62126297 -0.33136648 -0.7100905 77 77 62 255
-494.78125 245.42871 -6.8198414 -0.621263 -0.3313665 -0.7100906 77 77 62 255
-494.7754 269.9834 -59.36964 -0.3473357 -0.84955937 -0.39699733 77 77 62 255
-494.78125 245.42871 -6.8198414 -0.3473357 -0.84955925 -0.39699736 77 77 62 255
-481.58594 245.42871 -18.364235 -0.3473357 -0.84955925 -0.39699736 77 77 62 255
-389.28125 294.55518 -218.28069 -0.25984704 -0.66033363 -0.70458424 77 77 62 255
-455.2207 331.4043 -228.49744 -0.25984704 -0.66033363 -0.70458424 77 77 62 255
-468.41016 306.83252 -200.60437 -0.25984704 -0.66033363 -0.70458436 77 77 62 255
-500 328.91064 -204.9838 -0.33662528 -0.621911 -0.7070433 77 77 62 255
-468.41016 306.83252 -200.60437 -0.33662528 -0.621911 -0.7070433 77 77 62 255
-455.2207 331.4043 -228.49744 -0.33662528 -0.621911 -0.7070433 77 77 62 255
-500 328.91064 -204.9838 -0.33662528 -0.621911 -0.7070433 77 77 62 255
-455.2207 331.4043 -228.49744 -0.33662528 -0.621911 -0.7070433 77 77 62 255
-500 339.74512 -214.51375 -0.33662528 -0.621911 -0.7070433 77 77 62 255
-442.03125 24.33252 -228.06073 -0.3447217 0.8332982 -0.43218184 77 77 62 255
-481.58594 -24.811035 -291.26544 -0.3447217 0.8332982 -0.43218178 77 77 62 255
-442.03125 12.037598 -251.76695 -0.3447217 0.8332982 -0.43218178 77 77 62 255
-415.66797 36.61035 -229.0256 -0.3952402 0.81543106 -0.42291528 77 77 62 255
-442.03125 24.33252 -228.06073 -0.3952402 0.8154311 -0.4229153 77 77 62 255
-442.03125 12.037598 -251.76695 -0.3952402 0.8154311 -0.4229153 77 77 62 255
-415.66797 36.61035 -229.0256 -0.53839844 -0.14728138 -0.82972 77 77 62 255
-433.23633 81.64404 -225.62003 -0.5383985 -0.14728138 -0.82972 77 77 62 255
-455.2246 73.45947 -209.8981 -0.5383985 -0.14728138 -0.82972 77 77 62 255
-494.78125 110.308105 -27.346107 -0.9477813 0.23988481 -0.21015671 77 77 62 255
-494.78125 73.458984 -69.40807 -0.9477813 0.23988485 -0.21015674 77 77 62 255
-468.4121 85.73633 -174.30807 -0.9477813 0.23988485 -0.21015674 77 77 62 255
-468.4121 85.73633 -174.30807 -0.9342041 -0.24099746 -0.26302642 77 77 62 255
-494.78125 73.458984 -69.40807 -0.9342041 -0.2409975 -0.26302642 77 77 62 255
-455.2246 73.45947 -209.8981 -0.9342041 -0.24099746 -0.26302642 77 77 62 255
-500 213.44043 14.618592 0.02539205 -0.3997944 -0.91625315 77 77 62 255
-500 209.38916 16.386251 0.02539205 -0.3997944 -0.91625315 77 77 62 255
-494.78125 208.5791 16.884321 0.02539205 -0.3997944 -0.91625315 77 77 62 255
-402.4746 239.28223 -208.50682 -0.64454436 0.21124673 -0.7348043 77 77 62 255
-389.28125 208.57959 -228.90758 -0.6445444 0.21124673 -0.7348043 77 77 62 255
-376.11328 245.42871 -229.86392 -0.6445444 0.21124673 -0.7348042 77 77 62 255
-415.66797 171.72998 -191.09792 -0.9488655 0.10792563 -0.2966586 77 77 62 255
-442.03125 196.28369 -97.844444 -0.94886553 0.107925646 -0.29665866 77 77 62 255
-468.41602 196.28369 -13.451773 -0.9488655 0.107925646 -0.29665858 77 77 62 255
-494.78125 208.5791 16.884321 -0.57901555 -0.7949657 -0.18102665 77 77 62 255
-468.41602 196.28369 -13.451773 -0.57901555 -0.7949657 -0.18102664 77 77 62 255
-442.03125 196.28369 -97.844444 -0.57901555 -0.7949657 -0.18102664 77 77 62 255
-428.83984 269.9834 -177.94223 -0.82625365 -0.17724897 -0.53468466 77 77 62 255
-415.66797 245.42871 -190.158 -0.82625365 -0.17724894 -0.5346846 77 77 62 255
-402.4746 239.28223 -208.50682 -0.82625365 -0.17724894 -0.5346846 77 77 62 255
-415.66797 245.42871 -190.158 -0.8029866 0.049549345 -0.5939337 77 77 62 255
-389.28125 208.57959 -228.90758 -0.8029867 0.04954935 -0.59393376 77 77 62 255
-402.4746 239.28223 -208.50682 -0.80298674 0.04954934 -0.5939337 77 77 62 255
-468.41016 282.2788 -145.77237 -0.5558701 -0.7586757 -0.33973458 77 77 62 255
-468.41016 306.83252 -200.60437 -0.5558701 -0.7586757 -0.33973458 77 77 62 255
-494.7754 294.55518 -130.04884 -0.5558701 -0.75867563 -0.33973458 77 77 62 255
-494.7754 294.55518 -130.04884 -0.5364422 -0.7971386 -0.277128 77 77 62 255
-494.7754 269.9834 -59.36964 -0.5364422 -0.7971386 -0.277128 77 77 62 255
-468.41016 282.2788 -145.77237 -0.5364422 -0.7971386 -0.277128 77 77 62 255
-442.03125 134.88135 -176.33325 -0.3999373 0.68285084 -0.6113631 77 77 62 255
-442.03125 110.308105 -203.77975 -0.39993736 0.68285084 -0.6113631 77 77 62 255
-402.4746 110.308105 -229.65556 -0.3999373 0.68285084 -0.6113632 77 77 62 255
-442.03125 134.88135 -176.33325 -0.8245403 0.42153984 -0.37740877 77 77 62 255
-468.4121 110.308105 -146.14082 -0.8245403 0.42153984 -0.37740877 77 77 62 255
-442.03125 110.308105 -203.77975 -0.8245403 0.4215399 -0.37740877 77 77 62 255
-500 78.32373 -52.76126 -0.81388354 0.4370357 -0.38287532 77 77 62 255
-494.78125 73.458984 -69.40807 -0.81388354 0.4370357 -0.38287532 77 77 62 255
-494.78125 110.308105 -27.346107 -0.81388354 0.4370357 -0.38287532 77 77 62 255
-500 78.32373 -52.76126 -0.81388354 0.4370357 -0.38287532 77 77 62 255
-494.78125 110.308105 -27.346107 -0.81388354 0.4370357 -0.38287532 77 77 62 255
-500 107.87744 -19.0263 -0.81388354 0.4370357 -0.38287532 77 77 62 255
-500 112.5332 -16.583477 -0.8520883 0.24319422 -0.46346766 77 77 62 255
-500 107.87744 -19.0263 -0.8520883 0.24319422 -0.46346766 77 77 62 255
-494.78125 110.308105 -27.346107 -0.8520883 0.24319422 -0.46346766 77 77 62 255
-494.7754 319.12744 -178.66943 -0.6206095 -0.6998219 -0.35368502 77 77 62 255
-494.7754 294.55518 -130.04884 -0.6206095 -0.6998219 -0.35368502 77 77 62 255
-468.41016 306.83252 -200.60437 -0.6206096 -0.6998219 -0.35368505 77 77 62 255
-500 328.91064 -204.9838 -0.5434234 -0.8163548 -0.19559094 77 77 62 255
-500 323.99414 -184.46587 -0.5434234 -0.8163548 -0.19559094 77 77 62 255
-494.7754 319.12744 -178.66943 -0.5434234 -0.8163548 -0.19559094 77 77 62 255
-500 328.91064 -204.9838 -0.5434234 -0.8163548 -0.19559094 77 77 62 255
-494.7754 319.12744 -178.66943 -0.5434234 -0.8163548 -0.19559094 77 77 62 255
-468.41016 306.83252 -200.60437 -0.5434234 -0.8163548 -0.19559094 77 77 62 255
-481.58594 171.72998 -3.3840373 -0.6594216 0.37401554 -0.65213156 77 77 62 255
-481.58594 184.00684 3.65709 -0.65942156 0.3740155 -0.65213156 77 77 62 255
-494.78125 184.00684 16.999594 -0.6594216 0.3740155 -0.65213156 77 77 62 255
-468.41602 159.43457 -53.112087 -0.94215506 0.1667543 -0.290752 77 77 62 255
-481.58594 184.00684 3.65709 -0.9421551 0.1667543 -0.290752 77 77 62 255
-481.58594 171.72998 -3.3840373 -0.94215506 0.1667543 -0.290752 77 77 62 255
-500 274.85352 -67.97136 -0.32177216 -0.8943137 -0.31091124 77 77 62 255
-494.7754 269.9834 -59.36964 -0.32177216 -0.8943137 -0.31091124 77 77 62 255
-494.7754 294.55518 -130.04884 -0.32177216 -0.8943137 -0.31091124 77 77 62 255
-500 274.85352 -67.97136 -0.32177216 -0.8943137 -0.31091124 77 77 62 255
-494.7754 294.55518 -130.04884 -0.32177216 -0.8943137 -0.31091124 77 77 62 255
-500 289.6919 -110.6531 -0.32177216 -0.8943137 -0.31091124 77 77 62 255
-500 274.85352 -67.97136 -0.2409564 -0.9000052 -0.3632227 77 77 62 255
-500 265.12207 -43.857925 -0.2409564 -0.9000052 -0.3632227 77 77 62 255
-494.7754 269.9834 -59.36964 -0.2409564 -0.9000052 -0.3632227 77 77 62 255
-442.03125 196.28369 -97.844444 -0.9513146 -0.0943182 -0.29343578 77 77 62 255
-455.2246 233.13379 -66.91103 -0.9513146 -0.0943182 -0.29343575 77 77 62 255
-468.41602 233.13379 -24.149248 -0.9513146 -0.09431822 -0.29343575 77 77 62 255
-481.58594 245.42871 -18.364235 -0.7156226 -0.6626914 -0.2207359 77 77 62 255
-468.41602 233.13379 -24.149248 -0.7156226 -0.6626914 -0.2207359 77 77 62 255
-455.2246 233.13379 -66.91103 -0.7156226 -0.6626914 -0.2207359 77 77 62 255
-442.03125 134.88135 -176.33325 -0.7972161 0.53611755 -0.2775328 77 77 62 255
-455.2246 177.86816 -55.391533 -0.7972161 0.53611755 -0.27753276 77 77 62 255
-468.41602 159.43457 -53.112087 -0.79721606 0.53611755 -0.27753276 77 77 62 255
-481.58594 184.00684 3.65709 -0.7693598 0.50158626 -0.39559665 77 77 62 255
-468.41602 159.43457 -53.112087 -0.7693598 0.50158626 -0.39559665 77 77 62 255
-455.2246 177.86816 -55.391533 -0.7693598 0.50158626 -0.39559665 77 77 62 255
-500 -7.6586914 -297.88562 0.47403765 0.17593662 -0.86274827 77 77 62 255
-500 -24.811035 -301.38348 0.47403765 0.17593662 -0.86274827 77 77 62 255
-481.58594 -24.811035 -291.26544 0.47403765 0.17593662 -0.86274827 77 77 62 255
-500 356.43848 -225.89554 -0.34115997 -0.5295343 -0.77666163 77 77 62 255
-500 339.74512 -214.51375 -0.34115997 -0.5295343 -0.77666163 77 77 62 255
-455.2207 331.4043 -228.49744 -0.34115997 -0.5295343 -0.77666163 77 77 62 255
-500 247.85889 -8.96465 -0.116927154 -0.78639317 -0.606559 77 77 62 255
-494.78125 245.42871 -6.8198414 -0.116927154 -0.78639317 -0.606559 77 77 62 255
-500 250.28613 -12.111332 -0.116927154 -0.78639317 -0.606559 77 77 62 255
-500 250.28613 -12.111332 -0.3824828 -0.8370753 -0.3911674 77 77 62 255
-494.78125 245.42871 -6.8198414 -0.3824828 -0.8370753 -0.3911674 77 77 62 255
-494.7754 269.9834 -59.36964 -0.3824828 -0.8370753 -0.3911674 77 77 62 255
-500 250.28613 -12.111332 -0.3824828 -0.8370753 -0.3911674 77 77 62 255
-494.7754 269.9834 -59.36964 -0.3824828 -0.8370753 -0.3911674 77 77 62 255
-500 265.12207 -43.857925 -0.3824828 -0.8370753 -0.3911674 77 77 62 255
-500 112.5332 -16.583477 -0.8995632 0.0027315079 -0.43678218 77 77 62 255
-494.78125 110.308105 -27.346107 -0.8995632 0.0027315079 -0.43678218 77 77 62 255
-500 117.19824 -16.554924 -0.8995632 0.0027315079 -0.43678218 77 77 62 255
-494.78125 73.458984 -69.40807 -0.72219026 0.6639261 -0.19401912 77 77 62 255
-500 68.60156 -66.604454 -0.72219026 0.6639261 -0.19401912 77 77 62 255
-500 61.182617 -91.99142 -0.72219026 0.6639261 -0.19401912 77 77 62 255
-494.78125 73.458984 -69.40807 -0.72219026 0.6639261 -0.19401912 77 77 62 255
-500 61.182617 -91.99142 -0.72219026 0.6639261 -0.19401912 77 77 62 255
-494.78125 61.182617 -111.41694 -0.72219026 0.6639261 -0.19401912 77 77 62 255
-500 46.333008 -143.47392 -0.71801955 0.66875863 -0.19289856 77 77 62 255
-494.78125 36.61035 -196.60718 -0.71801955 0.66875863 -0.19289856 77 77 62 255
-494.78125 61.182617 -111.41694 -0.71801955 0.66875863 -0.19289856 77 77 62 255
-500 46.333008 -143.47392 -0.71801955 0.66875863 -0.19289856 77 77 62 255
-494.78125 61.182617 -111.41694 -0.71801955 0.66875863 -0.19289856 77 77 62 255
-500 61.182617 -91.99142 -0.71801955 0.66875863 -0.19289856 77 77 62 255
-468.41602 196.28369 -13.451773 -0.84745115 0.33356556 -0.4129899 77 77 62 255
-481.58594 184.00684 3.65709 -0.84745115 0.33356556 -0.4129899 77 77 62 255
-455.2246 177.86816 -55.391533 -0.84745115 0.33356556 -0.4129899 77 77 62 255
-468.41602 196.28369 -13.451773 -0.95921475 -0.056027018 -0.27707052 77 77 62 255
-455.2246 177.86816 -55.391533 -0.95921475 -0.05602701 -0.27707046 77 77 62 255
-415.66797 171.72998 -191.09792 -0.95921475 -0.05602701 -0.27707046 77 77 62 255
-468.4121 48.88623 -183.02704 -0.8917997 0.25682732 -0.37246898 77 77 62 255
-468.4121 61.182617 -174.54845 -0.8917997 0.25682732 -0.372469 77 77 62 255
-494.78125 61.182617 -111.41694 -0.8917997 0.2568273 -0.37246898 77 77 62 255
-468.4121 48.88623 -183.02704 -0.93920064 0.19491719 -0.28268254 77 77 62 255
-455.2246 73.45947 -209.8981 -0.93920064 0.1949172 -0.2826826 77 77 62 255
-468.4121 61.182617 -174.54845 -0.93920064 0.19491719 -0.28268257 77 77 62 255
-500 198.84229 17.695766 0.075368635 -0.12286499 -0.9895574 54 64 7 255
-494.78125 208.5791 16.884321 0.075368635 -0.12286499 -0.9895574 54 64 7 255
-500 209.38916 16.386251 0.075368635 -0.12286499 -0.9895574 54 64 7 255
-500 198.84229 17.695766 -0.14517704 -0.0046415776 -0.98939484 54 64 7 255
-500 181.00342 17.779451 -0.14517704 -0.0046415776 -0.98939484 54 64 7 255
-494.78125 184.00684 16.999594 -0.14517704 -0.0046415776 -0.98939484 54 64 7 255
-500 198.84229 17.695766 -0.14517704 -0.0046415776 -0.98939484 54 64 7 255
-494.78125 184.00684 16.999594 -0.14517704 -0.0046415776 -0.98939484 54 64 7 255
-494.78125 208.5791 16.884321 -0.14517704 -0.0046415776 -0.98939484 54 64 7 255
3 2 1 0
3 5 4 3
3 8 7 6
3 11 10 9
3 14 13 12
3 17 16 15
3 20 19 18
3 23 22 21
3 26 25 24
3 29 28 27
3 32 31 30
3 35 34 33
3 38 37 36
3 41 40 39
3 44 43 42
3 47 46 45
3 50 49 48
3 53 52 51
3 56 55 54
3 59 58 57
3 62 61 60
3 65 64 63
3 68 67 66
3 71 70 69
3 74 73 72
3 77 76 75
3 80 79 78
3 83 82 81
3 86 85 84
3 89 88 87
3 92 91 90
3 95 94 93
3 98 97 96
3 101 100 99
3 104 103 102
3 107 106 105
3 110 109 108
3 113 112 111
3 116 115 114
3 119 118 117
3 122 121 120
3 125 124 123
3 128 127 126
3 131 130 129
3 134 133 132
3 137 136 135
3 140 139 138
3 143 142 141
3 146 145 144
3 149 148 147
3 152 151 150
3 155 154 153
3 158 157 156
3 161 160 159
3 164 163 162
3 167 166 165
3 170 169 168
3 173 172 171
3 176 175 174
3 179 178 177
3 182 181 180
3 185 184 183
3 188 187 186
3 191 190 189
3 194 193 192
3 197 196 195
3 200 199 198
3 203 202 201
3 206 205 204
3 209 208 207
3 212 211 210
3 215 214 213
3 218 217 216
3 221 220 219
3 224 223 222
3 227 226 225
3 230 229 228
3 233 232 231
3 236 235 234
3 239 238 237
3 242 241 240
3 245 244 243
3 248 247 246
3 251 250 249
3 254 253 252
3 257 256 255
3 260 259 258
3 263 262 261
3 266 265 264
3 269 268 267
3 272 271 270
3 275 274 273
3 278 277 276
3 281 280 279
3 284 283 282
3 287 286 285
3 290 289 288
3 293 292 291
3 296 295 294
3 299 298 297
3 302 301 300
3 305 304 303
3 308 307 306
3 311 310 309
3 314 313 312
3 317 316 315
3 320 319 318
3 323 322 321
3 326 325 324
3 329 328 327
3 332 331 330

