ply
format ascii 1.0
commentY29udmVydGVyIGJ5IENvZGVMZW9wYXJk
comment Original mesh name: 'C:\Program Files (x86)\Steam\steamapps\common\Stormworks NSO\rom\meshes\mainland\mega_island_19_3.mesh'
comment SubMesh index: 0
comment SubMesh name: ''
comment Shader: Opaque (0)
element vertex 237
property float x
property float y
property float z
property float nx
property float ny
property float nz
property uchar red
property uchar green
property uchar blue
property uchar alpha
element face 79
property list uchar ushort vertex_index
end_header
-439.07227 372.71582 4.1708026 -0.6286536 0.67960274 -0.3780671 77 77 62 255
-494.78125 301.76367 -30.739332 -0.62865365 0.6796028 -0.37806714 77 77 62 255
-362.91992 314.0415 -227.9277 -0.62865365 0.67960274 -0.37806714 77 77 62 255
-33.283203 498.2881 -134.61035 -0.8274383 0.396341 -0.3978186 77 77 62 255
-32.410156 473.17383 -161.4462 -0.8274383 0.396341 -0.39781862 77 77 62 255
6.2695312 492.1499 -222.99246 -0.8274383 0.396341 -0.3978186 77 77 62 255
-379.90625 410.52344 5.4623194 -0.17121607 0.90603954 -0.387011 77 77 62 255
-362.91992 314.0415 -227.9277 -0.17121606 0.90603954 -0.387011 77 77 62 255
-290.98242 322.5376 -239.86255 -0.17121609 0.90603954 -0.38701102 77 77 62 255
-151.95117 486.01074 8.93758 -0.49461952 0.76915747 -0.40465838 77 77 62 255
-191.50586 461.43896 10.581023 -0.49461946 0.7691574 -0.40465832 77 77 62 255
-46.45703 436.88525 -213.3833 -0.49461952 0.76915747 -0.40465838 77 77 62 255
-290.98242 322.5376 -239.86255 0.033369534 0.94455016 -0.32666707 77 77 62 255
-244.25586 400.03516 -11.007006 0.033369537 0.9445503 -0.32666707 77 77 62 255
-379.90625 410.52344 5.4623194 0.033369534 0.94455016 -0.32666707 77 77 62 255
-191.50586 500 5.0592256 0.046876106 -0.14159459 -0.98881423 77 77 62 255
-191.50586 461.43896 10.581023 0.046876106 -0.14159459 -0.98881423 77 77 62 255
-151.95117 486.01074 8.93758 0.046876106 -0.14159459 -0.98881423 77 77 62 255
-191.50586 500 5.0592256 0.046876106 -0.14159459 -0.98881423 77 77 62 255
-151.95117 486.01074 8.93758 0.046876106 -0.14159459 -0.98881423 77 77 62 255
-174.46875 500 5.8668723 0.046876106 -0.14159459 -0.98881423 77 77 62 255
-32.410156 473.17383 -161.4462 -0.9470055 0.075114444 -0.3123114 77 77 62 255
-42.48242 500 -124.45518 -0.9470055 0.075114444 -0.3123114 77 77 62 255
-69.166016 500 -43.542107 -0.9470055 0.075114444 -0.3123114 77 77 62 255
-32.410156 473.17383 -161.4462 -0.9470055 0.075114444 -0.3123114 77 77 62 255
-69.166016 500 -43.542107 -0.9470055 0.075114444 -0.3123114 77 77 62 255
-72.83984 498.2876 -32.81229 -0.9470055 0.075114444 -0.3123114 77 77 62 255
-181.99805 357.2578 -236.80205 -0.44866368 0.84729785 -0.2842311 77 77 62 255
-46.45703 436.88525 -213.3833 -0.44866368 0.84729785 -0.28423107 77 77 62 255
-244.25586 400.03516 -11.007006 -0.44866374 0.84729785 -0.2842311 77 77 62 255
-500 212.59912 -228.4665 -0.6917139 0.60893214 -0.3882442 77 77 62 255
-451.1621 268.43262 -227.90799 -0.6917139 0.60893214 -0.3882442 77 77 62 255
-500 257.40967 -158.18594 -0.6917139 0.60893214 -0.3882442 77 77 62 255
-146.10547 500 -17.633274 -0.33010912 -0.9093438 -0.25322297 77 77 62 255
-138.75977 498.2876 -21.059526 -0.33010912 -0.9093438 -0.25322297 77 77 62 255
-140.59766 500 -24.812626 -0.33010912 -0.9093438 -0.25322297 77 77 62 255
-494.78125 363.18555 5.5930343 -0.10842707 0.50611854 -0.8556213 77 77 62 255
-494.78125 301.76367 -30.739332 -0.108427055 0.50611854 -0.8556213 77 77 62 255
-439.07227 372.71582 4.1708026 -0.108427055 0.5061184 -0.8556212 77 77 62 255
-297.00195 436.88525 4.6240225 0.044987973 0.12742011 -0.99082804 77 77 62 255
-308.28125 500 12.2284565 0.044987973 0.12742011 -0.99082804 77 77 62 255
-325.32422 500 11.454708 0.044987973 0.12742011 -0.99082804 77 77 62 255
-297.00195 436.88525 4.6240225 0.044987973 0.12742011 -0.99082804 77 77 62 255
-325.32422 500 11.454708 0.044987973 0.12742011 -0.99082804 77 77 62 255
-362.91992 473.7339 6.369812 0.044987973 0.12742011 -0.99082804 77 77 62 255
-249.0664 500 19.021605 -0.21343213 -0.32088092 -0.92275786 77 77 62 255
-244.25195 492.1494 20.638014 -0.21343213 -0.32088092 -0.92275786 77 77 62 255
-240.8789 500 17.128046 -0.21343213 -0.32088092 -0.92275786 77 77 62 255
-46.45703 436.88525 -213.3833 -0.31975752 0.8818361 -0.34658363 77 77 62 255
-72.83984 498.2876 -32.81229 -0.31975752 0.8818361 -0.3465836 77 77 62 255
-151.95117 486.01074 8.93758 -0.31975746 0.8818361 -0.3465836 77 77 62 255
-74.677734 500 -33.496212 -0.49459136 -0.7231969 -0.48204312 77 77 62 255
-72.83984 498.2876 -32.81229 -0.49459136 -0.7231969 -0.48204312 77 77 62 255
-71.91992 500 -36.324436 -0.49459136 -0.7231969 -0.48204312 77 77 62 255
-30.833984 500 -142.72342 -0.83370966 -0.43272042 -0.34304684 77 77 62 255
-33.283203 498.2881 -134.61035 -0.83370966 -0.43272042 -0.34304684 77 77 62 255
6.2695312 492.1499 -222.99246 -0.83370966 -0.43272042 -0.34304684 77 77 62 255
-30.833984 500 -142.72342 -0.83370966 -0.43272042 -0.34304684 77 77 62 255
6.2695312 492.1499 -222.99246 -0.83370966 -0.43272042 -0.34304684 77 77 62 255
2.0625 500 -222.66743 -0.83370966 -0.43272042 -0.34304684 77 77 62 255
-74.677734 500 -33.496212 -0.15173048 -0.5027013 -0.85104007 77 77 62 255
-136.0039 500 -22.562462 -0.15173048 -0.5027013 -0.85104007 77 77 62 255
-138.75977 498.2876 -21.059526 -0.15173048 -0.5027013 -0.85104007 77 77 62 255
-74.677734 500 -33.496212 -0.15173048 -0.5027013 -0.85104007 77 77 62 255
-138.75977 498.2876 -21.059526 -0.15173048 -0.5027013 -0.85104007 77 77 62 255
-72.83984 498.2876 -32.81229 -0.15173048 -0.5027013 -0.85104007 77 77 62 255
-451.1621 268.43262 -227.90799 -0.44530278 0.8614535 -0.24413781 77 77 62 255
-362.91992 314.0415 -227.9277 -0.44530278 0.8614535 -0.24413781 77 77 62 255
-494.78125 301.76367 -30.739332 -0.44530278 0.8614536 -0.24413784 77 77 62 255
-244.25586 400.03516 -11.007006 -0.58997893 0.66686994 -0.4552025 77 77 62 255
-46.45703 436.88525 -213.3833 -0.58997893 0.66686994 -0.4552026 77 77 62 255
-191.50586 461.43896 10.581023 -0.5899789 0.66686994 -0.4552025 77 77 62 255
-272.32617 500 17.59977 0.14620571 0.14404775 -0.9787104 77 77 62 255
-308.28125 500 12.2284565 0.14620571 0.14404775 -0.9787104 77 77 62 255
-297.00195 436.88525 4.6240225 0.14620571 0.14404775 -0.9787104 77 77 62 255
-272.32617 500 17.59977 0.14620571 0.14404775 -0.9787104 77 77 62 255
-297.00195 436.88525 4.6240225 0.14620571 0.14404775 -0.9787104 77 77 62 255
-244.25195 492.1494 20.638014 0.14620571 0.14404775 -0.9787104 77 77 62 255
-500 309.05908 -23.1647 -0.47345898 0.44844097 -0.7581143 77 77 62 255
-494.78125 301.76367 -30.739332 -0.47345898 0.44844097 -0.7581143 77 77 62 255
-494.78125 363.18555 5.5930343 -0.47345898 0.44844097 -0.7581143 77 77 62 255
-500 309.05908 -23.1647 -0.47345898 0.44844097 -0.7581143 77 77 62 255
-494.78125 363.18555 5.5930343 -0.47345898 0.44844097 -0.7581143 77 77 62 255
-500 358.3213 5.9749513 -0.47345898 0.44844097 -0.7581143 77 77 62 255
-244.25586 400.03516 -11.007006 0.008845173 0.3248897 -0.9457106 77 77 62 255
-191.50586 461.43896 10.581023 0.008845172 0.3248897 -0.9457105 77 77 62 255
-244.25195 492.1494 20.638014 0.008845173 0.3248897 -0.9457106 77 77 62 255
-191.50586 461.43896 10.581023 -0.32721275 -0.26497573 -0.907039 77 77 62 255
-216.33789 500 8.274597 -0.32721275 -0.26497573 -0.907039 77 77 62 255
-240.8789 500 17.128046 -0.32721275 -0.26497573 -0.907039 77 77 62 255
-191.50586 461.43896 10.581023 -0.32721275 -0.26497573 -0.907039 77 77 62 255
-240.8789 500 17.128046 -0.32721275 -0.26497573 -0.907039 77 77 62 255
-244.25195 492.1494 20.638014 -0.32721275 -0.26497573 -0.907039 77 77 62 255
-500 309.05908 -23.1647 -0.5529548 0.37629274 -0.7434009 77 77 62 255
-500 301.76367 -26.857365 -0.5529548 0.37629274 -0.7434009 77 77 62 255
-494.78125 301.76367 -30.739332 -0.5529548 0.37629274 -0.7434009 77 77 62 255
-249.0664 500 19.021605 0.060174167 -0.16576858 -0.98432714 77 77 62 255
-272.32617 500 17.59977 0.060174167 -0.16576858 -0.98432714 77 77 62 255
-244.25195 492.1494 20.638014 0.060174167 -0.16576858 -0.98432714 77 77 62 255
-140.59766 500 -24.812626 -0.22562101 -0.9233176 -0.31077296 77 77 62 255
-138.75977 498.2876 -21.059526 -0.22562101 -0.9233176 -0.31077296 77 77 62 255
-139.67969 500 -25.479744 -0.22562101 -0.9233176 -0.31077296 77 77 62 255
-33.283203 500 -137.26332 -0.77042407 -0.5356891 -0.3456645 77 77 62 255
-33.283203 498.2881 -134.61035 -0.77042407 -0.5356891 -0.3456645 77 77 62 255
-30.833984 500 -142.72342 -0.77042407 -0.5356891 -0.3456645 77 77 62 255
-71.91992 500 -36.324436 -0.9104778 -0.22412704 -0.3475589 77 77 62 255
-72.83984 498.2876 -32.81229 -0.9104778 -0.22412704 -0.3475589 77 77 62 255
-69.166016 500 -43.542107 -0.9104778 -0.22412704 -0.3475589 77 77 62 255
-138.75977 498.2876 -21.059526 -0.072171785 -0.911551 -0.40480378 77 77 62 255
-151.95117 486.01074 8.93758 -0.07217179 -0.911551 -0.40480384 77 77 62 255
-72.83984 498.2876 -32.81229 -0.072171785 -0.911551 -0.40480378 77 77 62 255
-146.10547 500 -17.633274 -0.40924355 -0.7671733 -0.49392802 77 77 62 255
-174.46875 500 5.8668723 -0.40924355 -0.7671733 -0.49392802 77 77 62 255
-151.95117 486.01074 8.93758 -0.40924355 -0.7671733 -0.49392802 77 77 62 255
-146.10547 500 -17.633274 -0.40924355 -0.7671733 -0.49392802 77 77 62 255
-151.95117 486.01074 8.93758 -0.40924355 -0.7671733 -0.49392802 77 77 62 255
-138.75977 498.2876 -21.059526 -0.40924355 -0.7671733 -0.49392802 77 77 62 255
-72.83984 498.2876 -32.81229 -0.61524814 0.71460104 -0.33288887 77 77 62 255
-46.45703 436.88525 -213.3833 -0.61524814 0.71460104 -0.33288884 77 77 62 255
-32.410156 473.17383 -161.4462 -0.6152482 0.7146011 -0.33288887 77 77 62 255
-216.33789 500 8.274597 -0.12713158 -0.14060025 -0.98187023 77 77 62 255
-191.50586 461.43896 10.581023 -0.12713158 -0.14060025 -0.98187023 77 77 62 255
-191.50586 500 5.0592256 -0.12713158 -0.14060025 -0.98187023 77 77 62 255
-344.12695 500 7.3988037 0.20951138 -0.11184383 -0.97138864 77 77 62 255
-362.91992 473.7339 6.369812 0.20951138 -0.11184383 -0.97138864 77 77 62 255
-325.32422 500 11.454708 0.20951138 -0.11184383 -0.97138864 77 77 62 255
-362.91992 314.0415 -227.9277 -0.49624622 0.78898436 -0.3622753 77 77 62 255
-379.90625 410.52344 5.4623194 -0.49624622 0.78898436 -0.3622753 77 77 62 255
-439.07227 372.71582 4.1708026 -0.49624616 0.78898436 -0.3622753 77 77 62 255
-297.00195 436.88525 4.6240225 -0.09547434 0.26977685 -0.95817804 77 77 62 255
-379.90625 410.52344 5.4623194 -0.09547434 0.26977688 -0.95817804 77 77 62 255
-244.25586 400.03516 -11.007006 -0.09547433 0.26977682 -0.95817804 77 77 62 255
-244.25195 492.1494 20.638014 -0.053202707 0.32444373 -0.9444076 77 77 62 255
-297.00195 436.88525 4.6240225 -0.053202707 0.3244437 -0.9444076 77 77 62 255
-244.25586 400.03516 -11.007006 -0.053202704 0.32444376 -0.94440764 77 77 62 255
-181.99805 357.2578 -236.80205 -0.2870929 0.9235768 -0.2541331 77 77 62 255
-244.25586 400.03516 -11.007006 -0.28709286 0.9235768 -0.2541331 77 77 62 255
-290.98242 322.5376 -239.86255 -0.2870929 0.9235768 -0.2541331 77 77 62 255
28.978516 500 -234.11916 -0.3858332 -0.1692828 -0.9069047 77 77 62 255
2.0625 500 -222.66743 -0.3858332 -0.1692828 -0.9069047 77 77 62 255
6.2695312 492.1499 -222.99246 -0.3858332 -0.1692828 -0.9069047 77 77 62 255
28.978516 500 -234.11916 -0.3858332 -0.1692828 -0.9069047 77 77 62 255
6.2695312 492.1499 -222.99246 -0.3858332 -0.1692828 -0.9069047 77 77 62 255
32.652344 498.2881 -235.36237 -0.3858332 -0.1692828 -0.9069047 77 77 62 255
-139.67969 500 -25.479744 -0.31062776 -0.9063234 -0.28651068 77 77 62 255
-138.75977 498.2876 -21.059526 -0.31062776 -0.9063234 -0.28651068 77 77 62 255
-138.75977 500 -26.476334 -0.31062776 -0.9063234 -0.28651068 77 77 62 255
-138.75977 500 -26.476334 0.39346325 -0.87658274 -0.2771089 77 77 62 255
-138.75977 498.2876 -21.059526 0.39346325 -0.87658274 -0.2771089 77 77 62 255
-136.0039 500 -22.562462 0.39346325 -0.87658274 -0.2771089 77 77 62 255
-500 292.0376 -49.99646 -0.27695093 0.8858122 -0.37233704 77 77 62 255
-494.78125 301.76367 -30.739332 -0.27695093 0.8858122 -0.37233704 77 77 62 255
-500 301.76367 -26.857365 -0.27695093 0.8858122 -0.37233704 77 77 62 255
-500 257.40967 -158.18594 -0.54507846 0.7984835 -0.25556508 77 77 62 255
-451.1621 268.43262 -227.90799 -0.54507846 0.7984835 -0.25556508 77 77 62 255
-494.78125 301.76367 -30.739332 -0.54507846 0.7984835 -0.25556508 77 77 62 255
-500 257.40967 -158.18594 -0.54507846 0.7984835 -0.25556508 77 77 62 255
-494.78125 301.76367 -30.739332 -0.54507846 0.7984835 -0.25556508 77 77 62 255
-500 292.0376 -49.99646 -0.54507846 0.7984835 -0.25556508 77 77 62 255
-35.117188 500 -131.16455 -0.8745044 -0.40753844 -0.2629726 77 77 62 255
-33.283203 498.2881 -134.61035 -0.8745044 -0.40753844 -0.2629726 77 77 62 255
-33.283203 500 -137.26332 -0.8745044 -0.40753844 -0.2629726 77 77 62 255
-42.48242 500 -124.45518 -0.5344961 0.60835135 -0.58670485 77 77 62 255
-32.410156 473.17383 -161.4462 -0.5344961 0.60835135 -0.58670485 77 77 62 255
-33.283203 498.2881 -134.61035 -0.5344961 0.60835135 -0.58670485 77 77 62 255
-42.48242 500 -124.45518 -0.5344961 0.60835135 -0.58670485 77 77 62 255
-33.283203 498.2881 -134.61035 -0.5344961 0.60835135 -0.58670485 77 77 62 255
-35.117188 500 -131.16455 -0.5344961 0.60835135 -0.58670485 77 77 62 255
-32.410156 473.17383 -161.4462 -0.19055493 0.828162 -0.5271019 77 77 62 255
-46.45703 436.88525 -213.3833 -0.19055495 0.82816213 -0.52710193 77 77 62 255
-6.9023438 436.88525 -227.68301 -0.19055495 0.82816213 -0.5271019 77 77 62 255
-6.9023438 436.88525 -227.68301 -0.85333216 0.24256276 -0.46150574 77 77 62 255
6.2695312 492.1499 -222.99246 -0.85333216 0.24256276 -0.46150577 77 77 62 255
-32.410156 473.17383 -161.4462 -0.85333216 0.24256276 -0.46150574 77 77 62 255
-362.91992 473.7339 6.369812 -0.01604344 0.018663244 -0.99969715 77 77 62 255
-379.90625 410.52344 5.4623194 -0.01604344 0.018663246 -0.99969715 77 77 62 255
-297.00195 436.88525 4.6240225 -0.01604344 0.018663244 -0.99969715 77 77 62 255
-500 500 6.259823 0.028061166 0.027409427 -0.9992303 54 64 7 255
-500 475.14502 5.5780206 0.028061166 0.027409427 -0.9992303 54 64 7 255
-442.03125 498.2876 7.840787 0.028061166 0.027409427 -0.9992303 54 64 7 255
-500 500 6.259823 0.028061166 0.027409427 -0.9992303 54 64 7 255
-442.03125 498.2876 7.840787 0.028061166 0.027409427 -0.9992303 54 64 7 255
-449.9961 500 7.664064 0.028061166 0.027409427 -0.9992303 54 64 7 255
-500 429.4629 4.213715 -0.018271258 -0.018861488 -0.9996551 54 64 7 255
-500 402.11133 4.7297716 -0.018271258 -0.018861488 -0.9996551 54 64 7 255
-439.07227 372.71582 4.1708026 -0.018271258 -0.018861488 -0.9996551 54 64 7 255
-369.97266 500 7.26773 0.005068245 0.035524342 -0.999356 54 64 7 255
-362.91992 473.7339 6.369812 0.005068245 0.035524342 -0.999356 54 64 7 255
-344.12695 500 7.3988037 0.005068245 0.035524342 -0.999356 54 64 7 255
-500 429.4629 4.213715 0.027088992 0.029840432 -0.9991876 54 64 7 255
-439.07227 372.71582 4.1708026 0.027088992 0.029840432 -0.9991876 54 64 7 255
-442.03125 498.2876 7.840787 0.027088992 0.029840432 -0.9991876 54 64 7 255
-500 429.4629 4.213715 0.027088992 0.029840432 -0.9991876 54 64 7 255
-442.03125 498.2876 7.840787 0.027088992 0.029840432 -0.9991876 54 64 7 255
-500 475.14502 5.5780206 0.027088992 0.029840432 -0.9991876 54 64 7 255
-449.9961 500 7.664064 0.015094113 -0.032921236 -0.999344 54 64 7 255
-442.03125 498.2876 7.840787 0.015094113 -0.032921236 -0.999344 54 64 7 255
-443.2578 500 7.7658634 0.015094113 -0.032921236 -0.999344 54 64 7 255
-500 369.26123 5.6125083 -0.04695925 -0.037138216 -0.9982062 54 64 7 255
-500 363.18555 5.8385544 -0.04695925 -0.037138216 -0.9982062 54 64 7 255
-494.78125 363.18555 5.5930343 -0.04695925 -0.037138216 -0.9982062 54 64 7 255
-384.06836 500 6.67832 0.04173338 0.04532571 -0.9981002 54 64 7 255
-362.91992 473.7339 6.369812 0.04173338 0.04532571 -0.9981002 54 64 7 255
-369.97266 500 7.26773 0.04173338 0.04532571 -0.9981002 54 64 7 255
-379.90625 410.52344 5.4623194 -0.027379971 0.007708424 -0.99959534 54 64 7 255
-397.8828 500 6.6447315 -0.027379971 0.007708424 -0.99959534 54 64 7 255
-439.2754 500 7.7784896 -0.027379971 0.007708424 -0.99959534 54 64 7 255
-379.90625 410.52344 5.4623194 -0.027379971 0.007708424 -0.99959534 54 64 7 255
-439.2754 500 7.7784896 -0.027379971 0.007708424 -0.99959534 54 64 7 255
-442.03125 498.2876 7.840787 -0.027379971 0.007708424 -0.99959534 54 64 7 255
-443.2578 500 7.7658634 0.0058813244 -0.039509088 -0.99920195 54 64 7 255
-442.03125 498.2876 7.840787 0.0058813244 -0.039509088 -0.99920195 54 64 7 255
-441.11133 500 7.7784896 0.0058813244 -0.039509088 -0.99920195 54 64 7 255
-500 363.18555 5.8385544 -0.046973255 -0.027997345 -0.99850374 54 64 7 255
-500 358.3213 5.9749513 -0.046973255 -0.027997345 -0.99850374 54 64 7 255
-494.78125 363.18555 5.5930343 -0.046973255 -0.027997345 -0.99850374 54 64 7 255
-442.03125 498.2876 7.840787 0.0031047948 0.029286621 -0.99956626 54 64 7 255
-439.07227 372.71582 4.1708026 0.0031047952 0.029286621 -0.99956626 54 64 7 255
-379.90625 410.52344 5.4623194 0.0031047952 0.029286621 -0.99956626 54 64 7 255
-441.11133 500 7.7784896 -0 -0.03635649 -0.99933887 54 64 7 255
-442.03125 498.2876 7.840787 -0 -0.03635649 -0.99933887 54 64 7 255
-439.2754 500 7.7784896 -0 -0.03635649 -0.99933887 54 64 7 255
-500 402.11133 4.7297716 -0.021237524 -0.02501327 -0.99946153 54 64 7 255
-500 372.91113 5.460534 -0.021237524 -0.02501327 -0.99946153 54 64 7 255
-494.78125 363.18555 5.5930343 -0.021237524 -0.02501327 -0.99946153 54 64 7 255
-500 402.11133 4.7297716 -0.021237524 -0.02501327 -0.99946153 54 64 7 255
-494.78125 363.18555 5.5930343 -0.021237524 -0.02501327 -0.99946153 54 64 7 255
-439.07227 372.71582 4.1708026 -0.021237524 -0.02501327 -0.99946153 54 64 7 255
-500 369.26123 5.6125083 -0.05208919 -0.041546185 -0.9977779 54 64 7 255
-494.78125 363.18555 5.5930343 -0.05208919 -0.041546185 -0.9977779 54 64 7 255
-500 372.91113 5.460534 -0.05208919 -0.041546185 -0.9977779 54 64 7 255
-384.06836 500 6.67832 0.002431239 0.01370197 -0.99990326 54 64 7 255
-397.8828 500 6.6447315 0.002431239 0.01370197 -0.99990326 54 64 7 255
-379.90625 410.52344 5.4623194 0.002431239 0.01370197 -0.99990326 54 64 7 255
-384.06836 500 6.67832 0.002431239 0.01370197 -0.99990326 54 64 7 255
-379.90625 410.52344 5.4623194 0.002431239 0.01370197 -0.99990326 54 64 7 255
-362.91992 473.7339 6.369812 0.002431239 0.01370197 -0.99990326 54 64 7 255
3 2 1 0
3 5 4 3
3 8 7 6
3 11 10 9
3 14 13 12
3 17 16 15
3 20 19 18
3 23 22 21
3 26 25 24
3 29 28 27
3 32 31 30
3 35 34 33
3 38 37 36
3 41 40 39
3 44 43 42
3 47 46 45
3 50 49 48
3 53 52 51
3 56 55 54
3 59 58 57
3 62 61 60
3 65 64 63
3 68 67 66
3 71 70 69
3 74 73 72
3 77 76 75
3 80 79 78
3 83 82 81
3 86 85 84
3 89 88 87
3 92 91 90
3 95 94 93
3 98 97 96
3 101 100 99
3 104 103 102
3 107 106 105
3 110 109 108
3 113 112 111
3 116 115 114
3 119 118 117
3 122 121 120
3 125 124 123
3 128 127 126
3 131 130 129
3 134 133 132
3 137 136 135
3 140 139 138
3 143 142 141
3 146 145 144
3 149 148 147
3 152 151 150
3 155 154 153
3 158 157 156
3 161 160 159
3 164 163 162
3 167 166 165
3 170 169 168
3 173 172 171
3 176 175 174
3 179 178 177
3 182 181 180
3 185 184 183
3 188 187 186
3 191 190 189
3 194 193 192
3 197 196 195
3 200 199 198
3 203 202 201
3 206 205 204
3 209 208 207
3 212 211 210
3 215 214 213
3 218 217 216
3 221 220 219
3 224 223 222
3 227 226 225
3 230 229 228
3 233 232 231
3 236 235 234

