ply
format ascii 1.0
commentY29udmVydGVyIGJ5IENvZGVMZW9wYXJk
comment Original mesh name: 'C:\Program Files (x86)\Steam\steamapps\common\Stormworks NSO\rom\meshes\mainland\mega_island_19_5.mesh'
comment SubMesh index: 0
comment SubMesh name: ''
comment Shader: Opaque (0)
element vertex 543
property float x
property float y
property float z
property float nx
property float ny
property float nz
property uchar red
property uchar green
property uchar blue
property uchar alpha
element face 181
property list uchar ushort vertex_index
end_header
-448.62695 224.06909 -133.95651 -0.56161404 0.44193903 -0.6994852 77 77 62 255
-481.58594 187.21948 -130.77692 -0.56161404 0.44193906 -0.69948524 77 77 62 255
-442.03125 193.35815 -158.65698 -0.56161404 0.44193903 -0.6994852 77 77 62 255
-376.11328 439.02637 -24.032833 -0.77008414 0.0079725245 -0.6378925 77 77 62 255
-389.28516 426.7307 -8.284247 -0.77008414 0.0079725245 -0.63789254 77 77 62 255
-362.91992 414.45386 -40.26635 -0.77008414 0.0079725245 -0.63789254 77 77 62 255
-448.62695 224.06909 -133.95651 -0.62639964 0.058994263 -0.7772665 77 77 62 255
-415.66797 193.35815 -162.84995 -0.62639964 0.058994263 -0.7772665 77 77 62 255
-395.88086 230.20752 -175.99985 -0.62639964 0.058994263 -0.7772665 77 77 62 255
-322.9004 500 -141.2583 -0.62752223 -0.46956614 -0.6210664 77 77 62 255
-297.00195 475.87622 -149.18497 -0.62752223 -0.46956614 -0.6210664 77 77 62 255
-290.52148 500 -173.97322 -0.62752223 -0.46956614 -0.6210664 77 77 62 255
-442.03125 353.03198 -10.449495 -0.19695581 0.34673053 -0.91705316 77 77 62 255
-442.03125 389.88135 3.4829621 -0.19695581 0.34673047 -0.91705316 77 77 62 255
-468.41602 377.6045 4.507888 -0.19695581 0.34673053 -0.91705316 77 77 62 255
-323.36328 414.45435 -107.636246 -0.72715986 -0.28842008 -0.6229386 77 77 62 255
-323.36328 377.60498 -90.57501 -0.7271598 -0.28842008 -0.6229386 77 77 62 255
-270.6172 379.65137 -153.09198 -0.7271598 -0.28842008 -0.6229386 77 77 62 255
-389.28516 500 -30.03177 -0.697861 -0.35635763 -0.6212883 77 77 62 255
-402.24023 500 -15.479428 -0.697861 -0.35635763 -0.6212883 77 77 62 255
-389.28516 475.87573 -16.194586 -0.697861 -0.35635763 -0.6212883 77 77 62 255
-394.13672 -500 -155.6062 -0.50623256 -0.35111284 -0.78768545 77 77 62 255
-415.66797 -469.9297 -155.17247 -0.50623256 -0.35111284 -0.78768545 77 77 62 255
-415.66797 -500 -141.76863 -0.50623256 -0.35111284 -0.78768545 77 77 62 255
-457.41992 254.77393 -85.3557 -0.6868054 0.5519262 -0.47294387 77 77 62 255
-448.62695 224.06909 -133.95651 -0.68680537 0.55192614 -0.47294387 77 77 62 255
-415.66797 254.78003 -145.98106 -0.6868054 0.5519262 -0.4729438 77 77 62 255
-494.78125 -408.5078 -158.30249 0.4671826 -0.625316 -0.62507623 77 77 62 255
-500 -412.56006 -158.14923 0.4671826 -0.625316 -0.62507623 77 77 62 255
-500 -460.54883 -110.142365 0.4671826 -0.625316 -0.62507623 77 77 62 255
-494.78125 -408.5078 -158.30249 0.4671826 -0.625316 -0.62507623 77 77 62 255
-500 -460.54883 -110.142365 0.4671826 -0.625316 -0.62507623 77 77 62 255
-494.78125 -463.79102 -102.99818 0.4671826 -0.625316 -0.62507623 77 77 62 255
-468.41602 328.47876 -8.627388 -0.24605198 0.2795745 -0.92806065 77 77 62 255
-455.2246 346.8933 -6.5771294 -0.24605197 0.27957448 -0.92806065 77 77 62 255
-494.78125 340.75513 2.0608 -0.24605197 0.27957448 -0.92806065 77 77 62 255
-500 -391.3296 -160.49397 0.08149065 -0.40501562 -0.910671 77 77 62 255
-500 -397.5166 -157.74237 0.08149065 -0.40501562 -0.910671 77 77 62 255
-455.2246 -439.21924 -135.18869 0.08149065 -0.40501562 -0.910671 77 77 62 255
-500 -391.3296 -160.49397 0.08149065 -0.40501562 -0.910671 77 77 62 255
-455.2246 -439.21924 -135.18869 0.08149065 -0.40501562 -0.910671 77 77 62 255
-468.4121 -396.23096 -155.48747 0.08149065 -0.40501562 -0.910671 77 77 62 255
-406.87305 385.78882 -0.3983259 -0.13679539 0.7485548 -0.6488087 77 77 62 255
-409.07227 340.7556 -51.890877 -0.1367954 0.7485548 -0.6488087 77 77 62 255
-376.11328 340.7556 -58.840195 -0.13679539 0.7485548 -0.64880866 77 77 62 255
-297.00195 451.30322 -148.40515 -0.7804909 -0.38203654 -0.49485555 77 77 62 255
-326.03906 500 -140.20467 -0.7804909 -0.38203654 -0.49485555 77 77 62 255
-331.375 500 -131.78963 -0.7804909 -0.38203654 -0.49485555 77 77 62 255
-297.00195 451.30322 -148.40515 -0.7804909 -0.38203654 -0.49485555 77 77 62 255
-331.375 500 -131.78963 -0.7804909 -0.38203654 -0.49485555 77 77 62 255
-336.5586 475.87622 -104.989494 -0.7804909 -0.38203654 -0.49485555 77 77 62 255
-428.83984 285.48145 -98.97937 -0.44455603 0.68779504 -0.57385343 77 77 62 255
-415.66797 254.78003 -145.98106 -0.4445561 0.6877951 -0.57385343 77 77 62 255
-364.29492 269.87158 -167.69054 -0.4445561 0.68779504 -0.57385343 77 77 62 255
-467.03125 500 3.5868628 -0.31158236 -0.25314122 -0.91587985 77 77 62 255
-468.04688 500 3.9321904 -0.31158236 -0.25314122 -0.91587985 77 77 62 255
-415.66797 439.02637 2.9655852 -0.31158236 -0.25314122 -0.91587985 77 77 62 255
-467.03125 500 3.5868628 -0.31158236 -0.25314122 -0.91587985 77 77 62 255
-415.66797 439.02637 2.9655852 -0.31158236 -0.25314122 -0.91587985 77 77 62 255
-389.28516 475.87573 -16.194586 -0.31158236 -0.25314122 -0.91587985 77 77 62 255
-500 127.08276 -157.34865 -0.39463893 0.50030714 -0.77068335 77 77 62 255
-481.58594 144.23193 -155.64505 -0.39463893 0.50030714 -0.77068335 77 77 62 255
-500 144.23193 -146.21567 -0.39463893 0.50030714 -0.77068335 77 77 62 255
-500 290.98853 -8.730565 -0.68322164 0.43603238 -0.5857338 77 77 62 255
-500 246.56152 -41.802235 -0.68322164 0.43603238 -0.5857338 77 77 62 255
-457.41992 254.77393 -85.3557 -0.68322164 0.43603238 -0.5857338 77 77 62 255
-389.28516 389.88135 -0.57671964 -0.19373108 0.8083245 -0.5559494 77 77 62 255
-406.87305 385.78882 -0.3983259 -0.19373108 0.8083245 -0.5559494 77 77 62 255
-356.33008 365.32764 -47.76053 -0.19373108 0.8083245 -0.55594945 77 77 62 255
-376.11328 340.7556 -58.840195 -0.3880784 0.6199389 -0.68196106 77 77 62 255
-356.33008 365.32764 -47.76053 -0.3880784 0.6199389 -0.68196106 77 77 62 255
-406.87305 385.78882 -0.3983259 -0.3880784 0.6199389 -0.68196106 77 77 62 255
-448.62695 168.78638 -154.98561 -0.5792905 0.033853382 -0.81441784 77 77 62 255
-442.03125 193.35815 -158.65698 -0.57929057 0.033853386 -0.81441784 77 77 62 255
-481.58594 187.21948 -130.77692 -0.5792905 0.033853382 -0.81441784 77 77 62 255
-500 144.23193 -146.21567 -0.38464782 0.5364575 -0.75117195 77 77 62 255
-481.58594 144.23193 -155.64505 -0.38464782 0.5364575 -0.75117195 77 77 62 255
-448.62695 168.78638 -154.98561 -0.38464782 0.5364575 -0.75117195 77 77 62 255
-500 144.23193 -146.21567 -0.38464782 0.5364575 -0.75117195 77 77 62 255
-448.62695 168.78638 -154.98561 -0.38464782 0.5364575 -0.75117195 77 77 62 255
-500 151.39111 -141.10263 -0.38464782 0.5364575 -0.75117195 77 77 62 255
-415.66797 365.32764 -12.27905 -0.38803583 0.75286674 -0.53162014 77 77 62 255
-442.03125 353.03198 -10.449495 -0.38803586 0.7528667 -0.5316201 77 77 62 255
-409.07227 340.7556 -51.890877 -0.38803583 0.7528667 -0.5316201 77 77 62 255
-402.4746 291.6294 -138.62967 -0.39550462 0.8473196 -0.35443696 77 77 62 255
-376.10547 318.2351 -104.4515 -0.39550462 0.8473196 -0.3544369 77 77 62 255
-435.43555 303.90576 -72.50299 -0.39550462 0.8473196 -0.35443696 77 77 62 255
-290.17578 500 -174.32529 0.023224447 -0.19269952 -0.98098296 77 77 62 255
-290.36328 500 -174.32976 0.023224447 -0.19269952 -0.98098296 77 77 62 255
-283.8086 432.8794 -160.98975 0.023224447 -0.19269952 -0.98098296 77 77 62 255
-290.17578 500 -174.32529 0.023224447 -0.19269952 -0.98098296 77 77 62 255
-283.8086 432.8794 -160.98975 0.023224447 -0.19269952 -0.98098296 77 77 62 255
-270.6211 463.5808 -166.70834 0.023224447 -0.19269952 -0.98098296 77 77 62 255
-500 323.7461 3.4663768 -0.36182666 0.034034222 -0.931624 77 77 62 255
-500 303.9563 2.7435195 -0.36182666 0.034034222 -0.931624 77 77 62 255
-468.41602 328.47876 -8.627388 -0.36182666 0.034034222 -0.931624 77 77 62 255
-500 323.7461 3.4663768 -0.36182666 0.034034222 -0.931624 77 77 62 255
-468.41602 328.47876 -8.627388 -0.36182666 0.034034222 -0.931624 77 77 62 255
-494.78125 340.75513 2.0608 -0.36182666 0.034034222 -0.931624 77 77 62 255
-292.60547 340.7556 -155.6175 -0.6965781 0.43101567 -0.57358915 77 77 62 255
-270.6172 379.65137 -153.09198 -0.6965781 0.43101567 -0.57358915 77 77 62 255
-323.36328 377.60498 -90.57501 -0.6965781 0.43101564 -0.57358915 77 77 62 255
-329.96094 297.76465 -158.64589 -0.33886826 0.74776214 -0.5709817 77 77 62 255
-336.5586 340.7556 -98.42909 -0.33886826 0.74776214 -0.5709817 77 77 62 255
-376.10547 318.2351 -104.4515 -0.33886826 0.74776214 -0.5709817 77 77 62 255
-500 -500 -68.47769 0.03853749 -0.8210058 -0.5696176 77 77 62 255
-474.77344 -500 -66.77085 0.03853749 -0.8210058 -0.5696176 77 77 62 255
-468.4121 -482.20654 -91.98689 0.03853749 -0.8210058 -0.5696176 77 77 62 255
-500 -500 -68.47769 0.03853749 -0.8210058 -0.5696176 77 77 62 255
-468.4121 -482.20654 -91.98689 0.03853749 -0.8210058 -0.5696176 77 77 62 255
-500 -492.0254 -79.97199 0.03853749 -0.8210058 -0.5696176 77 77 62 255
-481.58594 -451.50537 -107.7113 -0.2537426 -0.76869565 -0.5871302 77 77 62 255
-455.2246 -439.21924 -135.18869 -0.2537426 -0.7686956 -0.5871302 77 77 62 255
-494.78125 -408.5078 -158.30249 -0.2537426 -0.7686956 -0.5871302 77 77 62 255
-362.91992 463.58643 -49.09183 -0.86515266 -0.088664986 -0.4936085 77 77 62 255
-362.91992 414.45386 -40.26635 -0.86515266 -0.08866498 -0.4936085 77 77 62 255
-349.73047 426.7307 -65.58985 -0.86515266 -0.088664986 -0.4936085 77 77 62 255
-494.78125 230.20703 -72.32356 -0.7629491 0.4262252 -0.48604608 77 77 62 255
-500 232.63745 -61.99998 -0.7629491 0.4262252 -0.48604608 77 77 62 255
-500 212.93066 -79.2814 -0.7629491 0.4262252 -0.48604608 77 77 62 255
-494.78125 230.20703 -72.32356 -0.7629491 0.4262252 -0.48604608 77 77 62 255
-500 212.93066 -79.2814 -0.7629491 0.4262252 -0.48604608 77 77 62 255
-494.78125 205.63574 -93.87067 -0.7629491 0.4262252 -0.48604608 77 77 62 255
-395.88086 230.20752 -175.99985 -0.45759037 0.5160725 -0.724072 77 77 62 255
-364.29492 269.87158 -167.69054 -0.45759037 0.5160726 -0.724072 77 77 62 255
-415.66797 254.78003 -145.98106 -0.45759037 0.5160725 -0.7240719 77 77 62 255
-455.2246 346.8933 -6.5771294 -0.68504584 0.49884093 -0.5309143 77 77 62 255
-435.43555 303.90576 -72.50299 -0.6850459 0.49884087 -0.5309143 77 77 62 255
-409.0703 316.18262 -94.986885 -0.68504584 0.49884087 -0.5309143 77 77 62 255
-345.1797 500 -109.23131 -0.80651355 -0.36941788 -0.461591 77 77 62 255
-353.14453 500 -95.31549 -0.80651355 -0.36941788 -0.461591 77 77 62 255
-362.91992 463.58643 -49.09183 -0.80651355 -0.36941788 -0.461591 77 77 62 255
-345.1797 500 -109.23131 -0.80651355 -0.36941788 -0.461591 77 77 62 255
-362.91992 463.58643 -49.09183 -0.80651355 -0.36941788 -0.461591 77 77 62 255
-336.5586 475.87622 -104.989494 -0.80651355 -0.36941788 -0.461591 77 77 62 255
-362.91992 463.58643 -49.09183 -0.8653942 -0.08896511 -0.49313098 77 77 62 255
-349.73047 426.7307 -65.58985 -0.86539406 -0.08896512 -0.49313104 77 77 62 255
-310.17383 432.8794 -136.11848 -0.8653942 -0.08896511 -0.49313104 77 77 62 255
-323.36328 377.60498 -90.57501 -0.8395723 -0.228246 -0.49297276 77 77 62 255
-323.36328 414.45435 -107.636246 -0.8395723 -0.22824597 -0.49297276 77 77 62 255
-362.91992 414.45386 -40.26635 -0.8395723 -0.228246 -0.49297276 77 77 62 255
-455.2246 -439.21924 -135.18869 -0.6794714 -0.26352334 -0.6847438 77 77 62 255
-468.4121 -457.65283 -115.00863 -0.6794714 -0.2635233 -0.68474376 77 77 62 255
-435.43555 -469.9297 -143.00734 -0.67947143 -0.26352337 -0.6847438 77 77 62 255
-468.4121 -396.23096 -155.48747 -0.1186371 -0.45349705 -0.88332653 77 77 62 255
-455.2246 -439.21924 -135.18869 -0.11863711 -0.45349705 -0.88332653 77 77 62 255
-442.03125 -396.23096 -159.03084 -0.1186371 -0.45349705 -0.88332653 77 77 62 255
-453.00977 -500 -103.89726 -0.8256073 -0.32180914 -0.46347758 77 77 62 255
-455.2246 -494.50293 -103.76935 -0.8256073 -0.32180914 -0.46347758 77 77 62 255
-461.12695 -500 -89.440025 -0.8256073 -0.32180914 -0.46347758 77 77 62 255
-481.58594 187.21948 -130.77692 -0.36784276 0.4271139 -0.82599354 77 77 62 255
-500 167.20825 -132.92393 -0.36784276 0.4271139 -0.82599354 77 77 62 255
-500 151.39111 -141.10263 -0.36784276 0.4271139 -0.82599354 77 77 62 255
-481.58594 187.21948 -130.77692 -0.36784276 0.4271139 -0.82599354 77 77 62 255
-500 151.39111 -141.10263 -0.36784276 0.4271139 -0.82599354 77 77 62 255
-448.62695 168.78638 -154.98561 -0.36784276 0.4271139 -0.82599354 77 77 62 255
-336.5586 340.7556 -98.42909 -0.67431116 0.5260472 -0.51824594 77 77 62 255
-292.60547 340.7556 -155.6175 -0.6743111 0.52604717 -0.51824594 77 77 62 255
-356.33008 365.32764 -47.76053 -0.6743111 0.52604717 -0.51824594 77 77 62 255
-356.33008 365.32764 -47.76053 -0.36260808 0.77512175 -0.5173991 77 77 62 255
-376.10547 318.2351 -104.4515 -0.36260805 0.7751217 -0.517399 77 77 62 255
-336.5586 340.7556 -98.42909 -0.36260808 0.77512175 -0.517399 77 77 62 255
-494.78125 -408.5078 -158.30249 0.3761735 -0.65529484 -0.6550436 77 77 62 255
-494.78125 -463.79102 -102.99818 0.37617353 -0.65529484 -0.65504366 77 77 62 255
-481.58594 -451.50537 -107.7113 0.37617347 -0.65529484 -0.6550436 77 77 62 255
-468.4121 -482.20654 -91.98689 -0.58608454 -0.5541966 -0.59107625 77 77 62 255
-468.4121 -457.65283 -115.00863 -0.58608454 -0.5541966 -0.59107625 77 77 62 255
-481.58594 -451.50537 -107.7113 -0.58608454 -0.5541966 -0.59107625 77 77 62 255
-428.83984 285.48145 -98.97937 -0.75296664 0.43722242 -0.4918106 77 77 62 255
-435.43555 303.90576 -72.50299 -0.7529667 0.43722242 -0.49181065 77 77 62 255
-472.80273 283.4319 -33.49427 -0.75296664 0.43722242 -0.49181065 77 77 62 255
-500 294.51855 -3.2504225 -0.58439213 0.43505087 -0.6849938 77 77 62 255
-472.80273 283.4319 -33.49427 -0.58439213 0.43505087 -0.6849938 77 77 62 255
-468.41602 328.47876 -8.627388 -0.58439213 0.43505087 -0.6849938 77 77 62 255
-500 294.51855 -3.2504225 -0.58439213 0.43505087 -0.6849938 77 77 62 255
-468.41602 328.47876 -8.627388 -0.58439213 0.43505087 -0.6849938 77 77 62 255
-500 303.9563 2.7435195 -0.58439213 0.43505087 -0.6849938 77 77 62 255
-270.6172 379.65137 -153.09198 -0.51094395 0.28491524 -0.81102383 77 77 62 255
-297.00195 402.1775 -128.55592 -0.51094395 0.2849152 -0.81102383 77 77 62 255
-323.36328 414.45435 -107.636246 -0.51094395 0.2849152 -0.81102383 77 77 62 255
-310.17383 432.8794 -136.11848 -0.5797411 -0.5349925 -0.6145594 77 77 62 255
-323.36328 414.45435 -107.636246 -0.5797411 -0.5349925 -0.6145594 77 77 62 255
-283.8086 432.8794 -160.98975 -0.5797411 -0.5349925 -0.6145594 77 77 62 255
-494.78125 230.20703 -72.32356 -0.6756037 0.48609596 -0.5543198 77 77 62 255
-494.78125 205.63574 -93.87067 -0.6756036 0.486096 -0.55431974 77 77 62 255
-448.62695 224.06909 -133.95651 -0.6756036 0.48609596 -0.5543198 77 77 62 255
-409.0703 316.18262 -94.986885 -0.11522933 -0.8087671 -0.57673043 77 77 62 255
-435.43555 303.90576 -72.50299 -0.115229346 -0.8087671 -0.5767305 77 77 62 255
-376.10547 318.2351 -104.4515 -0.115229346 -0.8087671 -0.57673043 77 77 62 255
-376.10547 318.2351 -104.4515 -0.09294313 0.89276993 -0.44082135 77 77 62 255
-376.11328 340.7556 -58.840195 -0.09294313 0.89276993 -0.44082138 77 77 62 255
-409.07227 340.7556 -51.890877 -0.09294314 0.89276993 -0.44082135 77 77 62 255
-322.9004 500 -141.2583 -0.3180613 -0.030070992 -0.94759315 77 77 62 255
-326.03906 500 -140.20467 -0.3180613 -0.030070992 -0.94759315 77 77 62 255
-297.00195 451.30322 -148.40515 -0.3180613 -0.030070992 -0.94759315 77 77 62 255
-322.9004 500 -141.2583 -0.3180613 -0.030070992 -0.94759315 77 77 62 255
-297.00195 451.30322 -148.40515 -0.3180613 -0.030070992 -0.94759315 77 77 62 255
-297.00195 475.87622 -149.18497 -0.3180613 -0.030070992 -0.94759315 77 77 62 255
-395.88086 230.20752 -175.99985 -0.6044477 0.37312347 -0.703862 77 77 62 255
-415.66797 254.78003 -145.98106 -0.6044478 0.3731235 -0.703862 77 77 62 255
-448.62695 224.06909 -133.95651 -0.6044478 0.37312347 -0.703862 77 77 62 255
-455.2246 -494.50293 -103.76935 -0.6725327 -0.4253863 -0.60559577 77 77 62 255
-435.43555 -469.9297 -143.00734 -0.67253274 -0.4253863 -0.6055958 77 77 62 255
-468.4121 -457.65283 -115.00863 -0.67253274 -0.42538628 -0.6055958 77 77 62 255
-419.3047 -500 -139.5306 -0.6693844 -0.42919707 -0.60639447 77 77 62 255
-435.43555 -469.9297 -143.00734 -0.6693844 -0.42919707 -0.60639447 77 77 62 255
-455.2246 -494.50293 -103.76935 -0.6693844 -0.42919707 -0.60639447 77 77 62 255
-419.3047 -500 -139.5306 -0.6693844 -0.42919707 -0.60639447 77 77 62 255
-455.2246 -494.50293 -103.76935 -0.6693844 -0.42919707 -0.60639447 77 77 62 255
-437.51172 -500 -119.43142 -0.6693844 -0.42919707 -0.60639447 77 77 62 255
-389.28516 426.7307 -8.284247 -0.8409286 -0.11079023 -0.5296835 77 77 62 255
-389.28516 389.88135 -0.57671964 -0.8409286 -0.11079024 -0.52968353 77 77 62 255
-356.33008 365.32764 -47.76053 -0.84092855 -0.11079022 -0.5296835 77 77 62 255
-481.58594 353.03198 3.4274557 -0.25271603 0.37108484 -0.89354944 77 77 62 255
-494.78125 340.75513 2.0608 -0.25271603 0.3710848 -0.89354944 77 77 62 255
-455.2246 346.8933 -6.5771294 -0.25271603 0.37108484 -0.89354944 77 77 62 255
-323.36328 451.30322 -113.11436 -0.84376466 0.06164127 -0.5331618 77 77 62 255
-362.91992 463.58643 -49.09183 -0.8437646 0.06164127 -0.5331619 77 77 62 255
-310.17383 432.8794 -136.11848 -0.84376466 0.061641272 -0.5331618 77 77 62 255
-323.36328 451.30322 -113.11436 -0.63334316 0.38486895 -0.67138094 77 77 62 255
-310.17383 432.8794 -136.11848 -0.63334316 0.38486892 -0.67138094 77 77 62 255
-283.8086 432.8794 -160.98975 -0.6333432 0.38486895 -0.67138094 77 77 62 255
-356.33008 365.32764 -47.76053 -0.7728903 -0.0068858247 -0.6345022 77 77 62 255
-362.91992 414.45386 -40.26635 -0.7728903 -0.0068858247 -0.63450223 77 77 62 255
-389.28516 426.7307 -8.284247 -0.7728903 -0.006885825 -0.63450223 77 77 62 255
-323.36328 377.60498 -90.57501 -0.7905087 -0.012632968 -0.61232066 77 77 62 255
-362.91992 414.45386 -40.26635 -0.7905087 -0.012632968 -0.61232066 77 77 62 255
-356.33008 365.32764 -47.76053 -0.7905087 -0.012632968 -0.61232066 77 77 62 255
-406.87305 385.78882 -0.3983259 -0.15799746 0.11922943 -0.9802148 77 77 62 255
-415.66797 414.45386 4.5060062 -0.15799746 0.11922943 -0.9802148 77 77 62 255
-428.83984 402.177 5.1359262 -0.15799746 0.11922944 -0.9802149 77 77 62 255
-442.03125 389.88135 3.4829621 -0.22402091 0.34466937 -0.9116017 77 77 62 255
-442.03125 353.03198 -10.449495 -0.22402094 0.3446694 -0.91160166 77 77 62 255
-415.66797 365.32764 -12.27905 -0.22402094 0.34466937 -0.9116017 77 77 62 255
-500 167.20825 -132.92393 -0.60513216 0.6115388 -0.5097405 77 77 62 255
-481.58594 187.21948 -130.77692 -0.60513216 0.6115388 -0.5097405 77 77 62 255
-500 190.07715 -105.48806 -0.60513216 0.6115388 -0.5097405 77 77 62 255
-345.1797 500 -109.23131 -0.7928512 -0.36869234 -0.48523495 77 77 62 255
-336.5586 475.87622 -104.989494 -0.7928512 -0.36869234 -0.48523495 77 77 62 255
-331.375 500 -131.78963 -0.7928512 -0.36869234 -0.48523495 77 77 62 255
-389.28516 475.87573 -16.194586 -0.5635636 -0.025827939 -0.8256689 77 77 62 255
-415.66797 439.02637 2.9655852 -0.5635636 -0.025827939 -0.8256689 77 77 62 255
-376.11328 439.02637 -24.032833 -0.5635636 -0.025827939 -0.8256689 77 77 62 255
-270.6172 379.65137 -153.09198 -0.68781644 -0.015163573 -0.7257263 77 77 62 255
-270.6211 402.1775 -153.56027 -0.68781644 -0.015163573 -0.7257263 77 77 62 255
-297.00195 402.1775 -128.55592 -0.68781644 -0.015163573 -0.72572625 77 77 62 255
-435.43555 -469.9297 -143.00734 -0.48999405 -0.35491094 -0.7962061 77 77 62 255
-419.3047 -500 -139.5306 -0.48999405 -0.35491094 -0.7962061 77 77 62 255
-415.66797 -500 -141.76863 -0.48999405 -0.35491094 -0.7962061 77 77 62 255
-435.43555 -469.9297 -143.00734 -0.48999405 -0.35491094 -0.7962061 77 77 62 255
-415.66797 -500 -141.76863 -0.48999405 -0.35491094 -0.7962061 77 77 62 255
-415.66797 -469.9297 -155.17247 -0.48999405 -0.35491094 -0.7962061 77 77 62 255
-428.83984 -445.35742 -154.93626 -0.5056401 -0.2631587 -0.8216298 77 77 62 255
-435.43555 -469.9297 -143.00734 -0.5056401 -0.2631587 -0.8216298 77 77 62 255
-415.66797 -469.9297 -155.17247 -0.5056401 -0.2631587 -0.8216298 77 77 62 255
-402.24023 500 -15.479428 -0.4691025 -0.22662038 -0.85357255 77 77 62 255
-415.1914 500 -8.361781 -0.4691025 -0.22662038 -0.85357255 77 77 62 255
-389.28516 475.87573 -16.194586 -0.4691025 -0.22662038 -0.85357255 77 77 62 255
-500 -460.54883 -110.142365 0.4023718 -0.6865973 -0.60554206 77 77 62 255
-500 -475.94287 -92.68767 0.4023718 -0.6865973 -0.60554206 77 77 62 255
-494.78125 -463.79102 -102.99818 0.4023718 -0.6865973 -0.60554206 77 77 62 255
-494.78125 -463.79102 -102.99818 -0.10500036 -0.6167917 -0.7800916 77 77 62 255
-500 -475.94287 -92.68767 -0.10500036 -0.6167917 -0.7800916 77 77 62 255
-500 -492.0254 -79.97199 -0.10500036 -0.6167917 -0.7800916 77 77 62 255
-494.78125 -463.79102 -102.99818 -0.10500036 -0.6167917 -0.7800916 77 77 62 255
-500 -492.0254 -79.97199 -0.10500036 -0.6167917 -0.7800916 77 77 62 255
-468.4121 -482.20654 -91.98689 -0.10500036 -0.6167917 -0.7800916 77 77 62 255
-376.10547 318.2351 -104.4515 -0.23245658 0.7511394 -0.617862 77 77 62 255
-364.29492 269.87158 -167.69054 -0.23245658 0.7511394 -0.61786205 77 77 62 255
-356.32617 303.90625 -129.31284 -0.23245658 0.75113946 -0.61786205 77 77 62 255
-442.03125 353.03198 -10.449495 -0.477638 0.6631321 -0.5762966 77 77 62 255
-455.2246 346.8933 -6.5771294 -0.477638 0.6631321 -0.5762966 77 77 62 255
-409.07227 340.7556 -51.890877 -0.477638 0.6631321 -0.5762966 77 77 62 255
-449.31836 -500 -106.41743 -0.5519204 -0.20352274 -0.8086794 77 77 62 255
-455.2246 -494.50293 -103.76935 -0.5519204 -0.20352274 -0.8086794 77 77 62 255
-453.00977 -500 -103.89726 -0.5519204 -0.20352274 -0.8086794 77 77 62 255
-455.2246 316.18262 -31.163357 -0.75271773 0.4389121 -0.49068543 77 77 62 255
-472.80273 283.4319 -33.49427 -0.75271773 0.43891203 -0.49068537 77 77 62 255
-435.43555 303.90576 -72.50299 -0.75271785 0.4389121 -0.49068543 77 77 62 255
-435.43555 303.90576 -72.50299 -0.77915454 0.391751 -0.4893355 77 77 62 255
-455.2246 346.8933 -6.5771294 -0.7791546 0.391751 -0.4893355 77 77 62 255
-455.2246 316.18262 -31.163357 -0.7791546 0.391751 -0.4893355 77 77 62 255
-448.62695 224.06909 -133.95651 -0.5902835 0.62991333 -0.504752 77 77 62 255
-457.41992 254.77393 -85.3557 -0.5902835 0.6299134 -0.504752 77 77 62 255
-494.78125 230.20703 -72.32356 -0.5902835 0.6299134 -0.50475204 77 77 62 255
-356.32617 303.90625 -129.31284 -0.43822733 0.7157503 -0.5437447 77 77 62 255
-364.29492 269.87158 -167.69054 -0.43822733 0.7157503 -0.54374474 77 77 62 255
-329.96094 297.76465 -158.64589 -0.43822733 0.7157503 -0.54374474 77 77 62 255
-329.96094 297.76465 -158.64589 -0.7077665 0.19904378 -0.67782605 77 77 62 255
-376.10547 318.2351 -104.4515 -0.70776653 0.19904378 -0.67782605 77 77 62 255
-356.32617 303.90625 -129.31284 -0.70776653 0.19904378 -0.67782605 77 77 62 255
-376.10547 318.2351 -104.4515 -0.65448976 0.67789364 -0.3348183 77 77 62 255
-356.33008 365.32764 -47.76053 -0.6544898 0.67789364 -0.3348183 77 77 62 255
-376.11328 340.7556 -58.840195 -0.6544898 0.67789376 -0.33481833 77 77 62 255
-406.87305 385.78882 -0.3983259 -0.4427644 0.017528588 -0.8964666 77 77 62 255
-389.28516 426.7307 -8.284247 -0.44276446 0.01752859 -0.8964666 77 77 62 255
-415.66797 414.45386 4.5060062 -0.44276446 0.017528588 -0.8964666 77 77 62 255
-500 294.51855 -3.2504225 -0.25117698 0.8137343 -0.5241628 77 77 62 255
-500 290.98853 -8.730565 -0.25117698 0.8137343 -0.5241628 77 77 62 255
-457.41992 254.77393 -85.3557 -0.25117698 0.8137343 -0.5241628 77 77 62 255
-500 294.51855 -3.2504225 -0.25117698 0.8137343 -0.5241628 77 77 62 255
-457.41992 254.77393 -85.3557 -0.25117698 0.8137343 -0.5241628 77 77 62 255
-472.80273 283.4319 -33.49427 -0.25117698 0.8137343 -0.5241628 77 77 62 255
-336.5586 340.7556 -98.42909 -0.6398321 0.59059274 -0.491747 77 77 62 255
-329.96094 297.76465 -158.64589 -0.63983214 0.59059274 -0.49174705 77 77 62 255
-292.60547 340.7556 -155.6175 -0.63983214 0.59059274 -0.49174705 77 77 62 255
-500 212.93066 -79.2814 -0.6883133 0.51970935 -0.50609 77 77 62 255
-500 206.44678 -85.93963 -0.6883133 0.51970935 -0.50609 77 77 62 255
-494.78125 205.63574 -93.87067 -0.6883133 0.51970935 -0.50609 77 77 62 255
-415.66797 365.32764 -12.27905 -0.034964677 0.51302564 -0.85766083 77 77 62 255
-406.87305 385.78882 -0.3983259 -0.03496468 0.51302564 -0.85766095 77 77 62 255
-442.03125 389.88135 3.4829621 -0.03496468 0.5130257 -0.85766083 77 77 62 255
-409.07227 340.7556 -51.890877 -0.6843153 0.56312746 -0.46324944 77 77 62 255
-406.87305 385.78882 -0.3983259 -0.6843153 0.5631274 -0.46324942 77 77 62 255
-415.66797 365.32764 -12.27905 -0.6843153 0.5631274 -0.46324942 77 77 62 255
-402.4746 291.6294 -138.62967 -0.68711996 -0.49332115 -0.53338593 77 77 62 255
-428.83984 285.48145 -98.97937 -0.6871199 -0.49332112 -0.53338593 77 77 62 255
-364.29492 269.87158 -167.69054 -0.68711996 -0.49332112 -0.5333859 77 77 62 255
-362.91992 463.58643 -49.09183 -0.7986756 -0.16224043 -0.57947856 77 77 62 255
-389.28516 475.87573 -16.194586 -0.7986756 -0.16224043 -0.5794785 77 77 62 255
-376.11328 439.02637 -24.032833 -0.7986756 -0.16224043 -0.57947856 77 77 62 255
-362.91992 414.45386 -40.26635 -0.83876187 -0.09626543 -0.5359211 77 77 62 255
-362.91992 463.58643 -49.09183 -0.8387619 -0.09626543 -0.53592104 77 77 62 255
-376.11328 439.02637 -24.032833 -0.8387619 -0.09626542 -0.53592104 77 77 62 255
-468.41602 377.6045 4.507888 -0.3053406 0.20454389 -0.93001556 77 77 62 255
-481.58594 353.03198 3.4274557 -0.3053406 0.20454389 -0.93001556 77 77 62 255
-455.2246 346.8933 -6.5771294 -0.3053406 0.20454387 -0.93001556 77 77 62 255
-442.03125 193.35815 -158.65698 -0.12502427 0.60536623 -0.78606665 77 77 62 255
-415.66797 193.35815 -162.84995 -0.12502427 0.60536623 -0.78606665 77 77 62 255
-448.62695 224.06909 -133.95651 -0.12502429 0.6053662 -0.7860666 77 77 62 255
-389.28516 426.7307 -8.284247 -0.51333815 -0.4133437 -0.7520844 77 77 62 255
-376.11328 439.02637 -24.032833 -0.51333815 -0.41334376 -0.7520844 77 77 62 255
-415.66797 439.02637 2.9655852 -0.51333815 -0.4133438 -0.7520844 77 77 62 255
-415.66797 439.02637 2.9655852 -0.41394693 -0.056953892 -0.9085176 77 77 62 255
-415.66797 414.45386 4.5060062 -0.4139469 -0.056953892 -0.9085176 77 77 62 255
-389.28516 426.7307 -8.284247 -0.41394696 -0.056953892 -0.9085176 77 77 62 255
-468.4121 -482.20654 -91.98689 -0.7885867 -0.39085975 -0.47472075 77 77 62 255
-474.77344 -500 -66.77085 -0.7885867 -0.39085975 -0.47472075 77 77 62 255
-461.12695 -500 -89.440025 -0.7885867 -0.39085975 -0.47472075 77 77 62 255
-468.4121 -482.20654 -91.98689 -0.7885867 -0.39085975 -0.47472075 77 77 62 255
-461.12695 -500 -89.440025 -0.7885867 -0.39085975 -0.47472075 77 77 62 255
-455.2246 -494.50293 -103.76935 -0.7885867 -0.39085975 -0.47472075 77 77 62 255
-455.2246 -494.50293 -103.76935 -0.79023325 -0.41914847 -0.44704133 77 77 62 255
-468.4121 -457.65283 -115.00863 -0.79023325 -0.41914845 -0.44704133 77 77 62 255
-468.4121 -482.20654 -91.98689 -0.79023325 -0.41914845 -0.44704127 77 77 62 255
-428.83984 402.177 5.1359262 -0.081903435 0.21858244 -0.9723752 77 77 62 255
-442.03125 389.88135 3.4829621 -0.081903435 0.21858244 -0.9723752 77 77 62 255
-406.87305 385.78882 -0.3983259 -0.08190342 0.21858242 -0.9723752 77 77 62 255
-323.36328 377.60498 -90.57501 -0.7979963 0.27786645 -0.5347824 77 77 62 255
-356.33008 365.32764 -47.76053 -0.79799634 0.27786645 -0.5347824 77 77 62 255
-292.60547 340.7556 -155.6175 -0.79799634 0.27786645 -0.53478235 77 77 62 255
-283.8086 432.8794 -160.98975 -0.9017372 -0.1672915 -0.39860195 77 77 62 255
-290.36328 500 -174.32976 -0.9017372 -0.1672915 -0.39860195 77 77 62 255
-290.52148 500 -173.97322 -0.9017372 -0.1672915 -0.39860195 77 77 62 255
-283.8086 432.8794 -160.98975 -0.9017372 -0.1672915 -0.39860195 77 77 62 255
-290.52148 500 -173.97322 -0.9017372 -0.1672915 -0.39860195 77 77 62 255
-297.00195 475.87622 -149.18497 -0.9017372 -0.1672915 -0.39860195 77 77 62 255
-297.00195 475.87622 -149.18497 -0.7062377 -0.022455633 -0.7076186 77 77 62 255
-297.00195 451.30322 -148.40515 -0.70623773 -0.022455633 -0.7076186 77 77 62 255
-283.8086 432.8794 -160.98975 -0.70623773 -0.022455633 -0.7076186 77 77 62 255
-435.43555 -469.9297 -143.00734 -0.61657023 -0.20370536 -0.7604901 77 77 62 255
-428.83984 -445.35742 -154.93626 -0.61657023 -0.20370533 -0.7604901 77 77 62 255
-455.2246 -439.21924 -135.18869 -0.6165703 -0.20370536 -0.7604901 77 77 62 255
-415.1914 500 -8.361781 -0.22397268 0.07497783 -0.971707 77 77 62 255
-467.03125 500 3.5868628 -0.22397268 0.07497783 -0.971707 77 77 62 255
-389.28516 475.87573 -16.194586 -0.22397268 0.07497783 -0.971707 77 77 62 255
-349.73047 426.7307 -65.58985 -0.856399 -0.117135994 -0.50285184 77 77 62 255
-362.91992 414.45386 -40.26635 -0.856399 -0.117135994 -0.50285184 77 77 62 255
-323.36328 414.45435 -107.636246 -0.8563989 -0.11713598 -0.50285184 77 77 62 255
-323.36328 414.45435 -107.636246 -0.85673463 -0.14966191 -0.49356568 77 77 62 255
-310.17383 432.8794 -136.11848 -0.85673463 -0.14966193 -0.49356574 77 77 62 255
-349.73047 426.7307 -65.58985 -0.85673463 -0.14966193 -0.49356574 77 77 62 255
-481.58594 187.21948 -130.77692 -0.6623714 0.54836506 -0.5104507 77 77 62 255
-448.62695 224.06909 -133.95651 -0.6623714 0.54836506 -0.5104507 77 77 62 255
-494.78125 205.63574 -93.87067 -0.6623714 0.54836506 -0.5104507 77 77 62 255
-500 195.79468 -96.90917 -0.6876552 0.5208837 -0.50577706 77 77 62 255
-481.58594 187.21948 -130.77692 -0.6876552 0.5208837 -0.50577706 77 77 62 255
-494.78125 205.63574 -93.87067 -0.6876552 0.5208837 -0.50577706 77 77 62 255
-500 195.79468 -96.90917 -0.6876552 0.5208837 -0.50577706 77 77 62 255
-494.78125 205.63574 -93.87067 -0.6876552 0.5208837 -0.50577706 77 77 62 255
-500 206.44678 -85.93963 -0.6876552 0.5208837 -0.50577706 77 77 62 255
-283.8086 432.8794 -160.98975 -0.6222952 -0.42618454 -0.6565938 77 77 62 255
-297.00195 402.1775 -128.55592 -0.6222952 -0.4261846 -0.6565938 77 77 62 255
-270.6211 402.1775 -153.56027 -0.6222952 -0.4261846 -0.6565938 77 77 62 255
-283.8086 432.8794 -160.98975 -0.6771208 -0.37675607 -0.6321094 77 77 62 255
-323.36328 414.45435 -107.636246 -0.67712086 -0.37675613 -0.6321094 77 77 62 255
-297.00195 402.1775 -128.55592 -0.67712086 -0.3767561 -0.6321094 77 77 62 255
-270.6172 379.65137 -153.09198 -0.45784703 0.018427424 0.88884 77 77 62 255
-283.8086 432.8794 -160.98975 -0.45784703 0.018427424 0.88884 77 77 62 255
-270.6211 402.1775 -153.56027 -0.457847 0.018427424 0.88884 77 77 62 255
-336.5586 475.87622 -104.989494 -0.8367204 -0.29721105 -0.45996138 77 77 62 255
-362.91992 463.58643 -49.09183 -0.8367204 -0.29721105 -0.4599614 77 77 62 255
-323.36328 451.30322 -113.11436 -0.8367204 -0.29721105 -0.45996138 77 77 62 255
-323.36328 451.30322 -113.11436 -0.7803894 -0.226314 -0.58290166 77 77 62 255
-297.00195 451.30322 -148.40515 -0.78038937 -0.22631402 -0.58290166 77 77 62 255
-336.5586 475.87622 -104.989494 -0.7803895 -0.22631402 -0.58290166 77 77 62 255
-428.83984 285.48145 -98.97937 -0.73223466 0.4577924 -0.5042405 77 77 62 255
-457.41992 254.77393 -85.3557 -0.7322347 0.4577924 -0.5042405 77 77 62 255
-415.66797 254.78003 -145.98106 -0.73223466 0.4577924 -0.5042405 77 77 62 255
-457.41992 254.77393 -85.3557 -0.7380096 0.47364235 -0.4806296 77 77 62 255
-428.83984 285.48145 -98.97937 -0.7380096 0.4736424 -0.48062956 77 77 62 255
-472.80273 283.4319 -33.49427 -0.7380096 0.47364235 -0.48062956 77 77 62 255
-468.41602 328.47876 -8.627388 -0.6746972 0.40598568 -0.61640835 77 77 62 255
-472.80273 283.4319 -33.49427 -0.6746973 0.40598574 -0.61640835 77 77 62 255
-455.2246 316.18262 -31.163357 -0.6746972 0.4059857 -0.6164084 77 77 62 255
-455.2246 346.8933 -6.5771294 -0.600597 0.4996957 -0.6241693 77 77 62 255
-468.41602 328.47876 -8.627388 -0.600597 0.4996957 -0.62416935 77 77 62 255
-455.2246 316.18262 -31.163357 -0.6005971 0.4996957 -0.62416935 77 77 62 255
-468.4121 -482.20654 -91.98689 0.07701362 -0.4281338 -0.90042794 77 77 62 255
-481.58594 -451.50537 -107.7113 0.07701362 -0.4281338 -0.90042794 77 77 62 255
-494.78125 -463.79102 -102.99818 0.07701362 -0.4281338 -0.90042794 77 77 62 255
-409.07227 340.7556 -51.890877 -0.19262868 0.8524303 -0.48606253 77 77 62 255
-409.0703 316.18262 -94.986885 -0.19262871 0.8524303 -0.48606256 77 77 62 255
-376.10547 318.2351 -104.4515 -0.1926287 0.8524303 -0.48606262 77 77 62 255
-449.31836 -500 -106.41743 -0.6697319 -0.42700675 -0.6075561 77 77 62 255
-437.51172 -500 -119.43142 -0.6697319 -0.42700675 -0.6075561 77 77 62 255
-455.2246 -494.50293 -103.76935 -0.6697319 -0.42700675 -0.6075561 77 77 62 255
-283.8086 432.8794 -160.98975 -0.7904838 -0.16283168 -0.5904415 77 77 62 255
-297.00195 451.30322 -148.40515 -0.7904838 -0.1628317 -0.5904416 77 77 62 255
-323.36328 451.30322 -113.11436 -0.7904838 -0.1628317 -0.5904415 77 77 62 255
-500 195.79468 -96.90917 -0.53454316 0.7032633 -0.4687049 77 77 62 255
-500 190.07715 -105.48806 -0.53454316 0.7032633 -0.4687049 77 77 62 255
-481.58594 187.21948 -130.77692 -0.53454316 0.7032633 -0.4687049 77 77 62 255
-435.43555 303.90576 -72.50299 -0.7940678 0.38805577 -0.46783444 77 77 62 255
-428.83984 285.48145 -98.97937 -0.7940678 0.38805577 -0.4678345 77 77 62 255
-402.4746 291.6294 -138.62967 -0.7940678 0.3880558 -0.4678345 77 77 62 255
-481.58594 -451.50537 -107.7113 -0.5774326 -0.37871838 -0.723287 77 77 62 255
-468.4121 -457.65283 -115.00863 -0.5774326 -0.3787184 -0.7232869 77 77 62 255
-455.2246 -439.21924 -135.18869 -0.5774325 -0.37871838 -0.723287 77 77 62 255
-455.2246 346.8933 -6.5771294 -0.35308447 0.17975944 -0.91816 77 77 62 255
-442.03125 353.03198 -10.449495 -0.35308442 0.17975943 -0.91816 77 77 62 255
-468.41602 377.6045 4.507888 -0.35308442 0.17975943 -0.91816 77 77 62 255
-409.0703 316.18262 -94.986885 -0.3476877 0.8144976 -0.46444252 77 77 62 255
-409.07227 340.7556 -51.890877 -0.3476877 0.8144976 -0.46444258 77 77 62 255
-455.2246 346.8933 -6.5771294 -0.3476877 0.81449765 -0.46444258 77 77 62 255
-376.10547 318.2351 -104.4515 -0.011313304 0.7932611 -0.6087765 77 77 62 255
-402.4746 291.6294 -138.62967 -0.011313305 0.7932611 -0.60877645 77 77 62 255
-364.29492 269.87158 -167.69054 -0.011313305 0.7932611 -0.60877645 77 77 62 255
-388.97852 500 -30.497385 -0.79582626 -0.30127552 -0.52525586 77 77 62 255
-389.28516 500 -30.03177 -0.79582626 -0.30127552 -0.52525586 77 77 62 255
-389.28516 475.87573 -16.194586 -0.79582626 -0.30127552 -0.52525586 77 77 62 255
-388.97852 500 -30.497385 -0.79582626 -0.30127552 -0.52525586 77 77 62 255
-389.28516 475.87573 -16.194586 -0.79582626 -0.30127552 -0.52525586 77 77 62 255
-362.91992 463.58643 -49.09183 -0.79582626 -0.30127552 -0.52525586 77 77 62 255
-388.97852 500 -30.497385 -0.8183055 -0.3545708 -0.4523888 77 77 62 255
-362.91992 463.58643 -49.09183 -0.8183055 -0.3545708 -0.4523888 77 77 62 255
-353.14453 500 -95.31549 -0.8183055 -0.3545708 -0.4523888 77 77 62 255
-428.83984 -445.35742 -154.93626 -0.6168615 -0.22840026 -0.75320333 77 77 62 255
-442.03125 -396.23096 -159.03084 -0.6168615 -0.22840026 -0.7532033 77 77 62 255
-455.2246 -439.21924 -135.18869 -0.6168615 -0.22840026 -0.7532033 77 77 62 255
-500 232.63745 -61.99998 -0.5945177 0.66199946 -0.456405 77 77 62 255
-494.78125 230.20703 -72.32356 -0.5945177 0.66199946 -0.456405 77 77 62 255
-457.41992 254.77393 -85.3557 -0.5945177 0.66199946 -0.456405 77 77 62 255
-500 232.63745 -61.99998 -0.5945177 0.66199946 -0.456405 77 77 62 255
-457.41992 254.77393 -85.3557 -0.5945177 0.66199946 -0.456405 77 77 62 255
-500 246.56152 -41.802235 -0.5945177 0.66199946 -0.456405 77 77 62 255
-394.13672 -500 -155.6062 -0.06250705 -0.030367712 -0.9975824 77 77 62 255
-389.2832 -500 -155.91035 -0.06250705 -0.030367712 -0.9975824 77 77 62 255
-389.2832 -482.20654 -156.45201 -0.06250705 -0.030367712 -0.9975824 77 77 62 255
-394.13672 -500 -155.6062 -0.06250705 -0.030367712 -0.9975824 77 77 62 255
-389.2832 -482.20654 -156.45201 -0.06250705 -0.030367712 -0.9975824 77 77 62 255
-415.66797 -469.9297 -155.17247 -0.06250705 -0.030367712 -0.9975824 77 77 62 255
-389.28516 389.88135 -0.57671964 0.037684828 -0.20458713 -0.97812265 77 77 62 255
-389.28516 426.7307 -8.284247 0.037684828 -0.20458713 -0.97812265 77 77 62 255
-406.87305 385.78882 -0.3983259 0.037684828 -0.20458713 -0.97812265 77 77 62 255
-500 -397.5166 -157.74237 0.65924037 0.34703952 -0.6670575 77 77 62 255
-500 -401.2212 -159.66946 0.65924037 0.34703952 -0.6670575 77 77 62 255
-494.78125 -408.5078 -158.30249 0.65924037 0.34703952 -0.6670575 77 77 62 255
-500 -397.5166 -157.74237 0.65924037 0.34703952 -0.6670575 77 77 62 255
-494.78125 -408.5078 -158.30249 0.65924037 0.34703952 -0.6670575 77 77 62 255
-455.2246 -439.21924 -135.18869 0.65924037 0.34703952 -0.6670575 77 77 62 255
-500 456.17773 3.3837368 -0.004415907 0.0011346635 -0.99998957 54 64 7 255
-500 440.9314 3.3664377 -0.004415907 0.0011346635 -0.99998957 54 64 7 255
-481.58594 439.02637 3.2829595 -0.004415907 0.0011346635 -0.99998957 54 64 7 255
-481.58594 439.02637 3.2829595 0.012169339 0.00572538 -0.9999096 54 64 7 255
-494.78125 389.88135 2.8409715 0.012169339 0.00572538 -0.9999096 54 64 7 255
-442.03125 389.88135 3.4829621 0.01216934 0.0057253805 -0.9999096 54 64 7 255
-500 500 3.8168547 0.0037326242 0.009882939 -0.9999442 54 64 7 255
-500 456.17773 3.3837368 0.0037326242 0.009882939 -0.9999442 54 64 7 255
-481.58594 439.02637 3.2829595 0.0037326242 0.009882939 -0.9999442 54 64 7 255
-500 500 3.8168547 0.0037326242 0.009882939 -0.9999442 54 64 7 255
-481.58594 439.02637 3.2829595 0.0037326242 0.009882939 -0.9999442 54 64 7 255
-468.5078 500 3.93441 0.0037326242 0.009882939 -0.9999442 54 64 7 255
-428.83984 402.177 5.1359262 -0.00040859854 -0.050804794 -0.99870855 54 64 7 255
-415.66797 414.45386 4.5060062 -0.00040859854 -0.05080479 -0.99870855 54 64 7 255
-481.58594 439.02637 3.2829595 -0.0004085986 -0.0508048 -0.99870855 54 64 7 255
-468.15234 500 3.9418304 0.02086352 0.006206697 -0.9997631 54 64 7 255
-468.5078 500 3.93441 0.02086352 0.006206697 -0.9997631 54 64 7 255
-481.58594 439.02637 3.2829595 0.02086352 0.006206697 -0.9997631 54 64 7 255
-468.15234 500 3.9418304 0.02086352 0.006206697 -0.9997631 54 64 7 255
-481.58594 439.02637 3.2829595 0.02086352 0.006206697 -0.9997631 54 64 7 255
-415.66797 414.45386 4.5060062 0.02086352 0.006206697 -0.9997631 54 64 7 255
-494.78125 389.88135 2.8409715 0.012097057 -0.10897943 -0.99397045 54 64 7 255
-468.41602 377.6045 4.507888 0.012097057 -0.10897943 -0.99397045 54 64 7 255
-442.03125 389.88135 3.4829621 0.012097057 -0.10897943 -0.99397045 54 64 7 255
-468.15234 500 3.9418304 -0.09087329 -0.06230714 -0.9939114 54 64 7 255
-415.66797 414.45386 4.5060062 -0.09087329 -0.06230714 -0.9939114 54 64 7 255
-415.66797 439.02637 2.9655852 -0.09087329 -0.06230714 -0.9939114 54 64 7 255
-468.15234 500 3.9418304 -0.09087329 -0.06230714 -0.9939114 54 64 7 255
-415.66797 439.02637 2.9655852 -0.09087329 -0.06230714 -0.9939114 54 64 7 255
-468.04688 500 3.9321904 -0.09087329 -0.06230714 -0.9939114 54 64 7 255
-500 362.8086 2.5465708 0.023699809 0.0063026007 -0.9996993 54 64 7 255
-494.78125 365.32764 2.6861722 0.023699809 0.0063026007 -0.9996993 54 64 7 255
-494.78125 389.88135 2.8409715 0.023699809 0.0063026007 -0.9996993 54 64 7 255
-500 362.8086 2.5465708 0.023699809 0.0063026007 -0.9996993 54 64 7 255
-494.78125 389.88135 2.8409715 0.023699809 0.0063026007 -0.9996993 54 64 7 255
-500 383.39893 2.676382 0.023699809 0.0063026007 -0.9996993 54 64 7 255
-494.78125 389.88135 2.8409715 0.06683006 0.0080508515 -0.99773186 54 64 7 255
-481.58594 353.03198 3.4274557 0.06683007 0.0080508515 -0.99773186 54 64 7 255
-468.41602 377.6045 4.507888 0.06683006 0.008050852 -0.99773186 54 64 7 255
-442.03125 389.88135 3.4829621 0.07345532 0.055069022 -0.9957769 54 64 7 255
-428.83984 402.177 5.1359262 0.07345532 0.055069022 -0.9957769 54 64 7 255
-481.58594 439.02637 3.2829595 0.07345532 0.055069022 -0.9957769 54 64 7 255
-500 440.9314 3.3664377 -0.01174976 -0.06986717 -0.9974871 54 64 7 255
-500 434.7339 3.8005314 -0.01174976 -0.06986717 -0.9974871 54 64 7 255
-481.58594 439.02637 3.2829595 -0.01174976 -0.06986717 -0.9974871 54 64 7 255
-500 426.16187 3.0669594 -0.047825553 0.08516944 -0.99521804 54 64 7 255
-481.58594 439.02637 3.2829595 -0.047825553 0.08516944 -0.99521804 54 64 7 255
-500 434.7339 3.8005314 -0.047825553 0.08516944 -0.99521804 54 64 7 255
-500 391.50366 2.8176515 0.009884859 0.01742685 -0.9997993 54 64 7 255
-500 383.39893 2.676382 0.009884859 0.01742685 -0.9997993 54 64 7 255
-494.78125 389.88135 2.8409715 0.009884859 0.01742685 -0.9997993 54 64 7 255
-500 426.16187 3.0669594 0.006704192 0.007193103 -0.99995166 54 64 7 255
-500 391.50366 2.8176515 0.006704192 0.007193103 -0.99995166 54 64 7 255
-494.78125 389.88135 2.8409715 0.006704192 0.007193103 -0.99995166 54 64 7 255
-500 426.16187 3.0669594 0.006704192 0.007193103 -0.99995166 54 64 7 255
-494.78125 389.88135 2.8409715 0.006704192 0.007193103 -0.99995166 54 64 7 255
-481.58594 439.02637 3.2829595 0.006704192 0.007193103 -0.99995166 54 64 7 255
-494.78125 340.75513 2.0608 0.07961511 0.025361087 -0.996503 54 64 7 255
-481.58594 353.03198 3.4274557 0.0796151 0.025361085 -0.996503 54 64 7 255
-494.78125 365.32764 2.6861722 0.0796151 0.025361085 -0.996503 54 64 7 255
-494.78125 389.88135 2.8409715 0.061933517 0.0062922686 -0.9980604 54 64 7 255
-494.78125 365.32764 2.6861722 0.06193352 0.0062922696 -0.9980605 54 64 7 255
-481.58594 353.03198 3.4274557 0.061933517 0.0062922696 -0.9980604 54 64 7 255
-500 342.20264 2.0221467 -0.014252049 -0.078003444 -0.9968512 54 64 7 255
-500 323.7461 3.4663768 -0.014252049 -0.078003444 -0.9968512 54 64 7 255
-494.78125 340.75513 2.0608 -0.014252049 -0.078003444 -0.9968512 54 64 7 255
-500 342.20264 2.0221467 0.014459396 0.025439195 -0.99957186 54 64 7 255
-494.78125 340.75513 2.0608 0.014459396 0.025439195 -0.99957186 54 64 7 255
-494.78125 365.32764 2.6861722 0.014459396 0.025439195 -0.99957186 54 64 7 255
-500 342.20264 2.0221467 0.014459396 0.025439195 -0.99957186 54 64 7 255
-494.78125 365.32764 2.6861722 0.014459396 0.025439195 -0.99957186 54 64 7 255
-500 362.8086 2.5465708 0.014459396 0.025439195 -0.99957186 54 64 7 255
3 2 1 0
3 5 4 3
3 8 7 6
3 11 10 9
3 14 13 12
3 17 16 15
3 20 19 18
3 23 22 21
3 26 25 24
3 29 28 27
3 32 31 30
3 35 34 33
3 38 37 36
3 41 40 39
3 44 43 42
3 47 46 45
3 50 49 48
3 53 52 51
3 56 55 54
3 59 58 57
3 62 61 60
3 65 64 63
3 68 67 66
3 71 70 69
3 74 73 72
3 77 76 75
3 80 79 78
3 83 82 81
3 86 85 84
3 89 88 87
3 92 91 90
3 95 94 93
3 98 97 96
3 101 100 99
3 104 103 102
3 107 106 105
3 110 109 108
3 113 112 111
3 116 115 114
3 119 118 117
3 122 121 120
3 125 124 123
3 128 127 126
3 131 130 129
3 134 133 132
3 137 136 135
3 140 139 138
3 143 142 141
3 146 145 144
3 149 148 147
3 152 151 150
3 155 154 153
3 158 157 156
3 161 160 159
3 164 163 162
3 167 166 165
3 170 169 168
3 173 172 171
3 176 175 174
3 179 178 177
3 182 181 180
3 185 184 183
3 188 187 186
3 191 190 189
3 194 193 192
3 197 196 195
3 200 199 198
3 203 202 201
3 206 205 204
3 209 208 207
3 212 211 210
3 215 214 213
3 218 217 216
3 221 220 219
3 224 223 222
3 227 226 225
3 230 229 228
3 233 232 231
3 236 235 234
3 239 238 237
3 242 241 240
3 245 244 243
3 248 247 246
3 251 250 249
3 254 253 252
3 257 256 255
3 260 259 258
3 263 262 261
3 266 265 264
3 269 268 267
3 272 271 270
3 275 274 273
3 278 277 276
3 281 280 279
3 284 283 282
3 287 286 285
3 290 289 288
3 293 292 291
3 296 295 294
3 299 298 297
3 302 301 300
3 305 304 303
3 308 307 306
3 311 310 309
3 314 313 312
3 317 316 315
3 320 319 318
3 323 322 321
3 326 325 324
3 329 328 327
3 332 331 330
3 335 334 333
3 338 337 336
3 341 340 339
3 344 343 342
3 347 346 345
3 350 349 348
3 353 352 351
3 356 355 354
3 359 358 357
3 362 361 360
3 365 364 363
3 368 367 366
3 371 370 369
3 374 373 372
3 377 376 375
3 380 379 378
3 383 382 381
3 386 385 384
3 389 388 387
3 392 391 390
3 395 394 393
3 398 397 396
3 401 400 399
3 404 403 402
3 407 406 405
3 410 409 408
3 413 412 411
3 416 415 414
3 419 418 417
3 422 421 420
3 425 424 423
3 428 427 426
3 431 430 429
3 434 433 432
3 437 436 435
3 440 439 438
3 443 442 441
3 446 445 444
3 449 448 447
3 452 451 450
3 455 454 453
3 458 457 456
3 461 460 459
3 464 463 462
3 467 466 465
3 470 469 468
3 473 472 471
3 476 475 474
3 479 478 477
3 482 481 480
3 485 484 483
3 488 487 486
3 491 490 489
3 494 493 492
3 497 496 495
3 500 499 498
3 503 502 501
3 506 505 504
3 509 508 507
3 512 511 510
3 515 514 513
3 518 517 516
3 521 520 519
3 524 523 522
3 527 526 525
3 530 529 528
3 533 532 531
3 536 535 534
3 539 538 537
3 542 541 540

