ply
format ascii 1.0
commentY29udmVydGVyIGJ5IENvZGVMZW9wYXJk
comment Original mesh name: 'C:\Program Files (x86)\Steam\steamapps\common\Stormworks NSO\rom\meshes\mainland\mega_island_19_7.mesh'
comment SubMesh index: 0
comment SubMesh name: ''
comment Shader: Opaque (0)
element vertex 327
property float x
property float y
property float z
property float nx
property float ny
property float nz
property uchar red
property uchar green
property uchar blue
property uchar alpha
element face 109
property list uchar ushort vertex_index
end_header
-296.9746 -111.555176 -124.89803 -0.35721058 0.79559153 -0.48932067 77 77 62 255
-233.51562 -67.63989 -99.82205 -0.35721058 0.79559153 -0.48932067 77 77 62 255
-270.59375 -50.152832 -44.322647 -0.35721058 0.79559153 -0.48932067 77 77 62 255
-244.22852 35.841553 -104.75548 -0.8422347 -0.112326756 -0.5272794 77 77 62 255
-270.59375 -50.152832 -44.322647 -0.8422347 -0.112326756 -0.5272794 77 77 62 255
-233.51562 -67.63989 -99.82205 -0.8422347 -0.11232676 -0.5272794 77 77 62 255
-468.38867 -74.70703 0.67399687 0.0009856719 0.89784694 -0.44030675 77 77 62 255
-402.44727 -148.406 -149.46043 0.0009856719 0.8978469 -0.44030675 77 77 62 255
-349.70117 -148.406 -149.34235 0.0009856719 0.89784694 -0.4403067 77 77 62 255
-349.70117 -148.406 -149.34235 -0.17389366 0.82244074 -0.5416201 77 77 62 255
-376.08594 -62.430176 -10.31861 -0.17389365 0.82244074 -0.54162 77 77 62 255
-468.38867 -74.70703 0.67399687 -0.17389365 0.82244074 -0.54162 77 77 62 255
-204.67383 -13.304077 -93.20506 -0.14543433 0.19531316 -0.9698978 77 77 62 255
-233.51562 -67.63989 -99.82205 -0.14543433 0.19531313 -0.9698978 77 77 62 255
-191.47852 -50.152832 -102.60405 -0.14543435 0.19531316 -0.9698978 77 77 62 255
-500 7.1400146 -59.870663 0.38774914 -0.7907591 -0.4736568 77 77 62 255
-500 -5.9001465 -38.100258 0.38774914 -0.7907591 -0.4736568 77 77 62 255
-494.75195 -1.0084229 -41.971043 0.38774914 -0.7907591 -0.4736568 77 77 62 255
-481.5586 -13.304077 -13.162031 0.57178485 -0.30014533 -0.76352787 77 77 62 255
-455.19727 -37.857788 16.230404 0.57178485 -0.30014533 -0.76352787 77 77 62 255
-455.19727 -13.304077 6.5782423 0.5717849 -0.30014536 -0.7635279 77 77 62 255
-191.47852 48.11914 -162.31508 -0.40523118 -0.6627455 -0.629727 77 77 62 255
-191.47852 17.407227 -129.99289 -0.40523118 -0.66274554 -0.629727 77 77 62 255
-155.5586 27.49353 -163.72263 -0.40523118 -0.6627455 -0.629727 77 77 62 255
-283.7832 11.267822 -60.341072 -0.49634555 -0.4927977 -0.7146968 77 77 62 255
-244.22852 35.841553 -104.75548 -0.49634555 -0.4927977 -0.7146968 77 77 62 255
-271.4375 72.69104 -111.266945 -0.49634555 -0.4927977 -0.7146968 77 77 62 255
-448.5996 103.39258 -161.60643 -0.07809163 -0.6744586 -0.7341711 77 77 62 255
-444.64258 53.033447 -115.76417 -0.07809164 -0.6744587 -0.7341711 77 77 62 255
-393.6582 101.34338 -165.56795 -0.07809164 -0.6744587 -0.73417115 77 77 62 255
-500 -121.42407 -55.294674 -0.13139884 0.85307884 -0.50496626 77 77 62 255
-500 -133.7456 -76.11014 -0.13139884 0.85307884 -0.50496626 77 77 62 255
-494.75195 -148.406 -102.24246 -0.13139884 0.85307884 -0.50496626 77 77 62 255
-500 -121.42407 -55.294674 -0.13139884 0.85307884 -0.50496626 77 77 62 255
-494.75195 -148.406 -102.24246 -0.13139884 0.85307884 -0.50496626 77 77 62 255
-468.38477 -160.7002 -129.87347 -0.13139884 0.85307884 -0.50496626 77 77 62 255
-468.38867 -74.70703 0.67399687 -0.2518104 0.8081917 -0.53237 77 77 62 255
-500 -104.156006 -29.080023 -0.2518104 0.8081917 -0.53237 77 77 62 255
-500 -121.42407 -55.294674 -0.2518104 0.8081917 -0.53237 77 77 62 255
-468.38867 -74.70703 0.67399687 -0.2518104 0.8081917 -0.53237 77 77 62 255
-500 -121.42407 -55.294674 -0.2518104 0.8081917 -0.53237 77 77 62 255
-468.38477 -160.7002 -129.87347 -0.2518104 0.8081917 -0.53237 77 77 62 255
-444.64258 53.033447 -115.76417 -0.0025343061 -0.91297114 -0.40801615 77 77 62 255
-442.00195 5.1297607 -8.591827 -0.0025343064 -0.91297114 -0.40801615 77 77 62 255
-415.64062 35.840942 -77.474625 -0.0025343064 -0.9129712 -0.40801618 77 77 62 255
-415.64062 -50.15332 5.594001 -0.17542623 0.25759122 -0.95019597 77 77 62 255
-402.44727 -13.304077 13.147983 -0.17542623 0.2575912 -0.95019597 77 77 62 255
-455.19727 -37.857788 16.230404 -0.17542623 0.25759122 -0.95019597 77 77 62 255
-402.44727 -13.304077 13.147983 -0.27922255 0.28776076 -0.9160942 77 77 62 255
-415.64062 -50.15332 5.594001 -0.27922255 0.28776076 -0.9160942 77 77 62 255
-376.08594 -62.430176 -10.31861 -0.27922258 0.28776076 -0.9160942 77 77 62 255
-233.51562 -67.63989 -99.82205 0.25803608 -0.019338617 -0.9659417 77 77 62 255
-204.67383 -13.304077 -93.20506 0.25803608 -0.019338617 -0.9659417 77 77 62 255
-244.22852 35.841553 -104.75548 0.25803608 -0.019338613 -0.9659417 77 77 62 255
-191.47852 17.407227 -129.99289 -0.49519098 -0.62981164 -0.598434 77 77 62 255
-191.47852 48.11914 -162.31508 -0.49519098 -0.62981164 -0.598434 77 77 62 255
-224.43945 48.11914 -135.03934 -0.49519098 -0.62981164 -0.598434 77 77 62 255
-448.5996 103.39258 -161.60643 0.1805727 -0.654302 -0.73435855 77 77 62 255
-494.75195 84.968506 -156.5394 0.1805727 -0.65430194 -0.73435855 77 77 62 255
-444.64258 53.033447 -115.76417 0.18057269 -0.65430194 -0.7343585 77 77 62 255
-455.19727 -13.304077 6.5782423 0.115139715 -0.36341769 -0.9244839 77 77 62 255
-455.19727 -37.857788 16.230404 0.11513972 -0.3634177 -0.9244839 77 77 62 255
-402.44727 -13.304077 13.147983 0.115139715 -0.36341769 -0.9244838 77 77 62 255
-415.64062 35.840942 -77.474625 0.07862898 -0.9213533 -0.3806909 77 77 62 255
-442.00195 5.1297607 -8.591827 0.07862898 -0.9213533 -0.3806909 77 77 62 255
-402.44727 11.267822 -15.277598 0.07862898 -0.9213533 -0.3806909 77 77 62 255
-296.9746 35.841553 -76.54466 -0.17821558 -0.6065678 -0.7747998 77 77 62 255
-283.7832 11.267822 -60.341072 -0.17821561 -0.6065678 -0.7747998 77 77 62 255
-271.4375 72.69104 -111.266945 -0.1782156 -0.6065678 -0.77479976 77 77 62 255
-270.59375 78.82971 -144.01295 -0.05131224 -0.7592403 -0.6487844 77 77 62 255
-257.4004 97.24475 -166.60652 -0.05131224 -0.7592403 -0.6487844 77 77 62 255
-296.9746 97.24475 -163.47655 -0.05131224 -0.75924027 -0.6487844 77 77 62 255
-461.79297 35.841553 -80.67201 0.48556027 -0.74821514 -0.45211208 77 77 62 255
-481.5586 23.552246 -81.56118 0.48556027 -0.74821514 -0.45211205 77 77 62 255
-442.00195 5.1297607 -8.591827 0.48556027 -0.74821514 -0.45211208 77 77 62 255
-382.66992 23.54541 -34.33206 0.08932408 -0.9377848 -0.3355309 77 77 62 255
-402.44727 48.11853 -108.277275 0.08932408 -0.93778473 -0.3355309 77 77 62 255
-415.64062 35.840942 -77.474625 0.08932408 -0.93778473 -0.33553088 77 77 62 255
-382.66992 23.54541 -34.33206 -0.20920645 -0.7954782 -0.5687241 77 77 62 255
-376.08594 -13.304077 14.787102 -0.20920642 -0.7954782 -0.5687241 77 77 62 255
-349.70312 23.54541 -46.45923 -0.20920642 -0.7954782 -0.5687241 77 77 62 255
-500 -36.410156 -1.8727806 0.34388554 -0.53590405 -0.7710705 77 77 62 255
-500 -58.73413 13.64262 0.34388554 -0.53590405 -0.7710705 77 77 62 255
-481.5586 -50.15332 15.903498 0.34388554 -0.53590405 -0.7710705 77 77 62 255
-500 -24.397827 -17.74704 0.49373102 -0.538554 -0.68278056 77 77 62 255
-481.5586 -50.15332 15.903498 0.49373102 -0.538554 -0.68278056 77 77 62 255
-481.5586 -13.304077 -13.162031 0.49373102 -0.538554 -0.68278056 77 77 62 255
-500 -24.397827 -17.74704 0.49373102 -0.538554 -0.68278056 77 77 62 255
-481.5586 -13.304077 -13.162031 0.49373102 -0.538554 -0.68278056 77 77 62 255
-500 -13.304077 -26.497465 0.49373102 -0.538554 -0.68278056 77 77 62 255
-283.7832 11.267822 -60.341072 -0.12571822 -0.5922758 -0.795867 77 77 62 255
-296.9746 35.841553 -76.54466 -0.12571822 -0.5922758 -0.795867 77 77 62 255
-323.33594 35.834717 -72.37562 -0.12571822 -0.59227574 -0.795867 77 77 62 255
-349.70312 23.54541 -46.45923 -0.23703107 -0.78395987 -0.57377964 77 77 62 255
-376.08594 -13.304077 14.787102 -0.23703107 -0.78395987 -0.5737797 77 77 62 255
-336.53125 -25.580933 15.220737 -0.23703106 -0.78395987 -0.57377964 77 77 62 255
-310.14453 60.394775 -105.54165 0.23234911 -0.90146196 -0.36521256 77 77 62 255
-271.4375 72.69104 -111.266945 0.23234913 -0.90146196 -0.36521253 77 77 62 255
-362.16016 73.7113 -171.50327 0.23234913 -0.90146196 -0.3652125 77 77 62 255
-500 -58.73413 13.64262 -0.098761044 0.4465627 -0.8892851 77 77 62 255
-500 -84.493164 0.70754033 -0.098761044 0.4465627 -0.8892851 77 77 62 255
-481.5586 -50.15332 15.903498 -0.098761044 0.4465627 -0.8892851 77 77 62 255
-204.67383 -13.304077 -93.20506 -0.8430338 -0.17187999 -0.5096581 77 77 62 255
-191.47852 -50.152832 -102.60405 -0.8430338 -0.17187999 -0.50965804 77 77 62 255
-165.11719 -13.304077 -158.63364 -0.8430338 -0.17187999 -0.50965804 77 77 62 255
-393.6582 101.34338 -165.56795 -0.5899622 -0.5444099 -0.59629077 77 77 62 255
-402.44727 48.11853 -108.277275 -0.5899622 -0.5444099 -0.5962907 77 77 62 255
-362.16016 73.7113 -171.50327 -0.5899622 -0.5444099 -0.5962907 77 77 62 255
-500 -146.7771 -98.21118 -0.19302791 0.7964231 -0.57310605 77 77 62 255
-500 -155.2522 -109.988884 -0.19302791 0.7964231 -0.57310605 77 77 62 255
-494.75195 -148.406 -102.24246 -0.19302791 0.7964231 -0.57310605 77 77 62 255
-461.79102 -191.40186 -152.38371 -0.5641419 0.40596944 -0.71898025 77 77 62 255
-468.38477 -160.7002 -129.87347 -0.564142 0.40596944 -0.7189803 77 77 62 255
-494.75195 -148.406 -102.24246 -0.564142 0.40596944 -0.7189803 77 77 62 255
-296.9746 -111.555176 -124.89803 -0.18998808 0.67929643 -0.7088448 77 77 62 255
-244.22852 -123.85083 -150.81876 -0.18998808 0.6792964 -0.70884484 77 77 62 255
-233.51562 -67.63989 -99.82205 -0.18998808 0.67929643 -0.7088448 77 77 62 255
-178.29102 -111.555176 -151.31088 -0.5390523 0.26103014 -0.8008033 77 77 62 255
-165.11719 -87.001465 -152.17426 -0.53905225 0.26103014 -0.8008033 77 77 62 255
-233.51562 -67.63989 -99.82205 -0.5390523 0.26103014 -0.8008033 77 77 62 255
-402.44727 48.11853 -108.277275 0.0345947 -0.73482805 -0.6773706 77 77 62 255
-393.6582 101.34338 -165.56795 0.034594703 -0.73482805 -0.67737067 77 77 62 255
-444.64258 53.033447 -115.76417 0.034594703 -0.73482805 -0.67737067 77 77 62 255
-244.22852 35.841553 -104.75548 -0.7858366 -0.6038574 -0.1334807 77 77 62 255
-270.59375 78.82971 -144.01295 -0.7858366 -0.6038574 -0.1334807 77 77 62 255
-271.4375 72.69104 -111.266945 -0.7858366 -0.6038574 -0.1334807 77 77 62 255
-257.4004 97.24475 -166.60652 -0.2476028 -0.6751633 -0.69487214 77 77 62 255
-270.59375 78.82971 -144.01295 -0.24760282 -0.6751634 -0.6948722 77 77 62 255
-237.63281 78.82971 -155.75754 -0.24760282 -0.6751634 -0.6948722 77 77 62 255
-270.59375 -50.152832 -44.322647 -0.6587015 -0.5658269 -0.4959359 77 77 62 255
-323.33594 35.834717 -72.37562 -0.6587015 -0.5658269 -0.49593586 77 77 62 255
-336.53125 -25.580933 15.220737 -0.6587015 -0.5658269 -0.4959359 77 77 62 255
-349.70117 -148.406 -149.34235 -0.26766485 0.79592043 -0.54301584 77 77 62 255
-270.59375 -50.152832 -44.322647 -0.26766488 0.7959204 -0.5430159 77 77 62 255
-376.08594 -62.430176 -10.31861 -0.26766485 0.79592043 -0.54301584 77 77 62 255
-376.08594 -13.304077 14.787102 -0.07248532 -0.80245817 -0.59228945 77 77 62 255
-382.66992 23.54541 -34.33206 -0.07248532 -0.80245817 -0.59228945 77 77 62 255
-402.44727 11.267822 -15.277598 -0.07248531 -0.80245817 -0.59228945 77 77 62 255
-402.44727 -13.304077 13.147983 0.006861386 -0.7565089 -0.65394753 77 77 62 255
-402.44727 11.267822 -15.277598 0.006861387 -0.7565088 -0.65394753 77 77 62 255
-442.00195 5.1297607 -8.591827 0.006861386 -0.7565089 -0.65394753 77 77 62 255
-349.70117 -148.406 -149.34235 -0.18264288 0.71145105 -0.67858607 77 77 62 255
-296.9746 -136.12842 -150.66127 -0.18264288 0.71145105 -0.67858607 77 77 62 255
-296.9746 -111.555176 -124.89803 -0.18264285 0.711451 -0.678586 77 77 62 255
-270.59375 -50.152832 -44.322647 -0.32611457 0.8003292 -0.50311273 77 77 62 255
-349.70117 -148.406 -149.34235 -0.3261146 0.8003292 -0.50311273 77 77 62 255
-296.9746 -111.555176 -124.89803 -0.32611454 0.8003292 -0.50311273 77 77 62 255
-481.5586 23.552246 -81.56118 0.33474058 -0.8295456 -0.44699302 77 77 62 255
-481.5586 -13.304077 -13.162031 0.33474058 -0.8295456 -0.44699302 77 77 62 255
-455.19727 -13.304077 6.5782423 0.33474058 -0.8295457 -0.44699302 77 77 62 255
-500 -13.304077 -26.497465 0.36253718 -0.7856287 -0.50135255 77 77 62 255
-481.5586 -13.304077 -13.162031 0.36253718 -0.7856287 -0.50135255 77 77 62 255
-494.75195 -1.0084229 -41.971043 0.36253718 -0.7856287 -0.50135255 77 77 62 255
-500 -13.304077 -26.497465 0.36253718 -0.7856287 -0.50135255 77 77 62 255
-494.75195 -1.0084229 -41.971043 0.36253718 -0.7856287 -0.50135255 77 77 62 255
-500 -5.9001465 -38.100258 0.36253718 -0.7856287 -0.50135255 77 77 62 255
-500 -86.5 -0.3589109 -0.14467454 0.46434873 -0.873756 77 77 62 255
-468.38867 -74.70703 0.67399687 -0.14467454 0.46434873 -0.873756 77 77 62 255
-481.5586 -50.15332 15.903498 -0.14467454 0.46434873 -0.873756 77 77 62 255
-500 -86.5 -0.3589109 -0.14467454 0.46434873 -0.873756 77 77 62 255
-481.5586 -50.15332 15.903498 -0.14467454 0.46434873 -0.873756 77 77 62 255
-500 -84.493164 0.70754033 -0.14467454 0.46434873 -0.873756 77 77 62 255
-500 -86.5 -0.3589109 -0.28795183 0.81581885 -0.5015211 77 77 62 255
-500 -104.156006 -29.080023 -0.28795183 0.81581885 -0.5015211 77 77 62 255
-468.38867 -74.70703 0.67399687 -0.28795183 0.81581885 -0.5015211 77 77 62 255
-349.70312 23.54541 -46.45923 -0.20588814 -0.78641015 -0.5823823 77 77 62 255
-336.53125 -25.580933 15.220737 -0.20588814 -0.78641015 -0.5823823 77 77 62 255
-323.33594 35.834717 -72.37562 -0.20588814 -0.7864102 -0.58238226 77 77 62 255
-500 31.188354 -105.02989 0.24429618 -0.84914947 -0.46825698 77 77 62 255
-481.5586 23.552246 -81.56118 0.24429618 -0.84914947 -0.46825698 77 77 62 255
-444.64258 53.033447 -115.76417 0.24429618 -0.84914947 -0.46825698 77 77 62 255
-500 31.188354 -105.02989 0.24429618 -0.84914947 -0.46825698 77 77 62 255
-444.64258 53.033447 -115.76417 0.24429618 -0.84914947 -0.46825698 77 77 62 255
-500 43.551758 -127.450134 0.24429618 -0.84914947 -0.46825698 77 77 62 255
-233.51562 -67.63989 -99.82205 -0.2928144 0.54934883 -0.78260815 77 77 62 255
-204.67383 -123.85083 -150.0707 -0.2928144 0.54934883 -0.78260815 77 77 62 255
-178.29102 -111.555176 -151.31088 -0.29281437 0.54934883 -0.78260815 77 77 62 255
-382.66992 23.54541 -34.33206 0.07530491 -0.94007677 -0.33254302 77 77 62 255
-362.16016 73.7113 -171.50327 0.07530492 -0.94007677 -0.33254296 77 77 62 255
-402.44727 48.11853 -108.277275 0.07530491 -0.94007677 -0.33254296 77 77 62 255
-494.75195 84.968506 -156.5394 0.2621228 -0.5766753 -0.7737812 77 77 62 255
-500 76.005615 -151.63736 0.2621228 -0.5766753 -0.7737812 77 77 62 255
-500 43.551758 -127.450134 0.2621228 -0.5766753 -0.7737812 77 77 62 255
-494.75195 84.968506 -156.5394 0.2621228 -0.5766753 -0.7737812 77 77 62 255
-500 43.551758 -127.450134 0.2621228 -0.5766753 -0.7737812 77 77 62 255
-444.64258 53.033447 -115.76417 0.2621228 -0.5766753 -0.7737812 77 77 62 255
-500 -133.7456 -76.11014 -0.12185967 0.85499114 -0.50412345 77 77 62 255
-500 -146.7771 -98.21118 -0.12185967 0.85499114 -0.50412345 77 77 62 255
-494.75195 -148.406 -102.24246 -0.12185967 0.85499114 -0.50412345 77 77 62 255
-271.4375 72.69104 -111.266945 0.1088169 -0.9775466 -0.18044828 77 77 62 255
-270.59375 78.82971 -144.01295 0.1088169 -0.9775466 -0.1804483 77 77 62 255
-362.16016 73.7113 -171.50327 0.1088169 -0.9775466 -0.18044828 77 77 62 255
-204.67383 -13.304077 -93.20506 -0.50848913 -0.5624849 -0.65195817 77 77 62 255
-191.47852 17.407227 -129.99289 -0.5084892 -0.5624849 -0.65195817 77 77 62 255
-244.22852 35.841553 -104.75548 -0.5084892 -0.5624849 -0.6519581 77 77 62 255
-191.47852 17.407227 -129.99289 -0.82981765 -0.24440049 -0.5016682 77 77 62 255
-204.67383 -13.304077 -93.20506 -0.82981765 -0.24440047 -0.5016683 77 77 62 255
-165.11719 -13.304077 -158.63364 -0.82981765 -0.24440049 -0.50166833 77 77 62 255
-191.47852 17.407227 -129.99289 -0.502516 -0.63563704 -0.58604026 77 77 62 255
-224.43945 48.11914 -135.03934 -0.502516 -0.6356371 -0.5860403 77 77 62 255
-244.22852 35.841553 -104.75548 -0.502516 -0.6356371 -0.58604026 77 77 62 255
-244.22852 35.841553 -104.75548 -0.38509485 -0.73990095 -0.5515873 77 77 62 255
-224.43945 48.11914 -135.03934 -0.38509485 -0.739901 -0.5515873 77 77 62 255
-270.59375 78.82971 -144.01295 -0.38509485 -0.73990095 -0.5515872 77 77 62 255
-455.19727 -37.857788 16.230404 -0.14550114 0.33666736 -0.93031424 77 77 62 255
-481.5586 -50.15332 15.903498 -0.14550115 0.3366674 -0.93031424 77 77 62 255
-415.64062 -50.15332 5.594001 -0.14550115 0.3366674 -0.93031424 77 77 62 255
-481.5586 -13.304077 -13.162031 0.28612623 -0.59341013 -0.75232726 77 77 62 255
-481.5586 -50.15332 15.903498 0.28612623 -0.59341013 -0.7523272 77 77 62 255
-455.19727 -37.857788 16.230404 0.2861262 -0.59341013 -0.7523272 77 77 62 255
-402.44727 11.267822 -15.277598 0.17970937 -0.9012824 -0.39420116 77 77 62 255
-382.66992 23.54541 -34.33206 0.17970939 -0.9012824 -0.39420116 77 77 62 255
-415.64062 35.840942 -77.474625 0.17970937 -0.9012824 -0.39420116 77 77 62 255
-362.16016 73.7113 -171.50327 0.36832714 -0.81118673 -0.45421493 77 77 62 255
-323.33594 35.834717 -72.37562 0.36832714 -0.81118685 -0.45421493 77 77 62 255
-310.14453 60.394775 -105.54165 0.36832717 -0.81118685 -0.45421487 77 77 62 255
-224.43945 48.11914 -135.03934 -0.3332518 -0.62147915 -0.7090182 77 77 62 255
-217.8457 72.69104 -159.67722 -0.33325183 -0.6214792 -0.70901823 77 77 62 255
-237.63281 78.82971 -155.75754 -0.33325183 -0.62147915 -0.7090182 77 77 62 255
-217.8457 72.69104 -159.67722 -0.54633033 -0.5153758 -0.66023546 77 77 62 255
-224.43945 48.11914 -135.03934 -0.54633033 -0.5153758 -0.66023546 77 77 62 255
-191.47852 48.11914 -162.31508 -0.54633033 -0.5153758 -0.66023546 77 77 62 255
-415.64062 35.840942 -77.474625 -0.03922439 -0.92232287 -0.38442418 77 77 62 255
-402.44727 48.11853 -108.277275 -0.03922439 -0.92232287 -0.38442412 77 77 62 255
-444.64258 53.033447 -115.76417 -0.039224386 -0.92232287 -0.38442412 77 77 62 255
-224.43945 48.11914 -135.03934 -0.264707 -0.6148735 -0.7428733 77 77 62 255
-237.63281 78.82971 -155.75754 -0.264707 -0.6148735 -0.7428734 77 77 62 255
-270.59375 78.82971 -144.01295 -0.26470697 -0.6148735 -0.7428733 77 77 62 255
-500 7.1400146 -59.870663 0.2266204 -0.859689 -0.45779693 77 77 62 255
-494.75195 -1.0084229 -41.971043 0.2266204 -0.859689 -0.45779693 77 77 62 255
-481.5586 23.552246 -81.56118 0.2266204 -0.859689 -0.45779693 77 77 62 255
-500 7.1400146 -59.870663 0.2266204 -0.859689 -0.45779693 77 77 62 255
-481.5586 23.552246 -81.56118 0.2266204 -0.859689 -0.45779693 77 77 62 255
-500 31.188354 -105.02989 0.2266204 -0.859689 -0.45779693 77 77 62 255
-481.5586 -13.304077 -13.162031 0.21052608 -0.86060196 -0.4637274 77 77 62 255
-481.5586 23.552246 -81.56118 0.2105261 -0.86060196 -0.4637274 77 77 62 255
-494.75195 -1.0084229 -41.971043 0.2105261 -0.86060196 -0.4637274 77 77 62 255
-455.19727 -13.304077 6.5782423 0.5010409 -0.7348418 -0.45712745 77 77 62 255
-442.00195 5.1297607 -8.591827 0.5010409 -0.7348418 -0.45712745 77 77 62 255
-481.5586 23.552246 -81.56118 0.5010409 -0.7348418 -0.45712745 77 77 62 255
-270.59375 -50.152832 -44.322647 0.15814063 -0.21724655 -0.96322143 77 77 62 255
-283.7832 11.267822 -60.341072 0.15814061 -0.21724653 -0.96322143 77 77 62 255
-323.33594 35.834717 -72.37562 0.15814063 -0.21724655 -0.96322143 77 77 62 255
-283.7832 11.267822 -60.341072 -0.6126331 -0.3200349 -0.72267455 77 77 62 255
-270.59375 -50.152832 -44.322647 -0.6126331 -0.3200349 -0.72267455 77 77 62 255
-244.22852 35.841553 -104.75548 -0.61263305 -0.32003486 -0.7226745 77 77 62 255
-402.44727 -148.406 -149.46043 -0.30401236 0.795574 -0.52405965 77 77 62 255
-468.38867 -74.70703 0.67399687 -0.30401236 0.795574 -0.5240596 77 77 62 255
-468.38477 -160.7002 -129.87347 -0.30401236 0.795574 -0.5240596 77 77 62 255
-468.38477 -160.7002 -129.87347 -0.33093864 0.5107081 -0.7935092 77 77 62 255
-461.79102 -191.40186 -152.38371 -0.33093864 0.5107081 -0.7935092 77 77 62 255
-402.44727 -148.406 -149.46043 -0.33093864 0.5107081 -0.7935092 77 77 62 255
-500 76.005615 -151.63736 0.32251054 -0.5925476 -0.73815596 77 77 62 255
-494.75195 84.968506 -156.5394 0.32251054 -0.5925476 -0.73815596 77 77 62 255
-500 82.115845 -156.5424 0.32251054 -0.5925476 -0.73815596 77 77 62 255
-376.08594 -13.304077 14.787102 0.14930978 0.4499632 -0.880477 77 77 62 255
-376.08594 -62.430176 -10.31861 0.14930977 0.44996315 -0.880477 77 77 62 255
-336.53125 -25.580933 15.220737 0.14930977 0.4499632 -0.880477 77 77 62 255
-376.08594 -62.430176 -10.31861 -0.28440562 0.7333027 -0.6175602 77 77 62 255
-270.59375 -50.152832 -44.322647 -0.28440562 0.7333027 -0.6175602 77 77 62 255
-336.53125 -25.580933 15.220737 -0.28440562 0.7333027 -0.6175602 77 77 62 255
-500 -186.23291 -152.76683 -0.18738897 0.7955622 -0.57616514 77 77 62 255
-494.75195 -185.2539 -153.12193 -0.18738897 0.7955622 -0.57616514 77 77 62 255
-494.75195 -148.406 -102.24246 -0.18738897 0.7955622 -0.57616514 77 77 62 255
-500 -186.23291 -152.76683 -0.18738897 0.7955622 -0.57616514 77 77 62 255
-494.75195 -148.406 -102.24246 -0.18738897 0.7955622 -0.57616514 77 77 62 255
-500 -155.2522 -109.988884 -0.18738897 0.7955622 -0.57616514 77 77 62 255
-494.75195 -148.406 -102.24246 0.1620225 0.7992078 -0.5788053 77 77 62 255
-494.75195 -185.2539 -153.12193 0.16202252 0.7992078 -0.5788053 77 77 62 255
-461.79102 -191.40186 -152.38371 0.16202252 0.7992078 -0.57880545 77 77 62 255
-233.51562 -67.63989 -99.82205 0.014030467 0.6703859 -0.74188 77 77 62 255
-244.22852 -123.85083 -150.81876 0.014030465 0.6703859 -0.74188 77 77 62 255
-204.67383 -123.85083 -150.0707 0.014030465 0.6703859 -0.74188 77 77 62 255
-415.64062 -50.15332 5.594001 -0.16947572 0.53050244 -0.83056915 77 77 62 255
-468.38867 -74.70703 0.67399687 -0.16947573 0.53050244 -0.83056915 77 77 62 255
-376.08594 -62.430176 -10.31861 -0.16947572 0.53050244 -0.8305692 77 77 62 255
-468.38867 -74.70703 0.67399687 -0.13653554 0.46823886 -0.8729894 77 77 62 255
-415.64062 -50.15332 5.594001 -0.13653553 0.46823883 -0.8729894 77 77 62 255
-481.5586 -50.15332 15.903498 -0.13653554 0.46823883 -0.8729894 77 77 62 255
-165.11719 -50.1521 -155.18863 -0.8931825 -0.04186023 -0.44774172 77 77 62 255
-165.11719 -13.304077 -158.63364 -0.8931825 -0.04186023 -0.44774178 77 77 62 255
-191.47852 -50.152832 -102.60405 -0.8931825 -0.041860238 -0.4477418 77 77 62 255
-362.16016 73.7113 -171.50327 -0.13160983 -0.92448527 -0.357779 77 77 62 255
-382.66992 23.54541 -34.33206 -0.13160983 -0.92448527 -0.357779 77 77 62 255
-349.70312 23.54541 -46.45923 -0.13160981 -0.92448527 -0.357779 77 77 62 255
-155.5586 27.49353 -163.72263 -0.6935332 0.073114164 -0.71670496 77 77 62 255
-191.47852 17.407227 -129.99289 -0.6935332 0.073114164 -0.71670496 77 77 62 255
-165.11719 -13.304077 -158.63364 -0.6935332 0.073114164 -0.71670496 77 77 62 255
-191.47852 -50.152832 -102.60405 -0.8933661 -0.036633972 -0.44783363 77 77 62 255
-165.11719 -87.001465 -152.17426 -0.8933661 -0.036633972 -0.4478337 77 77 62 255
-165.11719 -50.1521 -155.18863 -0.8933661 -0.03663398 -0.44783375 77 77 62 255
-191.47852 -50.152832 -102.60405 -0.32272756 0.66935194 -0.6691898 77 77 62 255
-233.51562 -67.63989 -99.82205 -0.32272753 0.66935194 -0.66918975 77 77 62 255
-165.11719 -87.001465 -152.17426 -0.32272756 0.66935194 -0.6691898 77 77 62 255
-349.70312 23.54541 -46.45923 0.060410984 -0.9243072 -0.3768377 77 77 62 255
-323.33594 35.834717 -72.37562 0.06041099 -0.9243072 -0.3768377 77 77 62 255
-362.16016 73.7113 -171.50327 0.06041099 -0.9243072 -0.3768377 77 77 62 255
-296.9746 35.841553 -76.54466 -0.0973806 -0.78091073 -0.61700517 77 77 62 255
-310.14453 60.394775 -105.54165 -0.09738059 -0.78091073 -0.6170052 77 77 62 255
-323.33594 35.834717 -72.37562 -0.0973806 -0.7809108 -0.6170052 77 77 62 255
-310.14453 60.394775 -105.54165 0.13098961 -0.7264536 -0.6746161 77 77 62 255
-296.9746 35.841553 -76.54466 0.13098961 -0.72645366 -0.67461604 77 77 62 255
-271.4375 72.69104 -111.266945 0.13098961 -0.72645366 -0.6746161 77 77 62 255
-444.64258 53.033447 -115.76417 0.52680385 -0.8362447 -0.15222563 77 77 62 255
-481.5586 23.552246 -81.56118 0.5268038 -0.83624464 -0.15222561 77 77 62 255
-461.79297 35.841553 -80.67201 0.52680385 -0.83624464 -0.15222563 77 77 62 255
-376.08594 -13.304077 14.787102 0.04062732 -0.75590205 -0.6534229 77 77 62 255
-402.44727 11.267822 -15.277598 0.040627323 -0.75590205 -0.65342295 77 77 62 255
-402.44727 -13.304077 13.147983 0.040627323 -0.75590205 -0.653423 77 77 62 255
-376.08594 -62.430176 -10.31861 0.055280585 0.45436835 -0.8890969 77 77 62 255
-376.08594 -13.304077 14.787102 0.055280585 0.45436835 -0.889097 77 77 62 255
-402.44727 -13.304077 13.147983 0.055280585 0.45436835 -0.889097 77 77 62 255
-442.00195 5.1297607 -8.591827 0.07606448 -0.9096066 -0.40844837 77 77 62 255
-444.64258 53.033447 -115.76417 0.076064475 -0.9096066 -0.40844837 77 77 62 255
-461.79297 35.841553 -80.67201 0.076064475 -0.9096066 -0.40844834 77 77 62 255
-296.9746 -136.12842 -150.66127 -0.16806588 0.7133299 -0.68037814 77 77 62 255
-244.22852 -123.85083 -150.81876 -0.16806586 0.71332985 -0.68037814 77 77 62 255
-296.9746 -111.555176 -124.89803 -0.16806586 0.71332985 -0.68037814 77 77 62 255
-500 -24.397827 -17.74704 -0.012610656 -0.79735875 -0.6033738 77 77 62 255
-500 -36.410156 -1.8727806 -0.012610656 -0.79735875 -0.6033738 77 77 62 255
-481.5586 -50.15332 15.903498 -0.012610656 -0.79735875 -0.6033738 77 77 62 255
-270.59375 78.82971 -144.01295 0.27650002 -0.482377 -0.83118 77 77 62 255
-296.9746 97.24475 -163.47655 0.27650002 -0.48237705 -0.83118 77 77 62 255
-362.16016 73.7113 -171.50327 0.27650002 -0.482377 -0.83118 77 77 62 255
-402.44727 -13.304077 13.147983 0.091630645 -0.67105454 -0.735724 77 77 62 255
-442.00195 5.1297607 -8.591827 0.09163063 -0.67105454 -0.7357239 77 77 62 255
-455.19727 -13.304077 6.5782423 0.09163063 -0.67105454 -0.7357239 77 77 62 255
3 2 1 0
3 5 4 3
3 8 7 6
3 11 10 9
3 14 13 12
3 17 16 15
3 20 19 18
3 23 22 21
3 26 25 24
3 29 28 27
3 32 31 30
3 35 34 33
3 38 37 36
3 41 40 39
3 44 43 42
3 47 46 45
3 50 49 48
3 53 52 51
3 56 55 54
3 59 58 57
3 62 61 60
3 65 64 63
3 68 67 66
3 71 70 69
3 74 73 72
3 77 76 75
3 80 79 78
3 83 82 81
3 86 85 84
3 89 88 87
3 92 91 90
3 95 94 93
3 98 97 96
3 101 100 99
3 104 103 102
3 107 106 105
3 110 109 108
3 113 112 111
3 116 115 114
3 119 118 117
3 122 121 120
3 125 124 123
3 128 127 126
3 131 130 129
3 134 133 132
3 137 136 135
3 140 139 138
3 143 142 141
3 146 145 144
3 149 148 147
3 152 151 150
3 155 154 153
3 158 157 156
3 161 160 159
3 164 163 162
3 167 166 165
3 170 169 168
3 173 172 171
3 176 175 174
3 179 178 177
3 182 181 180
3 185 184 183
3 188 187 186
3 191 190 189
3 194 193 192
3 197 196 195
3 200 199 198
3 203 202 201
3 206 205 204
3 209 208 207
3 212 211 210
3 215 214 213
3 218 217 216
3 221 220 219
3 224 223 222
3 227 226 225
3 230 229 228
3 233 232 231
3 236 235 234
3 239 238 237
3 242 241 240
3 245 244 243
3 248 247 246
3 251 250 249
3 254 253 252
3 257 256 255
3 260 259 258
3 263 262 261
3 266 265 264
3 269 268 267
3 272 271 270
3 275 274 273
3 278 277 276
3 281 280 279
3 284 283 282
3 287 286 285
3 290 289 288
3 293 292 291
3 296 295 294
3 299 298 297
3 302 301 300
3 305 304 303
3 308 307 306
3 311 310 309
3 314 313 312
3 317 316 315
3 320 319 318
3 323 322 321
3 326 325 324

