ply
format ascii 1.0
comment Created by Blender 3.5.0 - www.blender.org
element vertex 183
property float x
property float y
property float z
property float nx
property float ny
property float nz
element face 310
property list uchar uint vertex_indices
end_header
176.068146 -292.766479 41.119583 0.311560 0.685437 -0.658109
144.978271 -268.516418 41.119583 0.655645 0.405811 -0.636747
189.403748 -254.167175 41.119583 -0.352487 0.180939 -0.918158
145.945129 -188.558716 41.119583 0.695602 -0.039123 -0.717361
229.075348 -201.091003 41.119583 -0.044515 0.012979 -0.998924
140.214752 -245.029343 41.119583 0.737058 0.036504 -0.674843
276.942810 -104.928726 41.119583 -0.393780 0.142217 -0.908136
274.434814 -175.523987 41.119583 0.000000 0.000000 -1.000000
146.960602 -98.213127 41.119583 0.691719 -0.378278 -0.615168
257.811249 63.122742 24.242260 -0.475579 -0.312817 -0.822174
313.416016 -45.593609 -0.462181 -0.857805 -0.286257 -0.426881
304.315125 -55.162178 24.242260 -0.518745 -0.202864 -0.830512
301.522308 -93.853432 26.439365 -0.491996 0.130761 -0.860721
317.323059 -88.248520 26.439365 -0.512067 -0.193972 -0.836757
272.850891 -58.478210 41.119583 -0.349314 -0.628220 -0.695212
282.217957 -74.810043 41.119583 0.000000 0.000000 -1.000000
161.024551 -14.292542 24.242260 0.000000 0.000000 -1.000000
121.160927 -92.503792 24.242260 -0.398311 0.560208 -0.726302
90.103165 -60.100632 24.242260 0.000000 0.000000 -1.000000
203.650360 80.302277 24.242260 -0.674713 -0.190955 -0.712951
169.884079 102.390182 24.242260 -0.174311 -0.322777 -0.930285
195.477829 -41.630203 11.422100 -0.003940 0.004855 -0.999980
230.394394 -43.334709 11.296547 0.688600 -0.380356 -0.617381
146.960587 -98.212746 11.296547 0.662297 -0.363189 -0.655330
117.024338 36.529419 24.242260 0.000000 0.000000 -1.000000
125.883865 153.212128 24.242260 0.000000 0.000000 -1.000000
53.947937 -38.612152 24.242260 0.000000 0.000000 -1.000000
80.869110 58.017899 24.242260 0.000000 0.000000 -1.000000
169.277664 -182.173584 59.494072 -0.541200 0.610550 -0.578214
175.067047 -97.550293 19.906334 -0.611459 -0.542006 0.576496
169.277664 -182.173584 19.906334 -0.541200 0.610549 0.578214
175.067047 -97.550293 59.494072 -0.611459 -0.542006 -0.576496
135.532776 -95.493759 19.906334 0.541200 -0.610550 0.578214
135.532776 -95.493759 59.494072 0.541200 -0.610550 -0.578214
129.743378 -180.117065 19.906334 0.611459 0.542006 0.576496
129.743378 -180.117065 59.494072 0.611459 0.542006 -0.576496
284.739014 -143.915939 52.826210 -0.740457 0.342625 -0.578214
265.777130 -90.960602 26.574196 -0.343135 -0.741560 0.576496
284.739014 -143.915939 26.574196 -0.740457 0.342625 0.578214
265.777130 -90.960602 52.826210 -0.343135 -0.741560 -0.576496
241.209671 -100.213020 26.574196 0.740457 -0.342625 0.578214
241.209671 -100.213020 52.826210 0.740457 -0.342625 -0.578214
260.171539 -153.168365 26.574196 0.343135 0.741560 0.576496
260.171539 -153.168365 52.826210 0.343135 0.741560 -0.576496
249.567413 -188.153076 52.826210 -0.066697 0.813154 -0.578214
286.305267 -145.560226 26.574196 -0.814365 -0.066796 0.576496
249.567413 -188.153076 26.574196 -0.066697 0.813154 0.578214
286.305267 -145.560226 52.826210 -0.814365 -0.066796 -0.576496
266.148895 -128.740936 26.574196 0.066697 -0.813154 0.578214
266.148895 -128.740936 52.826210 0.066697 -0.813154 -0.578214
229.411041 -171.333771 26.574196 0.814365 0.066796 0.576496
229.411041 -171.333771 52.826210 0.814365 0.066796 -0.576496
324.573486 -86.465775 48.687099 -0.758259 0.303951 -0.576764
319.653198 -75.170776 35.234081 -0.371697 -0.928354 0.000001
324.573486 -86.465775 35.234081 -0.928356 0.371692 0.000002
309.072449 -92.959763 48.687099 -0.272259 0.652686 -0.707020
309.072449 -92.959763 40.724594 -0.384341 0.923191 0.000006
302.636841 -95.638977 38.224915 -0.626271 0.717160 0.305723
291.967255 -86.737526 48.687099 0.757979 -0.305153 -0.576497
296.887543 -98.032539 35.234081 0.373459 0.927647 0.000000
291.967255 -86.737526 35.234081 0.927648 -0.373455 0.000000
315.508118 -90.280441 2.149971 0.578068 0.617510 0.533404
324.573486 -86.465775 2.149971 -0.758432 0.303652 0.576694
304.152161 -81.664757 48.687099 0.272191 -0.652523 -0.707196
296.887543 -98.032539 48.687099 0.304701 0.756853 -0.578214
319.653198 -75.170776 48.687099 -0.303641 -0.757483 -0.577946
297.716461 -84.343948 24.607876 -0.177990 -0.335923 0.924919
291.967255 -86.737526 24.607876 0.757981 -0.305150 0.576497
296.887543 -98.032539 24.607876 0.304700 0.756853 0.578214
297.716461 -84.343941 38.224915 0.070983 -0.952133 0.297328
315.508118 -90.280441 38.224915 -0.073171 0.952010 0.297192
310.587738 -78.985413 2.149971 0.846917 0.000739 0.531725
306.879700 -87.926109 24.607876 0.657628 -0.012699 0.753236
304.152161 -81.664757 40.724594 0.384340 -0.923192 -0.000015
310.587738 -78.985413 38.224915 0.627904 -0.715676 0.305851
319.652893 -75.170570 2.149971 -0.688764 -0.691151 0.218892
302.636841 -95.638977 24.607876 -0.356976 0.099201 0.928831
306.344879 -86.698410 24.607876 0.442433 0.486793 0.753184
202.427124 -283.006470 47.417912 0.266994 0.770962 -0.578214
264.710602 -253.391617 15.230213 -0.772110 0.267392 0.576496
202.427124 -283.006470 15.230213 0.266994 0.770962 0.578214
264.710602 -253.391617 47.417912 -0.772110 0.267392 -0.576496
250.415756 -224.552292 15.230213 -0.266994 -0.770962 0.578214
250.415756 -224.552292 47.417912 -0.266994 -0.770962 -0.578214
188.132294 -254.167160 15.230213 0.772110 -0.267392 0.576496
188.132294 -254.167160 47.417912 0.772110 -0.267392 -0.576496
208.603622 -227.629089 41.119583 -0.013545 0.010017 -0.999858
211.440063 -299.599426 41.119583 -0.661857 0.508392 -0.550893
282.207581 -258.684540 32.011311 -0.516010 0.270287 -0.812821
296.455658 -239.599350 11.323982 -0.895271 0.305418 -0.324361
290.734680 -267.406494 7.742168 -0.794370 0.421365 -0.437525
261.128906 -234.996201 32.011318 -0.302888 0.501885 -0.810167
260.686218 -234.528152 39.554501 -0.453229 0.570977 -0.684521
293.369263 -143.334351 28.305786 -0.035777 -0.092246 -0.995093
282.538727 -184.194214 33.529381 -0.055324 -0.074424 -0.995691
281.301178 -173.215393 32.530182 -0.673207 0.199023 -0.712167
274.583649 -216.908173 35.164162 -0.117257 0.109376 -0.987060
289.874573 -239.027969 32.011311 -0.567477 0.258028 -0.781915
298.463593 -136.048737 27.766891 0.015129 -0.080807 -0.996615
303.215729 -115.437881 26.439365 0.026667 -0.038326 -0.998909
327.287903 -128.005539 27.766888 -0.646634 -0.014761 -0.762658
273.626526 -216.149551 35.314201 -0.150846 -0.054229 -0.987069
237.457443 -42.407211 24.324257 -0.068194 -0.641683 -0.763932
230.394974 -43.335018 24.522213 0.612186 -0.745001 -0.264956
272.836670 -58.516701 24.242260 -0.335709 -0.610043 -0.717737
245.011871 -44.778160 41.119583 -0.269657 -0.672085 -0.689628
244.269211 -44.510738 24.242260 -0.256035 -0.639081 -0.725273
194.257080 -40.293098 11.434624 -0.460088 0.501388 -0.732755
194.266479 -40.306305 24.242260 -0.496054 0.539890 -0.680036
120.730804 -92.549263 11.434624 -0.513893 0.723066 -0.461617
202.641891 -28.922783 11.434624 -0.002232 0.001071 -0.999997
232.857529 75.688141 11.434624 0.638748 -0.480048 -0.601295
290.363647 -132.410202 41.119583 -0.687035 -0.246949 -0.683374
291.109955 -143.094864 41.119583 -0.714694 0.149040 -0.683374
279.217957 -172.920349 41.119583 0.000000 0.000000 -1.000000
273.861328 -181.429596 34.165630 -0.447252 0.542943 -0.710759
278.377502 -259.158875 32.011311 -0.000000 0.000000 -1.000000
176.068146 -292.766479 32.011311 0.411119 0.883875 -0.223039
274.847717 -216.333740 35.220695 -0.042309 0.037844 -0.998388
276.291809 -262.393677 32.011311 -0.000000 0.000001 -1.000000
276.750214 -265.241730 32.011307 -0.358983 0.436185 -0.825150
217.153183 -297.989899 32.011311 -0.204819 0.456484 -0.865836
298.973267 -211.633942 34.726032 -0.560027 0.178443 -0.809029
274.356232 -215.649750 35.193306 -0.079735 -0.057124 -0.995178
278.591156 -184.995728 33.612202 -0.073735 -0.041395 -0.996418
291.109955 -143.094864 28.501617 -0.710076 0.058043 -0.701729
276.942810 -104.928726 26.439365 -0.936354 0.351059 0.000000
290.255035 -73.465607 24.999378 -0.540309 -0.427820 -0.724594
301.522308 -93.853432 41.119583 -0.777496 0.258767 -0.573184
231.136810 -43.570164 41.119583 0.252224 -0.697189 -0.671051
200.880707 -28.571564 24.242260 -0.726447 0.127510 -0.675290
200.880707 -28.571564 11.434624 -0.660307 0.116031 -0.741978
203.650360 80.302277 11.434624 -0.828524 0.064816 -0.556189
305.554382 -212.205322 14.038704 -0.905122 0.304837 -0.296359
188.131592 -254.166824 32.011311 -0.248676 0.946902 -0.203807
323.904114 -88.820297 5.752037 -0.926562 -0.241857 -0.288075
333.868988 -128.576920 7.079559 -0.952729 0.014383 -0.303481
210.796524 93.538132 -0.047134 -0.380894 -0.662233 -0.645266
239.372040 86.318451 -0.047134 -0.140651 -0.815119 -0.561960
232.857529 75.688141 24.242260 0.549381 -0.517420 -0.656093
266.912140 72.691299 -0.462181 -0.692482 -0.575140 -0.435526
248.617661 71.706787 24.242260 -0.271028 -0.522977 -0.808108
247.631332 83.363525 -0.047134 -0.355607 -0.839692 -0.410440
189.403748 -254.167175 32.011311 -0.753559 -0.365504 -0.546402
144.978271 -268.516418 32.011311 0.846728 0.498476 -0.185938
145.945129 -188.558716 32.011311 0.992714 -0.066380 -0.100562
140.214752 -245.029343 32.011311 0.991333 0.037731 -0.125842
146.960602 -98.213127 32.011314 0.999937 -0.011239 -0.000000
141.399139 -188.531311 11.505363 0.973165 -0.079742 -0.215849
135.131561 -250.295868 11.505363 0.964096 0.068470 -0.256573
285.771515 -274.259186 7.393021 -0.584011 0.661500 -0.470477
219.547134 -312.312653 11.259617 -0.282296 0.781366 -0.556575
140.341644 -275.984772 11.505363 0.774533 0.517563 -0.363629
211.440216 -299.599670 32.011311 -0.212734 0.695392 -0.686422
210.611862 -313.321869 11.505363 0.063081 0.828250 -0.556797
174.346069 -302.508179 11.505363 0.373217 0.812500 -0.447832
278.343323 -178.012711 33.329048 -0.565867 0.372730 -0.735437
278.343323 -178.012711 41.119583 -0.551385 0.499406 -0.668257
281.301178 -173.215393 41.119583 -0.664186 0.307561 -0.681369
273.861328 -181.429596 41.119583 -0.371610 0.630589 -0.681369
291.632385 -137.689972 27.920307 -0.664799 -0.108967 -0.739033
291.632385 -137.689972 41.119583 -0.739006 -0.051619 -0.671718
290.363647 -132.410202 27.555962 -0.856183 -0.337321 -0.391363
238.205780 -42.655991 41.119583 -0.069038 -0.742665 -0.666095
241.765320 -47.618340 41.119583 0.000000 0.000000 -1.000000
198.710266 -35.079613 24.242260 -0.649371 0.366248 -0.666468
193.808441 -32.391983 24.242260 0.000000 0.000000 -1.000000
206.959579 -39.327888 11.389725 -0.003542 0.003033 -0.999989
198.707520 -35.075737 11.434624 -0.574752 0.325425 -0.750839
282.699432 -64.646988 24.464016 -0.423829 -0.530680 -0.733994
295.781708 -58.400547 24.242260 0.009107 -0.030281 -0.999500
282.703613 -64.635712 41.119583 -0.481754 -0.559662 -0.674308
290.255035 -73.465607 41.119583 -0.598707 -0.415064 -0.685034
202.274551 29.466278 24.212387 0.577350 -0.577350 -0.577350
202.274551 13.610878 22.212387 0.577350 0.577350 0.577350
202.274551 29.466278 22.212387 0.577350 -0.577350 0.577350
202.274551 13.610878 24.212387 0.577350 0.577350 -0.577350
233.903183 13.610878 22.212387 -0.577350 0.577350 0.577350
233.903183 13.610878 24.212387 -0.577350 0.577350 -0.577350
233.903183 29.466278 22.212387 -0.577350 -0.577350 0.577350
233.903183 29.466278 24.212387 -0.577350 -0.577350 -0.577350
295.333344 -132.371567 27.453636 0.004020 -0.075184 -0.997162
168.897751 114.046921 -0.047134 -0.406323 -0.830104 -0.381876
3 0 1 2
3 3 4 5
3 6 7 8
3 9 10 11
3 12 11 13
3 6 14 15
3 16 17 18
3 19 16 20
3 21 22 23
3 20 24 25
3 16 18 24
3 24 26 27
3 24 27 25
3 28 29 30
3 31 32 29
3 33 34 32
3 35 30 34
3 32 30 29
3 33 28 35
3 36 37 38
3 39 40 37
3 41 42 40
3 43 38 42
3 40 38 37
3 41 36 43
3 44 45 46
3 47 48 45
3 49 50 48
3 51 46 50
3 48 46 45
3 49 44 51
3 52 53 54
3 55 56 57
3 58 59 60
3 61 54 62
3 63 64 58
3 65 55 63
3 66 67 68
3 58 60 69
3 52 54 70
3 61 71 72
3 66 60 67
3 60 68 67
3 63 73 74
3 54 75 62
3 53 71 75
3 76 61 72
3 71 66 77
3 69 74 73
3 70 57 56
3 59 76 68
3 66 57 69
3 57 74 69
3 71 70 61
3 78 79 80
3 81 82 79
3 83 84 82
3 85 80 84
3 82 80 79
3 83 78 85
3 5 86 2
3 1 5 2
3 87 0 2
3 88 89 90
3 91 2 92
3 92 86 4
3 93 94 95
3 96 97 91
3 98 99 100
3 4 101 92
3 3 8 4
3 7 4 8
3 102 103 9
3 23 22 103
3 104 105 106
3 107 17 108
3 16 108 17
3 107 23 109
3 20 16 24
3 24 18 26
3 22 110 111
3 28 31 29
3 31 33 32
3 33 35 34
3 35 28 30
3 32 34 30
3 33 31 28
3 36 39 37
3 39 41 40
3 41 43 42
3 43 36 38
3 40 42 38
3 41 39 36
3 44 47 45
3 47 49 48
3 49 51 50
3 51 44 46
3 48 50 46
3 49 47 44
3 52 65 53
3 57 59 64
3 64 55 57
3 58 64 59
3 61 70 54
3 63 55 64
3 65 52 55
3 68 76 66
3 76 72 77
3 66 76 77
3 69 73 63
3 63 58 69
3 70 56 55
3 55 52 70
3 61 62 75
3 75 71 61
3 71 77 72
3 66 69 60
3 60 59 68
3 74 53 65
3 65 63 74
3 54 53 75
3 53 74 71
3 59 57 76
3 66 76 57
3 57 70 74
3 71 74 70
3 78 81 79
3 81 83 82
3 83 85 84
3 85 78 80
3 82 84 80
3 83 81 78
3 5 4 86
3 112 113 114
3 101 4 115
3 97 116 91
3 87 117 0
3 101 118 96
3 119 120 121
3 96 92 101
3 96 122 97
3 123 124 94
3 95 113 125
3 6 12 126
3 127 11 12
3 15 128 6
3 129 6 8
3 130 16 19
3 111 131 132
3 99 13 100
3 100 93 98
3 99 12 13
3 100 133 122
3 91 119 134
3 97 133 89
3 100 135 136
3 11 75 13
3 111 137 138
3 111 138 139
3 20 137 19
3 19 137 132
3 22 139 103
3 140 141 142
3 139 142 141
3 143 87 2
3 0 144 1
3 5 145 3
3 1 146 5
3 3 147 8
3 146 148 145
3 144 149 146
3 145 23 147
3 121 150 151
3 117 152 144
3 88 119 116
3 120 90 150
3 153 151 154
3 153 155 117
3 156 94 124
3 157 7 114
3 115 157 156
3 156 158 95
3 4 159 115
3 98 93 160
3 125 161 160
3 160 112 162
3 162 6 126
3 129 163 164
3 163 105 164
3 106 163 102
3 102 129 103
3 130 165 166
3 165 108 166
3 167 21 168
3 130 168 165
3 165 107 108
3 132 130 19
3 127 169 170
3 169 104 170
3 14 171 15
3 171 172 15
3 127 171 169
3 169 14 104
3 12 172 127
3 173 174 175
3 176 177 174
3 178 179 177
3 180 175 179
3 177 175 174
3 176 180 178
3 6 114 7
3 9 140 10
3 6 164 14
3 164 105 14
3 21 167 22
3 88 97 89
3 91 134 2
3 92 2 86
3 95 125 93
3 93 122 94
3 98 181 99
3 7 159 4
3 11 170 104
3 11 104 106
3 141 9 139
3 9 11 106
3 102 9 106
3 103 139 9
3 129 8 103
3 8 23 103
3 104 14 105
3 107 109 17
3 16 166 108
3 107 21 23
3 22 167 110
3 114 6 112
3 112 161 113
3 113 158 114
3 124 123 115
3 123 101 115
3 97 88 116
3 87 153 117
3 101 123 118
3 153 143 121
3 143 119 121
3 96 91 92
3 96 118 122
3 94 122 123
3 122 118 123
3 95 158 113
3 6 128 12
3 127 170 11
3 15 172 128
3 129 164 6
3 130 166 16
3 111 110 131
3 100 122 93
3 100 136 133
3 91 116 119
3 97 122 133
3 100 13 135
3 11 10 75
3 111 132 137
3 20 182 137
3 22 111 139
3 140 9 141
3 139 138 142
3 143 153 87
3 0 117 144
3 5 146 145
3 1 144 146
3 3 145 147
3 146 149 148
3 144 152 149
3 145 148 23
3 121 120 150
3 117 155 152
3 88 120 119
3 120 88 90
3 153 121 151
3 153 154 155
3 124 115 156
3 156 95 94
3 114 158 157
3 157 159 7
3 115 159 157
3 156 157 158
3 93 125 160
3 160 162 181
3 181 98 160
3 125 113 161
3 160 161 112
3 162 112 6
3 106 105 163
3 102 163 129
3 21 107 168
3 168 131 110
3 110 167 168
3 130 131 168
3 165 168 107
3 132 131 130
3 127 172 171
3 169 171 14
3 12 128 172
3 173 176 174
3 176 178 177
3 178 180 179
3 180 173 175
3 177 179 175
3 176 173 180
