ply
format ascii 1.0
comment Created by Blender 2.92.0 - www.blender.org
element vertex 84
property float x
property float y
property float z
property float nx
property float ny
property float nz
property uchar red
property uchar green
property uchar blue
property uchar alpha
element face 42
property list uchar uint vertex_indices
end_header
-2.595015 -1.000000 9.520000 -0.000000 0.968968 0.247186 45 41 45 255
2.595015 0.000000 5.600000 -0.000000 0.968968 0.247186 45 41 45 255
-2.595015 0.000000 5.600000 -0.000000 0.968968 0.247186 45 41 45 255
2.595015 -1.000000 -9.520000 0.000000 0.968968 -0.247186 45 41 45 255
-2.595015 0.000000 -5.600000 0.000000 0.968968 -0.247186 45 41 45 255
2.595015 0.000000 -5.600000 0.000000 0.968968 -0.247186 45 41 45 255
2.595015 0.000000 -5.600000 0.000000 0.967206 -0.253993 45 41 45 255
-2.595015 1.000000 -1.792000 0.000000 0.967206 -0.253993 45 41 45 255
2.595015 1.000000 -1.792000 0.000000 0.967206 -0.253993 45 41 45 255
-2.595015 0.000000 5.600000 -0.000000 0.967206 0.253993 45 41 45 255
2.595015 1.000000 1.792000 -0.000000 0.967206 0.253993 45 41 45 255
-2.595015 1.000000 1.792000 -0.000000 0.967206 0.253993 45 41 45 255
2.595015 1.000000 -1.100523 -0.000000 1.000000 0.000000 45 41 45 255
-2.595015 1.000000 -1.792000 -0.000000 1.000000 0.000000 45 41 45 255
-2.595015 1.000000 -1.100523 -0.000000 1.000000 0.000000 45 41 45 255
-2.595015 1.000000 1.100523 0.000000 1.000000 -0.000000 45 41 45 255
2.595015 1.000000 1.792000 0.000000 1.000000 -0.000000 45 41 45 255
2.595015 1.000000 1.100523 0.000000 1.000000 -0.000000 45 41 45 255
2.595015 0.000000 5.600000 0.000000 0.968968 0.247186 130 110 103 255
3.000000 -1.000000 9.520000 0.000000 0.968968 0.247186 130 110 103 255
3.000000 0.000000 5.600000 0.000000 0.968968 0.247186 130 110 103 255
2.595015 1.000000 -1.792000 0.000000 1.000000 -0.000000 130 110 103 255
2.976000 1.000000 1.792000 0.000000 1.000000 -0.000000 130 110 103 255
2.976000 1.000000 -1.792000 0.000000 1.000000 -0.000000 130 110 103 255
-2.976000 1.000000 1.792000 -0.999712 0.023993 0.000000 130 110 103 255
-3.000000 0.000000 -5.600000 -0.999712 0.023993 0.000000 130 110 103 255
-3.000000 0.000000 5.600000 -0.999712 0.023993 0.000000 130 110 103 255
2.595015 0.000000 -5.600000 0.000000 0.967206 -0.253993 130 110 103 255
2.976000 1.000000 -1.792000 0.000000 0.967206 -0.253993 130 110 103 255
3.000000 0.000000 -5.600000 0.000000 0.967206 -0.253993 130 110 103 255
2.976000 1.000000 -1.792000 0.999712 0.023993 -0.000000 130 110 103 255
3.000000 0.000000 5.600000 0.999712 0.023993 -0.000000 130 110 103 255
3.000000 0.000000 -5.600000 0.999712 0.023993 -0.000000 130 110 103 255
-2.595015 0.000000 5.600000 0.000000 0.967206 0.253993 130 110 103 255
-2.976000 1.000000 1.792000 0.000000 0.967206 0.253993 130 110 103 255
-3.000000 0.000000 5.600000 0.000000 0.967206 0.253993 130 110 103 255
-3.000000 0.000000 -5.600000 -1.000000 -0.000000 -0.000000 130 110 103 255
-3.000000 -1.000000 9.520000 -1.000000 -0.000000 -0.000000 130 110 103 255
-3.000000 0.000000 5.600000 -1.000000 -0.000000 -0.000000 130 110 103 255
3.000000 0.000000 5.600000 1.000000 0.000000 -0.000000 130 110 103 255
3.000000 -1.000000 -9.520000 1.000000 0.000000 -0.000000 130 110 103 255
3.000000 0.000000 -5.600000 1.000000 0.000000 -0.000000 130 110 103 255
-3.000000 0.000000 5.600000 0.000000 0.968968 0.247186 130 110 103 255
-2.595015 -1.000000 9.520000 0.000000 0.968968 0.247186 130 110 103 255
-2.595015 0.000000 5.600000 0.000000 0.968968 0.247186 130 110 103 255
3.000000 0.000000 -5.600000 0.000000 0.968968 -0.247186 130 110 103 255
2.595015 -1.000000 -9.520000 0.000000 0.968968 -0.247186 130 110 103 255
2.595015 0.000000 -5.600000 0.000000 0.968968 -0.247186 130 110 103 255
-2.976000 1.000000 -1.792000 0.000000 0.967206 -0.253993 130 110 103 255
-2.595015 0.000000 -5.600000 0.000000 0.967206 -0.253993 130 110 103 255
-3.000000 0.000000 -5.600000 0.000000 0.967206 -0.253993 130 110 103 255
-2.976000 1.000000 -1.792000 0.000000 1.000000 -0.000000 130 110 103 255
-2.595015 1.000000 1.792000 0.000000 1.000000 -0.000000 130 110 103 255
-2.595015 1.000000 -1.792000 0.000000 1.000000 -0.000000 130 110 103 255
2.976000 1.000000 1.792000 0.000000 0.967206 0.253993 130 110 103 255
2.595015 0.000000 5.600000 0.000000 0.967206 0.253993 130 110 103 255
3.000000 0.000000 5.600000 0.000000 0.967206 0.253993 130 110 103 255
-2.595015 0.000000 -5.600000 0.000000 0.968968 -0.247186 130 110 103 255
-3.000000 -1.000000 -9.520000 0.000000 0.968968 -0.247186 130 110 103 255
-3.000000 0.000000 -5.600000 0.000000 0.968968 -0.247186 130 110 103 255
-2.595015 1.000000 1.100523 0.000000 1.000000 -0.000000 130 110 103 255
2.595015 1.000000 -1.100523 0.000000 1.000000 -0.000000 130 110 103 255
-2.595015 1.000000 -1.100523 0.000000 1.000000 -0.000000 130 110 103 255
2.595015 -1.000000 9.520000 0.000000 0.968968 0.247186 45 41 45 255
-2.595015 -1.000000 -9.520000 0.000000 0.968968 -0.247186 45 41 45 255
-2.595015 0.000000 -5.600000 0.000000 0.967206 -0.253993 45 41 45 255
2.595015 0.000000 5.600000 0.000000 0.967206 0.253993 45 41 45 255
2.595015 1.000000 -1.792000 0.000000 1.000000 0.000000 45 41 45 255
-2.595015 1.000000 1.792000 -0.000000 1.000000 0.000000 45 41 45 255
2.595015 -1.000000 9.520000 0.000000 0.968968 0.247186 130 110 103 255
2.595015 1.000000 1.792000 0.000000 1.000000 0.000000 130 110 103 255
-2.976000 1.000000 -1.792000 -0.999712 0.023993 0.000000 130 110 103 255
2.595015 1.000000 -1.792000 0.000000 0.967206 -0.253993 130 110 103 255
2.976000 1.000000 1.792000 0.999712 0.023993 0.000000 130 110 103 255
-2.595015 1.000000 1.792000 -0.000000 0.967206 0.253993 130 110 103 255
-3.000000 -1.000000 -9.520000 -1.000000 0.000000 0.000000 130 110 103 255
3.000000 -1.000000 9.520000 1.000000 -0.000000 0.000000 130 110 103 255
-3.000000 -1.000000 9.520000 0.000000 0.968968 0.247186 130 110 103 255
3.000000 -1.000000 -9.520000 0.000000 0.968968 -0.247186 130 110 103 255
-2.595015 1.000000 -1.792000 0.000000 0.967206 -0.253993 130 110 103 255
-2.976000 1.000000 1.792000 0.000000 1.000000 0.000000 130 110 103 255
2.595015 1.000000 1.792000 -0.000000 0.967206 0.253993 130 110 103 255
-2.595015 -1.000000 -9.520000 0.000000 0.968968 -0.247186 130 110 103 255
2.595015 1.000000 1.100523 0.000000 1.000000 -0.000000 130 110 103 255
3 0 1 2
3 3 4 5
3 6 7 8
3 9 10 11
3 12 13 14
3 15 16 17
3 18 19 20
3 21 22 23
3 24 25 26
3 27 28 29
3 30 31 32
3 33 34 35
3 36 37 38
3 39 40 41
3 42 43 44
3 45 46 47
3 48 49 50
3 51 52 53
3 54 55 56
3 57 58 59
3 60 61 62
3 0 63 1
3 3 64 4
3 6 65 7
3 9 66 10
3 12 67 13
3 15 68 16
3 18 69 19
3 21 70 22
3 24 71 25
3 27 72 28
3 30 73 31
3 33 74 34
3 36 75 37
3 39 76 40
3 42 77 43
3 45 78 46
3 48 79 49
3 51 80 52
3 54 81 55
3 57 82 58
3 60 83 61
